%FSLAX46Y46*%
G04 Gerber Fmt 4.6, Leading zero omitted, Abs format (unit mm)*
G04 Created by KiCad (PCBNEW (2014-08-10 BZR 5062)-product) date Wed 04 Feb 2015 12:02:51 AM CST*
%MOMM*%
G01*
G04 APERTURE LIST*
%ADD10C,0.150000*%
%ADD11R,1.250000X1.250000*%
%ADD12C,1.250000*%
%ADD13C,1.524000*%
%ADD14R,0.599440X1.399540*%
%ADD15R,0.889000X1.397000*%
%ADD16R,1.397000X0.889000*%
%ADD17R,1.000000X2.500000*%
%ADD18R,2.500000X1.000000*%
%ADD19R,2.540000X2.290000*%
%ADD20R,0.510000X1.780000*%
%ADD21R,0.720000X0.300000*%
%ADD22R,0.300000X0.720000*%
%ADD23C,2.500000*%
%ADD24C,3.200000*%
G04 APERTURE END LIST*
D10*
D11*
X204601400Y-197512200D03*
D12*
X204601400Y-195512200D03*
X204601400Y-193512200D03*
X204601400Y-191512200D03*
X204601400Y-189512200D03*
X204601400Y-187512200D03*
X204601400Y-185512200D03*
X204601400Y-183512200D03*
X204601400Y-181512200D03*
X204601400Y-179512200D03*
X204601400Y-177512200D03*
X204601400Y-175512200D03*
X173401400Y-175512200D03*
X173401400Y-177512200D03*
X173401400Y-179512200D03*
X173401400Y-181512200D03*
X173401400Y-183512200D03*
X173401400Y-185512200D03*
X173401400Y-187512200D03*
X173401400Y-189512200D03*
X173401400Y-191512200D03*
X173401400Y-193512200D03*
X173401400Y-195512200D03*
X173401400Y-197512200D03*
D13*
X193454020Y-202844400D03*
X195453000Y-202844400D03*
X197451980Y-202844400D03*
D14*
X176987200Y-163957000D03*
X176987200Y-158623000D03*
X175717200Y-163957000D03*
X174447200Y-163957000D03*
X173177200Y-163957000D03*
X175717200Y-158623000D03*
X174447200Y-158623000D03*
X173177200Y-158623000D03*
D15*
X175285400Y-154279600D03*
X173380400Y-154279600D03*
D16*
X176364900Y-191528700D03*
X176364900Y-189623700D03*
D15*
X204660500Y-157784800D03*
X202755500Y-157784800D03*
X202755500Y-155752800D03*
X204660500Y-155752800D03*
D16*
X176352200Y-195516500D03*
X176352200Y-193611500D03*
D15*
X175298100Y-156451300D03*
X173393100Y-156451300D03*
X190436500Y-169176700D03*
X192341500Y-169176700D03*
D16*
X180352700Y-153123900D03*
X180352700Y-155028900D03*
D15*
X199250300Y-195516500D03*
X201155300Y-195516500D03*
X199250300Y-193370200D03*
X201155300Y-193370200D03*
D17*
X189760100Y-166338400D03*
X191360100Y-166338400D03*
X192960100Y-166338400D03*
D18*
X192960100Y-164338400D03*
X192960100Y-162738400D03*
X192960100Y-161138400D03*
X192960100Y-159538400D03*
X192960100Y-157938400D03*
X192960100Y-156338400D03*
X192960100Y-154738400D03*
X192960100Y-153138400D03*
X192960100Y-151538400D03*
X192960100Y-149938400D03*
X192960100Y-148338400D03*
X192960100Y-146738400D03*
X192960100Y-145138400D03*
X192960100Y-143538400D03*
D17*
X190360100Y-142788400D03*
X188760100Y-142788400D03*
X187160100Y-142788400D03*
D18*
X183810100Y-143538400D03*
X183810100Y-145138400D03*
X183810100Y-146738400D03*
X183810100Y-148338400D03*
X183810100Y-149938400D03*
X183810100Y-151538400D03*
X183810100Y-153138400D03*
X183810100Y-154738400D03*
X183810100Y-156338400D03*
X183810100Y-157938400D03*
X183810100Y-159538400D03*
X183810100Y-161138400D03*
X183810100Y-162738400D03*
X183810100Y-164338400D03*
D17*
X184460100Y-166338400D03*
X186060100Y-166338400D03*
D19*
X174358300Y-141145800D03*
D20*
X175628300Y-152070800D03*
X174358300Y-152070800D03*
X173088300Y-152070800D03*
D21*
X202208000Y-151476200D03*
X202208000Y-151976200D03*
X202208000Y-152476200D03*
X202208000Y-152976200D03*
X202208000Y-153476200D03*
X205208000Y-153476200D03*
X205208000Y-152976200D03*
X205208000Y-152476200D03*
X205208000Y-151976200D03*
X205208000Y-151476200D03*
D22*
X204208000Y-150976200D03*
X203708000Y-150976200D03*
X203208000Y-150976200D03*
X203208000Y-153976200D03*
X203708000Y-153976200D03*
X204208000Y-153976200D03*
D23*
X182740300Y-194924300D03*
X195440300Y-194924300D03*
D24*
X201280300Y-167754300D03*
X176900300Y-167754300D03*
D16*
X196240400Y-162636200D03*
X196240400Y-164541200D03*
X199720200Y-151460200D03*
X199720200Y-153365200D03*
D15*
X204508100Y-149212300D03*
X202603100Y-149212300D03*
D16*
X202285600Y-183540400D03*
X202285600Y-185445400D03*
M02*
