%FSLAX46Y46*%
G04 Gerber Fmt 4.6, Leading zero omitted, Abs format (unit mm)*
G04 Created by KiCad (PCBNEW (2014-08-10 BZR 5062)-product) date Wed 04 Feb 2015 12:02:51 AM CST*
%MOMM*%
G01*
G04 APERTURE LIST*
%ADD10C,0.150000*%
%ADD11C,0.127000*%
%ADD12C,0.099060*%
%ADD13C,0.152400*%
%ADD14C,0.109220*%
G04 APERTURE END LIST*
D10*
X172051400Y-174312200D02*
X172051400Y-204712200D01*
X205951400Y-204662200D02*
X205951400Y-174312200D01*
X175751400Y-208212200D02*
X202301400Y-208212200D01*
X172051400Y-204712200D02*
G75*
G03X175751400Y-208212200I3600000J100000D01*
G74*
G01*
X202301400Y-208212200D02*
G75*
G03X205951400Y-204662200I50000J3600000D01*
G74*
G01*
X205951400Y-174312200D02*
X172051400Y-174312200D01*
D11*
X177749200Y-159512000D02*
X177749200Y-159385000D01*
X177749200Y-159385000D02*
X172415200Y-159385000D01*
X172415200Y-163195000D02*
X177749200Y-163195000D01*
X177749200Y-163195000D02*
X177749200Y-159512000D01*
X177749200Y-161798000D02*
X177241200Y-161798000D01*
X177241200Y-161798000D02*
X177241200Y-160782000D01*
X177241200Y-160782000D02*
X177749200Y-160782000D01*
X172415200Y-163195000D02*
X172415200Y-159385000D01*
D12*
X176110900Y-153517600D02*
G75*
G03X176110900Y-153517600I-127000J0D01*
G74*
G01*
X174840900Y-153517600D02*
X175856900Y-153517600D01*
X175856900Y-153517600D02*
X175856900Y-155041600D01*
X175856900Y-155041600D02*
X174840900Y-155041600D01*
X173824900Y-155041600D02*
X172808900Y-155041600D01*
X172808900Y-155041600D02*
X172808900Y-153517600D01*
X172808900Y-153517600D02*
X173824900Y-153517600D01*
X177253900Y-192227200D02*
G75*
G03X177253900Y-192227200I-127000J0D01*
G74*
G01*
X177126900Y-191084200D02*
X177126900Y-192100200D01*
X177126900Y-192100200D02*
X175602900Y-192100200D01*
X175602900Y-192100200D02*
X175602900Y-191084200D01*
X175602900Y-190068200D02*
X175602900Y-189052200D01*
X175602900Y-189052200D02*
X177126900Y-189052200D01*
X177126900Y-189052200D02*
X177126900Y-190068200D01*
X205486000Y-157022800D02*
G75*
G03X205486000Y-157022800I-127000J0D01*
G74*
G01*
X204216000Y-157022800D02*
X205232000Y-157022800D01*
X205232000Y-157022800D02*
X205232000Y-158546800D01*
X205232000Y-158546800D02*
X204216000Y-158546800D01*
X203200000Y-158546800D02*
X202184000Y-158546800D01*
X202184000Y-158546800D02*
X202184000Y-157022800D01*
X202184000Y-157022800D02*
X203200000Y-157022800D01*
X202184000Y-156514800D02*
G75*
G03X202184000Y-156514800I-127000J0D01*
G74*
G01*
X203200000Y-156514800D02*
X202184000Y-156514800D01*
X202184000Y-156514800D02*
X202184000Y-154990800D01*
X202184000Y-154990800D02*
X203200000Y-154990800D01*
X204216000Y-154990800D02*
X205232000Y-154990800D01*
X205232000Y-154990800D02*
X205232000Y-156514800D01*
X205232000Y-156514800D02*
X204216000Y-156514800D01*
X177241200Y-196215000D02*
G75*
G03X177241200Y-196215000I-127000J0D01*
G74*
G01*
X177114200Y-195072000D02*
X177114200Y-196088000D01*
X177114200Y-196088000D02*
X175590200Y-196088000D01*
X175590200Y-196088000D02*
X175590200Y-195072000D01*
X175590200Y-194056000D02*
X175590200Y-193040000D01*
X175590200Y-193040000D02*
X177114200Y-193040000D01*
X177114200Y-193040000D02*
X177114200Y-194056000D01*
X176123600Y-155689300D02*
G75*
G03X176123600Y-155689300I-127000J0D01*
G74*
G01*
X174853600Y-155689300D02*
X175869600Y-155689300D01*
X175869600Y-155689300D02*
X175869600Y-157213300D01*
X175869600Y-157213300D02*
X174853600Y-157213300D01*
X173837600Y-157213300D02*
X172821600Y-157213300D01*
X172821600Y-157213300D02*
X172821600Y-155689300D01*
X172821600Y-155689300D02*
X173837600Y-155689300D01*
X189865000Y-169938700D02*
G75*
G03X189865000Y-169938700I-127000J0D01*
G74*
G01*
X190881000Y-169938700D02*
X189865000Y-169938700D01*
X189865000Y-169938700D02*
X189865000Y-168414700D01*
X189865000Y-168414700D02*
X190881000Y-168414700D01*
X191897000Y-168414700D02*
X192913000Y-168414700D01*
X192913000Y-168414700D02*
X192913000Y-169938700D01*
X192913000Y-169938700D02*
X191897000Y-169938700D01*
X179717700Y-152425400D02*
G75*
G03X179717700Y-152425400I-127000J0D01*
G74*
G01*
X179590700Y-153568400D02*
X179590700Y-152552400D01*
X179590700Y-152552400D02*
X181114700Y-152552400D01*
X181114700Y-152552400D02*
X181114700Y-153568400D01*
X181114700Y-154584400D02*
X181114700Y-155600400D01*
X181114700Y-155600400D02*
X179590700Y-155600400D01*
X179590700Y-155600400D02*
X179590700Y-154584400D01*
X198678800Y-196278500D02*
G75*
G03X198678800Y-196278500I-127000J0D01*
G74*
G01*
X199694800Y-196278500D02*
X198678800Y-196278500D01*
X198678800Y-196278500D02*
X198678800Y-194754500D01*
X198678800Y-194754500D02*
X199694800Y-194754500D01*
X200710800Y-194754500D02*
X201726800Y-194754500D01*
X201726800Y-194754500D02*
X201726800Y-196278500D01*
X201726800Y-196278500D02*
X200710800Y-196278500D01*
X198678800Y-194132200D02*
G75*
G03X198678800Y-194132200I-127000J0D01*
G74*
G01*
X199694800Y-194132200D02*
X198678800Y-194132200D01*
X198678800Y-194132200D02*
X198678800Y-192608200D01*
X198678800Y-192608200D02*
X199694800Y-192608200D01*
X200710800Y-192608200D02*
X201726800Y-192608200D01*
X201726800Y-192608200D02*
X201726800Y-194132200D01*
X201726800Y-194132200D02*
X200710800Y-194132200D01*
D10*
X193760100Y-166938400D02*
X183760100Y-166938400D01*
X183760100Y-166938400D02*
X183760100Y-142738400D01*
X183760100Y-142738400D02*
X193760100Y-142738400D01*
X193760100Y-142738400D02*
X193760100Y-166938400D01*
X202208000Y-151476200D02*
X202208000Y-153976200D01*
X202708000Y-150976200D02*
X205208000Y-150976200D01*
X202708000Y-150976200D02*
X202208000Y-151476200D01*
X202369803Y-150976200D02*
G75*
G03X202369803Y-150976200I-111803J0D01*
G74*
G01*
X205208000Y-150976200D02*
X205208000Y-153976200D01*
X205208000Y-153976200D02*
X202208000Y-153976200D01*
D12*
X195605400Y-161937700D02*
G75*
G03X195605400Y-161937700I-127000J0D01*
G74*
G01*
X195478400Y-163080700D02*
X195478400Y-162064700D01*
X195478400Y-162064700D02*
X197002400Y-162064700D01*
X197002400Y-162064700D02*
X197002400Y-163080700D01*
X197002400Y-164096700D02*
X197002400Y-165112700D01*
X197002400Y-165112700D02*
X195478400Y-165112700D01*
X195478400Y-165112700D02*
X195478400Y-164096700D01*
X199085200Y-150761700D02*
G75*
G03X199085200Y-150761700I-127000J0D01*
G74*
G01*
X198958200Y-151904700D02*
X198958200Y-150888700D01*
X198958200Y-150888700D02*
X200482200Y-150888700D01*
X200482200Y-150888700D02*
X200482200Y-151904700D01*
X200482200Y-152920700D02*
X200482200Y-153936700D01*
X200482200Y-153936700D02*
X198958200Y-153936700D01*
X198958200Y-153936700D02*
X198958200Y-152920700D01*
X205333600Y-148450300D02*
G75*
G03X205333600Y-148450300I-127000J0D01*
G74*
G01*
X204063600Y-148450300D02*
X205079600Y-148450300D01*
X205079600Y-148450300D02*
X205079600Y-149974300D01*
X205079600Y-149974300D02*
X204063600Y-149974300D01*
X203047600Y-149974300D02*
X202031600Y-149974300D01*
X202031600Y-149974300D02*
X202031600Y-148450300D01*
X202031600Y-148450300D02*
X203047600Y-148450300D01*
X201650600Y-182841900D02*
G75*
G03X201650600Y-182841900I-127000J0D01*
G74*
G01*
X201523600Y-183984900D02*
X201523600Y-182968900D01*
X201523600Y-182968900D02*
X203047600Y-182968900D01*
X203047600Y-182968900D02*
X203047600Y-183984900D01*
X203047600Y-185000900D02*
X203047600Y-186016900D01*
X203047600Y-186016900D02*
X201523600Y-186016900D01*
X201523600Y-186016900D02*
X201523600Y-185000900D01*
D10*
X188406162Y-175464581D02*
X188072828Y-174988390D01*
X187834733Y-175464581D02*
X187834733Y-174464581D01*
X188215686Y-174464581D01*
X188310924Y-174512200D01*
X188358543Y-174559819D01*
X188406162Y-174655057D01*
X188406162Y-174797914D01*
X188358543Y-174893152D01*
X188310924Y-174940771D01*
X188215686Y-174988390D01*
X187834733Y-174988390D01*
X189168067Y-174940771D02*
X188834733Y-174940771D01*
X188834733Y-175464581D02*
X188834733Y-174464581D01*
X189310924Y-174464581D01*
X190215686Y-175464581D02*
X189644257Y-175464581D01*
X189929971Y-175464581D02*
X189929971Y-174464581D01*
X189834733Y-174607438D01*
X189739495Y-174702676D01*
X189644257Y-174750295D01*
X175139495Y-197059819D02*
X175187114Y-197012200D01*
X175282352Y-196964581D01*
X175520448Y-196964581D01*
X175615686Y-197012200D01*
X175663305Y-197059819D01*
X175710924Y-197155057D01*
X175710924Y-197250295D01*
X175663305Y-197393152D01*
X175091876Y-197964581D01*
X175710924Y-197964581D01*
X176568067Y-197297914D02*
X176568067Y-197964581D01*
X176329971Y-196916962D02*
X176091876Y-197631248D01*
X176710924Y-197631248D01*
X202387115Y-197964581D02*
X201815686Y-197964581D01*
X202101400Y-197964581D02*
X202101400Y-196964581D01*
X202006162Y-197107438D01*
X201910924Y-197202676D01*
X201815686Y-197250295D01*
D13*
X178118951Y-162120217D02*
X179044237Y-162120217D01*
X179153094Y-162065789D01*
X179207523Y-162011360D01*
X179261951Y-161902503D01*
X179261951Y-161684789D01*
X179207523Y-161575931D01*
X179153094Y-161521503D01*
X179044237Y-161467074D01*
X178118951Y-161467074D01*
X178227809Y-160977217D02*
X178173380Y-160922788D01*
X178118951Y-160813931D01*
X178118951Y-160541788D01*
X178173380Y-160432931D01*
X178227809Y-160378502D01*
X178336666Y-160324074D01*
X178445523Y-160324074D01*
X178608809Y-160378502D01*
X179261951Y-161031645D01*
X179261951Y-160324074D01*
D14*
X172487227Y-154352836D02*
X172511055Y-154376664D01*
X172534882Y-154448147D01*
X172534882Y-154495802D01*
X172511055Y-154567285D01*
X172463400Y-154614940D01*
X172415744Y-154638768D01*
X172320434Y-154662596D01*
X172248951Y-154662596D01*
X172153640Y-154638768D01*
X172105985Y-154614940D01*
X172058330Y-154567285D01*
X172034502Y-154495802D01*
X172034502Y-154448147D01*
X172058330Y-154376664D01*
X172082158Y-154352836D01*
X172034502Y-154186043D02*
X172034502Y-153876284D01*
X172225123Y-154043077D01*
X172225123Y-153971595D01*
X172248951Y-153923939D01*
X172272779Y-153900112D01*
X172320434Y-153876284D01*
X172439572Y-153876284D01*
X172487227Y-153900112D01*
X172511055Y-153923939D01*
X172534882Y-153971595D01*
X172534882Y-154114560D01*
X172511055Y-154162216D01*
X172487227Y-154186043D01*
X177958387Y-190659596D02*
X177982215Y-190683424D01*
X178006042Y-190754907D01*
X178006042Y-190802562D01*
X177982215Y-190874045D01*
X177934560Y-190921700D01*
X177886904Y-190945528D01*
X177791594Y-190969356D01*
X177720111Y-190969356D01*
X177624800Y-190945528D01*
X177577145Y-190921700D01*
X177529490Y-190874045D01*
X177505662Y-190802562D01*
X177505662Y-190754907D01*
X177529490Y-190683424D01*
X177553318Y-190659596D01*
X177672456Y-190230699D02*
X178006042Y-190230699D01*
X177481835Y-190349837D02*
X177839249Y-190468976D01*
X177839249Y-190159216D01*
X206098442Y-157863116D02*
X205860166Y-158029910D01*
X206098442Y-158149048D02*
X205598062Y-158149048D01*
X205598062Y-157958427D01*
X205621890Y-157910772D01*
X205645718Y-157886944D01*
X205693373Y-157863116D01*
X205764856Y-157863116D01*
X205812511Y-157886944D01*
X205836339Y-157910772D01*
X205860166Y-157958427D01*
X205860166Y-158149048D01*
X205598062Y-157410392D02*
X205598062Y-157648668D01*
X205836339Y-157672496D01*
X205812511Y-157648668D01*
X205788683Y-157601013D01*
X205788683Y-157481875D01*
X205812511Y-157434219D01*
X205836339Y-157410392D01*
X205883994Y-157386564D01*
X206003132Y-157386564D01*
X206050787Y-157410392D01*
X206074615Y-157434219D01*
X206098442Y-157481875D01*
X206098442Y-157601013D01*
X206074615Y-157648668D01*
X206050787Y-157672496D01*
X206057802Y-155831116D02*
X205819526Y-155997910D01*
X206057802Y-156117048D02*
X205557422Y-156117048D01*
X205557422Y-155926427D01*
X205581250Y-155878772D01*
X205605078Y-155854944D01*
X205652733Y-155831116D01*
X205724216Y-155831116D01*
X205771871Y-155854944D01*
X205795699Y-155878772D01*
X205819526Y-155926427D01*
X205819526Y-156117048D01*
X205724216Y-155402219D02*
X206057802Y-155402219D01*
X205533595Y-155521357D02*
X205891009Y-155640496D01*
X205891009Y-155330736D01*
X177975562Y-194632156D02*
X177737286Y-194798950D01*
X177975562Y-194918088D02*
X177475182Y-194918088D01*
X177475182Y-194727467D01*
X177499010Y-194679812D01*
X177522838Y-194655984D01*
X177570493Y-194632156D01*
X177641976Y-194632156D01*
X177689631Y-194655984D01*
X177713459Y-194679812D01*
X177737286Y-194727467D01*
X177737286Y-194918088D01*
X177475182Y-194465363D02*
X177475182Y-194155604D01*
X177665803Y-194322397D01*
X177665803Y-194250915D01*
X177689631Y-194203259D01*
X177713459Y-194179432D01*
X177761114Y-194155604D01*
X177880252Y-194155604D01*
X177927907Y-194179432D01*
X177951735Y-194203259D01*
X177975562Y-194250915D01*
X177975562Y-194393880D01*
X177951735Y-194441536D01*
X177927907Y-194465363D01*
X172524722Y-156516916D02*
X172286446Y-156683710D01*
X172524722Y-156802848D02*
X172024342Y-156802848D01*
X172024342Y-156612227D01*
X172048170Y-156564572D01*
X172071998Y-156540744D01*
X172119653Y-156516916D01*
X172191136Y-156516916D01*
X172238791Y-156540744D01*
X172262619Y-156564572D01*
X172286446Y-156612227D01*
X172286446Y-156802848D01*
X172024342Y-156088019D02*
X172024342Y-156183330D01*
X172048170Y-156230985D01*
X172071998Y-156254813D01*
X172143480Y-156302468D01*
X172238791Y-156326296D01*
X172429412Y-156326296D01*
X172477067Y-156302468D01*
X172500895Y-156278640D01*
X172524722Y-156230985D01*
X172524722Y-156135675D01*
X172500895Y-156088019D01*
X172477067Y-156064192D01*
X172429412Y-156040364D01*
X172310274Y-156040364D01*
X172262619Y-156064192D01*
X172238791Y-156088019D01*
X172214963Y-156135675D01*
X172214963Y-156230985D01*
X172238791Y-156278640D01*
X172262619Y-156302468D01*
X172310274Y-156326296D01*
X191310684Y-170693987D02*
X191286856Y-170717815D01*
X191215373Y-170741642D01*
X191167718Y-170741642D01*
X191096235Y-170717815D01*
X191048580Y-170670160D01*
X191024752Y-170622504D01*
X191000924Y-170527194D01*
X191000924Y-170455711D01*
X191024752Y-170360400D01*
X191048580Y-170312745D01*
X191096235Y-170265090D01*
X191167718Y-170241262D01*
X191215373Y-170241262D01*
X191286856Y-170265090D01*
X191310684Y-170288918D01*
X191501304Y-170288918D02*
X191525132Y-170265090D01*
X191572787Y-170241262D01*
X191691925Y-170241262D01*
X191739581Y-170265090D01*
X191763408Y-170288918D01*
X191787236Y-170336573D01*
X191787236Y-170384228D01*
X191763408Y-170455711D01*
X191477477Y-170741642D01*
X191787236Y-170741642D01*
X179167427Y-154159796D02*
X179191255Y-154183624D01*
X179215082Y-154255107D01*
X179215082Y-154302762D01*
X179191255Y-154374245D01*
X179143600Y-154421900D01*
X179095944Y-154445728D01*
X179000634Y-154469556D01*
X178929151Y-154469556D01*
X178833840Y-154445728D01*
X178786185Y-154421900D01*
X178738530Y-154374245D01*
X178714702Y-154302762D01*
X178714702Y-154255107D01*
X178738530Y-154183624D01*
X178762358Y-154159796D01*
X179215082Y-153683244D02*
X179215082Y-153969176D01*
X179215082Y-153826210D02*
X178714702Y-153826210D01*
X178786185Y-153873865D01*
X178833840Y-153921520D01*
X178857668Y-153969176D01*
X201120164Y-197086522D02*
X200953370Y-196848246D01*
X200834232Y-197086522D02*
X200834232Y-196586142D01*
X201024853Y-196586142D01*
X201072508Y-196609970D01*
X201096336Y-196633798D01*
X201120164Y-196681453D01*
X201120164Y-196752936D01*
X201096336Y-196800591D01*
X201072508Y-196824419D01*
X201024853Y-196848246D01*
X200834232Y-196848246D01*
X201310784Y-196633798D02*
X201334612Y-196609970D01*
X201382267Y-196586142D01*
X201501405Y-196586142D01*
X201549061Y-196609970D01*
X201572888Y-196633798D01*
X201596716Y-196681453D01*
X201596716Y-196729108D01*
X201572888Y-196800591D01*
X201286957Y-197086522D01*
X201596716Y-197086522D01*
X201165884Y-192296082D02*
X200999090Y-192057806D01*
X200879952Y-192296082D02*
X200879952Y-191795702D01*
X201070573Y-191795702D01*
X201118228Y-191819530D01*
X201142056Y-191843358D01*
X201165884Y-191891013D01*
X201165884Y-191962496D01*
X201142056Y-192010151D01*
X201118228Y-192033979D01*
X201070573Y-192057806D01*
X200879952Y-192057806D01*
X201642436Y-192296082D02*
X201356504Y-192296082D01*
X201499470Y-192296082D02*
X201499470Y-191795702D01*
X201451815Y-191867185D01*
X201404160Y-191914840D01*
X201356504Y-191938668D01*
D10*
X187563903Y-139437371D02*
X187563903Y-140651657D01*
X187635331Y-140794514D01*
X187706760Y-140865943D01*
X187849617Y-140937371D01*
X188135331Y-140937371D01*
X188278189Y-140865943D01*
X188349617Y-140794514D01*
X188421046Y-140651657D01*
X188421046Y-139437371D01*
X189921046Y-140937371D02*
X189063903Y-140937371D01*
X189492475Y-140937371D02*
X189492475Y-139437371D01*
X189349618Y-139651657D01*
X189206760Y-139794514D01*
X189063903Y-139865943D01*
X176404994Y-152378707D02*
X176881185Y-152378707D01*
X176309756Y-152664421D02*
X176643089Y-151664421D01*
X176976423Y-152664421D01*
X177262137Y-151759659D02*
X177309756Y-151712040D01*
X177404994Y-151664421D01*
X177643090Y-151664421D01*
X177738328Y-151712040D01*
X177785947Y-151759659D01*
X177833566Y-151854897D01*
X177833566Y-151950135D01*
X177785947Y-152092992D01*
X177214518Y-152664421D01*
X177833566Y-152664421D01*
X206105214Y-151563367D02*
X206581405Y-151563367D01*
X206009976Y-151849081D02*
X206343309Y-150849081D01*
X206676643Y-151849081D01*
X207533786Y-151849081D02*
X206962357Y-151849081D01*
X207248071Y-151849081D02*
X207248071Y-150849081D01*
X207152833Y-150991938D01*
X207057595Y-151087176D01*
X206962357Y-151134795D01*
D14*
X196157004Y-165776547D02*
X196133176Y-165800375D01*
X196061693Y-165824202D01*
X196014038Y-165824202D01*
X195942555Y-165800375D01*
X195894900Y-165752720D01*
X195871072Y-165705064D01*
X195847244Y-165609754D01*
X195847244Y-165538271D01*
X195871072Y-165442960D01*
X195894900Y-165395305D01*
X195942555Y-165347650D01*
X196014038Y-165323822D01*
X196061693Y-165323822D01*
X196133176Y-165347650D01*
X196157004Y-165371478D01*
X196609728Y-165323822D02*
X196371452Y-165323822D01*
X196347624Y-165562099D01*
X196371452Y-165538271D01*
X196419107Y-165514443D01*
X196538245Y-165514443D01*
X196585901Y-165538271D01*
X196609728Y-165562099D01*
X196633556Y-165609754D01*
X196633556Y-165728892D01*
X196609728Y-165776547D01*
X196585901Y-165800375D01*
X196538245Y-165824202D01*
X196419107Y-165824202D01*
X196371452Y-165800375D01*
X196347624Y-165776547D01*
X198573027Y-152529116D02*
X198596855Y-152552944D01*
X198620682Y-152624427D01*
X198620682Y-152672082D01*
X198596855Y-152743565D01*
X198549200Y-152791220D01*
X198501544Y-152815048D01*
X198406234Y-152838876D01*
X198334751Y-152838876D01*
X198239440Y-152815048D01*
X198191785Y-152791220D01*
X198144130Y-152743565D01*
X198120302Y-152672082D01*
X198120302Y-152624427D01*
X198144130Y-152552944D01*
X198167958Y-152529116D01*
X198120302Y-152100219D02*
X198120302Y-152195530D01*
X198144130Y-152243185D01*
X198167958Y-152267013D01*
X198239440Y-152314668D01*
X198334751Y-152338496D01*
X198525372Y-152338496D01*
X198573027Y-152314668D01*
X198596855Y-152290840D01*
X198620682Y-152243185D01*
X198620682Y-152147875D01*
X198596855Y-152100219D01*
X198573027Y-152076392D01*
X198525372Y-152052564D01*
X198406234Y-152052564D01*
X198358579Y-152076392D01*
X198334751Y-152100219D01*
X198310923Y-152147875D01*
X198310923Y-152243185D01*
X198334751Y-152290840D01*
X198358579Y-152314668D01*
X198406234Y-152338496D01*
X203459504Y-148108307D02*
X203435676Y-148132135D01*
X203364193Y-148155962D01*
X203316538Y-148155962D01*
X203245055Y-148132135D01*
X203197400Y-148084480D01*
X203173572Y-148036824D01*
X203149744Y-147941514D01*
X203149744Y-147870031D01*
X203173572Y-147774720D01*
X203197400Y-147727065D01*
X203245055Y-147679410D01*
X203316538Y-147655582D01*
X203364193Y-147655582D01*
X203435676Y-147679410D01*
X203459504Y-147703238D01*
X203626297Y-147655582D02*
X203959884Y-147655582D01*
X203745435Y-148155962D01*
X202207284Y-182494827D02*
X202183456Y-182518655D01*
X202111973Y-182542482D01*
X202064318Y-182542482D01*
X201992835Y-182518655D01*
X201945180Y-182471000D01*
X201921352Y-182423344D01*
X201897524Y-182328034D01*
X201897524Y-182256551D01*
X201921352Y-182161240D01*
X201945180Y-182113585D01*
X201992835Y-182065930D01*
X202064318Y-182042102D01*
X202111973Y-182042102D01*
X202183456Y-182065930D01*
X202207284Y-182089758D01*
X202493215Y-182256551D02*
X202445560Y-182232723D01*
X202421732Y-182208896D01*
X202397904Y-182161240D01*
X202397904Y-182137413D01*
X202421732Y-182089758D01*
X202445560Y-182065930D01*
X202493215Y-182042102D01*
X202588525Y-182042102D01*
X202636181Y-182065930D01*
X202660008Y-182089758D01*
X202683836Y-182137413D01*
X202683836Y-182161240D01*
X202660008Y-182208896D01*
X202636181Y-182232723D01*
X202588525Y-182256551D01*
X202493215Y-182256551D01*
X202445560Y-182280379D01*
X202421732Y-182304206D01*
X202397904Y-182351861D01*
X202397904Y-182447172D01*
X202421732Y-182494827D01*
X202445560Y-182518655D01*
X202493215Y-182542482D01*
X202588525Y-182542482D01*
X202636181Y-182518655D01*
X202660008Y-182494827D01*
X202683836Y-182447172D01*
X202683836Y-182351861D01*
X202660008Y-182304206D01*
X202636181Y-182280379D01*
X202588525Y-182256551D01*
M02*
