G04 (created by PCBNEW (2013-06-11 BZR 4021)-stable) date Sun 01 Jun 2014 09:44:25 PM CDT*
%MOIN*%
G04 Gerber Fmt 3.4, Leading zero omitted, Abs format*
%FSLAX34Y34*%
G01*
G70*
G90*
G04 APERTURE LIST*
%ADD10C,0.00590551*%
%ADD11R,0.0492126X0.0492126*%
%ADD12C,0.0492126*%
%ADD13C,0.06*%
%ADD14R,0.0236X0.0551*%
%ADD15R,0.035X0.055*%
%ADD16R,0.055X0.035*%
%ADD17R,0.0393701X0.0984252*%
%ADD18R,0.0984252X0.0393701*%
%ADD19R,0.1X0.0901575*%
%ADD20R,0.0200787X0.0700787*%
%ADD21R,0.0283465X0.011811*%
%ADD22R,0.011811X0.0283465*%
%ADD23C,0.0984252*%
%ADD24C,0.125984*%
G04 APERTURE END LIST*
G54D10*
G54D11*
X80551Y-77760D03*
G54D12*
X80551Y-76973D03*
X80551Y-76185D03*
X80551Y-75398D03*
X80551Y-74611D03*
X80551Y-73823D03*
X80551Y-73036D03*
X80551Y-72248D03*
X80551Y-71461D03*
X80551Y-70674D03*
X80551Y-69886D03*
X80551Y-69099D03*
X68268Y-69099D03*
X68268Y-69886D03*
X68268Y-70674D03*
X68268Y-71461D03*
X68268Y-72248D03*
X68268Y-73036D03*
X68268Y-73823D03*
X68268Y-74611D03*
X68268Y-75398D03*
X68268Y-76185D03*
X68268Y-76973D03*
X68268Y-77760D03*
G54D13*
X76163Y-79860D03*
X76950Y-79860D03*
X77737Y-79860D03*
G54D14*
X69680Y-64550D03*
X69680Y-62450D03*
X69180Y-64550D03*
X68680Y-64550D03*
X68180Y-64550D03*
X69180Y-62450D03*
X68680Y-62450D03*
X68180Y-62450D03*
G54D15*
X69010Y-60740D03*
X68260Y-60740D03*
G54D16*
X69435Y-75405D03*
X69435Y-74655D03*
G54D15*
X80575Y-62120D03*
X79825Y-62120D03*
X79825Y-61320D03*
X80575Y-61320D03*
G54D16*
X69430Y-76975D03*
X69430Y-76225D03*
G54D15*
X69015Y-61595D03*
X68265Y-61595D03*
X74975Y-66605D03*
X75725Y-66605D03*
G54D16*
X71005Y-60285D03*
X71005Y-61035D03*
G54D15*
X78445Y-76975D03*
X79195Y-76975D03*
X78445Y-76130D03*
X79195Y-76130D03*
G54D17*
X74708Y-65487D03*
X75338Y-65487D03*
X75968Y-65487D03*
G54D18*
X75968Y-64700D03*
X75968Y-64070D03*
X75968Y-63440D03*
X75968Y-62810D03*
X75968Y-62180D03*
X75968Y-61550D03*
X75968Y-60920D03*
X75968Y-60290D03*
X75968Y-59660D03*
X75968Y-59030D03*
X75968Y-58400D03*
X75968Y-57771D03*
X75968Y-57141D03*
X75968Y-56511D03*
G54D17*
X74944Y-56215D03*
X74315Y-56215D03*
X73685Y-56215D03*
G54D18*
X72366Y-56511D03*
X72366Y-57141D03*
X72366Y-57771D03*
X72366Y-58400D03*
X72366Y-59030D03*
X72366Y-59660D03*
X72366Y-60290D03*
X72366Y-60920D03*
X72366Y-61550D03*
X72366Y-62180D03*
X72366Y-62810D03*
X72366Y-63440D03*
X72366Y-64070D03*
X72366Y-64700D03*
G54D17*
X72622Y-65487D03*
X73252Y-65487D03*
G54D19*
X68645Y-55569D03*
G54D20*
X69145Y-59870D03*
X68645Y-59870D03*
X68145Y-59870D03*
G54D21*
X79609Y-59636D03*
X79609Y-59833D03*
X79609Y-60030D03*
X79609Y-60226D03*
X79609Y-60423D03*
X80790Y-60423D03*
X80790Y-60226D03*
X80790Y-60030D03*
X80790Y-59833D03*
X80790Y-59636D03*
G54D22*
X80396Y-59439D03*
X80200Y-59439D03*
X80003Y-59439D03*
X80003Y-60620D03*
X80200Y-60620D03*
X80396Y-60620D03*
G54D23*
X71945Y-76741D03*
X76945Y-76741D03*
G54D24*
X79244Y-66045D03*
X69645Y-66045D03*
G54D16*
X77260Y-64030D03*
X77260Y-64780D03*
X78630Y-59630D03*
X78630Y-60380D03*
G54D15*
X80515Y-58745D03*
X79765Y-58745D03*
G54D16*
X79640Y-72260D03*
X79640Y-73010D03*
M02*
