%FSLAX46Y46*%
G04 Gerber Fmt 4.6, Leading zero omitted, Abs format (unit mm)*
G04 Created by KiCad (PCBNEW (2014-08-10 BZR 5062)-product) date Wed 04 Feb 2015 12:02:51 AM CST*
%MOMM*%
G01*
G04 APERTURE LIST*
%ADD10C,0.150000*%
%ADD11R,1.250000X1.250000*%
%ADD12C,1.250000*%
%ADD13C,1.524000*%
%ADD14R,0.599440X1.399540*%
%ADD15R,0.889000X1.397000*%
%ADD16R,1.397000X0.889000*%
%ADD17R,1.000000X2.500000*%
%ADD18R,2.500000X1.000000*%
%ADD19R,2.540000X2.290000*%
%ADD20R,0.510000X1.780000*%
%ADD21R,0.720000X0.300000*%
%ADD22R,0.300000X0.720000*%
%ADD23C,2.500000*%
%ADD24C,3.200000*%
%ADD25C,0.889000*%
%ADD26C,0.203200*%
%ADD27C,0.381000*%
%ADD28C,0.349000*%
%ADD29C,0.254000*%
G04 APERTURE END LIST*
D10*
D11*
X204601400Y-197512200D03*
D12*
X204601400Y-195512200D03*
X204601400Y-193512200D03*
X204601400Y-191512200D03*
X204601400Y-189512200D03*
X204601400Y-187512200D03*
X204601400Y-185512200D03*
X204601400Y-183512200D03*
X204601400Y-181512200D03*
X204601400Y-179512200D03*
X204601400Y-177512200D03*
X204601400Y-175512200D03*
X173401400Y-175512200D03*
X173401400Y-177512200D03*
X173401400Y-179512200D03*
X173401400Y-181512200D03*
X173401400Y-183512200D03*
X173401400Y-185512200D03*
X173401400Y-187512200D03*
X173401400Y-189512200D03*
X173401400Y-191512200D03*
X173401400Y-193512200D03*
X173401400Y-195512200D03*
X173401400Y-197512200D03*
D13*
X193454020Y-202844400D03*
X195453000Y-202844400D03*
X197451980Y-202844400D03*
D14*
X176987200Y-163957000D03*
X176987200Y-158623000D03*
X175717200Y-163957000D03*
X174447200Y-163957000D03*
X173177200Y-163957000D03*
X175717200Y-158623000D03*
X174447200Y-158623000D03*
X173177200Y-158623000D03*
D15*
X175285400Y-154279600D03*
X173380400Y-154279600D03*
D16*
X176364900Y-191528700D03*
X176364900Y-189623700D03*
D15*
X204660500Y-157784800D03*
X202755500Y-157784800D03*
X202755500Y-155752800D03*
X204660500Y-155752800D03*
D16*
X176352200Y-195516500D03*
X176352200Y-193611500D03*
D15*
X175298100Y-156451300D03*
X173393100Y-156451300D03*
X190436500Y-169176700D03*
X192341500Y-169176700D03*
D16*
X180352700Y-153123900D03*
X180352700Y-155028900D03*
D15*
X199250300Y-195516500D03*
X201155300Y-195516500D03*
X199250300Y-193370200D03*
X201155300Y-193370200D03*
D17*
X189760100Y-166338400D03*
X191360100Y-166338400D03*
X192960100Y-166338400D03*
D18*
X192960100Y-164338400D03*
X192960100Y-162738400D03*
X192960100Y-161138400D03*
X192960100Y-159538400D03*
X192960100Y-157938400D03*
X192960100Y-156338400D03*
X192960100Y-154738400D03*
X192960100Y-153138400D03*
X192960100Y-151538400D03*
X192960100Y-149938400D03*
X192960100Y-148338400D03*
X192960100Y-146738400D03*
X192960100Y-145138400D03*
X192960100Y-143538400D03*
D17*
X190360100Y-142788400D03*
X188760100Y-142788400D03*
X187160100Y-142788400D03*
D18*
X183810100Y-143538400D03*
X183810100Y-145138400D03*
X183810100Y-146738400D03*
X183810100Y-148338400D03*
X183810100Y-149938400D03*
X183810100Y-151538400D03*
X183810100Y-153138400D03*
X183810100Y-154738400D03*
X183810100Y-156338400D03*
X183810100Y-157938400D03*
X183810100Y-159538400D03*
X183810100Y-161138400D03*
X183810100Y-162738400D03*
X183810100Y-164338400D03*
D17*
X184460100Y-166338400D03*
X186060100Y-166338400D03*
D19*
X174358300Y-141145800D03*
D20*
X175628300Y-152070800D03*
X174358300Y-152070800D03*
X173088300Y-152070800D03*
D21*
X202208000Y-151476200D03*
X202208000Y-151976200D03*
X202208000Y-152476200D03*
X202208000Y-152976200D03*
X202208000Y-153476200D03*
X205208000Y-153476200D03*
X205208000Y-152976200D03*
X205208000Y-152476200D03*
X205208000Y-151976200D03*
X205208000Y-151476200D03*
D22*
X204208000Y-150976200D03*
X203708000Y-150976200D03*
X203208000Y-150976200D03*
X203208000Y-153976200D03*
X203708000Y-153976200D03*
X204208000Y-153976200D03*
D23*
X182740300Y-194924300D03*
X195440300Y-194924300D03*
D24*
X201280300Y-167754300D03*
X176900300Y-167754300D03*
D16*
X196240400Y-162636200D03*
X196240400Y-164541200D03*
X199720200Y-151460200D03*
X199720200Y-153365200D03*
D15*
X204508100Y-149212300D03*
X202603100Y-149212300D03*
D16*
X202285600Y-183540400D03*
X202285600Y-185445400D03*
D25*
X199250300Y-191757300D03*
X176707800Y-154279600D03*
X180365400Y-151777700D03*
X199720200Y-150101300D03*
X205854300Y-149212300D03*
X200660000Y-183540400D03*
X196240400Y-161302700D03*
X201383900Y-156083000D03*
X178447700Y-163944300D03*
X181508400Y-177482500D03*
X197548500Y-193509900D03*
X187833000Y-181495700D03*
X186956700Y-179527200D03*
X175183800Y-199948800D03*
X175183800Y-202869800D03*
X188833760Y-170240960D03*
X194127120Y-170205400D03*
X194243960Y-168706800D03*
X194492880Y-166375080D03*
X188757560Y-164465000D03*
X190799720Y-164388800D03*
X206184500Y-199161400D03*
D26*
X175628300Y-153936700D02*
X175285400Y-154279600D01*
X175628300Y-152070800D02*
X175628300Y-153936700D01*
X180367200Y-153138400D02*
X180352700Y-153123900D01*
X184560100Y-153138400D02*
X180367200Y-153138400D01*
X204208000Y-150976200D02*
X203708000Y-150976200D01*
X204208000Y-149512400D02*
X204508100Y-149212300D01*
X204208000Y-150976200D02*
X204208000Y-149512400D01*
X199736200Y-151476200D02*
X199720200Y-151460200D01*
X202208000Y-151476200D02*
X199736200Y-151476200D01*
X176348400Y-191512200D02*
X176364900Y-191528700D01*
X173401400Y-191512200D02*
X176348400Y-191512200D01*
X193062300Y-162636200D02*
X192960100Y-162738400D01*
X196240400Y-162636200D02*
X193062300Y-162636200D01*
X204573200Y-183540400D02*
X204601400Y-183512200D01*
X202285600Y-183540400D02*
X204573200Y-183540400D01*
D27*
X199250300Y-195516500D02*
X199250300Y-193370200D01*
X199250300Y-193370200D02*
X199250300Y-191757300D01*
X176364900Y-193598800D02*
X176352200Y-193611500D01*
X176364900Y-191528700D02*
X176364900Y-193598800D01*
X175285400Y-154279600D02*
X176707800Y-154279600D01*
X180352700Y-151790400D02*
X180365400Y-151777700D01*
X180352700Y-153123900D02*
X180352700Y-151790400D01*
X199720200Y-151460200D02*
X199720200Y-150101300D01*
X204508100Y-149212300D02*
X205854300Y-149212300D01*
X202285600Y-183540400D02*
X200660000Y-183540400D01*
X196240400Y-162636200D02*
X196240400Y-161302700D01*
X201714100Y-155752800D02*
X201383900Y-156083000D01*
X202755500Y-155752800D02*
X201714100Y-155752800D01*
X178435000Y-163957000D02*
X178447700Y-163944300D01*
X176987200Y-163957000D02*
X178435000Y-163957000D01*
D26*
X176987200Y-158623000D02*
X175717200Y-158623000D01*
X178904900Y-158623000D02*
X181508400Y-161226500D01*
X181508400Y-161226500D02*
X181508400Y-177482500D01*
X176987200Y-158623000D02*
X178904900Y-158623000D01*
X206400400Y-152476200D02*
X206971900Y-153047700D01*
X206971900Y-153047700D02*
X206971900Y-174967900D01*
X206971900Y-174967900D02*
X206427600Y-175512200D01*
X206427600Y-175512200D02*
X204601400Y-175512200D01*
X205208000Y-152476200D02*
X206400400Y-152476200D01*
X201297300Y-193512200D02*
X201155300Y-193370200D01*
X204601400Y-193512200D02*
X201297300Y-193512200D01*
X201544300Y-152976200D02*
X200926700Y-153593800D01*
X200926700Y-153593800D02*
X200926700Y-154127200D01*
X200926700Y-154127200D02*
X199517000Y-155536900D01*
X202208000Y-152976200D02*
X201544300Y-152976200D01*
X197535800Y-189877700D02*
X197535800Y-189903100D01*
X197535800Y-157518100D02*
X197535800Y-189877700D01*
X199517000Y-155536900D02*
X197535800Y-157518100D01*
X197535800Y-193497200D02*
X197548500Y-193509900D01*
X197535800Y-189877700D02*
X197535800Y-193497200D01*
X201159600Y-195512200D02*
X201155300Y-195516500D01*
X204601400Y-195512200D02*
X201159600Y-195512200D01*
X198437500Y-190423800D02*
X198958200Y-190944500D01*
X198958200Y-190944500D02*
X199758300Y-190944500D01*
X199758300Y-190944500D02*
X200202800Y-191389000D01*
X200202800Y-191389000D02*
X200202800Y-195033900D01*
X200202800Y-195033900D02*
X200685400Y-195516500D01*
X200685400Y-195516500D02*
X201155300Y-195516500D01*
X203208000Y-153976200D02*
X202335000Y-153976200D01*
X198437500Y-157873700D02*
X198437500Y-190284100D01*
X202335000Y-153976200D02*
X198437500Y-157873700D01*
X198437500Y-190284100D02*
X198437500Y-190423800D01*
X189596500Y-153138400D02*
X187807600Y-154927300D01*
X187807600Y-171767500D02*
X187807600Y-171805600D01*
X187807600Y-154927300D02*
X187807600Y-171767500D01*
X192960100Y-153138400D02*
X189596500Y-153138400D01*
X187807600Y-181470300D02*
X187833000Y-181495700D01*
X187807600Y-171767500D02*
X187807600Y-181470300D01*
X188719800Y-149938400D02*
X187325000Y-151333200D01*
X187325000Y-170738800D02*
X187325000Y-170776900D01*
X187325000Y-151333200D02*
X187325000Y-170738800D01*
X192960100Y-149938400D02*
X188719800Y-149938400D01*
X187325000Y-179158900D02*
X186956700Y-179527200D01*
X187325000Y-170738800D02*
X187325000Y-179158900D01*
X202187300Y-153476200D02*
X197967600Y-157695900D01*
X197967600Y-157695900D02*
X197967600Y-190436500D01*
X202208000Y-153476200D02*
X202187300Y-153476200D01*
X188757560Y-170164760D02*
X188833760Y-170240960D01*
X194127120Y-170205400D02*
X194243960Y-170088560D01*
X194243960Y-170088560D02*
X194243960Y-168706800D01*
X192960100Y-164338400D02*
X190850120Y-164338400D01*
X190850120Y-164338400D02*
X190799720Y-164388800D01*
X188757560Y-164465000D02*
X188757560Y-170164760D01*
D28*
X189760100Y-168970200D02*
X189966600Y-169176700D01*
X189966600Y-169176700D02*
X190436500Y-169176700D01*
X189760100Y-166338400D02*
X189760100Y-168970200D01*
D26*
X174358300Y-156171900D02*
X174637700Y-156451300D01*
X174739300Y-156451300D02*
X175298100Y-156451300D01*
X174637700Y-156451300D02*
X174739300Y-156451300D01*
X174358300Y-152070800D02*
X174358300Y-156171900D01*
X174447200Y-156743400D02*
X174739300Y-156451300D01*
X174447200Y-158623000D02*
X174447200Y-156743400D01*
X206184500Y-199161400D02*
X206222600Y-199123300D01*
X206222600Y-199123300D02*
X206222600Y-191871600D01*
X206222600Y-191871600D02*
X205863200Y-191512200D01*
X205863200Y-191512200D02*
X204601400Y-191512200D01*
X176347900Y-195512200D02*
X176352200Y-195516500D01*
X173401400Y-195512200D02*
X176347900Y-195512200D01*
X203708000Y-157530800D02*
X203962000Y-157784800D01*
X203962000Y-157784800D02*
X204660500Y-157784800D01*
X203708000Y-153976200D02*
X203708000Y-157530800D01*
D27*
X195440300Y-202831700D02*
X195453000Y-202844400D01*
X195440300Y-194924300D02*
X195440300Y-202831700D01*
D26*
X204208000Y-155300300D02*
X204660500Y-155752800D01*
X204208000Y-153976200D02*
X204208000Y-155300300D01*
D28*
X192960100Y-169091500D02*
X192874900Y-169176700D01*
X192874900Y-169176700D02*
X192341500Y-169176700D01*
X192960100Y-166338400D02*
X192960100Y-169091500D01*
D29*
G36*
X202568000Y-153544400D02*
X202335000Y-153544400D01*
X202169757Y-153577269D01*
X202096526Y-153626200D01*
X202028000Y-153626200D01*
X202028000Y-153551200D01*
X201848000Y-153551200D01*
X201848000Y-153456400D01*
X201913393Y-153456457D01*
X202568000Y-153456457D01*
X202568000Y-153544400D01*
X202568000Y-153544400D01*
G37*
X202568000Y-153544400D02*
X202335000Y-153544400D01*
X202169757Y-153577269D01*
X202096526Y-153626200D01*
X202028000Y-153626200D01*
X202028000Y-153551200D01*
X201848000Y-153551200D01*
X201848000Y-153456400D01*
X201913393Y-153456457D01*
X202568000Y-153456457D01*
X202568000Y-153544400D01*
G36*
X207594200Y-207873600D02*
X207403700Y-207873600D01*
X207403700Y-174967900D01*
X207403700Y-153047700D01*
X207370831Y-152882458D01*
X207370831Y-152882457D01*
X207277229Y-152742371D01*
X206705729Y-152170871D01*
X206629134Y-152119692D01*
X206629134Y-149058879D01*
X206511441Y-148774041D01*
X206293705Y-148555924D01*
X206009073Y-148437735D01*
X205700879Y-148437466D01*
X205416041Y-148555159D01*
X205282857Y-148688110D01*
X205282857Y-148448407D01*
X205232693Y-148327001D01*
X205139887Y-148234033D01*
X205018569Y-148183657D01*
X204887207Y-148183543D01*
X203998207Y-148183543D01*
X203876801Y-148233707D01*
X203783833Y-148326513D01*
X203733457Y-148447831D01*
X203733343Y-148579193D01*
X203733343Y-149976193D01*
X203776200Y-150079914D01*
X203776200Y-150285943D01*
X203492607Y-150285943D01*
X203458000Y-150300242D01*
X203423393Y-150285943D01*
X203377857Y-150285987D01*
X203377857Y-149845407D01*
X203377857Y-148579193D01*
X203377743Y-148447831D01*
X203327367Y-148326513D01*
X203234399Y-148233707D01*
X203112993Y-148183543D01*
X202907900Y-148183600D01*
X202825350Y-148266150D01*
X202825350Y-148863050D01*
X203295250Y-148863050D01*
X203377800Y-148780500D01*
X203377857Y-148579193D01*
X203377857Y-149845407D01*
X203377800Y-149644100D01*
X203295250Y-149561550D01*
X202825350Y-149561550D01*
X202825350Y-150158450D01*
X202907900Y-150241000D01*
X203112993Y-150241057D01*
X203234399Y-150190893D01*
X203327367Y-150098087D01*
X203377743Y-149976769D01*
X203377857Y-149845407D01*
X203377857Y-150285987D01*
X203365550Y-150286000D01*
X203283000Y-150368550D01*
X203283000Y-150424154D01*
X203278233Y-150428913D01*
X203227857Y-150550231D01*
X203227743Y-150681593D01*
X203227743Y-151401593D01*
X203277907Y-151522999D01*
X203283000Y-151528100D01*
X203283000Y-151583850D01*
X203365550Y-151666400D01*
X203423393Y-151666457D01*
X203457934Y-151652184D01*
X203492031Y-151666343D01*
X203623393Y-151666457D01*
X203923393Y-151666457D01*
X203957934Y-151652184D01*
X203992031Y-151666343D01*
X204123393Y-151666457D01*
X204423393Y-151666457D01*
X204517795Y-151627450D01*
X204517743Y-151560807D01*
X204517800Y-151627448D01*
X204517800Y-151984202D01*
X204848000Y-151984202D01*
X204848000Y-151956434D01*
X204945450Y-151956400D01*
X205000650Y-151901200D01*
X205028000Y-151901200D01*
X205028000Y-151873850D01*
X205028000Y-151578550D01*
X205028000Y-151551200D01*
X205000650Y-151551200D01*
X204945450Y-151496000D01*
X204848000Y-151495965D01*
X204848000Y-151401200D01*
X205028000Y-151401200D01*
X205028000Y-151078550D01*
X204945450Y-150996000D01*
X204848000Y-150995965D01*
X204848000Y-150968198D01*
X204688257Y-150968198D01*
X204688257Y-150550807D01*
X204639800Y-150433532D01*
X204639800Y-150241057D01*
X205017993Y-150241057D01*
X205139399Y-150190893D01*
X205232367Y-150098087D01*
X205282743Y-149976769D01*
X205282857Y-149845407D01*
X205282857Y-149736406D01*
X205414895Y-149868676D01*
X205699527Y-149986865D01*
X206007721Y-149987134D01*
X206292559Y-149869441D01*
X206510676Y-149651705D01*
X206628865Y-149367073D01*
X206629134Y-149058879D01*
X206629134Y-152119692D01*
X206565643Y-152077269D01*
X206400400Y-152044400D01*
X205898193Y-152044400D01*
X205898193Y-151818656D01*
X205898143Y-151760231D01*
X205884011Y-151726200D01*
X205898143Y-151692169D01*
X205898193Y-151633743D01*
X205898193Y-151318656D01*
X205898143Y-151260231D01*
X205847767Y-151138913D01*
X205754799Y-151046107D01*
X205633393Y-150995943D01*
X205470550Y-150996000D01*
X205388000Y-151078550D01*
X205388000Y-151401200D01*
X205815650Y-151401200D01*
X205898193Y-151318656D01*
X205898193Y-151633743D01*
X205815650Y-151551200D01*
X205759900Y-151551200D01*
X205754799Y-151546107D01*
X205633393Y-151495943D01*
X205470550Y-151496000D01*
X205415350Y-151551200D01*
X205388000Y-151551200D01*
X205388000Y-151578550D01*
X205388000Y-151873850D01*
X205388000Y-151901200D01*
X205415350Y-151901200D01*
X205470550Y-151956400D01*
X205633393Y-151956457D01*
X205754799Y-151906293D01*
X205759900Y-151901200D01*
X205815650Y-151901200D01*
X205898193Y-151818656D01*
X205898193Y-152044400D01*
X205750391Y-152044400D01*
X205633969Y-151996057D01*
X205502607Y-151995943D01*
X204782607Y-151995943D01*
X204661201Y-152046107D01*
X204656099Y-152051200D01*
X204600350Y-152051200D01*
X204517806Y-152133743D01*
X204517857Y-152192169D01*
X204531988Y-152226200D01*
X204517857Y-152260231D01*
X204517743Y-152391593D01*
X204517743Y-152691593D01*
X204532015Y-152726134D01*
X204517857Y-152760231D01*
X204517806Y-152818656D01*
X204600350Y-152901200D01*
X204655954Y-152901200D01*
X204660713Y-152905967D01*
X204782031Y-152956343D01*
X204913393Y-152956457D01*
X205633393Y-152956457D01*
X205750667Y-152908000D01*
X206221542Y-152908000D01*
X206540100Y-153226558D01*
X206540100Y-174789042D01*
X206248742Y-175080400D01*
X205898257Y-175080400D01*
X205898257Y-153560807D01*
X205898257Y-153260807D01*
X205883984Y-153226265D01*
X205898143Y-153192169D01*
X205898193Y-153133743D01*
X205815650Y-153051200D01*
X205760045Y-153051200D01*
X205755287Y-153046433D01*
X205633969Y-152996057D01*
X205502607Y-152995943D01*
X204782607Y-152995943D01*
X204661201Y-153046107D01*
X204656099Y-153051200D01*
X204600350Y-153051200D01*
X204517806Y-153133743D01*
X204517857Y-153192169D01*
X204531988Y-153226200D01*
X204517857Y-153260231D01*
X204517800Y-153325019D01*
X204423969Y-153286057D01*
X204292607Y-153285943D01*
X203992607Y-153285943D01*
X203958065Y-153300215D01*
X203923969Y-153286057D01*
X203792607Y-153285943D01*
X203492607Y-153285943D01*
X203458065Y-153300215D01*
X203423969Y-153286057D01*
X203292607Y-153285943D01*
X202992607Y-153285943D01*
X202898204Y-153324949D01*
X202898257Y-153391593D01*
X202898200Y-153326100D01*
X202898200Y-153126488D01*
X202898257Y-153060807D01*
X202898257Y-152760807D01*
X202883984Y-152726265D01*
X202898143Y-152692169D01*
X202898257Y-152560807D01*
X202898257Y-152260807D01*
X202883984Y-152226265D01*
X202898143Y-152192169D01*
X202898257Y-152060807D01*
X202898257Y-151760807D01*
X202883984Y-151726265D01*
X202898143Y-151692169D01*
X202898199Y-151627448D01*
X202992607Y-151666457D01*
X203050450Y-151666400D01*
X203133000Y-151583850D01*
X203133000Y-151156200D01*
X203133000Y-150796200D01*
X203133000Y-150368550D01*
X203050450Y-150286000D01*
X202992607Y-150285943D01*
X202871201Y-150336107D01*
X202778233Y-150428913D01*
X202727857Y-150550231D01*
X202727743Y-150681593D01*
X202727800Y-150713650D01*
X202810350Y-150796200D01*
X203133000Y-150796200D01*
X203133000Y-151156200D01*
X202855034Y-151156200D01*
X202848093Y-151139401D01*
X202755287Y-151046433D01*
X202633969Y-150996057D01*
X202502607Y-150995943D01*
X202380850Y-150995943D01*
X202380850Y-150158450D01*
X202380850Y-149561550D01*
X202380850Y-148863050D01*
X202380850Y-148266150D01*
X202298300Y-148183600D01*
X202093207Y-148183543D01*
X201971801Y-148233707D01*
X201878833Y-148326513D01*
X201828457Y-148447831D01*
X201828343Y-148579193D01*
X201828400Y-148780500D01*
X201910950Y-148863050D01*
X202380850Y-148863050D01*
X202380850Y-149561550D01*
X201910950Y-149561550D01*
X201828400Y-149644100D01*
X201828343Y-149845407D01*
X201828457Y-149976769D01*
X201878833Y-150098087D01*
X201971801Y-150190893D01*
X202093207Y-150241057D01*
X202298300Y-150241000D01*
X202380850Y-150158450D01*
X202380850Y-150995943D01*
X201782607Y-150995943D01*
X201665332Y-151044400D01*
X200748957Y-151044400D01*
X200748957Y-150950307D01*
X200698793Y-150828901D01*
X200605987Y-150735933D01*
X200484669Y-150685557D01*
X200353307Y-150685443D01*
X200240900Y-150685443D01*
X200240900Y-150676144D01*
X200376576Y-150540705D01*
X200494765Y-150256073D01*
X200495034Y-149947879D01*
X200377341Y-149663041D01*
X200159605Y-149444924D01*
X199874973Y-149326735D01*
X199566779Y-149326466D01*
X199281941Y-149444159D01*
X199063824Y-149661895D01*
X198945635Y-149946527D01*
X198945366Y-150254721D01*
X199063059Y-150539559D01*
X199199500Y-150676238D01*
X199199500Y-150685443D01*
X198956307Y-150685443D01*
X198834901Y-150735607D01*
X198741933Y-150828413D01*
X198691557Y-150949731D01*
X198691443Y-151081093D01*
X198691443Y-151970093D01*
X198741607Y-152091499D01*
X198834413Y-152184467D01*
X198955731Y-152234843D01*
X199087093Y-152234957D01*
X200484093Y-152234957D01*
X200605499Y-152184793D01*
X200698467Y-152091987D01*
X200748843Y-151970669D01*
X200748897Y-151908000D01*
X201517743Y-151908000D01*
X201517743Y-152191593D01*
X201532015Y-152226134D01*
X201517857Y-152260231D01*
X201517743Y-152391593D01*
X201517743Y-152549682D01*
X201379057Y-152577269D01*
X201238971Y-152670871D01*
X201238968Y-152670874D01*
X200748957Y-153160885D01*
X200748900Y-153160942D01*
X200748900Y-153060400D01*
X200748957Y-152855307D01*
X200698793Y-152733901D01*
X200605987Y-152640933D01*
X200484669Y-152590557D01*
X200353307Y-152590443D01*
X200152000Y-152590500D01*
X200069450Y-152673050D01*
X200069450Y-153142950D01*
X200248200Y-153142950D01*
X200248200Y-153587450D01*
X200069450Y-153587450D01*
X200069450Y-154057350D01*
X200152000Y-154139900D01*
X200303299Y-154139942D01*
X199370950Y-155072291D01*
X199370950Y-154057350D01*
X199370950Y-153587450D01*
X199370950Y-153142950D01*
X199370950Y-152673050D01*
X199288400Y-152590500D01*
X199087093Y-152590443D01*
X198955731Y-152590557D01*
X198834413Y-152640933D01*
X198741607Y-152733901D01*
X198691443Y-152855307D01*
X198691500Y-153060400D01*
X198774050Y-153142950D01*
X199370950Y-153142950D01*
X199370950Y-153587450D01*
X198774050Y-153587450D01*
X198691500Y-153670000D01*
X198691443Y-153875093D01*
X198741607Y-153996499D01*
X198834413Y-154089467D01*
X198955731Y-154139843D01*
X199087093Y-154139957D01*
X199288400Y-154139900D01*
X199370950Y-154057350D01*
X199370950Y-155072291D01*
X199211671Y-155231571D01*
X199211668Y-155231574D01*
X197230471Y-157212771D01*
X197136869Y-157352857D01*
X197104000Y-157518100D01*
X197104000Y-161902720D01*
X197004869Y-161861557D01*
X196873507Y-161861443D01*
X196777229Y-161861443D01*
X196896776Y-161742105D01*
X197014965Y-161457473D01*
X197015234Y-161149279D01*
X196897541Y-160864441D01*
X196679805Y-160646324D01*
X196395173Y-160528135D01*
X196086979Y-160527866D01*
X195802141Y-160645559D01*
X195584024Y-160863295D01*
X195465835Y-161147927D01*
X195465566Y-161456121D01*
X195583259Y-161740959D01*
X195703532Y-161861443D01*
X195476507Y-161861443D01*
X195355101Y-161911607D01*
X195262133Y-162004413D01*
X195211757Y-162125731D01*
X195211688Y-162204400D01*
X194540357Y-162204400D01*
X194540357Y-162173007D01*
X194490193Y-162051601D01*
X194397387Y-161958633D01*
X194348690Y-161938412D01*
X194396899Y-161918493D01*
X194489867Y-161825687D01*
X194540243Y-161704369D01*
X194540357Y-161573007D01*
X194540357Y-160573007D01*
X194490193Y-160451601D01*
X194397387Y-160358633D01*
X194348690Y-160338412D01*
X194396899Y-160318493D01*
X194489867Y-160225687D01*
X194540243Y-160104369D01*
X194540357Y-159973007D01*
X194540357Y-158973007D01*
X194490193Y-158851601D01*
X194397387Y-158758633D01*
X194348690Y-158738412D01*
X194396899Y-158718493D01*
X194489867Y-158625687D01*
X194540243Y-158504369D01*
X194540357Y-158373007D01*
X194540357Y-157373007D01*
X194490193Y-157251601D01*
X194397387Y-157158633D01*
X194348690Y-157138412D01*
X194396899Y-157118493D01*
X194489867Y-157025687D01*
X194540243Y-156904369D01*
X194540357Y-156773007D01*
X194540357Y-155773007D01*
X194490193Y-155651601D01*
X194397387Y-155558633D01*
X194348690Y-155538412D01*
X194396899Y-155518493D01*
X194489867Y-155425687D01*
X194540243Y-155304369D01*
X194540357Y-155173007D01*
X194540357Y-154173007D01*
X194490193Y-154051601D01*
X194397387Y-153958633D01*
X194348690Y-153938412D01*
X194396899Y-153918493D01*
X194489867Y-153825687D01*
X194540243Y-153704369D01*
X194540357Y-153573007D01*
X194540357Y-152573007D01*
X194490193Y-152451601D01*
X194397387Y-152358633D01*
X194348690Y-152338412D01*
X194396899Y-152318493D01*
X194489867Y-152225687D01*
X194540243Y-152104369D01*
X194540357Y-151973007D01*
X194540300Y-151870950D01*
X194457750Y-151788400D01*
X193468100Y-151788400D01*
X193468100Y-152038400D01*
X192452100Y-152038400D01*
X192452100Y-151788400D01*
X191462450Y-151788400D01*
X191379900Y-151870950D01*
X191379843Y-151973007D01*
X191379957Y-152104369D01*
X191430333Y-152225687D01*
X191523301Y-152318493D01*
X191571479Y-152338400D01*
X191523301Y-152358307D01*
X191430333Y-152451113D01*
X191379957Y-152572431D01*
X191379843Y-152703793D01*
X191379843Y-152706600D01*
X189596500Y-152706600D01*
X189431257Y-152739469D01*
X189291171Y-152833071D01*
X189291168Y-152833074D01*
X187756800Y-154367442D01*
X187756800Y-151512058D01*
X188898658Y-150370200D01*
X191379843Y-150370200D01*
X191379843Y-150503793D01*
X191430007Y-150625199D01*
X191522813Y-150718167D01*
X191571509Y-150738387D01*
X191523301Y-150758307D01*
X191430333Y-150851113D01*
X191379957Y-150972431D01*
X191379843Y-151103793D01*
X191379900Y-151205850D01*
X191462450Y-151288400D01*
X192452100Y-151288400D01*
X192452100Y-151038400D01*
X193468100Y-151038400D01*
X193468100Y-151288400D01*
X194457750Y-151288400D01*
X194540300Y-151205850D01*
X194540357Y-151103793D01*
X194540243Y-150972431D01*
X194489867Y-150851113D01*
X194396899Y-150758307D01*
X194348720Y-150738400D01*
X194396899Y-150718493D01*
X194489867Y-150625687D01*
X194540243Y-150504369D01*
X194540357Y-150373007D01*
X194540357Y-149373007D01*
X194490193Y-149251601D01*
X194397387Y-149158633D01*
X194348690Y-149138412D01*
X194396899Y-149118493D01*
X194489867Y-149025687D01*
X194540243Y-148904369D01*
X194540357Y-148773007D01*
X194540357Y-147903793D01*
X194540243Y-147772431D01*
X194489867Y-147651113D01*
X194396899Y-147558307D01*
X194348720Y-147538400D01*
X194396899Y-147518493D01*
X194489867Y-147425687D01*
X194540243Y-147304369D01*
X194540357Y-147173007D01*
X194540357Y-146173007D01*
X194490193Y-146051601D01*
X194397387Y-145958633D01*
X194348690Y-145938412D01*
X194396899Y-145918493D01*
X194489867Y-145825687D01*
X194540243Y-145704369D01*
X194540357Y-145573007D01*
X194540357Y-144573007D01*
X194490193Y-144451601D01*
X194397387Y-144358633D01*
X194348690Y-144338412D01*
X194396899Y-144318493D01*
X194489867Y-144225687D01*
X194540243Y-144104369D01*
X194540357Y-143973007D01*
X194540357Y-143103793D01*
X194540243Y-142972431D01*
X194489867Y-142851113D01*
X194396899Y-142758307D01*
X194275493Y-142708143D01*
X193550650Y-142708200D01*
X193468100Y-142790750D01*
X193468100Y-143288400D01*
X194457750Y-143288400D01*
X194540300Y-143205850D01*
X194540357Y-143103793D01*
X194540357Y-143973007D01*
X194540300Y-143870950D01*
X194457750Y-143788400D01*
X193468100Y-143788400D01*
X193468100Y-144038400D01*
X192452100Y-144038400D01*
X192452100Y-143788400D01*
X192452100Y-143288400D01*
X192452100Y-142790750D01*
X192369550Y-142708200D01*
X191644707Y-142708143D01*
X191523301Y-142758307D01*
X191430333Y-142851113D01*
X191379957Y-142972431D01*
X191379843Y-143103793D01*
X191379900Y-143205850D01*
X191462450Y-143288400D01*
X192452100Y-143288400D01*
X192452100Y-143788400D01*
X191462450Y-143788400D01*
X191379900Y-143870950D01*
X191379843Y-143973007D01*
X191379957Y-144104369D01*
X191430333Y-144225687D01*
X191523301Y-144318493D01*
X191571479Y-144338400D01*
X191523301Y-144358307D01*
X191430333Y-144451113D01*
X191379957Y-144572431D01*
X191379843Y-144703793D01*
X191379843Y-145703793D01*
X191430007Y-145825199D01*
X191522813Y-145918167D01*
X191571509Y-145938387D01*
X191523301Y-145958307D01*
X191430333Y-146051113D01*
X191379957Y-146172431D01*
X191379843Y-146303793D01*
X191379843Y-147303793D01*
X191430007Y-147425199D01*
X191522813Y-147518167D01*
X191571509Y-147538387D01*
X191523301Y-147558307D01*
X191430333Y-147651113D01*
X191379957Y-147772431D01*
X191379843Y-147903793D01*
X191379900Y-148005850D01*
X191462450Y-148088400D01*
X192452100Y-148088400D01*
X192452100Y-147838400D01*
X193468100Y-147838400D01*
X193468100Y-148088400D01*
X194457750Y-148088400D01*
X194540300Y-148005850D01*
X194540357Y-147903793D01*
X194540357Y-148773007D01*
X194540300Y-148670950D01*
X194457750Y-148588400D01*
X193468100Y-148588400D01*
X193468100Y-148838400D01*
X192452100Y-148838400D01*
X192452100Y-148588400D01*
X191462450Y-148588400D01*
X191379900Y-148670950D01*
X191379843Y-148773007D01*
X191379957Y-148904369D01*
X191430333Y-149025687D01*
X191523301Y-149118493D01*
X191571479Y-149138400D01*
X191523301Y-149158307D01*
X191430333Y-149251113D01*
X191379957Y-149372431D01*
X191379843Y-149503793D01*
X191379843Y-149506600D01*
X191190357Y-149506600D01*
X191190357Y-143973007D01*
X191190357Y-141473007D01*
X191140193Y-141351601D01*
X191047387Y-141258633D01*
X190926069Y-141208257D01*
X190794707Y-141208143D01*
X189794707Y-141208143D01*
X189673301Y-141258307D01*
X189580333Y-141351113D01*
X189560112Y-141399809D01*
X189540193Y-141351601D01*
X189447387Y-141258633D01*
X189326069Y-141208257D01*
X189194707Y-141208143D01*
X188194707Y-141208143D01*
X188073301Y-141258307D01*
X187980333Y-141351113D01*
X187960112Y-141399809D01*
X187940193Y-141351601D01*
X187847387Y-141258633D01*
X187726069Y-141208257D01*
X187594707Y-141208143D01*
X186594707Y-141208143D01*
X186473301Y-141258307D01*
X186380333Y-141351113D01*
X186329957Y-141472431D01*
X186329843Y-141603793D01*
X186329843Y-144103793D01*
X186380007Y-144225199D01*
X186472813Y-144318167D01*
X186594131Y-144368543D01*
X186725493Y-144368657D01*
X187725493Y-144368657D01*
X187846899Y-144318493D01*
X187939867Y-144225687D01*
X187960087Y-144176990D01*
X187980007Y-144225199D01*
X188072813Y-144318167D01*
X188194131Y-144368543D01*
X188325493Y-144368657D01*
X189325493Y-144368657D01*
X189446899Y-144318493D01*
X189539867Y-144225687D01*
X189560087Y-144176990D01*
X189580007Y-144225199D01*
X189672813Y-144318167D01*
X189794131Y-144368543D01*
X189925493Y-144368657D01*
X190925493Y-144368657D01*
X191046899Y-144318493D01*
X191139867Y-144225687D01*
X191190243Y-144104369D01*
X191190357Y-143973007D01*
X191190357Y-149506600D01*
X188719800Y-149506600D01*
X188554557Y-149539469D01*
X188414471Y-149633071D01*
X187019671Y-151027871D01*
X186926069Y-151167957D01*
X186893200Y-151333200D01*
X186893200Y-170738800D01*
X186893200Y-170776900D01*
X186893200Y-178752444D01*
X186890357Y-178752441D01*
X186890357Y-167523007D01*
X186890357Y-165153793D01*
X186890243Y-165022431D01*
X186839867Y-164901113D01*
X186746899Y-164808307D01*
X186625493Y-164758143D01*
X186392650Y-164758200D01*
X186310100Y-164840750D01*
X186310100Y-165830400D01*
X186807750Y-165830400D01*
X186890300Y-165747850D01*
X186890357Y-165153793D01*
X186890357Y-167523007D01*
X186890300Y-166928950D01*
X186807750Y-166846400D01*
X186310100Y-166846400D01*
X186310100Y-167836050D01*
X186392650Y-167918600D01*
X186625493Y-167918657D01*
X186746899Y-167868493D01*
X186839867Y-167775687D01*
X186890243Y-167654369D01*
X186890357Y-167523007D01*
X186890357Y-178752441D01*
X186803279Y-178752366D01*
X186518441Y-178870059D01*
X186300324Y-179087795D01*
X186182135Y-179372427D01*
X186181866Y-179680621D01*
X186299559Y-179965459D01*
X186517295Y-180183576D01*
X186801927Y-180301765D01*
X187110121Y-180302034D01*
X187375800Y-180192257D01*
X187375800Y-180857466D01*
X187176624Y-181056295D01*
X187058435Y-181340927D01*
X187058166Y-181649121D01*
X187175859Y-181933959D01*
X187393595Y-182152076D01*
X187678227Y-182270265D01*
X187986421Y-182270534D01*
X188271259Y-182152841D01*
X188489376Y-181935105D01*
X188607565Y-181650473D01*
X188607834Y-181342279D01*
X188490141Y-181057441D01*
X188272405Y-180839324D01*
X188239400Y-180825619D01*
X188239400Y-171805600D01*
X188239400Y-171767500D01*
X188239400Y-155106157D01*
X189775357Y-153570200D01*
X191379843Y-153570200D01*
X191379843Y-153703793D01*
X191430007Y-153825199D01*
X191522813Y-153918167D01*
X191571509Y-153938387D01*
X191523301Y-153958307D01*
X191430333Y-154051113D01*
X191379957Y-154172431D01*
X191379843Y-154303793D01*
X191379843Y-155303793D01*
X191430007Y-155425199D01*
X191522813Y-155518167D01*
X191571509Y-155538387D01*
X191523301Y-155558307D01*
X191430333Y-155651113D01*
X191379957Y-155772431D01*
X191379843Y-155903793D01*
X191379843Y-156903793D01*
X191430007Y-157025199D01*
X191522813Y-157118167D01*
X191571509Y-157138387D01*
X191523301Y-157158307D01*
X191430333Y-157251113D01*
X191379957Y-157372431D01*
X191379843Y-157503793D01*
X191379843Y-158503793D01*
X191430007Y-158625199D01*
X191522813Y-158718167D01*
X191571509Y-158738387D01*
X191523301Y-158758307D01*
X191430333Y-158851113D01*
X191379957Y-158972431D01*
X191379843Y-159103793D01*
X191379843Y-160103793D01*
X191430007Y-160225199D01*
X191522813Y-160318167D01*
X191571509Y-160338387D01*
X191523301Y-160358307D01*
X191430333Y-160451113D01*
X191379957Y-160572431D01*
X191379843Y-160703793D01*
X191379843Y-161703793D01*
X191430007Y-161825199D01*
X191522813Y-161918167D01*
X191571509Y-161938387D01*
X191523301Y-161958307D01*
X191430333Y-162051113D01*
X191379957Y-162172431D01*
X191379843Y-162303793D01*
X191379843Y-163303793D01*
X191430007Y-163425199D01*
X191522813Y-163518167D01*
X191571509Y-163538387D01*
X191523301Y-163558307D01*
X191430333Y-163651113D01*
X191379957Y-163772431D01*
X191379843Y-163903793D01*
X191379900Y-164005850D01*
X191462450Y-164088400D01*
X192452100Y-164088400D01*
X192452100Y-163838400D01*
X193468100Y-163838400D01*
X193468100Y-164088400D01*
X194457750Y-164088400D01*
X194540300Y-164005850D01*
X194540357Y-163903793D01*
X194540243Y-163772431D01*
X194489867Y-163651113D01*
X194396899Y-163558307D01*
X194348720Y-163538400D01*
X194396899Y-163518493D01*
X194489867Y-163425687D01*
X194540243Y-163304369D01*
X194540357Y-163173007D01*
X194540357Y-163068000D01*
X195211643Y-163068000D01*
X195211643Y-163146093D01*
X195261807Y-163267499D01*
X195354613Y-163360467D01*
X195475931Y-163410843D01*
X195607293Y-163410957D01*
X197004293Y-163410957D01*
X197104000Y-163369758D01*
X197104000Y-163807720D01*
X197004869Y-163766557D01*
X196873507Y-163766443D01*
X196672200Y-163766500D01*
X196589650Y-163849050D01*
X196589650Y-164318950D01*
X196768400Y-164318950D01*
X196768400Y-164763450D01*
X196589650Y-164763450D01*
X196589650Y-165233350D01*
X196672200Y-165315900D01*
X196873507Y-165315957D01*
X197004869Y-165315843D01*
X197104000Y-165274679D01*
X197104000Y-189877700D01*
X197104000Y-189903100D01*
X197104000Y-192858989D01*
X196892124Y-193070495D01*
X196773935Y-193355127D01*
X196773666Y-193663321D01*
X196891359Y-193948159D01*
X197109095Y-194166276D01*
X197393727Y-194284465D01*
X197701921Y-194284734D01*
X197986759Y-194167041D01*
X198204876Y-193949305D01*
X198323065Y-193664673D01*
X198323334Y-193356479D01*
X198205641Y-193071641D01*
X197987905Y-192853524D01*
X197967600Y-192845092D01*
X197967600Y-189903100D01*
X197967600Y-189877700D01*
X197967600Y-157696957D01*
X199822325Y-155842231D01*
X199822328Y-155842229D01*
X199822329Y-155842229D01*
X201232025Y-154432531D01*
X201232028Y-154432529D01*
X201232029Y-154432529D01*
X201325631Y-154292443D01*
X201358500Y-154127201D01*
X201358499Y-154127200D01*
X201358500Y-154127200D01*
X201358500Y-153772657D01*
X201517784Y-153613373D01*
X201517743Y-153560807D01*
X201517788Y-153613368D01*
X201517800Y-153613356D01*
X201517800Y-153984202D01*
X201716339Y-153984202D01*
X198132171Y-157568371D01*
X198038569Y-157708457D01*
X198005700Y-157873700D01*
X198005700Y-190284100D01*
X198005700Y-190423800D01*
X198038569Y-190589043D01*
X198132171Y-190729129D01*
X198652871Y-191249829D01*
X198658404Y-191253526D01*
X198593924Y-191317895D01*
X198475735Y-191602527D01*
X198475466Y-191910721D01*
X198593159Y-192195559D01*
X198729600Y-192332238D01*
X198729600Y-192345908D01*
X198619001Y-192391607D01*
X198526033Y-192484413D01*
X198475657Y-192605731D01*
X198475543Y-192737093D01*
X198475543Y-194134093D01*
X198525707Y-194255499D01*
X198618513Y-194348467D01*
X198729600Y-194394594D01*
X198729600Y-194492208D01*
X198619001Y-194537907D01*
X198526033Y-194630713D01*
X198475657Y-194752031D01*
X198475543Y-194883393D01*
X198475543Y-196280393D01*
X198525707Y-196401799D01*
X198618513Y-196494767D01*
X198739831Y-196545143D01*
X198871193Y-196545257D01*
X199760193Y-196545257D01*
X199881599Y-196495093D01*
X199974567Y-196402287D01*
X200024943Y-196280969D01*
X200025057Y-196149607D01*
X200025057Y-195466814D01*
X200380068Y-195821825D01*
X200380071Y-195821829D01*
X200380543Y-195822144D01*
X200380543Y-196280393D01*
X200430707Y-196401799D01*
X200523513Y-196494767D01*
X200644831Y-196545143D01*
X200776193Y-196545257D01*
X201665193Y-196545257D01*
X201786599Y-196495093D01*
X201879567Y-196402287D01*
X201929943Y-196280969D01*
X201930057Y-196149607D01*
X201930057Y-195944000D01*
X203746288Y-195944000D01*
X203791149Y-196052570D01*
X204059616Y-196321507D01*
X204410566Y-196467233D01*
X204790567Y-196467565D01*
X205141770Y-196322451D01*
X205410707Y-196053984D01*
X205556433Y-195703034D01*
X205556765Y-195323033D01*
X205411651Y-194971830D01*
X205143184Y-194702893D01*
X204792234Y-194557167D01*
X204412233Y-194556835D01*
X204061030Y-194701949D01*
X203792093Y-194970416D01*
X203746424Y-195080400D01*
X201930057Y-195080400D01*
X201930057Y-194752607D01*
X201879893Y-194631201D01*
X201787087Y-194538233D01*
X201665769Y-194487857D01*
X201534407Y-194487743D01*
X200645407Y-194487743D01*
X200634600Y-194492208D01*
X200634600Y-194394594D01*
X200644831Y-194398843D01*
X200776193Y-194398957D01*
X201665193Y-194398957D01*
X201786599Y-194348793D01*
X201879567Y-194255987D01*
X201929943Y-194134669D01*
X201930057Y-194003307D01*
X201930057Y-193944000D01*
X203746288Y-193944000D01*
X203791149Y-194052570D01*
X204059616Y-194321507D01*
X204410566Y-194467233D01*
X204790567Y-194467565D01*
X205141770Y-194322451D01*
X205410707Y-194053984D01*
X205556433Y-193703034D01*
X205556765Y-193323033D01*
X205411651Y-192971830D01*
X205143184Y-192702893D01*
X204792234Y-192557167D01*
X204412233Y-192556835D01*
X204061030Y-192701949D01*
X203792093Y-192970416D01*
X203746424Y-193080400D01*
X203314357Y-193080400D01*
X203314357Y-185955293D01*
X203314357Y-184935507D01*
X203264193Y-184814101D01*
X203171387Y-184721133D01*
X203050069Y-184670757D01*
X202918707Y-184670643D01*
X202717400Y-184670700D01*
X202634850Y-184753250D01*
X202634850Y-185223150D01*
X203231750Y-185223150D01*
X203314300Y-185140600D01*
X203314357Y-184935507D01*
X203314357Y-185955293D01*
X203314300Y-185750200D01*
X203231750Y-185667650D01*
X202634850Y-185667650D01*
X202634850Y-186137550D01*
X202717400Y-186220100D01*
X202918707Y-186220157D01*
X203050069Y-186220043D01*
X203171387Y-186169667D01*
X203264193Y-186076699D01*
X203314357Y-185955293D01*
X203314357Y-193080400D01*
X201936350Y-193080400D01*
X201936350Y-186137550D01*
X201936350Y-185667650D01*
X201936350Y-185223150D01*
X201936350Y-184753250D01*
X201853800Y-184670700D01*
X201652493Y-184670643D01*
X201521131Y-184670757D01*
X201399813Y-184721133D01*
X201307007Y-184814101D01*
X201256843Y-184935507D01*
X201256900Y-185140600D01*
X201339450Y-185223150D01*
X201936350Y-185223150D01*
X201936350Y-185667650D01*
X201339450Y-185667650D01*
X201256900Y-185750200D01*
X201256843Y-185955293D01*
X201307007Y-186076699D01*
X201399813Y-186169667D01*
X201521131Y-186220043D01*
X201652493Y-186220157D01*
X201853800Y-186220100D01*
X201936350Y-186137550D01*
X201936350Y-193080400D01*
X201930057Y-193080400D01*
X201930057Y-192606307D01*
X201879893Y-192484901D01*
X201787087Y-192391933D01*
X201665769Y-192341557D01*
X201534407Y-192341443D01*
X200645407Y-192341443D01*
X200634600Y-192345908D01*
X200634600Y-191389000D01*
X200634599Y-191388999D01*
X200634600Y-191388999D01*
X200601731Y-191223757D01*
X200508129Y-191083671D01*
X200508125Y-191083668D01*
X200063629Y-190639171D01*
X199923543Y-190545569D01*
X199758300Y-190512700D01*
X199137058Y-190512700D01*
X198869300Y-190244942D01*
X198869300Y-158052557D01*
X200631395Y-156290462D01*
X200726759Y-156521259D01*
X200944495Y-156739376D01*
X201229127Y-156857565D01*
X201537321Y-156857834D01*
X201822159Y-156740141D01*
X201999798Y-156562811D01*
X202030907Y-156638099D01*
X202123713Y-156731067D01*
X202214657Y-156768830D01*
X202124201Y-156806207D01*
X202031233Y-156899013D01*
X201980857Y-157020331D01*
X201980743Y-157151693D01*
X201980800Y-157353000D01*
X202063350Y-157435550D01*
X202533250Y-157435550D01*
X202533250Y-157256800D01*
X202977750Y-157256800D01*
X202977750Y-157435550D01*
X203200000Y-157435550D01*
X203200000Y-158134050D01*
X202977750Y-158134050D01*
X202977750Y-158730950D01*
X203060300Y-158813500D01*
X203265393Y-158813557D01*
X203386799Y-158763393D01*
X203479767Y-158670587D01*
X203530143Y-158549269D01*
X203530257Y-158417907D01*
X203530200Y-158216600D01*
X203530200Y-157963658D01*
X203656671Y-158090129D01*
X203796757Y-158183731D01*
X203885743Y-158201431D01*
X203885743Y-158548693D01*
X203935907Y-158670099D01*
X204028713Y-158763067D01*
X204150031Y-158813443D01*
X204281393Y-158813557D01*
X205170393Y-158813557D01*
X205291799Y-158763393D01*
X205384767Y-158670587D01*
X205435143Y-158549269D01*
X205435257Y-158417907D01*
X205435257Y-157020907D01*
X205385093Y-156899501D01*
X205292287Y-156806533D01*
X205201342Y-156768769D01*
X205291799Y-156731393D01*
X205384767Y-156638587D01*
X205435143Y-156517269D01*
X205435257Y-156385907D01*
X205435257Y-154988907D01*
X205385093Y-154867501D01*
X205292287Y-154774533D01*
X205170969Y-154724157D01*
X205039607Y-154724043D01*
X204639800Y-154724043D01*
X204639800Y-154518591D01*
X204688143Y-154402169D01*
X204688257Y-154270807D01*
X204688257Y-153917404D01*
X204782031Y-153956343D01*
X204913393Y-153956457D01*
X205633393Y-153956457D01*
X205754799Y-153906293D01*
X205847767Y-153813487D01*
X205898143Y-153692169D01*
X205898257Y-153560807D01*
X205898257Y-175080400D01*
X205456511Y-175080400D01*
X205411651Y-174971830D01*
X205143184Y-174702893D01*
X204792234Y-174557167D01*
X204412233Y-174556835D01*
X204061030Y-174701949D01*
X203792093Y-174970416D01*
X203646367Y-175321366D01*
X203646035Y-175701367D01*
X203791149Y-176052570D01*
X204059616Y-176321507D01*
X204410566Y-176467233D01*
X204790567Y-176467565D01*
X205141770Y-176322451D01*
X205410707Y-176053984D01*
X205456375Y-175944000D01*
X206427600Y-175944000D01*
X206592842Y-175911131D01*
X206592843Y-175911131D01*
X206732929Y-175817529D01*
X207277225Y-175273231D01*
X207277228Y-175273229D01*
X207277229Y-175273229D01*
X207370831Y-175133143D01*
X207403700Y-174967900D01*
X207403700Y-207873600D01*
X206959334Y-207873600D01*
X206959334Y-199007979D01*
X206841641Y-198723141D01*
X206654400Y-198535572D01*
X206654400Y-191871600D01*
X206621531Y-191706357D01*
X206527929Y-191566271D01*
X206527925Y-191566268D01*
X206168529Y-191206871D01*
X206028443Y-191113269D01*
X205863200Y-191080400D01*
X205556765Y-191080400D01*
X205556765Y-189323033D01*
X205556765Y-187323033D01*
X205556765Y-185323033D01*
X205556765Y-183323033D01*
X205556765Y-181323033D01*
X205556765Y-179323033D01*
X205556765Y-177323033D01*
X205411651Y-176971830D01*
X205143184Y-176702893D01*
X204792234Y-176557167D01*
X204412233Y-176556835D01*
X204061030Y-176701949D01*
X203792093Y-176970416D01*
X203646367Y-177321366D01*
X203646035Y-177701367D01*
X203791149Y-178052570D01*
X204059616Y-178321507D01*
X204410566Y-178467233D01*
X204790567Y-178467565D01*
X205141770Y-178322451D01*
X205410707Y-178053984D01*
X205556433Y-177703034D01*
X205556765Y-177323033D01*
X205556765Y-179323033D01*
X205411651Y-178971830D01*
X205143184Y-178702893D01*
X204792234Y-178557167D01*
X204412233Y-178556835D01*
X204061030Y-178701949D01*
X203792093Y-178970416D01*
X203646367Y-179321366D01*
X203646035Y-179701367D01*
X203791149Y-180052570D01*
X204059616Y-180321507D01*
X204410566Y-180467233D01*
X204790567Y-180467565D01*
X205141770Y-180322451D01*
X205410707Y-180053984D01*
X205556433Y-179703034D01*
X205556765Y-179323033D01*
X205556765Y-181323033D01*
X205411651Y-180971830D01*
X205143184Y-180702893D01*
X204792234Y-180557167D01*
X204412233Y-180556835D01*
X204061030Y-180701949D01*
X203792093Y-180970416D01*
X203646367Y-181321366D01*
X203646035Y-181701367D01*
X203791149Y-182052570D01*
X204059616Y-182321507D01*
X204410566Y-182467233D01*
X204790567Y-182467565D01*
X205141770Y-182322451D01*
X205410707Y-182053984D01*
X205556433Y-181703034D01*
X205556765Y-181323033D01*
X205556765Y-183323033D01*
X205411651Y-182971830D01*
X205143184Y-182702893D01*
X204792234Y-182557167D01*
X204412233Y-182556835D01*
X204061030Y-182701949D01*
X203792093Y-182970416D01*
X203734714Y-183108600D01*
X203530257Y-183108600D01*
X203314357Y-183108600D01*
X203314357Y-183030507D01*
X203264193Y-182909101D01*
X203210833Y-182855647D01*
X203210833Y-167372044D01*
X202917597Y-166662358D01*
X202533250Y-166277339D01*
X202533250Y-158730950D01*
X202533250Y-158134050D01*
X202063350Y-158134050D01*
X201980800Y-158216600D01*
X201980743Y-158417907D01*
X201980857Y-158549269D01*
X202031233Y-158670587D01*
X202124201Y-158763393D01*
X202245607Y-158813557D01*
X202450700Y-158813500D01*
X202533250Y-158730950D01*
X202533250Y-166277339D01*
X202375098Y-166118911D01*
X201665925Y-165824437D01*
X200898044Y-165823767D01*
X200188358Y-166117003D01*
X199644911Y-166659502D01*
X199350437Y-167368675D01*
X199349767Y-168136556D01*
X199643003Y-168846242D01*
X200185502Y-169389689D01*
X200894675Y-169684163D01*
X201662556Y-169684833D01*
X202372242Y-169391597D01*
X202915689Y-168849098D01*
X203210163Y-168139925D01*
X203210833Y-167372044D01*
X203210833Y-182855647D01*
X203171387Y-182816133D01*
X203050069Y-182765757D01*
X202918707Y-182765643D01*
X201521707Y-182765643D01*
X201400301Y-182815807D01*
X201307333Y-182908613D01*
X201261205Y-183019700D01*
X201234844Y-183019700D01*
X201099405Y-182884024D01*
X200814773Y-182765835D01*
X200506579Y-182765566D01*
X200221741Y-182883259D01*
X200003624Y-183100995D01*
X199885435Y-183385627D01*
X199885166Y-183693821D01*
X200002859Y-183978659D01*
X200220595Y-184196776D01*
X200505227Y-184314965D01*
X200813421Y-184315234D01*
X201098259Y-184197541D01*
X201234938Y-184061100D01*
X201261308Y-184061100D01*
X201307007Y-184171699D01*
X201399813Y-184264667D01*
X201521131Y-184315043D01*
X201652493Y-184315157D01*
X203049493Y-184315157D01*
X203170899Y-184264993D01*
X203263867Y-184172187D01*
X203314243Y-184050869D01*
X203314311Y-183972200D01*
X203757940Y-183972200D01*
X203791149Y-184052570D01*
X204059616Y-184321507D01*
X204410566Y-184467233D01*
X204790567Y-184467565D01*
X205141770Y-184322451D01*
X205410707Y-184053984D01*
X205556433Y-183703034D01*
X205556765Y-183323033D01*
X205556765Y-185323033D01*
X205411651Y-184971830D01*
X205143184Y-184702893D01*
X204792234Y-184557167D01*
X204412233Y-184556835D01*
X204061030Y-184701949D01*
X203792093Y-184970416D01*
X203646367Y-185321366D01*
X203646035Y-185701367D01*
X203791149Y-186052570D01*
X204059616Y-186321507D01*
X204410566Y-186467233D01*
X204790567Y-186467565D01*
X205141770Y-186322451D01*
X205410707Y-186053984D01*
X205556433Y-185703034D01*
X205556765Y-185323033D01*
X205556765Y-187323033D01*
X205411651Y-186971830D01*
X205143184Y-186702893D01*
X204792234Y-186557167D01*
X204412233Y-186556835D01*
X204061030Y-186701949D01*
X203792093Y-186970416D01*
X203646367Y-187321366D01*
X203646035Y-187701367D01*
X203791149Y-188052570D01*
X204059616Y-188321507D01*
X204410566Y-188467233D01*
X204790567Y-188467565D01*
X205141770Y-188322451D01*
X205410707Y-188053984D01*
X205556433Y-187703034D01*
X205556765Y-187323033D01*
X205556765Y-189323033D01*
X205411651Y-188971830D01*
X205143184Y-188702893D01*
X204792234Y-188557167D01*
X204412233Y-188556835D01*
X204061030Y-188701949D01*
X203792093Y-188970416D01*
X203646367Y-189321366D01*
X203646035Y-189701367D01*
X203791149Y-190052570D01*
X204059616Y-190321507D01*
X204410566Y-190467233D01*
X204790567Y-190467565D01*
X205141770Y-190322451D01*
X205410707Y-190053984D01*
X205556433Y-189703034D01*
X205556765Y-189323033D01*
X205556765Y-191080400D01*
X205456511Y-191080400D01*
X205411651Y-190971830D01*
X205143184Y-190702893D01*
X204792234Y-190557167D01*
X204412233Y-190556835D01*
X204061030Y-190701949D01*
X203792093Y-190970416D01*
X203646367Y-191321366D01*
X203646035Y-191701367D01*
X203791149Y-192052570D01*
X204059616Y-192321507D01*
X204410566Y-192467233D01*
X204790567Y-192467565D01*
X205141770Y-192322451D01*
X205410707Y-192053984D01*
X205456375Y-191944000D01*
X205684342Y-191944000D01*
X205790800Y-192050457D01*
X205790800Y-198485847D01*
X205746241Y-198504259D01*
X205556657Y-198693511D01*
X205556657Y-198071807D01*
X205556657Y-196952593D01*
X205556543Y-196821231D01*
X205506167Y-196699913D01*
X205413199Y-196607107D01*
X205291793Y-196556943D01*
X204996450Y-196557000D01*
X204913900Y-196639550D01*
X204913900Y-197199700D01*
X205474050Y-197199700D01*
X205556600Y-197117150D01*
X205556657Y-196952593D01*
X205556657Y-198071807D01*
X205556600Y-197907250D01*
X205474050Y-197824700D01*
X204913900Y-197824700D01*
X204913900Y-198384850D01*
X204996450Y-198467400D01*
X205291793Y-198467457D01*
X205413199Y-198417293D01*
X205506167Y-198324487D01*
X205556543Y-198203169D01*
X205556657Y-198071807D01*
X205556657Y-198693511D01*
X205528124Y-198721995D01*
X205409935Y-199006627D01*
X205409666Y-199314821D01*
X205527359Y-199599659D01*
X205745095Y-199817776D01*
X206029727Y-199935965D01*
X206337921Y-199936234D01*
X206622759Y-199818541D01*
X206840876Y-199600805D01*
X206959065Y-199316173D01*
X206959334Y-199007979D01*
X206959334Y-207873600D01*
X204288900Y-207873600D01*
X204288900Y-198384850D01*
X204288900Y-197824700D01*
X204288900Y-197199700D01*
X204288900Y-196639550D01*
X204206350Y-196557000D01*
X203911007Y-196556943D01*
X203789601Y-196607107D01*
X203696633Y-196699913D01*
X203646257Y-196821231D01*
X203646143Y-196952593D01*
X203646200Y-197117150D01*
X203728750Y-197199700D01*
X204288900Y-197199700D01*
X204288900Y-197824700D01*
X203728750Y-197824700D01*
X203646200Y-197907250D01*
X203646143Y-198071807D01*
X203646257Y-198203169D01*
X203696633Y-198324487D01*
X203789601Y-198417293D01*
X203911007Y-198467457D01*
X204206350Y-198467400D01*
X204288900Y-198384850D01*
X204288900Y-207873600D01*
X198544369Y-207873600D01*
X198544369Y-202628101D01*
X198378442Y-202226527D01*
X198071469Y-201919018D01*
X197670185Y-201752390D01*
X197235681Y-201752011D01*
X196834107Y-201917938D01*
X196526598Y-202224911D01*
X196452513Y-202403325D01*
X196379462Y-202226527D01*
X196072489Y-201919018D01*
X195961000Y-201872723D01*
X195961000Y-196418929D01*
X196334241Y-196264709D01*
X196779146Y-195820580D01*
X197020224Y-195240000D01*
X197020773Y-194611358D01*
X196780709Y-194030359D01*
X196336580Y-193585454D01*
X195891150Y-193400495D01*
X195891150Y-165233350D01*
X195891150Y-164763450D01*
X195891150Y-164318950D01*
X195891150Y-163849050D01*
X195808600Y-163766500D01*
X195607293Y-163766443D01*
X195475931Y-163766557D01*
X195354613Y-163816933D01*
X195261807Y-163909901D01*
X195211643Y-164031307D01*
X195211700Y-164236400D01*
X195294250Y-164318950D01*
X195891150Y-164318950D01*
X195891150Y-164763450D01*
X195294250Y-164763450D01*
X195211700Y-164846000D01*
X195211643Y-165051093D01*
X195261807Y-165172499D01*
X195354613Y-165265467D01*
X195475931Y-165315843D01*
X195607293Y-165315957D01*
X195808600Y-165315900D01*
X195891150Y-165233350D01*
X195891150Y-193400495D01*
X195756000Y-193344376D01*
X195127358Y-193343827D01*
X194546359Y-193583891D01*
X194540357Y-193589882D01*
X194540357Y-164773007D01*
X194540300Y-164670950D01*
X194457750Y-164588400D01*
X193468100Y-164588400D01*
X193468100Y-164707406D01*
X193384647Y-164707334D01*
X192452100Y-164707334D01*
X192452100Y-164588400D01*
X191462450Y-164588400D01*
X191379900Y-164670950D01*
X191379843Y-164773007D01*
X191379957Y-164904369D01*
X191430333Y-165025687D01*
X191523301Y-165118493D01*
X191610100Y-165154357D01*
X191610100Y-165830400D01*
X191860100Y-165830400D01*
X191860100Y-166846400D01*
X191610100Y-166846400D01*
X191610100Y-167836050D01*
X191692650Y-167918600D01*
X191925493Y-167918657D01*
X192046899Y-167868493D01*
X192129513Y-167786022D01*
X192136916Y-167803937D01*
X192243999Y-167911208D01*
X192383982Y-167969334D01*
X192404600Y-167969351D01*
X192404600Y-168097134D01*
X191821547Y-168097134D01*
X191681463Y-168155016D01*
X191574192Y-168262099D01*
X191516066Y-168402082D01*
X191515934Y-168553653D01*
X191515934Y-169950653D01*
X191573816Y-170090737D01*
X191680899Y-170198008D01*
X191820882Y-170256134D01*
X191972453Y-170256266D01*
X192861453Y-170256266D01*
X193001537Y-170198384D01*
X193108808Y-170091301D01*
X193166934Y-169951318D01*
X193167066Y-169799747D01*
X193167066Y-169636738D01*
X193167066Y-169636737D01*
X193267698Y-169569498D01*
X193352897Y-169484299D01*
X193352897Y-169484298D01*
X193352898Y-169484298D01*
X193473315Y-169304081D01*
X193515600Y-169091501D01*
X193515599Y-169091500D01*
X193515600Y-169091500D01*
X193515600Y-167969466D01*
X193535553Y-167969466D01*
X193675637Y-167911584D01*
X193782908Y-167804501D01*
X193841034Y-167664518D01*
X193841166Y-167512947D01*
X193841166Y-165168622D01*
X194275493Y-165168657D01*
X194396899Y-165118493D01*
X194489867Y-165025687D01*
X194540243Y-164904369D01*
X194540357Y-164773007D01*
X194540357Y-193589882D01*
X194101454Y-194028020D01*
X193860376Y-194608600D01*
X193859827Y-195237242D01*
X194099891Y-195818241D01*
X194544020Y-196263146D01*
X194919600Y-196419100D01*
X194919600Y-201883034D01*
X194835127Y-201917938D01*
X194527618Y-202224911D01*
X194453533Y-202403325D01*
X194380482Y-202226527D01*
X194073509Y-201919018D01*
X193672225Y-201752390D01*
X193237721Y-201752011D01*
X192836147Y-201917938D01*
X192528638Y-202224911D01*
X192362010Y-202626195D01*
X192361631Y-203060699D01*
X192527558Y-203462273D01*
X192834531Y-203769782D01*
X193235815Y-203936410D01*
X193670319Y-203936789D01*
X194071893Y-203770862D01*
X194379402Y-203463889D01*
X194453486Y-203285474D01*
X194526538Y-203462273D01*
X194833511Y-203769782D01*
X195234795Y-203936410D01*
X195669299Y-203936789D01*
X196070873Y-203770862D01*
X196378382Y-203463889D01*
X196452466Y-203285474D01*
X196525518Y-203462273D01*
X196832491Y-203769782D01*
X197233775Y-203936410D01*
X197668279Y-203936789D01*
X198069853Y-203770862D01*
X198377362Y-203463889D01*
X198543990Y-203062605D01*
X198544369Y-202628101D01*
X198544369Y-207873600D01*
X191262066Y-207873600D01*
X191262066Y-169799747D01*
X191262066Y-168402747D01*
X191204184Y-168262663D01*
X191097101Y-168155392D01*
X190957118Y-168097266D01*
X190805547Y-168097134D01*
X190315600Y-168097134D01*
X190315600Y-167969466D01*
X190335553Y-167969466D01*
X190475637Y-167911584D01*
X190582908Y-167804501D01*
X190590611Y-167785947D01*
X190673301Y-167868493D01*
X190794707Y-167918657D01*
X191027550Y-167918600D01*
X191110100Y-167836050D01*
X191110100Y-166846400D01*
X190860100Y-166846400D01*
X190860100Y-165830400D01*
X191110100Y-165830400D01*
X191110100Y-164840750D01*
X191027550Y-164758200D01*
X190794707Y-164758143D01*
X190673301Y-164808307D01*
X190590686Y-164890777D01*
X190583284Y-164872863D01*
X190476201Y-164765592D01*
X190336218Y-164707466D01*
X190184647Y-164707334D01*
X189184647Y-164707334D01*
X189044563Y-164765216D01*
X188937292Y-164872299D01*
X188879166Y-165012282D01*
X188879034Y-165163853D01*
X188879034Y-167663853D01*
X188936916Y-167803937D01*
X189043999Y-167911208D01*
X189183982Y-167969334D01*
X189204600Y-167969351D01*
X189204600Y-168970200D01*
X189246885Y-169182781D01*
X189367302Y-169362998D01*
X189573802Y-169569498D01*
X189610934Y-169594308D01*
X189610934Y-169950653D01*
X189668816Y-170090737D01*
X189775899Y-170198008D01*
X189915882Y-170256134D01*
X190067453Y-170256266D01*
X190956453Y-170256266D01*
X191096537Y-170198384D01*
X191203808Y-170091301D01*
X191261934Y-169951318D01*
X191262066Y-169799747D01*
X191262066Y-207873600D01*
X185810100Y-207873600D01*
X185810100Y-167836050D01*
X185810100Y-166846400D01*
X185810100Y-165830400D01*
X185810100Y-164840750D01*
X185727550Y-164758200D01*
X185494707Y-164758143D01*
X185390332Y-164801269D01*
X185390357Y-164773007D01*
X185390357Y-163903793D01*
X185390243Y-163772431D01*
X185339867Y-163651113D01*
X185246899Y-163558307D01*
X185198720Y-163538400D01*
X185246899Y-163518493D01*
X185339867Y-163425687D01*
X185390243Y-163304369D01*
X185390357Y-163173007D01*
X185390357Y-162303793D01*
X185390243Y-162172431D01*
X185339867Y-162051113D01*
X185246899Y-161958307D01*
X185198720Y-161938400D01*
X185246899Y-161918493D01*
X185339867Y-161825687D01*
X185390243Y-161704369D01*
X185390357Y-161573007D01*
X185390357Y-160573007D01*
X185340193Y-160451601D01*
X185247387Y-160358633D01*
X185198690Y-160338412D01*
X185246899Y-160318493D01*
X185339867Y-160225687D01*
X185390243Y-160104369D01*
X185390357Y-159973007D01*
X185390357Y-158973007D01*
X185340193Y-158851601D01*
X185247387Y-158758633D01*
X185198690Y-158738412D01*
X185246899Y-158718493D01*
X185339867Y-158625687D01*
X185390243Y-158504369D01*
X185390357Y-158373007D01*
X185390357Y-157373007D01*
X185340193Y-157251601D01*
X185247387Y-157158633D01*
X185198690Y-157138412D01*
X185246899Y-157118493D01*
X185339867Y-157025687D01*
X185390243Y-156904369D01*
X185390357Y-156773007D01*
X185390357Y-155773007D01*
X185340193Y-155651601D01*
X185247387Y-155558633D01*
X185198690Y-155538412D01*
X185246899Y-155518493D01*
X185339867Y-155425687D01*
X185390243Y-155304369D01*
X185390357Y-155173007D01*
X185390357Y-154303793D01*
X185390243Y-154172431D01*
X185339867Y-154051113D01*
X185246899Y-153958307D01*
X185198720Y-153938400D01*
X185246899Y-153918493D01*
X185339867Y-153825687D01*
X185390243Y-153704369D01*
X185390357Y-153573007D01*
X185390357Y-152573007D01*
X185340193Y-152451601D01*
X185247387Y-152358633D01*
X185198690Y-152338412D01*
X185246899Y-152318493D01*
X185339867Y-152225687D01*
X185390243Y-152104369D01*
X185390357Y-151973007D01*
X185390357Y-151103793D01*
X185390243Y-150972431D01*
X185339867Y-150851113D01*
X185246899Y-150758307D01*
X185198720Y-150738400D01*
X185246899Y-150718493D01*
X185339867Y-150625687D01*
X185390243Y-150504369D01*
X185390357Y-150373007D01*
X185390357Y-149373007D01*
X185340193Y-149251601D01*
X185247387Y-149158633D01*
X185198690Y-149138412D01*
X185246899Y-149118493D01*
X185339867Y-149025687D01*
X185390243Y-148904369D01*
X185390357Y-148773007D01*
X185390357Y-147903793D01*
X185390243Y-147772431D01*
X185339867Y-147651113D01*
X185246899Y-147558307D01*
X185198720Y-147538400D01*
X185246899Y-147518493D01*
X185339867Y-147425687D01*
X185390243Y-147304369D01*
X185390357Y-147173007D01*
X185390357Y-146173007D01*
X185340193Y-146051601D01*
X185247387Y-145958633D01*
X185198690Y-145938412D01*
X185246899Y-145918493D01*
X185339867Y-145825687D01*
X185390243Y-145704369D01*
X185390357Y-145573007D01*
X185390357Y-144573007D01*
X185340193Y-144451601D01*
X185247387Y-144358633D01*
X185198690Y-144338412D01*
X185246899Y-144318493D01*
X185339867Y-144225687D01*
X185390243Y-144104369D01*
X185390357Y-143973007D01*
X185390357Y-143103793D01*
X185390243Y-142972431D01*
X185339867Y-142851113D01*
X185246899Y-142758307D01*
X185125493Y-142708143D01*
X184400650Y-142708200D01*
X184318100Y-142790750D01*
X184318100Y-143288400D01*
X185307750Y-143288400D01*
X185390300Y-143205850D01*
X185390357Y-143103793D01*
X185390357Y-143973007D01*
X185390300Y-143870950D01*
X185307750Y-143788400D01*
X184318100Y-143788400D01*
X184318100Y-144038400D01*
X183302100Y-144038400D01*
X183302100Y-143788400D01*
X183302100Y-143288400D01*
X183302100Y-142790750D01*
X183219550Y-142708200D01*
X182494707Y-142708143D01*
X182373301Y-142758307D01*
X182280333Y-142851113D01*
X182229957Y-142972431D01*
X182229843Y-143103793D01*
X182229900Y-143205850D01*
X182312450Y-143288400D01*
X183302100Y-143288400D01*
X183302100Y-143788400D01*
X182312450Y-143788400D01*
X182229900Y-143870950D01*
X182229843Y-143973007D01*
X182229957Y-144104369D01*
X182280333Y-144225687D01*
X182373301Y-144318493D01*
X182421479Y-144338400D01*
X182373301Y-144358307D01*
X182280333Y-144451113D01*
X182229957Y-144572431D01*
X182229843Y-144703793D01*
X182229843Y-145703793D01*
X182280007Y-145825199D01*
X182372813Y-145918167D01*
X182421509Y-145938387D01*
X182373301Y-145958307D01*
X182280333Y-146051113D01*
X182229957Y-146172431D01*
X182229843Y-146303793D01*
X182229843Y-147303793D01*
X182280007Y-147425199D01*
X182372813Y-147518167D01*
X182421509Y-147538387D01*
X182373301Y-147558307D01*
X182280333Y-147651113D01*
X182229957Y-147772431D01*
X182229843Y-147903793D01*
X182229900Y-148005850D01*
X182312450Y-148088400D01*
X183302100Y-148088400D01*
X183302100Y-147838400D01*
X184318100Y-147838400D01*
X184318100Y-148088400D01*
X185307750Y-148088400D01*
X185390300Y-148005850D01*
X185390357Y-147903793D01*
X185390357Y-148773007D01*
X185390300Y-148670950D01*
X185307750Y-148588400D01*
X184318100Y-148588400D01*
X184318100Y-148838400D01*
X183302100Y-148838400D01*
X183302100Y-148588400D01*
X182312450Y-148588400D01*
X182229900Y-148670950D01*
X182229843Y-148773007D01*
X182229957Y-148904369D01*
X182280333Y-149025687D01*
X182373301Y-149118493D01*
X182421479Y-149138400D01*
X182373301Y-149158307D01*
X182280333Y-149251113D01*
X182229957Y-149372431D01*
X182229843Y-149503793D01*
X182229843Y-150503793D01*
X182280007Y-150625199D01*
X182372813Y-150718167D01*
X182421509Y-150738387D01*
X182373301Y-150758307D01*
X182280333Y-150851113D01*
X182229957Y-150972431D01*
X182229843Y-151103793D01*
X182229900Y-151205850D01*
X182312450Y-151288400D01*
X183302100Y-151288400D01*
X183302100Y-151038400D01*
X184318100Y-151038400D01*
X184318100Y-151288400D01*
X185307750Y-151288400D01*
X185390300Y-151205850D01*
X185390357Y-151103793D01*
X185390357Y-151973007D01*
X185390300Y-151870950D01*
X185307750Y-151788400D01*
X184318100Y-151788400D01*
X184318100Y-152038400D01*
X183302100Y-152038400D01*
X183302100Y-151788400D01*
X182312450Y-151788400D01*
X182229900Y-151870950D01*
X182229843Y-151973007D01*
X182229957Y-152104369D01*
X182280333Y-152225687D01*
X182373301Y-152318493D01*
X182421479Y-152338400D01*
X182373301Y-152358307D01*
X182280333Y-152451113D01*
X182229957Y-152572431D01*
X182229843Y-152703793D01*
X182229843Y-152706600D01*
X181381457Y-152706600D01*
X181381457Y-152614007D01*
X181331293Y-152492601D01*
X181238487Y-152399633D01*
X181117169Y-152349257D01*
X180985807Y-152349143D01*
X180889506Y-152349143D01*
X181021776Y-152217105D01*
X181139965Y-151932473D01*
X181140234Y-151624279D01*
X181022541Y-151339441D01*
X180804805Y-151121324D01*
X180520173Y-151003135D01*
X180211979Y-151002866D01*
X179927141Y-151120559D01*
X179709024Y-151338295D01*
X179590835Y-151622927D01*
X179590566Y-151931121D01*
X179708259Y-152215959D01*
X179832000Y-152339916D01*
X179832000Y-152349143D01*
X179588807Y-152349143D01*
X179467401Y-152399307D01*
X179374433Y-152492113D01*
X179324057Y-152613431D01*
X179323943Y-152744793D01*
X179323943Y-153633793D01*
X179374107Y-153755199D01*
X179466913Y-153848167D01*
X179588231Y-153898543D01*
X179719593Y-153898657D01*
X181116593Y-153898657D01*
X181237999Y-153848493D01*
X181330967Y-153755687D01*
X181381343Y-153634369D01*
X181381398Y-153570200D01*
X182229843Y-153570200D01*
X182229843Y-153703793D01*
X182280007Y-153825199D01*
X182372813Y-153918167D01*
X182421509Y-153938387D01*
X182373301Y-153958307D01*
X182280333Y-154051113D01*
X182229957Y-154172431D01*
X182229843Y-154303793D01*
X182229900Y-154405850D01*
X182312450Y-154488400D01*
X183302100Y-154488400D01*
X183302100Y-154238400D01*
X184318100Y-154238400D01*
X184318100Y-154488400D01*
X185307750Y-154488400D01*
X185390300Y-154405850D01*
X185390357Y-154303793D01*
X185390357Y-155173007D01*
X185390300Y-155070950D01*
X185307750Y-154988400D01*
X184318100Y-154988400D01*
X184318100Y-155238400D01*
X183302100Y-155238400D01*
X183302100Y-154988400D01*
X182312450Y-154988400D01*
X182229900Y-155070950D01*
X182229843Y-155173007D01*
X182229957Y-155304369D01*
X182280333Y-155425687D01*
X182373301Y-155518493D01*
X182421479Y-155538400D01*
X182373301Y-155558307D01*
X182280333Y-155651113D01*
X182229957Y-155772431D01*
X182229843Y-155903793D01*
X182229843Y-156903793D01*
X182280007Y-157025199D01*
X182372813Y-157118167D01*
X182421509Y-157138387D01*
X182373301Y-157158307D01*
X182280333Y-157251113D01*
X182229957Y-157372431D01*
X182229843Y-157503793D01*
X182229843Y-158503793D01*
X182280007Y-158625199D01*
X182372813Y-158718167D01*
X182421509Y-158738387D01*
X182373301Y-158758307D01*
X182280333Y-158851113D01*
X182229957Y-158972431D01*
X182229843Y-159103793D01*
X182229843Y-160103793D01*
X182280007Y-160225199D01*
X182372813Y-160318167D01*
X182421509Y-160338387D01*
X182373301Y-160358307D01*
X182280333Y-160451113D01*
X182229957Y-160572431D01*
X182229843Y-160703793D01*
X182229843Y-161703793D01*
X182280007Y-161825199D01*
X182372813Y-161918167D01*
X182421509Y-161938387D01*
X182373301Y-161958307D01*
X182280333Y-162051113D01*
X182229957Y-162172431D01*
X182229843Y-162303793D01*
X182229900Y-162405850D01*
X182312450Y-162488400D01*
X183302100Y-162488400D01*
X183302100Y-162238400D01*
X184318100Y-162238400D01*
X184318100Y-162488400D01*
X185307750Y-162488400D01*
X185390300Y-162405850D01*
X185390357Y-162303793D01*
X185390357Y-163173007D01*
X185390300Y-163070950D01*
X185307750Y-162988400D01*
X184318100Y-162988400D01*
X184318100Y-163486050D01*
X184370450Y-163538400D01*
X184318100Y-163590750D01*
X184318100Y-164088400D01*
X185307750Y-164088400D01*
X185390300Y-164005850D01*
X185390357Y-163903793D01*
X185390357Y-164773007D01*
X185390300Y-164670950D01*
X185307750Y-164588400D01*
X184318100Y-164588400D01*
X184318100Y-164758200D01*
X184127550Y-164758200D01*
X183894707Y-164758143D01*
X183773301Y-164808307D01*
X183743155Y-164838400D01*
X183302100Y-164838400D01*
X183302100Y-164588400D01*
X183302100Y-164088400D01*
X183302100Y-163590750D01*
X183249750Y-163538400D01*
X183302100Y-163486050D01*
X183302100Y-162988400D01*
X182312450Y-162988400D01*
X182229900Y-163070950D01*
X182229843Y-163173007D01*
X182229957Y-163304369D01*
X182280333Y-163425687D01*
X182373301Y-163518493D01*
X182421479Y-163538400D01*
X182373301Y-163558307D01*
X182280333Y-163651113D01*
X182229957Y-163772431D01*
X182229843Y-163903793D01*
X182229900Y-164005850D01*
X182312450Y-164088400D01*
X183302100Y-164088400D01*
X183302100Y-164588400D01*
X182312450Y-164588400D01*
X182229900Y-164670950D01*
X182229843Y-164773007D01*
X182229957Y-164904369D01*
X182280333Y-165025687D01*
X182373301Y-165118493D01*
X182494707Y-165168657D01*
X183219550Y-165168600D01*
X183302098Y-165086052D01*
X183302098Y-165168600D01*
X183302100Y-165168600D01*
X183629844Y-165168600D01*
X183629900Y-165747850D01*
X183712450Y-165830400D01*
X184210100Y-165830400D01*
X184210100Y-165810400D01*
X184710100Y-165810400D01*
X184710100Y-165830400D01*
X185207750Y-165830400D01*
X185260100Y-165778050D01*
X185312450Y-165830400D01*
X185810100Y-165830400D01*
X185810100Y-166846400D01*
X185312450Y-166846400D01*
X185260100Y-166898750D01*
X185207750Y-166846400D01*
X184710100Y-166846400D01*
X184710100Y-167836050D01*
X184792650Y-167918600D01*
X185025493Y-167918657D01*
X185146899Y-167868493D01*
X185239867Y-167775687D01*
X185260100Y-167726960D01*
X185280333Y-167775687D01*
X185373301Y-167868493D01*
X185494707Y-167918657D01*
X185727550Y-167918600D01*
X185810100Y-167836050D01*
X185810100Y-207873600D01*
X184345618Y-207873600D01*
X184345618Y-194787268D01*
X184275861Y-194436572D01*
X184210100Y-194364264D01*
X184210100Y-167836050D01*
X184210100Y-166846400D01*
X183712450Y-166846400D01*
X183629900Y-166928950D01*
X183629843Y-167523007D01*
X183629957Y-167654369D01*
X183680333Y-167775687D01*
X183773301Y-167868493D01*
X183894707Y-167918657D01*
X184127550Y-167918600D01*
X184210100Y-167836050D01*
X184210100Y-194364264D01*
X184118964Y-194264056D01*
X183458720Y-194924300D01*
X184118964Y-195584544D01*
X184275861Y-195412028D01*
X184345618Y-194787268D01*
X184345618Y-207873600D01*
X183400544Y-207873600D01*
X183400544Y-196302964D01*
X183400544Y-193545636D01*
X183302100Y-193456104D01*
X183228028Y-193388739D01*
X182603268Y-193318982D01*
X182283234Y-193382640D01*
X182283234Y-177329079D01*
X182165541Y-177044241D01*
X181947805Y-176826124D01*
X181940200Y-176822966D01*
X181940200Y-161226500D01*
X181907331Y-161061258D01*
X181907331Y-161061257D01*
X181813729Y-160921171D01*
X181381457Y-160488899D01*
X181381457Y-155538793D01*
X181381457Y-154519007D01*
X181331293Y-154397601D01*
X181238487Y-154304633D01*
X181117169Y-154254257D01*
X180985807Y-154254143D01*
X180784500Y-154254200D01*
X180701950Y-154336750D01*
X180701950Y-154806650D01*
X181298850Y-154806650D01*
X181381400Y-154724100D01*
X181381457Y-154519007D01*
X181381457Y-155538793D01*
X181381400Y-155333700D01*
X181298850Y-155251150D01*
X180701950Y-155251150D01*
X180701950Y-155721050D01*
X180784500Y-155803600D01*
X180985807Y-155803657D01*
X181117169Y-155803543D01*
X181238487Y-155753167D01*
X181331293Y-155660199D01*
X181381457Y-155538793D01*
X181381457Y-160488899D01*
X180003450Y-159110892D01*
X180003450Y-155721050D01*
X180003450Y-155251150D01*
X180003450Y-154806650D01*
X180003450Y-154336750D01*
X179920900Y-154254200D01*
X179719593Y-154254143D01*
X179588231Y-154254257D01*
X179466913Y-154304633D01*
X179374107Y-154397601D01*
X179323943Y-154519007D01*
X179324000Y-154724100D01*
X179406550Y-154806650D01*
X180003450Y-154806650D01*
X180003450Y-155251150D01*
X179406550Y-155251150D01*
X179324000Y-155333700D01*
X179323943Y-155538793D01*
X179374107Y-155660199D01*
X179466913Y-155753167D01*
X179588231Y-155803543D01*
X179719593Y-155803657D01*
X179920900Y-155803600D01*
X180003450Y-155721050D01*
X180003450Y-159110892D01*
X179210229Y-158317671D01*
X179070143Y-158224069D01*
X178904900Y-158191200D01*
X177617177Y-158191200D01*
X177617177Y-157857837D01*
X177567013Y-157736431D01*
X177482634Y-157651904D01*
X177482634Y-154126179D01*
X177364941Y-153841341D01*
X177147205Y-153623224D01*
X176862573Y-153505035D01*
X176554379Y-153504766D01*
X176269541Y-153622459D01*
X176132861Y-153758900D01*
X176060157Y-153758900D01*
X176060157Y-153515707D01*
X176060100Y-153515569D01*
X176060100Y-153245024D01*
X176070099Y-153240893D01*
X176163067Y-153148087D01*
X176213443Y-153026769D01*
X176213557Y-152895407D01*
X176213557Y-151115407D01*
X176163393Y-150994001D01*
X176070587Y-150901033D01*
X175958557Y-150854513D01*
X175958557Y-142225407D01*
X175958557Y-139935407D01*
X175908393Y-139814001D01*
X175815587Y-139721033D01*
X175694269Y-139670657D01*
X175562907Y-139670543D01*
X173022907Y-139670543D01*
X172901501Y-139720707D01*
X172808533Y-139813513D01*
X172758157Y-139934831D01*
X172758043Y-140066193D01*
X172758043Y-142356193D01*
X172808207Y-142477599D01*
X172901013Y-142570567D01*
X173022331Y-142620943D01*
X173153693Y-142621057D01*
X175693693Y-142621057D01*
X175815099Y-142570893D01*
X175908067Y-142478087D01*
X175958443Y-142356769D01*
X175958557Y-142225407D01*
X175958557Y-150854513D01*
X175949269Y-150850657D01*
X175817907Y-150850543D01*
X175307907Y-150850543D01*
X175186501Y-150900707D01*
X175093533Y-150993513D01*
X175043157Y-151114831D01*
X175043043Y-151246193D01*
X175043043Y-153026193D01*
X175093207Y-153147599D01*
X175186013Y-153240567D01*
X175196500Y-153244921D01*
X175196500Y-153250843D01*
X174790100Y-153250843D01*
X174790100Y-153245024D01*
X174800099Y-153240893D01*
X174893067Y-153148087D01*
X174943443Y-153026769D01*
X174943557Y-152895407D01*
X174943557Y-151115407D01*
X174893393Y-150994001D01*
X174800587Y-150901033D01*
X174679269Y-150850657D01*
X174547907Y-150850543D01*
X174037907Y-150850543D01*
X173916501Y-150900707D01*
X173823533Y-150993513D01*
X173773157Y-151114831D01*
X173773043Y-151246193D01*
X173773043Y-153026193D01*
X173823207Y-153147599D01*
X173916013Y-153240567D01*
X173926500Y-153244921D01*
X173926500Y-153265803D01*
X173890293Y-153250843D01*
X173685200Y-153250900D01*
X173673557Y-153250900D01*
X173596302Y-153250900D01*
X173596302Y-153174805D01*
X173623067Y-153148087D01*
X173673443Y-153026769D01*
X173673557Y-152895407D01*
X173673557Y-151246193D01*
X173673443Y-151114831D01*
X173623067Y-150993513D01*
X173530099Y-150900707D01*
X173408693Y-150850543D01*
X173298350Y-150850600D01*
X173215800Y-150933150D01*
X173215800Y-151625800D01*
X173590950Y-151625800D01*
X173673500Y-151543250D01*
X173673557Y-151246193D01*
X173673557Y-152895407D01*
X173673500Y-152598350D01*
X173590950Y-152515800D01*
X173215800Y-152515800D01*
X173215800Y-152598800D01*
X172960800Y-152598800D01*
X172960800Y-152515800D01*
X172960800Y-151625800D01*
X172960800Y-150933150D01*
X172878250Y-150850600D01*
X172767907Y-150850543D01*
X172646501Y-150900707D01*
X172553533Y-150993513D01*
X172503157Y-151114831D01*
X172503043Y-151246193D01*
X172503100Y-151543250D01*
X172585650Y-151625800D01*
X172960800Y-151625800D01*
X172960800Y-152515800D01*
X172585650Y-152515800D01*
X172503100Y-152598350D01*
X172503043Y-152895407D01*
X172503157Y-153026769D01*
X172553533Y-153148087D01*
X172580298Y-153174805D01*
X172580298Y-153291000D01*
X172767769Y-153291000D01*
X172767907Y-153291057D01*
X172773188Y-153291054D01*
X172749101Y-153301007D01*
X172656133Y-153393813D01*
X172605757Y-153515131D01*
X172605643Y-153646493D01*
X172605700Y-153847800D01*
X172688250Y-153930350D01*
X173158150Y-153930350D01*
X173158150Y-153751600D01*
X173602650Y-153751600D01*
X173602650Y-153930350D01*
X173824900Y-153930350D01*
X173824900Y-154628850D01*
X173602650Y-154628850D01*
X173602650Y-155225750D01*
X173685200Y-155308300D01*
X173890293Y-155308357D01*
X173926500Y-155293396D01*
X173926500Y-155432255D01*
X173902993Y-155422543D01*
X173697900Y-155422600D01*
X173615350Y-155505150D01*
X173615350Y-156102050D01*
X173837600Y-156102050D01*
X173837600Y-156800550D01*
X173615350Y-156800550D01*
X173615350Y-157397450D01*
X173697900Y-157480000D01*
X173902993Y-157480057D01*
X174015400Y-157433611D01*
X174015400Y-157620527D01*
X173960681Y-157643137D01*
X173867713Y-157735943D01*
X173817337Y-157857261D01*
X173817223Y-157988623D01*
X173817223Y-159388163D01*
X173867387Y-159509569D01*
X173960193Y-159602537D01*
X174081511Y-159652913D01*
X174212873Y-159653027D01*
X174812313Y-159653027D01*
X174933719Y-159602863D01*
X175026687Y-159510057D01*
X175077063Y-159388739D01*
X175077177Y-159257377D01*
X175077177Y-157857837D01*
X175027013Y-157736431D01*
X174934207Y-157643463D01*
X174879000Y-157620538D01*
X174879000Y-157480022D01*
X174918993Y-157480057D01*
X175807993Y-157480057D01*
X175929399Y-157429893D01*
X176022367Y-157337087D01*
X176072743Y-157215769D01*
X176072857Y-157084407D01*
X176072857Y-155687407D01*
X176022693Y-155566001D01*
X175929887Y-155473033D01*
X175808569Y-155422657D01*
X175677207Y-155422543D01*
X174790100Y-155422543D01*
X174790100Y-155308256D01*
X174906293Y-155308357D01*
X175795293Y-155308357D01*
X175916699Y-155258193D01*
X176009667Y-155165387D01*
X176060043Y-155044069D01*
X176060157Y-154912707D01*
X176060157Y-154800300D01*
X176132955Y-154800300D01*
X176268395Y-154935976D01*
X176553027Y-155054165D01*
X176861221Y-155054434D01*
X177146059Y-154936741D01*
X177364176Y-154719005D01*
X177482365Y-154434373D01*
X177482634Y-154126179D01*
X177482634Y-157651904D01*
X177474207Y-157643463D01*
X177352889Y-157593087D01*
X177221527Y-157592973D01*
X176622087Y-157592973D01*
X176500681Y-157643137D01*
X176407713Y-157735943D01*
X176357337Y-157857261D01*
X176357223Y-157988623D01*
X176357223Y-158191200D01*
X176347177Y-158191200D01*
X176347177Y-157857837D01*
X176297013Y-157736431D01*
X176204207Y-157643463D01*
X176082889Y-157593087D01*
X175951527Y-157592973D01*
X175352087Y-157592973D01*
X175230681Y-157643137D01*
X175137713Y-157735943D01*
X175087337Y-157857261D01*
X175087223Y-157988623D01*
X175087223Y-159388163D01*
X175137387Y-159509569D01*
X175230193Y-159602537D01*
X175351511Y-159652913D01*
X175482873Y-159653027D01*
X176082313Y-159653027D01*
X176203719Y-159602863D01*
X176296687Y-159510057D01*
X176347063Y-159388739D01*
X176347177Y-159257377D01*
X176347177Y-159054800D01*
X176357223Y-159054800D01*
X176357223Y-159388163D01*
X176407387Y-159509569D01*
X176500193Y-159602537D01*
X176621511Y-159652913D01*
X176752873Y-159653027D01*
X177352313Y-159653027D01*
X177473719Y-159602863D01*
X177566687Y-159510057D01*
X177617063Y-159388739D01*
X177617177Y-159257377D01*
X177617177Y-159054800D01*
X178726042Y-159054800D01*
X181076600Y-161405358D01*
X181076600Y-176822690D01*
X181070141Y-176825359D01*
X180852024Y-177043095D01*
X180733835Y-177327727D01*
X180733566Y-177635921D01*
X180851259Y-177920759D01*
X181068995Y-178138876D01*
X181353627Y-178257065D01*
X181661821Y-178257334D01*
X181946659Y-178139641D01*
X182164776Y-177921905D01*
X182282965Y-177637273D01*
X182283234Y-177329079D01*
X182283234Y-193382640D01*
X182252572Y-193388739D01*
X182080056Y-193545636D01*
X182740300Y-194205880D01*
X183400544Y-193545636D01*
X183400544Y-196302964D01*
X182740300Y-195642720D01*
X182080056Y-196302964D01*
X182252572Y-196459861D01*
X182877332Y-196529618D01*
X183228028Y-196459861D01*
X183400544Y-196302964D01*
X183400544Y-207873600D01*
X182021880Y-207873600D01*
X182021880Y-194924300D01*
X181361636Y-194264056D01*
X181204739Y-194436572D01*
X181134982Y-195061332D01*
X181204739Y-195412028D01*
X181361636Y-195584544D01*
X182021880Y-194924300D01*
X182021880Y-207873600D01*
X179222534Y-207873600D01*
X179222534Y-163790879D01*
X179104841Y-163506041D01*
X178887105Y-163287924D01*
X178602473Y-163169735D01*
X178294279Y-163169466D01*
X178009441Y-163287159D01*
X177860039Y-163436300D01*
X177617177Y-163436300D01*
X177617177Y-163191837D01*
X177567013Y-163070431D01*
X177474207Y-162977463D01*
X177352889Y-162927087D01*
X177221527Y-162926973D01*
X176622087Y-162926973D01*
X176500681Y-162977137D01*
X176407713Y-163069943D01*
X176357337Y-163191261D01*
X176357223Y-163322623D01*
X176357223Y-164722163D01*
X176407387Y-164843569D01*
X176500193Y-164936537D01*
X176621511Y-164986913D01*
X176752873Y-164987027D01*
X177352313Y-164987027D01*
X177473719Y-164936863D01*
X177566687Y-164844057D01*
X177617063Y-164722739D01*
X177617177Y-164591377D01*
X177617177Y-164477700D01*
X177885533Y-164477700D01*
X178008295Y-164600676D01*
X178292927Y-164718865D01*
X178601121Y-164719134D01*
X178885959Y-164601441D01*
X179104076Y-164383705D01*
X179222265Y-164099073D01*
X179222534Y-163790879D01*
X179222534Y-207873600D01*
X178830833Y-207873600D01*
X178830833Y-167372044D01*
X178537597Y-166662358D01*
X177995098Y-166118911D01*
X177285925Y-165824437D01*
X176518044Y-165823767D01*
X176347177Y-165894367D01*
X176347177Y-164591377D01*
X176347177Y-163191837D01*
X176297013Y-163070431D01*
X176204207Y-162977463D01*
X176082889Y-162927087D01*
X175951527Y-162926973D01*
X175352087Y-162926973D01*
X175230681Y-162977137D01*
X175137713Y-163069943D01*
X175087337Y-163191261D01*
X175087223Y-163322623D01*
X175087223Y-164722163D01*
X175137387Y-164843569D01*
X175230193Y-164936537D01*
X175351511Y-164986913D01*
X175482873Y-164987027D01*
X176082313Y-164987027D01*
X176203719Y-164936863D01*
X176296687Y-164844057D01*
X176347063Y-164722739D01*
X176347177Y-164591377D01*
X176347177Y-165894367D01*
X175808358Y-166117003D01*
X175264911Y-166659502D01*
X175077177Y-167111616D01*
X175077177Y-164591377D01*
X175077177Y-163191837D01*
X175027013Y-163070431D01*
X174934207Y-162977463D01*
X174812889Y-162927087D01*
X174681527Y-162926973D01*
X174082087Y-162926973D01*
X173960681Y-162977137D01*
X173867713Y-163069943D01*
X173817337Y-163191261D01*
X173817223Y-163322623D01*
X173817223Y-164722163D01*
X173867387Y-164843569D01*
X173960193Y-164936537D01*
X174081511Y-164986913D01*
X174212873Y-164987027D01*
X174812313Y-164987027D01*
X174933719Y-164936863D01*
X175026687Y-164844057D01*
X175077063Y-164722739D01*
X175077177Y-164591377D01*
X175077177Y-167111616D01*
X174970437Y-167368675D01*
X174969767Y-168136556D01*
X175263003Y-168846242D01*
X175805502Y-169389689D01*
X176514675Y-169684163D01*
X177282556Y-169684833D01*
X177992242Y-169391597D01*
X178535689Y-168849098D01*
X178830163Y-168139925D01*
X178830833Y-167372044D01*
X178830833Y-207873600D01*
X177393657Y-207873600D01*
X177393657Y-191907807D01*
X177393657Y-191018807D01*
X177393657Y-190133593D01*
X177393657Y-189113807D01*
X177343493Y-188992401D01*
X177250687Y-188899433D01*
X177129369Y-188849057D01*
X176998007Y-188848943D01*
X176796700Y-188849000D01*
X176714150Y-188931550D01*
X176714150Y-189401450D01*
X177311050Y-189401450D01*
X177393600Y-189318900D01*
X177393657Y-189113807D01*
X177393657Y-190133593D01*
X177393600Y-189928500D01*
X177311050Y-189845950D01*
X176714150Y-189845950D01*
X176714150Y-190315850D01*
X176796700Y-190398400D01*
X176998007Y-190398457D01*
X177129369Y-190398343D01*
X177250687Y-190347967D01*
X177343493Y-190254999D01*
X177393657Y-190133593D01*
X177393657Y-191018807D01*
X177343493Y-190897401D01*
X177250687Y-190804433D01*
X177129369Y-190754057D01*
X176998007Y-190753943D01*
X176015650Y-190753943D01*
X176015650Y-190315850D01*
X176015650Y-189845950D01*
X176015650Y-189401450D01*
X176015650Y-188931550D01*
X175933100Y-188849000D01*
X175731793Y-188848943D01*
X175600431Y-188849057D01*
X175479113Y-188899433D01*
X175386307Y-188992401D01*
X175336143Y-189113807D01*
X175336200Y-189318900D01*
X175418750Y-189401450D01*
X176015650Y-189401450D01*
X176015650Y-189845950D01*
X175418750Y-189845950D01*
X175336200Y-189928500D01*
X175336143Y-190133593D01*
X175386307Y-190254999D01*
X175479113Y-190347967D01*
X175600431Y-190398343D01*
X175731793Y-190398457D01*
X175933100Y-190398400D01*
X176015650Y-190315850D01*
X176015650Y-190753943D01*
X175601007Y-190753943D01*
X175479601Y-190804107D01*
X175386633Y-190896913D01*
X175336257Y-191018231D01*
X175336203Y-191080400D01*
X174356765Y-191080400D01*
X174356765Y-189323033D01*
X174356765Y-187323033D01*
X174356765Y-185323033D01*
X174356765Y-183323033D01*
X174356765Y-181323033D01*
X174356765Y-179323033D01*
X174356765Y-177323033D01*
X174356765Y-175323033D01*
X174211651Y-174971830D01*
X173943184Y-174702893D01*
X173807177Y-174646418D01*
X173807177Y-164591377D01*
X173807177Y-163191837D01*
X173807177Y-159257377D01*
X173807177Y-157988623D01*
X173807063Y-157857261D01*
X173756687Y-157735943D01*
X173663719Y-157643137D01*
X173542313Y-157592973D01*
X173409610Y-157593030D01*
X173327060Y-157675580D01*
X173327060Y-158273115D01*
X173724570Y-158273115D01*
X173807120Y-158190565D01*
X173807177Y-157988623D01*
X173807177Y-159257377D01*
X173807120Y-159055435D01*
X173724570Y-158972885D01*
X173327060Y-158972885D01*
X173327060Y-159570420D01*
X173409610Y-159652970D01*
X173542313Y-159653027D01*
X173663719Y-159602863D01*
X173756687Y-159510057D01*
X173807063Y-159388739D01*
X173807177Y-159257377D01*
X173807177Y-163191837D01*
X173757013Y-163070431D01*
X173664207Y-162977463D01*
X173542889Y-162927087D01*
X173411527Y-162926973D01*
X173170850Y-162926973D01*
X173170850Y-157397450D01*
X173170850Y-156800550D01*
X173170850Y-156102050D01*
X173170850Y-155505150D01*
X173158150Y-155492450D01*
X173158150Y-155225750D01*
X173158150Y-154628850D01*
X172688250Y-154628850D01*
X172605700Y-154711400D01*
X172605643Y-154912707D01*
X172605757Y-155044069D01*
X172656133Y-155165387D01*
X172749101Y-155258193D01*
X172870507Y-155308357D01*
X173075600Y-155308300D01*
X173158150Y-155225750D01*
X173158150Y-155492450D01*
X173088300Y-155422600D01*
X172883207Y-155422543D01*
X172761801Y-155472707D01*
X172668833Y-155565513D01*
X172618457Y-155686831D01*
X172618343Y-155818193D01*
X172618400Y-156019500D01*
X172700950Y-156102050D01*
X173170850Y-156102050D01*
X173170850Y-156800550D01*
X172700950Y-156800550D01*
X172618400Y-156883100D01*
X172618343Y-157084407D01*
X172618457Y-157215769D01*
X172668833Y-157337087D01*
X172761801Y-157429893D01*
X172883207Y-157480057D01*
X173088300Y-157480000D01*
X173170850Y-157397450D01*
X173170850Y-162926973D01*
X173027340Y-162926973D01*
X173027340Y-159570420D01*
X173027340Y-158972885D01*
X173027340Y-158273115D01*
X173027340Y-157675580D01*
X172944790Y-157593030D01*
X172812087Y-157592973D01*
X172690681Y-157643137D01*
X172597713Y-157735943D01*
X172547337Y-157857261D01*
X172547223Y-157988623D01*
X172547280Y-158190565D01*
X172629830Y-158273115D01*
X173027340Y-158273115D01*
X173027340Y-158972885D01*
X172629830Y-158972885D01*
X172547280Y-159055435D01*
X172547223Y-159257377D01*
X172547337Y-159388739D01*
X172597713Y-159510057D01*
X172690681Y-159602863D01*
X172812087Y-159653027D01*
X172944790Y-159652970D01*
X173027340Y-159570420D01*
X173027340Y-162926973D01*
X172812087Y-162926973D01*
X172690681Y-162977137D01*
X172597713Y-163069943D01*
X172547337Y-163191261D01*
X172547223Y-163322623D01*
X172547223Y-164722163D01*
X172597387Y-164843569D01*
X172690193Y-164936537D01*
X172811511Y-164986913D01*
X172942873Y-164987027D01*
X173542313Y-164987027D01*
X173663719Y-164936863D01*
X173756687Y-164844057D01*
X173807063Y-164722739D01*
X173807177Y-164591377D01*
X173807177Y-174646418D01*
X173592234Y-174557167D01*
X173212233Y-174556835D01*
X172861030Y-174701949D01*
X172592093Y-174970416D01*
X172446367Y-175321366D01*
X172446035Y-175701367D01*
X172591149Y-176052570D01*
X172859616Y-176321507D01*
X173210566Y-176467233D01*
X173590567Y-176467565D01*
X173941770Y-176322451D01*
X174210707Y-176053984D01*
X174356433Y-175703034D01*
X174356765Y-175323033D01*
X174356765Y-177323033D01*
X174211651Y-176971830D01*
X173943184Y-176702893D01*
X173592234Y-176557167D01*
X173212233Y-176556835D01*
X172861030Y-176701949D01*
X172592093Y-176970416D01*
X172446367Y-177321366D01*
X172446035Y-177701367D01*
X172591149Y-178052570D01*
X172859616Y-178321507D01*
X173210566Y-178467233D01*
X173590567Y-178467565D01*
X173941770Y-178322451D01*
X174210707Y-178053984D01*
X174356433Y-177703034D01*
X174356765Y-177323033D01*
X174356765Y-179323033D01*
X174211651Y-178971830D01*
X173943184Y-178702893D01*
X173592234Y-178557167D01*
X173212233Y-178556835D01*
X172861030Y-178701949D01*
X172592093Y-178970416D01*
X172446367Y-179321366D01*
X172446035Y-179701367D01*
X172591149Y-180052570D01*
X172859616Y-180321507D01*
X173210566Y-180467233D01*
X173590567Y-180467565D01*
X173941770Y-180322451D01*
X174210707Y-180053984D01*
X174356433Y-179703034D01*
X174356765Y-179323033D01*
X174356765Y-181323033D01*
X174211651Y-180971830D01*
X173943184Y-180702893D01*
X173592234Y-180557167D01*
X173212233Y-180556835D01*
X172861030Y-180701949D01*
X172592093Y-180970416D01*
X172446367Y-181321366D01*
X172446035Y-181701367D01*
X172591149Y-182052570D01*
X172859616Y-182321507D01*
X173210566Y-182467233D01*
X173590567Y-182467565D01*
X173941770Y-182322451D01*
X174210707Y-182053984D01*
X174356433Y-181703034D01*
X174356765Y-181323033D01*
X174356765Y-183323033D01*
X174211651Y-182971830D01*
X173943184Y-182702893D01*
X173592234Y-182557167D01*
X173212233Y-182556835D01*
X172861030Y-182701949D01*
X172592093Y-182970416D01*
X172446367Y-183321366D01*
X172446035Y-183701367D01*
X172591149Y-184052570D01*
X172859616Y-184321507D01*
X173210566Y-184467233D01*
X173590567Y-184467565D01*
X173941770Y-184322451D01*
X174210707Y-184053984D01*
X174356433Y-183703034D01*
X174356765Y-183323033D01*
X174356765Y-185323033D01*
X174211651Y-184971830D01*
X173943184Y-184702893D01*
X173592234Y-184557167D01*
X173212233Y-184556835D01*
X172861030Y-184701949D01*
X172592093Y-184970416D01*
X172446367Y-185321366D01*
X172446035Y-185701367D01*
X172591149Y-186052570D01*
X172859616Y-186321507D01*
X173210566Y-186467233D01*
X173590567Y-186467565D01*
X173941770Y-186322451D01*
X174210707Y-186053984D01*
X174356433Y-185703034D01*
X174356765Y-185323033D01*
X174356765Y-187323033D01*
X174211651Y-186971830D01*
X173943184Y-186702893D01*
X173592234Y-186557167D01*
X173212233Y-186556835D01*
X172861030Y-186701949D01*
X172592093Y-186970416D01*
X172446367Y-187321366D01*
X172446035Y-187701367D01*
X172591149Y-188052570D01*
X172859616Y-188321507D01*
X173210566Y-188467233D01*
X173590567Y-188467565D01*
X173941770Y-188322451D01*
X174210707Y-188053984D01*
X174356433Y-187703034D01*
X174356765Y-187323033D01*
X174356765Y-189323033D01*
X174211651Y-188971830D01*
X173943184Y-188702893D01*
X173592234Y-188557167D01*
X173212233Y-188556835D01*
X172861030Y-188701949D01*
X172592093Y-188970416D01*
X172446367Y-189321366D01*
X172446035Y-189701367D01*
X172591149Y-190052570D01*
X172859616Y-190321507D01*
X173210566Y-190467233D01*
X173590567Y-190467565D01*
X173941770Y-190322451D01*
X174210707Y-190053984D01*
X174356433Y-189703034D01*
X174356765Y-189323033D01*
X174356765Y-191080400D01*
X174256511Y-191080400D01*
X174211651Y-190971830D01*
X173943184Y-190702893D01*
X173592234Y-190557167D01*
X173212233Y-190556835D01*
X172861030Y-190701949D01*
X172592093Y-190970416D01*
X172446367Y-191321366D01*
X172446035Y-191701367D01*
X172591149Y-192052570D01*
X172859616Y-192321507D01*
X173210566Y-192467233D01*
X173590567Y-192467565D01*
X173941770Y-192322451D01*
X174210707Y-192053984D01*
X174256375Y-191944000D01*
X175336143Y-191944000D01*
X175336143Y-192038593D01*
X175386307Y-192159999D01*
X175479113Y-192252967D01*
X175600431Y-192303343D01*
X175731793Y-192303457D01*
X175844200Y-192303457D01*
X175844200Y-192836743D01*
X175588307Y-192836743D01*
X175466901Y-192886907D01*
X175373933Y-192979713D01*
X175323557Y-193101031D01*
X175323443Y-193232393D01*
X175323443Y-194121393D01*
X175373607Y-194242799D01*
X175466413Y-194335767D01*
X175587731Y-194386143D01*
X175719093Y-194386257D01*
X177116093Y-194386257D01*
X177237499Y-194336093D01*
X177330467Y-194243287D01*
X177380843Y-194121969D01*
X177380957Y-193990607D01*
X177380957Y-193101607D01*
X177330793Y-192980201D01*
X177237987Y-192887233D01*
X177116669Y-192836857D01*
X176985307Y-192836743D01*
X176885600Y-192836743D01*
X176885600Y-192303457D01*
X177128793Y-192303457D01*
X177250199Y-192253293D01*
X177343167Y-192160487D01*
X177393543Y-192039169D01*
X177393657Y-191907807D01*
X177393657Y-207873600D01*
X177380957Y-207873600D01*
X177380957Y-195895607D01*
X177380957Y-195006607D01*
X177330793Y-194885201D01*
X177237987Y-194792233D01*
X177116669Y-194741857D01*
X176985307Y-194741743D01*
X175588307Y-194741743D01*
X175466901Y-194791907D01*
X175373933Y-194884713D01*
X175323557Y-195006031D01*
X175323492Y-195080400D01*
X174356765Y-195080400D01*
X174356765Y-193323033D01*
X174211651Y-192971830D01*
X173943184Y-192702893D01*
X173592234Y-192557167D01*
X173212233Y-192556835D01*
X172861030Y-192701949D01*
X172592093Y-192970416D01*
X172446367Y-193321366D01*
X172446035Y-193701367D01*
X172591149Y-194052570D01*
X172859616Y-194321507D01*
X173210566Y-194467233D01*
X173590567Y-194467565D01*
X173941770Y-194322451D01*
X174210707Y-194053984D01*
X174356433Y-193703034D01*
X174356765Y-193323033D01*
X174356765Y-195080400D01*
X174256511Y-195080400D01*
X174211651Y-194971830D01*
X173943184Y-194702893D01*
X173592234Y-194557167D01*
X173212233Y-194556835D01*
X172861030Y-194701949D01*
X172592093Y-194970416D01*
X172446367Y-195321366D01*
X172446035Y-195701367D01*
X172591149Y-196052570D01*
X172859616Y-196321507D01*
X173210566Y-196467233D01*
X173590567Y-196467565D01*
X173941770Y-196322451D01*
X174210707Y-196053984D01*
X174256375Y-195944000D01*
X175323443Y-195944000D01*
X175323443Y-196026393D01*
X175373607Y-196147799D01*
X175466413Y-196240767D01*
X175587731Y-196291143D01*
X175719093Y-196291257D01*
X177116093Y-196291257D01*
X177237499Y-196241093D01*
X177330467Y-196148287D01*
X177380843Y-196026969D01*
X177380957Y-195895607D01*
X177380957Y-207873600D01*
X174371281Y-207873600D01*
X174371281Y-197423668D01*
X174331332Y-197222836D01*
X174212655Y-197142887D01*
X173843342Y-197512200D01*
X174212655Y-197881513D01*
X174331332Y-197801564D01*
X174371281Y-197423668D01*
X174371281Y-207873600D01*
X173770713Y-207873600D01*
X173770713Y-198323455D01*
X173770713Y-196700945D01*
X173690764Y-196582268D01*
X173312868Y-196542319D01*
X173112036Y-196582268D01*
X173032087Y-196700945D01*
X173401400Y-197070258D01*
X173770713Y-196700945D01*
X173770713Y-198323455D01*
X173401400Y-197954142D01*
X173032087Y-198323455D01*
X173112036Y-198442132D01*
X173489932Y-198482081D01*
X173690764Y-198442132D01*
X173770713Y-198323455D01*
X173770713Y-207873600D01*
X172959458Y-207873600D01*
X172959458Y-197512200D01*
X172590145Y-197142887D01*
X172471468Y-197222836D01*
X172431519Y-197600732D01*
X172471468Y-197801564D01*
X172590145Y-197881513D01*
X172959458Y-197512200D01*
X172959458Y-207873600D01*
X170789600Y-207873600D01*
X170789600Y-139319000D01*
X207594200Y-139319000D01*
X207594200Y-207873600D01*
X207594200Y-207873600D01*
G37*
X207594200Y-207873600D02*
X207403700Y-207873600D01*
X207403700Y-174967900D01*
X207403700Y-153047700D01*
X207370831Y-152882458D01*
X207370831Y-152882457D01*
X207277229Y-152742371D01*
X206705729Y-152170871D01*
X206629134Y-152119692D01*
X206629134Y-149058879D01*
X206511441Y-148774041D01*
X206293705Y-148555924D01*
X206009073Y-148437735D01*
X205700879Y-148437466D01*
X205416041Y-148555159D01*
X205282857Y-148688110D01*
X205282857Y-148448407D01*
X205232693Y-148327001D01*
X205139887Y-148234033D01*
X205018569Y-148183657D01*
X204887207Y-148183543D01*
X203998207Y-148183543D01*
X203876801Y-148233707D01*
X203783833Y-148326513D01*
X203733457Y-148447831D01*
X203733343Y-148579193D01*
X203733343Y-149976193D01*
X203776200Y-150079914D01*
X203776200Y-150285943D01*
X203492607Y-150285943D01*
X203458000Y-150300242D01*
X203423393Y-150285943D01*
X203377857Y-150285987D01*
X203377857Y-149845407D01*
X203377857Y-148579193D01*
X203377743Y-148447831D01*
X203327367Y-148326513D01*
X203234399Y-148233707D01*
X203112993Y-148183543D01*
X202907900Y-148183600D01*
X202825350Y-148266150D01*
X202825350Y-148863050D01*
X203295250Y-148863050D01*
X203377800Y-148780500D01*
X203377857Y-148579193D01*
X203377857Y-149845407D01*
X203377800Y-149644100D01*
X203295250Y-149561550D01*
X202825350Y-149561550D01*
X202825350Y-150158450D01*
X202907900Y-150241000D01*
X203112993Y-150241057D01*
X203234399Y-150190893D01*
X203327367Y-150098087D01*
X203377743Y-149976769D01*
X203377857Y-149845407D01*
X203377857Y-150285987D01*
X203365550Y-150286000D01*
X203283000Y-150368550D01*
X203283000Y-150424154D01*
X203278233Y-150428913D01*
X203227857Y-150550231D01*
X203227743Y-150681593D01*
X203227743Y-151401593D01*
X203277907Y-151522999D01*
X203283000Y-151528100D01*
X203283000Y-151583850D01*
X203365550Y-151666400D01*
X203423393Y-151666457D01*
X203457934Y-151652184D01*
X203492031Y-151666343D01*
X203623393Y-151666457D01*
X203923393Y-151666457D01*
X203957934Y-151652184D01*
X203992031Y-151666343D01*
X204123393Y-151666457D01*
X204423393Y-151666457D01*
X204517795Y-151627450D01*
X204517743Y-151560807D01*
X204517800Y-151627448D01*
X204517800Y-151984202D01*
X204848000Y-151984202D01*
X204848000Y-151956434D01*
X204945450Y-151956400D01*
X205000650Y-151901200D01*
X205028000Y-151901200D01*
X205028000Y-151873850D01*
X205028000Y-151578550D01*
X205028000Y-151551200D01*
X205000650Y-151551200D01*
X204945450Y-151496000D01*
X204848000Y-151495965D01*
X204848000Y-151401200D01*
X205028000Y-151401200D01*
X205028000Y-151078550D01*
X204945450Y-150996000D01*
X204848000Y-150995965D01*
X204848000Y-150968198D01*
X204688257Y-150968198D01*
X204688257Y-150550807D01*
X204639800Y-150433532D01*
X204639800Y-150241057D01*
X205017993Y-150241057D01*
X205139399Y-150190893D01*
X205232367Y-150098087D01*
X205282743Y-149976769D01*
X205282857Y-149845407D01*
X205282857Y-149736406D01*
X205414895Y-149868676D01*
X205699527Y-149986865D01*
X206007721Y-149987134D01*
X206292559Y-149869441D01*
X206510676Y-149651705D01*
X206628865Y-149367073D01*
X206629134Y-149058879D01*
X206629134Y-152119692D01*
X206565643Y-152077269D01*
X206400400Y-152044400D01*
X205898193Y-152044400D01*
X205898193Y-151818656D01*
X205898143Y-151760231D01*
X205884011Y-151726200D01*
X205898143Y-151692169D01*
X205898193Y-151633743D01*
X205898193Y-151318656D01*
X205898143Y-151260231D01*
X205847767Y-151138913D01*
X205754799Y-151046107D01*
X205633393Y-150995943D01*
X205470550Y-150996000D01*
X205388000Y-151078550D01*
X205388000Y-151401200D01*
X205815650Y-151401200D01*
X205898193Y-151318656D01*
X205898193Y-151633743D01*
X205815650Y-151551200D01*
X205759900Y-151551200D01*
X205754799Y-151546107D01*
X205633393Y-151495943D01*
X205470550Y-151496000D01*
X205415350Y-151551200D01*
X205388000Y-151551200D01*
X205388000Y-151578550D01*
X205388000Y-151873850D01*
X205388000Y-151901200D01*
X205415350Y-151901200D01*
X205470550Y-151956400D01*
X205633393Y-151956457D01*
X205754799Y-151906293D01*
X205759900Y-151901200D01*
X205815650Y-151901200D01*
X205898193Y-151818656D01*
X205898193Y-152044400D01*
X205750391Y-152044400D01*
X205633969Y-151996057D01*
X205502607Y-151995943D01*
X204782607Y-151995943D01*
X204661201Y-152046107D01*
X204656099Y-152051200D01*
X204600350Y-152051200D01*
X204517806Y-152133743D01*
X204517857Y-152192169D01*
X204531988Y-152226200D01*
X204517857Y-152260231D01*
X204517743Y-152391593D01*
X204517743Y-152691593D01*
X204532015Y-152726134D01*
X204517857Y-152760231D01*
X204517806Y-152818656D01*
X204600350Y-152901200D01*
X204655954Y-152901200D01*
X204660713Y-152905967D01*
X204782031Y-152956343D01*
X204913393Y-152956457D01*
X205633393Y-152956457D01*
X205750667Y-152908000D01*
X206221542Y-152908000D01*
X206540100Y-153226558D01*
X206540100Y-174789042D01*
X206248742Y-175080400D01*
X205898257Y-175080400D01*
X205898257Y-153560807D01*
X205898257Y-153260807D01*
X205883984Y-153226265D01*
X205898143Y-153192169D01*
X205898193Y-153133743D01*
X205815650Y-153051200D01*
X205760045Y-153051200D01*
X205755287Y-153046433D01*
X205633969Y-152996057D01*
X205502607Y-152995943D01*
X204782607Y-152995943D01*
X204661201Y-153046107D01*
X204656099Y-153051200D01*
X204600350Y-153051200D01*
X204517806Y-153133743D01*
X204517857Y-153192169D01*
X204531988Y-153226200D01*
X204517857Y-153260231D01*
X204517800Y-153325019D01*
X204423969Y-153286057D01*
X204292607Y-153285943D01*
X203992607Y-153285943D01*
X203958065Y-153300215D01*
X203923969Y-153286057D01*
X203792607Y-153285943D01*
X203492607Y-153285943D01*
X203458065Y-153300215D01*
X203423969Y-153286057D01*
X203292607Y-153285943D01*
X202992607Y-153285943D01*
X202898204Y-153324949D01*
X202898257Y-153391593D01*
X202898200Y-153326100D01*
X202898200Y-153126488D01*
X202898257Y-153060807D01*
X202898257Y-152760807D01*
X202883984Y-152726265D01*
X202898143Y-152692169D01*
X202898257Y-152560807D01*
X202898257Y-152260807D01*
X202883984Y-152226265D01*
X202898143Y-152192169D01*
X202898257Y-152060807D01*
X202898257Y-151760807D01*
X202883984Y-151726265D01*
X202898143Y-151692169D01*
X202898199Y-151627448D01*
X202992607Y-151666457D01*
X203050450Y-151666400D01*
X203133000Y-151583850D01*
X203133000Y-151156200D01*
X203133000Y-150796200D01*
X203133000Y-150368550D01*
X203050450Y-150286000D01*
X202992607Y-150285943D01*
X202871201Y-150336107D01*
X202778233Y-150428913D01*
X202727857Y-150550231D01*
X202727743Y-150681593D01*
X202727800Y-150713650D01*
X202810350Y-150796200D01*
X203133000Y-150796200D01*
X203133000Y-151156200D01*
X202855034Y-151156200D01*
X202848093Y-151139401D01*
X202755287Y-151046433D01*
X202633969Y-150996057D01*
X202502607Y-150995943D01*
X202380850Y-150995943D01*
X202380850Y-150158450D01*
X202380850Y-149561550D01*
X202380850Y-148863050D01*
X202380850Y-148266150D01*
X202298300Y-148183600D01*
X202093207Y-148183543D01*
X201971801Y-148233707D01*
X201878833Y-148326513D01*
X201828457Y-148447831D01*
X201828343Y-148579193D01*
X201828400Y-148780500D01*
X201910950Y-148863050D01*
X202380850Y-148863050D01*
X202380850Y-149561550D01*
X201910950Y-149561550D01*
X201828400Y-149644100D01*
X201828343Y-149845407D01*
X201828457Y-149976769D01*
X201878833Y-150098087D01*
X201971801Y-150190893D01*
X202093207Y-150241057D01*
X202298300Y-150241000D01*
X202380850Y-150158450D01*
X202380850Y-150995943D01*
X201782607Y-150995943D01*
X201665332Y-151044400D01*
X200748957Y-151044400D01*
X200748957Y-150950307D01*
X200698793Y-150828901D01*
X200605987Y-150735933D01*
X200484669Y-150685557D01*
X200353307Y-150685443D01*
X200240900Y-150685443D01*
X200240900Y-150676144D01*
X200376576Y-150540705D01*
X200494765Y-150256073D01*
X200495034Y-149947879D01*
X200377341Y-149663041D01*
X200159605Y-149444924D01*
X199874973Y-149326735D01*
X199566779Y-149326466D01*
X199281941Y-149444159D01*
X199063824Y-149661895D01*
X198945635Y-149946527D01*
X198945366Y-150254721D01*
X199063059Y-150539559D01*
X199199500Y-150676238D01*
X199199500Y-150685443D01*
X198956307Y-150685443D01*
X198834901Y-150735607D01*
X198741933Y-150828413D01*
X198691557Y-150949731D01*
X198691443Y-151081093D01*
X198691443Y-151970093D01*
X198741607Y-152091499D01*
X198834413Y-152184467D01*
X198955731Y-152234843D01*
X199087093Y-152234957D01*
X200484093Y-152234957D01*
X200605499Y-152184793D01*
X200698467Y-152091987D01*
X200748843Y-151970669D01*
X200748897Y-151908000D01*
X201517743Y-151908000D01*
X201517743Y-152191593D01*
X201532015Y-152226134D01*
X201517857Y-152260231D01*
X201517743Y-152391593D01*
X201517743Y-152549682D01*
X201379057Y-152577269D01*
X201238971Y-152670871D01*
X201238968Y-152670874D01*
X200748957Y-153160885D01*
X200748900Y-153160942D01*
X200748900Y-153060400D01*
X200748957Y-152855307D01*
X200698793Y-152733901D01*
X200605987Y-152640933D01*
X200484669Y-152590557D01*
X200353307Y-152590443D01*
X200152000Y-152590500D01*
X200069450Y-152673050D01*
X200069450Y-153142950D01*
X200248200Y-153142950D01*
X200248200Y-153587450D01*
X200069450Y-153587450D01*
X200069450Y-154057350D01*
X200152000Y-154139900D01*
X200303299Y-154139942D01*
X199370950Y-155072291D01*
X199370950Y-154057350D01*
X199370950Y-153587450D01*
X199370950Y-153142950D01*
X199370950Y-152673050D01*
X199288400Y-152590500D01*
X199087093Y-152590443D01*
X198955731Y-152590557D01*
X198834413Y-152640933D01*
X198741607Y-152733901D01*
X198691443Y-152855307D01*
X198691500Y-153060400D01*
X198774050Y-153142950D01*
X199370950Y-153142950D01*
X199370950Y-153587450D01*
X198774050Y-153587450D01*
X198691500Y-153670000D01*
X198691443Y-153875093D01*
X198741607Y-153996499D01*
X198834413Y-154089467D01*
X198955731Y-154139843D01*
X199087093Y-154139957D01*
X199288400Y-154139900D01*
X199370950Y-154057350D01*
X199370950Y-155072291D01*
X199211671Y-155231571D01*
X199211668Y-155231574D01*
X197230471Y-157212771D01*
X197136869Y-157352857D01*
X197104000Y-157518100D01*
X197104000Y-161902720D01*
X197004869Y-161861557D01*
X196873507Y-161861443D01*
X196777229Y-161861443D01*
X196896776Y-161742105D01*
X197014965Y-161457473D01*
X197015234Y-161149279D01*
X196897541Y-160864441D01*
X196679805Y-160646324D01*
X196395173Y-160528135D01*
X196086979Y-160527866D01*
X195802141Y-160645559D01*
X195584024Y-160863295D01*
X195465835Y-161147927D01*
X195465566Y-161456121D01*
X195583259Y-161740959D01*
X195703532Y-161861443D01*
X195476507Y-161861443D01*
X195355101Y-161911607D01*
X195262133Y-162004413D01*
X195211757Y-162125731D01*
X195211688Y-162204400D01*
X194540357Y-162204400D01*
X194540357Y-162173007D01*
X194490193Y-162051601D01*
X194397387Y-161958633D01*
X194348690Y-161938412D01*
X194396899Y-161918493D01*
X194489867Y-161825687D01*
X194540243Y-161704369D01*
X194540357Y-161573007D01*
X194540357Y-160573007D01*
X194490193Y-160451601D01*
X194397387Y-160358633D01*
X194348690Y-160338412D01*
X194396899Y-160318493D01*
X194489867Y-160225687D01*
X194540243Y-160104369D01*
X194540357Y-159973007D01*
X194540357Y-158973007D01*
X194490193Y-158851601D01*
X194397387Y-158758633D01*
X194348690Y-158738412D01*
X194396899Y-158718493D01*
X194489867Y-158625687D01*
X194540243Y-158504369D01*
X194540357Y-158373007D01*
X194540357Y-157373007D01*
X194490193Y-157251601D01*
X194397387Y-157158633D01*
X194348690Y-157138412D01*
X194396899Y-157118493D01*
X194489867Y-157025687D01*
X194540243Y-156904369D01*
X194540357Y-156773007D01*
X194540357Y-155773007D01*
X194490193Y-155651601D01*
X194397387Y-155558633D01*
X194348690Y-155538412D01*
X194396899Y-155518493D01*
X194489867Y-155425687D01*
X194540243Y-155304369D01*
X194540357Y-155173007D01*
X194540357Y-154173007D01*
X194490193Y-154051601D01*
X194397387Y-153958633D01*
X194348690Y-153938412D01*
X194396899Y-153918493D01*
X194489867Y-153825687D01*
X194540243Y-153704369D01*
X194540357Y-153573007D01*
X194540357Y-152573007D01*
X194490193Y-152451601D01*
X194397387Y-152358633D01*
X194348690Y-152338412D01*
X194396899Y-152318493D01*
X194489867Y-152225687D01*
X194540243Y-152104369D01*
X194540357Y-151973007D01*
X194540300Y-151870950D01*
X194457750Y-151788400D01*
X193468100Y-151788400D01*
X193468100Y-152038400D01*
X192452100Y-152038400D01*
X192452100Y-151788400D01*
X191462450Y-151788400D01*
X191379900Y-151870950D01*
X191379843Y-151973007D01*
X191379957Y-152104369D01*
X191430333Y-152225687D01*
X191523301Y-152318493D01*
X191571479Y-152338400D01*
X191523301Y-152358307D01*
X191430333Y-152451113D01*
X191379957Y-152572431D01*
X191379843Y-152703793D01*
X191379843Y-152706600D01*
X189596500Y-152706600D01*
X189431257Y-152739469D01*
X189291171Y-152833071D01*
X189291168Y-152833074D01*
X187756800Y-154367442D01*
X187756800Y-151512058D01*
X188898658Y-150370200D01*
X191379843Y-150370200D01*
X191379843Y-150503793D01*
X191430007Y-150625199D01*
X191522813Y-150718167D01*
X191571509Y-150738387D01*
X191523301Y-150758307D01*
X191430333Y-150851113D01*
X191379957Y-150972431D01*
X191379843Y-151103793D01*
X191379900Y-151205850D01*
X191462450Y-151288400D01*
X192452100Y-151288400D01*
X192452100Y-151038400D01*
X193468100Y-151038400D01*
X193468100Y-151288400D01*
X194457750Y-151288400D01*
X194540300Y-151205850D01*
X194540357Y-151103793D01*
X194540243Y-150972431D01*
X194489867Y-150851113D01*
X194396899Y-150758307D01*
X194348720Y-150738400D01*
X194396899Y-150718493D01*
X194489867Y-150625687D01*
X194540243Y-150504369D01*
X194540357Y-150373007D01*
X194540357Y-149373007D01*
X194490193Y-149251601D01*
X194397387Y-149158633D01*
X194348690Y-149138412D01*
X194396899Y-149118493D01*
X194489867Y-149025687D01*
X194540243Y-148904369D01*
X194540357Y-148773007D01*
X194540357Y-147903793D01*
X194540243Y-147772431D01*
X194489867Y-147651113D01*
X194396899Y-147558307D01*
X194348720Y-147538400D01*
X194396899Y-147518493D01*
X194489867Y-147425687D01*
X194540243Y-147304369D01*
X194540357Y-147173007D01*
X194540357Y-146173007D01*
X194490193Y-146051601D01*
X194397387Y-145958633D01*
X194348690Y-145938412D01*
X194396899Y-145918493D01*
X194489867Y-145825687D01*
X194540243Y-145704369D01*
X194540357Y-145573007D01*
X194540357Y-144573007D01*
X194490193Y-144451601D01*
X194397387Y-144358633D01*
X194348690Y-144338412D01*
X194396899Y-144318493D01*
X194489867Y-144225687D01*
X194540243Y-144104369D01*
X194540357Y-143973007D01*
X194540357Y-143103793D01*
X194540243Y-142972431D01*
X194489867Y-142851113D01*
X194396899Y-142758307D01*
X194275493Y-142708143D01*
X193550650Y-142708200D01*
X193468100Y-142790750D01*
X193468100Y-143288400D01*
X194457750Y-143288400D01*
X194540300Y-143205850D01*
X194540357Y-143103793D01*
X194540357Y-143973007D01*
X194540300Y-143870950D01*
X194457750Y-143788400D01*
X193468100Y-143788400D01*
X193468100Y-144038400D01*
X192452100Y-144038400D01*
X192452100Y-143788400D01*
X192452100Y-143288400D01*
X192452100Y-142790750D01*
X192369550Y-142708200D01*
X191644707Y-142708143D01*
X191523301Y-142758307D01*
X191430333Y-142851113D01*
X191379957Y-142972431D01*
X191379843Y-143103793D01*
X191379900Y-143205850D01*
X191462450Y-143288400D01*
X192452100Y-143288400D01*
X192452100Y-143788400D01*
X191462450Y-143788400D01*
X191379900Y-143870950D01*
X191379843Y-143973007D01*
X191379957Y-144104369D01*
X191430333Y-144225687D01*
X191523301Y-144318493D01*
X191571479Y-144338400D01*
X191523301Y-144358307D01*
X191430333Y-144451113D01*
X191379957Y-144572431D01*
X191379843Y-144703793D01*
X191379843Y-145703793D01*
X191430007Y-145825199D01*
X191522813Y-145918167D01*
X191571509Y-145938387D01*
X191523301Y-145958307D01*
X191430333Y-146051113D01*
X191379957Y-146172431D01*
X191379843Y-146303793D01*
X191379843Y-147303793D01*
X191430007Y-147425199D01*
X191522813Y-147518167D01*
X191571509Y-147538387D01*
X191523301Y-147558307D01*
X191430333Y-147651113D01*
X191379957Y-147772431D01*
X191379843Y-147903793D01*
X191379900Y-148005850D01*
X191462450Y-148088400D01*
X192452100Y-148088400D01*
X192452100Y-147838400D01*
X193468100Y-147838400D01*
X193468100Y-148088400D01*
X194457750Y-148088400D01*
X194540300Y-148005850D01*
X194540357Y-147903793D01*
X194540357Y-148773007D01*
X194540300Y-148670950D01*
X194457750Y-148588400D01*
X193468100Y-148588400D01*
X193468100Y-148838400D01*
X192452100Y-148838400D01*
X192452100Y-148588400D01*
X191462450Y-148588400D01*
X191379900Y-148670950D01*
X191379843Y-148773007D01*
X191379957Y-148904369D01*
X191430333Y-149025687D01*
X191523301Y-149118493D01*
X191571479Y-149138400D01*
X191523301Y-149158307D01*
X191430333Y-149251113D01*
X191379957Y-149372431D01*
X191379843Y-149503793D01*
X191379843Y-149506600D01*
X191190357Y-149506600D01*
X191190357Y-143973007D01*
X191190357Y-141473007D01*
X191140193Y-141351601D01*
X191047387Y-141258633D01*
X190926069Y-141208257D01*
X190794707Y-141208143D01*
X189794707Y-141208143D01*
X189673301Y-141258307D01*
X189580333Y-141351113D01*
X189560112Y-141399809D01*
X189540193Y-141351601D01*
X189447387Y-141258633D01*
X189326069Y-141208257D01*
X189194707Y-141208143D01*
X188194707Y-141208143D01*
X188073301Y-141258307D01*
X187980333Y-141351113D01*
X187960112Y-141399809D01*
X187940193Y-141351601D01*
X187847387Y-141258633D01*
X187726069Y-141208257D01*
X187594707Y-141208143D01*
X186594707Y-141208143D01*
X186473301Y-141258307D01*
X186380333Y-141351113D01*
X186329957Y-141472431D01*
X186329843Y-141603793D01*
X186329843Y-144103793D01*
X186380007Y-144225199D01*
X186472813Y-144318167D01*
X186594131Y-144368543D01*
X186725493Y-144368657D01*
X187725493Y-144368657D01*
X187846899Y-144318493D01*
X187939867Y-144225687D01*
X187960087Y-144176990D01*
X187980007Y-144225199D01*
X188072813Y-144318167D01*
X188194131Y-144368543D01*
X188325493Y-144368657D01*
X189325493Y-144368657D01*
X189446899Y-144318493D01*
X189539867Y-144225687D01*
X189560087Y-144176990D01*
X189580007Y-144225199D01*
X189672813Y-144318167D01*
X189794131Y-144368543D01*
X189925493Y-144368657D01*
X190925493Y-144368657D01*
X191046899Y-144318493D01*
X191139867Y-144225687D01*
X191190243Y-144104369D01*
X191190357Y-143973007D01*
X191190357Y-149506600D01*
X188719800Y-149506600D01*
X188554557Y-149539469D01*
X188414471Y-149633071D01*
X187019671Y-151027871D01*
X186926069Y-151167957D01*
X186893200Y-151333200D01*
X186893200Y-170738800D01*
X186893200Y-170776900D01*
X186893200Y-178752444D01*
X186890357Y-178752441D01*
X186890357Y-167523007D01*
X186890357Y-165153793D01*
X186890243Y-165022431D01*
X186839867Y-164901113D01*
X186746899Y-164808307D01*
X186625493Y-164758143D01*
X186392650Y-164758200D01*
X186310100Y-164840750D01*
X186310100Y-165830400D01*
X186807750Y-165830400D01*
X186890300Y-165747850D01*
X186890357Y-165153793D01*
X186890357Y-167523007D01*
X186890300Y-166928950D01*
X186807750Y-166846400D01*
X186310100Y-166846400D01*
X186310100Y-167836050D01*
X186392650Y-167918600D01*
X186625493Y-167918657D01*
X186746899Y-167868493D01*
X186839867Y-167775687D01*
X186890243Y-167654369D01*
X186890357Y-167523007D01*
X186890357Y-178752441D01*
X186803279Y-178752366D01*
X186518441Y-178870059D01*
X186300324Y-179087795D01*
X186182135Y-179372427D01*
X186181866Y-179680621D01*
X186299559Y-179965459D01*
X186517295Y-180183576D01*
X186801927Y-180301765D01*
X187110121Y-180302034D01*
X187375800Y-180192257D01*
X187375800Y-180857466D01*
X187176624Y-181056295D01*
X187058435Y-181340927D01*
X187058166Y-181649121D01*
X187175859Y-181933959D01*
X187393595Y-182152076D01*
X187678227Y-182270265D01*
X187986421Y-182270534D01*
X188271259Y-182152841D01*
X188489376Y-181935105D01*
X188607565Y-181650473D01*
X188607834Y-181342279D01*
X188490141Y-181057441D01*
X188272405Y-180839324D01*
X188239400Y-180825619D01*
X188239400Y-171805600D01*
X188239400Y-171767500D01*
X188239400Y-155106157D01*
X189775357Y-153570200D01*
X191379843Y-153570200D01*
X191379843Y-153703793D01*
X191430007Y-153825199D01*
X191522813Y-153918167D01*
X191571509Y-153938387D01*
X191523301Y-153958307D01*
X191430333Y-154051113D01*
X191379957Y-154172431D01*
X191379843Y-154303793D01*
X191379843Y-155303793D01*
X191430007Y-155425199D01*
X191522813Y-155518167D01*
X191571509Y-155538387D01*
X191523301Y-155558307D01*
X191430333Y-155651113D01*
X191379957Y-155772431D01*
X191379843Y-155903793D01*
X191379843Y-156903793D01*
X191430007Y-157025199D01*
X191522813Y-157118167D01*
X191571509Y-157138387D01*
X191523301Y-157158307D01*
X191430333Y-157251113D01*
X191379957Y-157372431D01*
X191379843Y-157503793D01*
X191379843Y-158503793D01*
X191430007Y-158625199D01*
X191522813Y-158718167D01*
X191571509Y-158738387D01*
X191523301Y-158758307D01*
X191430333Y-158851113D01*
X191379957Y-158972431D01*
X191379843Y-159103793D01*
X191379843Y-160103793D01*
X191430007Y-160225199D01*
X191522813Y-160318167D01*
X191571509Y-160338387D01*
X191523301Y-160358307D01*
X191430333Y-160451113D01*
X191379957Y-160572431D01*
X191379843Y-160703793D01*
X191379843Y-161703793D01*
X191430007Y-161825199D01*
X191522813Y-161918167D01*
X191571509Y-161938387D01*
X191523301Y-161958307D01*
X191430333Y-162051113D01*
X191379957Y-162172431D01*
X191379843Y-162303793D01*
X191379843Y-163303793D01*
X191430007Y-163425199D01*
X191522813Y-163518167D01*
X191571509Y-163538387D01*
X191523301Y-163558307D01*
X191430333Y-163651113D01*
X191379957Y-163772431D01*
X191379843Y-163903793D01*
X191379900Y-164005850D01*
X191462450Y-164088400D01*
X192452100Y-164088400D01*
X192452100Y-163838400D01*
X193468100Y-163838400D01*
X193468100Y-164088400D01*
X194457750Y-164088400D01*
X194540300Y-164005850D01*
X194540357Y-163903793D01*
X194540243Y-163772431D01*
X194489867Y-163651113D01*
X194396899Y-163558307D01*
X194348720Y-163538400D01*
X194396899Y-163518493D01*
X194489867Y-163425687D01*
X194540243Y-163304369D01*
X194540357Y-163173007D01*
X194540357Y-163068000D01*
X195211643Y-163068000D01*
X195211643Y-163146093D01*
X195261807Y-163267499D01*
X195354613Y-163360467D01*
X195475931Y-163410843D01*
X195607293Y-163410957D01*
X197004293Y-163410957D01*
X197104000Y-163369758D01*
X197104000Y-163807720D01*
X197004869Y-163766557D01*
X196873507Y-163766443D01*
X196672200Y-163766500D01*
X196589650Y-163849050D01*
X196589650Y-164318950D01*
X196768400Y-164318950D01*
X196768400Y-164763450D01*
X196589650Y-164763450D01*
X196589650Y-165233350D01*
X196672200Y-165315900D01*
X196873507Y-165315957D01*
X197004869Y-165315843D01*
X197104000Y-165274679D01*
X197104000Y-189877700D01*
X197104000Y-189903100D01*
X197104000Y-192858989D01*
X196892124Y-193070495D01*
X196773935Y-193355127D01*
X196773666Y-193663321D01*
X196891359Y-193948159D01*
X197109095Y-194166276D01*
X197393727Y-194284465D01*
X197701921Y-194284734D01*
X197986759Y-194167041D01*
X198204876Y-193949305D01*
X198323065Y-193664673D01*
X198323334Y-193356479D01*
X198205641Y-193071641D01*
X197987905Y-192853524D01*
X197967600Y-192845092D01*
X197967600Y-189903100D01*
X197967600Y-189877700D01*
X197967600Y-157696957D01*
X199822325Y-155842231D01*
X199822328Y-155842229D01*
X199822329Y-155842229D01*
X201232025Y-154432531D01*
X201232028Y-154432529D01*
X201232029Y-154432529D01*
X201325631Y-154292443D01*
X201358500Y-154127201D01*
X201358499Y-154127200D01*
X201358500Y-154127200D01*
X201358500Y-153772657D01*
X201517784Y-153613373D01*
X201517743Y-153560807D01*
X201517788Y-153613368D01*
X201517800Y-153613356D01*
X201517800Y-153984202D01*
X201716339Y-153984202D01*
X198132171Y-157568371D01*
X198038569Y-157708457D01*
X198005700Y-157873700D01*
X198005700Y-190284100D01*
X198005700Y-190423800D01*
X198038569Y-190589043D01*
X198132171Y-190729129D01*
X198652871Y-191249829D01*
X198658404Y-191253526D01*
X198593924Y-191317895D01*
X198475735Y-191602527D01*
X198475466Y-191910721D01*
X198593159Y-192195559D01*
X198729600Y-192332238D01*
X198729600Y-192345908D01*
X198619001Y-192391607D01*
X198526033Y-192484413D01*
X198475657Y-192605731D01*
X198475543Y-192737093D01*
X198475543Y-194134093D01*
X198525707Y-194255499D01*
X198618513Y-194348467D01*
X198729600Y-194394594D01*
X198729600Y-194492208D01*
X198619001Y-194537907D01*
X198526033Y-194630713D01*
X198475657Y-194752031D01*
X198475543Y-194883393D01*
X198475543Y-196280393D01*
X198525707Y-196401799D01*
X198618513Y-196494767D01*
X198739831Y-196545143D01*
X198871193Y-196545257D01*
X199760193Y-196545257D01*
X199881599Y-196495093D01*
X199974567Y-196402287D01*
X200024943Y-196280969D01*
X200025057Y-196149607D01*
X200025057Y-195466814D01*
X200380068Y-195821825D01*
X200380071Y-195821829D01*
X200380543Y-195822144D01*
X200380543Y-196280393D01*
X200430707Y-196401799D01*
X200523513Y-196494767D01*
X200644831Y-196545143D01*
X200776193Y-196545257D01*
X201665193Y-196545257D01*
X201786599Y-196495093D01*
X201879567Y-196402287D01*
X201929943Y-196280969D01*
X201930057Y-196149607D01*
X201930057Y-195944000D01*
X203746288Y-195944000D01*
X203791149Y-196052570D01*
X204059616Y-196321507D01*
X204410566Y-196467233D01*
X204790567Y-196467565D01*
X205141770Y-196322451D01*
X205410707Y-196053984D01*
X205556433Y-195703034D01*
X205556765Y-195323033D01*
X205411651Y-194971830D01*
X205143184Y-194702893D01*
X204792234Y-194557167D01*
X204412233Y-194556835D01*
X204061030Y-194701949D01*
X203792093Y-194970416D01*
X203746424Y-195080400D01*
X201930057Y-195080400D01*
X201930057Y-194752607D01*
X201879893Y-194631201D01*
X201787087Y-194538233D01*
X201665769Y-194487857D01*
X201534407Y-194487743D01*
X200645407Y-194487743D01*
X200634600Y-194492208D01*
X200634600Y-194394594D01*
X200644831Y-194398843D01*
X200776193Y-194398957D01*
X201665193Y-194398957D01*
X201786599Y-194348793D01*
X201879567Y-194255987D01*
X201929943Y-194134669D01*
X201930057Y-194003307D01*
X201930057Y-193944000D01*
X203746288Y-193944000D01*
X203791149Y-194052570D01*
X204059616Y-194321507D01*
X204410566Y-194467233D01*
X204790567Y-194467565D01*
X205141770Y-194322451D01*
X205410707Y-194053984D01*
X205556433Y-193703034D01*
X205556765Y-193323033D01*
X205411651Y-192971830D01*
X205143184Y-192702893D01*
X204792234Y-192557167D01*
X204412233Y-192556835D01*
X204061030Y-192701949D01*
X203792093Y-192970416D01*
X203746424Y-193080400D01*
X203314357Y-193080400D01*
X203314357Y-185955293D01*
X203314357Y-184935507D01*
X203264193Y-184814101D01*
X203171387Y-184721133D01*
X203050069Y-184670757D01*
X202918707Y-184670643D01*
X202717400Y-184670700D01*
X202634850Y-184753250D01*
X202634850Y-185223150D01*
X203231750Y-185223150D01*
X203314300Y-185140600D01*
X203314357Y-184935507D01*
X203314357Y-185955293D01*
X203314300Y-185750200D01*
X203231750Y-185667650D01*
X202634850Y-185667650D01*
X202634850Y-186137550D01*
X202717400Y-186220100D01*
X202918707Y-186220157D01*
X203050069Y-186220043D01*
X203171387Y-186169667D01*
X203264193Y-186076699D01*
X203314357Y-185955293D01*
X203314357Y-193080400D01*
X201936350Y-193080400D01*
X201936350Y-186137550D01*
X201936350Y-185667650D01*
X201936350Y-185223150D01*
X201936350Y-184753250D01*
X201853800Y-184670700D01*
X201652493Y-184670643D01*
X201521131Y-184670757D01*
X201399813Y-184721133D01*
X201307007Y-184814101D01*
X201256843Y-184935507D01*
X201256900Y-185140600D01*
X201339450Y-185223150D01*
X201936350Y-185223150D01*
X201936350Y-185667650D01*
X201339450Y-185667650D01*
X201256900Y-185750200D01*
X201256843Y-185955293D01*
X201307007Y-186076699D01*
X201399813Y-186169667D01*
X201521131Y-186220043D01*
X201652493Y-186220157D01*
X201853800Y-186220100D01*
X201936350Y-186137550D01*
X201936350Y-193080400D01*
X201930057Y-193080400D01*
X201930057Y-192606307D01*
X201879893Y-192484901D01*
X201787087Y-192391933D01*
X201665769Y-192341557D01*
X201534407Y-192341443D01*
X200645407Y-192341443D01*
X200634600Y-192345908D01*
X200634600Y-191389000D01*
X200634599Y-191388999D01*
X200634600Y-191388999D01*
X200601731Y-191223757D01*
X200508129Y-191083671D01*
X200508125Y-191083668D01*
X200063629Y-190639171D01*
X199923543Y-190545569D01*
X199758300Y-190512700D01*
X199137058Y-190512700D01*
X198869300Y-190244942D01*
X198869300Y-158052557D01*
X200631395Y-156290462D01*
X200726759Y-156521259D01*
X200944495Y-156739376D01*
X201229127Y-156857565D01*
X201537321Y-156857834D01*
X201822159Y-156740141D01*
X201999798Y-156562811D01*
X202030907Y-156638099D01*
X202123713Y-156731067D01*
X202214657Y-156768830D01*
X202124201Y-156806207D01*
X202031233Y-156899013D01*
X201980857Y-157020331D01*
X201980743Y-157151693D01*
X201980800Y-157353000D01*
X202063350Y-157435550D01*
X202533250Y-157435550D01*
X202533250Y-157256800D01*
X202977750Y-157256800D01*
X202977750Y-157435550D01*
X203200000Y-157435550D01*
X203200000Y-158134050D01*
X202977750Y-158134050D01*
X202977750Y-158730950D01*
X203060300Y-158813500D01*
X203265393Y-158813557D01*
X203386799Y-158763393D01*
X203479767Y-158670587D01*
X203530143Y-158549269D01*
X203530257Y-158417907D01*
X203530200Y-158216600D01*
X203530200Y-157963658D01*
X203656671Y-158090129D01*
X203796757Y-158183731D01*
X203885743Y-158201431D01*
X203885743Y-158548693D01*
X203935907Y-158670099D01*
X204028713Y-158763067D01*
X204150031Y-158813443D01*
X204281393Y-158813557D01*
X205170393Y-158813557D01*
X205291799Y-158763393D01*
X205384767Y-158670587D01*
X205435143Y-158549269D01*
X205435257Y-158417907D01*
X205435257Y-157020907D01*
X205385093Y-156899501D01*
X205292287Y-156806533D01*
X205201342Y-156768769D01*
X205291799Y-156731393D01*
X205384767Y-156638587D01*
X205435143Y-156517269D01*
X205435257Y-156385907D01*
X205435257Y-154988907D01*
X205385093Y-154867501D01*
X205292287Y-154774533D01*
X205170969Y-154724157D01*
X205039607Y-154724043D01*
X204639800Y-154724043D01*
X204639800Y-154518591D01*
X204688143Y-154402169D01*
X204688257Y-154270807D01*
X204688257Y-153917404D01*
X204782031Y-153956343D01*
X204913393Y-153956457D01*
X205633393Y-153956457D01*
X205754799Y-153906293D01*
X205847767Y-153813487D01*
X205898143Y-153692169D01*
X205898257Y-153560807D01*
X205898257Y-175080400D01*
X205456511Y-175080400D01*
X205411651Y-174971830D01*
X205143184Y-174702893D01*
X204792234Y-174557167D01*
X204412233Y-174556835D01*
X204061030Y-174701949D01*
X203792093Y-174970416D01*
X203646367Y-175321366D01*
X203646035Y-175701367D01*
X203791149Y-176052570D01*
X204059616Y-176321507D01*
X204410566Y-176467233D01*
X204790567Y-176467565D01*
X205141770Y-176322451D01*
X205410707Y-176053984D01*
X205456375Y-175944000D01*
X206427600Y-175944000D01*
X206592842Y-175911131D01*
X206592843Y-175911131D01*
X206732929Y-175817529D01*
X207277225Y-175273231D01*
X207277228Y-175273229D01*
X207277229Y-175273229D01*
X207370831Y-175133143D01*
X207403700Y-174967900D01*
X207403700Y-207873600D01*
X206959334Y-207873600D01*
X206959334Y-199007979D01*
X206841641Y-198723141D01*
X206654400Y-198535572D01*
X206654400Y-191871600D01*
X206621531Y-191706357D01*
X206527929Y-191566271D01*
X206527925Y-191566268D01*
X206168529Y-191206871D01*
X206028443Y-191113269D01*
X205863200Y-191080400D01*
X205556765Y-191080400D01*
X205556765Y-189323033D01*
X205556765Y-187323033D01*
X205556765Y-185323033D01*
X205556765Y-183323033D01*
X205556765Y-181323033D01*
X205556765Y-179323033D01*
X205556765Y-177323033D01*
X205411651Y-176971830D01*
X205143184Y-176702893D01*
X204792234Y-176557167D01*
X204412233Y-176556835D01*
X204061030Y-176701949D01*
X203792093Y-176970416D01*
X203646367Y-177321366D01*
X203646035Y-177701367D01*
X203791149Y-178052570D01*
X204059616Y-178321507D01*
X204410566Y-178467233D01*
X204790567Y-178467565D01*
X205141770Y-178322451D01*
X205410707Y-178053984D01*
X205556433Y-177703034D01*
X205556765Y-177323033D01*
X205556765Y-179323033D01*
X205411651Y-178971830D01*
X205143184Y-178702893D01*
X204792234Y-178557167D01*
X204412233Y-178556835D01*
X204061030Y-178701949D01*
X203792093Y-178970416D01*
X203646367Y-179321366D01*
X203646035Y-179701367D01*
X203791149Y-180052570D01*
X204059616Y-180321507D01*
X204410566Y-180467233D01*
X204790567Y-180467565D01*
X205141770Y-180322451D01*
X205410707Y-180053984D01*
X205556433Y-179703034D01*
X205556765Y-179323033D01*
X205556765Y-181323033D01*
X205411651Y-180971830D01*
X205143184Y-180702893D01*
X204792234Y-180557167D01*
X204412233Y-180556835D01*
X204061030Y-180701949D01*
X203792093Y-180970416D01*
X203646367Y-181321366D01*
X203646035Y-181701367D01*
X203791149Y-182052570D01*
X204059616Y-182321507D01*
X204410566Y-182467233D01*
X204790567Y-182467565D01*
X205141770Y-182322451D01*
X205410707Y-182053984D01*
X205556433Y-181703034D01*
X205556765Y-181323033D01*
X205556765Y-183323033D01*
X205411651Y-182971830D01*
X205143184Y-182702893D01*
X204792234Y-182557167D01*
X204412233Y-182556835D01*
X204061030Y-182701949D01*
X203792093Y-182970416D01*
X203734714Y-183108600D01*
X203530257Y-183108600D01*
X203314357Y-183108600D01*
X203314357Y-183030507D01*
X203264193Y-182909101D01*
X203210833Y-182855647D01*
X203210833Y-167372044D01*
X202917597Y-166662358D01*
X202533250Y-166277339D01*
X202533250Y-158730950D01*
X202533250Y-158134050D01*
X202063350Y-158134050D01*
X201980800Y-158216600D01*
X201980743Y-158417907D01*
X201980857Y-158549269D01*
X202031233Y-158670587D01*
X202124201Y-158763393D01*
X202245607Y-158813557D01*
X202450700Y-158813500D01*
X202533250Y-158730950D01*
X202533250Y-166277339D01*
X202375098Y-166118911D01*
X201665925Y-165824437D01*
X200898044Y-165823767D01*
X200188358Y-166117003D01*
X199644911Y-166659502D01*
X199350437Y-167368675D01*
X199349767Y-168136556D01*
X199643003Y-168846242D01*
X200185502Y-169389689D01*
X200894675Y-169684163D01*
X201662556Y-169684833D01*
X202372242Y-169391597D01*
X202915689Y-168849098D01*
X203210163Y-168139925D01*
X203210833Y-167372044D01*
X203210833Y-182855647D01*
X203171387Y-182816133D01*
X203050069Y-182765757D01*
X202918707Y-182765643D01*
X201521707Y-182765643D01*
X201400301Y-182815807D01*
X201307333Y-182908613D01*
X201261205Y-183019700D01*
X201234844Y-183019700D01*
X201099405Y-182884024D01*
X200814773Y-182765835D01*
X200506579Y-182765566D01*
X200221741Y-182883259D01*
X200003624Y-183100995D01*
X199885435Y-183385627D01*
X199885166Y-183693821D01*
X200002859Y-183978659D01*
X200220595Y-184196776D01*
X200505227Y-184314965D01*
X200813421Y-184315234D01*
X201098259Y-184197541D01*
X201234938Y-184061100D01*
X201261308Y-184061100D01*
X201307007Y-184171699D01*
X201399813Y-184264667D01*
X201521131Y-184315043D01*
X201652493Y-184315157D01*
X203049493Y-184315157D01*
X203170899Y-184264993D01*
X203263867Y-184172187D01*
X203314243Y-184050869D01*
X203314311Y-183972200D01*
X203757940Y-183972200D01*
X203791149Y-184052570D01*
X204059616Y-184321507D01*
X204410566Y-184467233D01*
X204790567Y-184467565D01*
X205141770Y-184322451D01*
X205410707Y-184053984D01*
X205556433Y-183703034D01*
X205556765Y-183323033D01*
X205556765Y-185323033D01*
X205411651Y-184971830D01*
X205143184Y-184702893D01*
X204792234Y-184557167D01*
X204412233Y-184556835D01*
X204061030Y-184701949D01*
X203792093Y-184970416D01*
X203646367Y-185321366D01*
X203646035Y-185701367D01*
X203791149Y-186052570D01*
X204059616Y-186321507D01*
X204410566Y-186467233D01*
X204790567Y-186467565D01*
X205141770Y-186322451D01*
X205410707Y-186053984D01*
X205556433Y-185703034D01*
X205556765Y-185323033D01*
X205556765Y-187323033D01*
X205411651Y-186971830D01*
X205143184Y-186702893D01*
X204792234Y-186557167D01*
X204412233Y-186556835D01*
X204061030Y-186701949D01*
X203792093Y-186970416D01*
X203646367Y-187321366D01*
X203646035Y-187701367D01*
X203791149Y-188052570D01*
X204059616Y-188321507D01*
X204410566Y-188467233D01*
X204790567Y-188467565D01*
X205141770Y-188322451D01*
X205410707Y-188053984D01*
X205556433Y-187703034D01*
X205556765Y-187323033D01*
X205556765Y-189323033D01*
X205411651Y-188971830D01*
X205143184Y-188702893D01*
X204792234Y-188557167D01*
X204412233Y-188556835D01*
X204061030Y-188701949D01*
X203792093Y-188970416D01*
X203646367Y-189321366D01*
X203646035Y-189701367D01*
X203791149Y-190052570D01*
X204059616Y-190321507D01*
X204410566Y-190467233D01*
X204790567Y-190467565D01*
X205141770Y-190322451D01*
X205410707Y-190053984D01*
X205556433Y-189703034D01*
X205556765Y-189323033D01*
X205556765Y-191080400D01*
X205456511Y-191080400D01*
X205411651Y-190971830D01*
X205143184Y-190702893D01*
X204792234Y-190557167D01*
X204412233Y-190556835D01*
X204061030Y-190701949D01*
X203792093Y-190970416D01*
X203646367Y-191321366D01*
X203646035Y-191701367D01*
X203791149Y-192052570D01*
X204059616Y-192321507D01*
X204410566Y-192467233D01*
X204790567Y-192467565D01*
X205141770Y-192322451D01*
X205410707Y-192053984D01*
X205456375Y-191944000D01*
X205684342Y-191944000D01*
X205790800Y-192050457D01*
X205790800Y-198485847D01*
X205746241Y-198504259D01*
X205556657Y-198693511D01*
X205556657Y-198071807D01*
X205556657Y-196952593D01*
X205556543Y-196821231D01*
X205506167Y-196699913D01*
X205413199Y-196607107D01*
X205291793Y-196556943D01*
X204996450Y-196557000D01*
X204913900Y-196639550D01*
X204913900Y-197199700D01*
X205474050Y-197199700D01*
X205556600Y-197117150D01*
X205556657Y-196952593D01*
X205556657Y-198071807D01*
X205556600Y-197907250D01*
X205474050Y-197824700D01*
X204913900Y-197824700D01*
X204913900Y-198384850D01*
X204996450Y-198467400D01*
X205291793Y-198467457D01*
X205413199Y-198417293D01*
X205506167Y-198324487D01*
X205556543Y-198203169D01*
X205556657Y-198071807D01*
X205556657Y-198693511D01*
X205528124Y-198721995D01*
X205409935Y-199006627D01*
X205409666Y-199314821D01*
X205527359Y-199599659D01*
X205745095Y-199817776D01*
X206029727Y-199935965D01*
X206337921Y-199936234D01*
X206622759Y-199818541D01*
X206840876Y-199600805D01*
X206959065Y-199316173D01*
X206959334Y-199007979D01*
X206959334Y-207873600D01*
X204288900Y-207873600D01*
X204288900Y-198384850D01*
X204288900Y-197824700D01*
X204288900Y-197199700D01*
X204288900Y-196639550D01*
X204206350Y-196557000D01*
X203911007Y-196556943D01*
X203789601Y-196607107D01*
X203696633Y-196699913D01*
X203646257Y-196821231D01*
X203646143Y-196952593D01*
X203646200Y-197117150D01*
X203728750Y-197199700D01*
X204288900Y-197199700D01*
X204288900Y-197824700D01*
X203728750Y-197824700D01*
X203646200Y-197907250D01*
X203646143Y-198071807D01*
X203646257Y-198203169D01*
X203696633Y-198324487D01*
X203789601Y-198417293D01*
X203911007Y-198467457D01*
X204206350Y-198467400D01*
X204288900Y-198384850D01*
X204288900Y-207873600D01*
X198544369Y-207873600D01*
X198544369Y-202628101D01*
X198378442Y-202226527D01*
X198071469Y-201919018D01*
X197670185Y-201752390D01*
X197235681Y-201752011D01*
X196834107Y-201917938D01*
X196526598Y-202224911D01*
X196452513Y-202403325D01*
X196379462Y-202226527D01*
X196072489Y-201919018D01*
X195961000Y-201872723D01*
X195961000Y-196418929D01*
X196334241Y-196264709D01*
X196779146Y-195820580D01*
X197020224Y-195240000D01*
X197020773Y-194611358D01*
X196780709Y-194030359D01*
X196336580Y-193585454D01*
X195891150Y-193400495D01*
X195891150Y-165233350D01*
X195891150Y-164763450D01*
X195891150Y-164318950D01*
X195891150Y-163849050D01*
X195808600Y-163766500D01*
X195607293Y-163766443D01*
X195475931Y-163766557D01*
X195354613Y-163816933D01*
X195261807Y-163909901D01*
X195211643Y-164031307D01*
X195211700Y-164236400D01*
X195294250Y-164318950D01*
X195891150Y-164318950D01*
X195891150Y-164763450D01*
X195294250Y-164763450D01*
X195211700Y-164846000D01*
X195211643Y-165051093D01*
X195261807Y-165172499D01*
X195354613Y-165265467D01*
X195475931Y-165315843D01*
X195607293Y-165315957D01*
X195808600Y-165315900D01*
X195891150Y-165233350D01*
X195891150Y-193400495D01*
X195756000Y-193344376D01*
X195127358Y-193343827D01*
X194546359Y-193583891D01*
X194540357Y-193589882D01*
X194540357Y-164773007D01*
X194540300Y-164670950D01*
X194457750Y-164588400D01*
X193468100Y-164588400D01*
X193468100Y-164707406D01*
X193384647Y-164707334D01*
X192452100Y-164707334D01*
X192452100Y-164588400D01*
X191462450Y-164588400D01*
X191379900Y-164670950D01*
X191379843Y-164773007D01*
X191379957Y-164904369D01*
X191430333Y-165025687D01*
X191523301Y-165118493D01*
X191610100Y-165154357D01*
X191610100Y-165830400D01*
X191860100Y-165830400D01*
X191860100Y-166846400D01*
X191610100Y-166846400D01*
X191610100Y-167836050D01*
X191692650Y-167918600D01*
X191925493Y-167918657D01*
X192046899Y-167868493D01*
X192129513Y-167786022D01*
X192136916Y-167803937D01*
X192243999Y-167911208D01*
X192383982Y-167969334D01*
X192404600Y-167969351D01*
X192404600Y-168097134D01*
X191821547Y-168097134D01*
X191681463Y-168155016D01*
X191574192Y-168262099D01*
X191516066Y-168402082D01*
X191515934Y-168553653D01*
X191515934Y-169950653D01*
X191573816Y-170090737D01*
X191680899Y-170198008D01*
X191820882Y-170256134D01*
X191972453Y-170256266D01*
X192861453Y-170256266D01*
X193001537Y-170198384D01*
X193108808Y-170091301D01*
X193166934Y-169951318D01*
X193167066Y-169799747D01*
X193167066Y-169636738D01*
X193167066Y-169636737D01*
X193267698Y-169569498D01*
X193352897Y-169484299D01*
X193352897Y-169484298D01*
X193352898Y-169484298D01*
X193473315Y-169304081D01*
X193515600Y-169091501D01*
X193515599Y-169091500D01*
X193515600Y-169091500D01*
X193515600Y-167969466D01*
X193535553Y-167969466D01*
X193675637Y-167911584D01*
X193782908Y-167804501D01*
X193841034Y-167664518D01*
X193841166Y-167512947D01*
X193841166Y-165168622D01*
X194275493Y-165168657D01*
X194396899Y-165118493D01*
X194489867Y-165025687D01*
X194540243Y-164904369D01*
X194540357Y-164773007D01*
X194540357Y-193589882D01*
X194101454Y-194028020D01*
X193860376Y-194608600D01*
X193859827Y-195237242D01*
X194099891Y-195818241D01*
X194544020Y-196263146D01*
X194919600Y-196419100D01*
X194919600Y-201883034D01*
X194835127Y-201917938D01*
X194527618Y-202224911D01*
X194453533Y-202403325D01*
X194380482Y-202226527D01*
X194073509Y-201919018D01*
X193672225Y-201752390D01*
X193237721Y-201752011D01*
X192836147Y-201917938D01*
X192528638Y-202224911D01*
X192362010Y-202626195D01*
X192361631Y-203060699D01*
X192527558Y-203462273D01*
X192834531Y-203769782D01*
X193235815Y-203936410D01*
X193670319Y-203936789D01*
X194071893Y-203770862D01*
X194379402Y-203463889D01*
X194453486Y-203285474D01*
X194526538Y-203462273D01*
X194833511Y-203769782D01*
X195234795Y-203936410D01*
X195669299Y-203936789D01*
X196070873Y-203770862D01*
X196378382Y-203463889D01*
X196452466Y-203285474D01*
X196525518Y-203462273D01*
X196832491Y-203769782D01*
X197233775Y-203936410D01*
X197668279Y-203936789D01*
X198069853Y-203770862D01*
X198377362Y-203463889D01*
X198543990Y-203062605D01*
X198544369Y-202628101D01*
X198544369Y-207873600D01*
X191262066Y-207873600D01*
X191262066Y-169799747D01*
X191262066Y-168402747D01*
X191204184Y-168262663D01*
X191097101Y-168155392D01*
X190957118Y-168097266D01*
X190805547Y-168097134D01*
X190315600Y-168097134D01*
X190315600Y-167969466D01*
X190335553Y-167969466D01*
X190475637Y-167911584D01*
X190582908Y-167804501D01*
X190590611Y-167785947D01*
X190673301Y-167868493D01*
X190794707Y-167918657D01*
X191027550Y-167918600D01*
X191110100Y-167836050D01*
X191110100Y-166846400D01*
X190860100Y-166846400D01*
X190860100Y-165830400D01*
X191110100Y-165830400D01*
X191110100Y-164840750D01*
X191027550Y-164758200D01*
X190794707Y-164758143D01*
X190673301Y-164808307D01*
X190590686Y-164890777D01*
X190583284Y-164872863D01*
X190476201Y-164765592D01*
X190336218Y-164707466D01*
X190184647Y-164707334D01*
X189184647Y-164707334D01*
X189044563Y-164765216D01*
X188937292Y-164872299D01*
X188879166Y-165012282D01*
X188879034Y-165163853D01*
X188879034Y-167663853D01*
X188936916Y-167803937D01*
X189043999Y-167911208D01*
X189183982Y-167969334D01*
X189204600Y-167969351D01*
X189204600Y-168970200D01*
X189246885Y-169182781D01*
X189367302Y-169362998D01*
X189573802Y-169569498D01*
X189610934Y-169594308D01*
X189610934Y-169950653D01*
X189668816Y-170090737D01*
X189775899Y-170198008D01*
X189915882Y-170256134D01*
X190067453Y-170256266D01*
X190956453Y-170256266D01*
X191096537Y-170198384D01*
X191203808Y-170091301D01*
X191261934Y-169951318D01*
X191262066Y-169799747D01*
X191262066Y-207873600D01*
X185810100Y-207873600D01*
X185810100Y-167836050D01*
X185810100Y-166846400D01*
X185810100Y-165830400D01*
X185810100Y-164840750D01*
X185727550Y-164758200D01*
X185494707Y-164758143D01*
X185390332Y-164801269D01*
X185390357Y-164773007D01*
X185390357Y-163903793D01*
X185390243Y-163772431D01*
X185339867Y-163651113D01*
X185246899Y-163558307D01*
X185198720Y-163538400D01*
X185246899Y-163518493D01*
X185339867Y-163425687D01*
X185390243Y-163304369D01*
X185390357Y-163173007D01*
X185390357Y-162303793D01*
X185390243Y-162172431D01*
X185339867Y-162051113D01*
X185246899Y-161958307D01*
X185198720Y-161938400D01*
X185246899Y-161918493D01*
X185339867Y-161825687D01*
X185390243Y-161704369D01*
X185390357Y-161573007D01*
X185390357Y-160573007D01*
X185340193Y-160451601D01*
X185247387Y-160358633D01*
X185198690Y-160338412D01*
X185246899Y-160318493D01*
X185339867Y-160225687D01*
X185390243Y-160104369D01*
X185390357Y-159973007D01*
X185390357Y-158973007D01*
X185340193Y-158851601D01*
X185247387Y-158758633D01*
X185198690Y-158738412D01*
X185246899Y-158718493D01*
X185339867Y-158625687D01*
X185390243Y-158504369D01*
X185390357Y-158373007D01*
X185390357Y-157373007D01*
X185340193Y-157251601D01*
X185247387Y-157158633D01*
X185198690Y-157138412D01*
X185246899Y-157118493D01*
X185339867Y-157025687D01*
X185390243Y-156904369D01*
X185390357Y-156773007D01*
X185390357Y-155773007D01*
X185340193Y-155651601D01*
X185247387Y-155558633D01*
X185198690Y-155538412D01*
X185246899Y-155518493D01*
X185339867Y-155425687D01*
X185390243Y-155304369D01*
X185390357Y-155173007D01*
X185390357Y-154303793D01*
X185390243Y-154172431D01*
X185339867Y-154051113D01*
X185246899Y-153958307D01*
X185198720Y-153938400D01*
X185246899Y-153918493D01*
X185339867Y-153825687D01*
X185390243Y-153704369D01*
X185390357Y-153573007D01*
X185390357Y-152573007D01*
X185340193Y-152451601D01*
X185247387Y-152358633D01*
X185198690Y-152338412D01*
X185246899Y-152318493D01*
X185339867Y-152225687D01*
X185390243Y-152104369D01*
X185390357Y-151973007D01*
X185390357Y-151103793D01*
X185390243Y-150972431D01*
X185339867Y-150851113D01*
X185246899Y-150758307D01*
X185198720Y-150738400D01*
X185246899Y-150718493D01*
X185339867Y-150625687D01*
X185390243Y-150504369D01*
X185390357Y-150373007D01*
X185390357Y-149373007D01*
X185340193Y-149251601D01*
X185247387Y-149158633D01*
X185198690Y-149138412D01*
X185246899Y-149118493D01*
X185339867Y-149025687D01*
X185390243Y-148904369D01*
X185390357Y-148773007D01*
X185390357Y-147903793D01*
X185390243Y-147772431D01*
X185339867Y-147651113D01*
X185246899Y-147558307D01*
X185198720Y-147538400D01*
X185246899Y-147518493D01*
X185339867Y-147425687D01*
X185390243Y-147304369D01*
X185390357Y-147173007D01*
X185390357Y-146173007D01*
X185340193Y-146051601D01*
X185247387Y-145958633D01*
X185198690Y-145938412D01*
X185246899Y-145918493D01*
X185339867Y-145825687D01*
X185390243Y-145704369D01*
X185390357Y-145573007D01*
X185390357Y-144573007D01*
X185340193Y-144451601D01*
X185247387Y-144358633D01*
X185198690Y-144338412D01*
X185246899Y-144318493D01*
X185339867Y-144225687D01*
X185390243Y-144104369D01*
X185390357Y-143973007D01*
X185390357Y-143103793D01*
X185390243Y-142972431D01*
X185339867Y-142851113D01*
X185246899Y-142758307D01*
X185125493Y-142708143D01*
X184400650Y-142708200D01*
X184318100Y-142790750D01*
X184318100Y-143288400D01*
X185307750Y-143288400D01*
X185390300Y-143205850D01*
X185390357Y-143103793D01*
X185390357Y-143973007D01*
X185390300Y-143870950D01*
X185307750Y-143788400D01*
X184318100Y-143788400D01*
X184318100Y-144038400D01*
X183302100Y-144038400D01*
X183302100Y-143788400D01*
X183302100Y-143288400D01*
X183302100Y-142790750D01*
X183219550Y-142708200D01*
X182494707Y-142708143D01*
X182373301Y-142758307D01*
X182280333Y-142851113D01*
X182229957Y-142972431D01*
X182229843Y-143103793D01*
X182229900Y-143205850D01*
X182312450Y-143288400D01*
X183302100Y-143288400D01*
X183302100Y-143788400D01*
X182312450Y-143788400D01*
X182229900Y-143870950D01*
X182229843Y-143973007D01*
X182229957Y-144104369D01*
X182280333Y-144225687D01*
X182373301Y-144318493D01*
X182421479Y-144338400D01*
X182373301Y-144358307D01*
X182280333Y-144451113D01*
X182229957Y-144572431D01*
X182229843Y-144703793D01*
X182229843Y-145703793D01*
X182280007Y-145825199D01*
X182372813Y-145918167D01*
X182421509Y-145938387D01*
X182373301Y-145958307D01*
X182280333Y-146051113D01*
X182229957Y-146172431D01*
X182229843Y-146303793D01*
X182229843Y-147303793D01*
X182280007Y-147425199D01*
X182372813Y-147518167D01*
X182421509Y-147538387D01*
X182373301Y-147558307D01*
X182280333Y-147651113D01*
X182229957Y-147772431D01*
X182229843Y-147903793D01*
X182229900Y-148005850D01*
X182312450Y-148088400D01*
X183302100Y-148088400D01*
X183302100Y-147838400D01*
X184318100Y-147838400D01*
X184318100Y-148088400D01*
X185307750Y-148088400D01*
X185390300Y-148005850D01*
X185390357Y-147903793D01*
X185390357Y-148773007D01*
X185390300Y-148670950D01*
X185307750Y-148588400D01*
X184318100Y-148588400D01*
X184318100Y-148838400D01*
X183302100Y-148838400D01*
X183302100Y-148588400D01*
X182312450Y-148588400D01*
X182229900Y-148670950D01*
X182229843Y-148773007D01*
X182229957Y-148904369D01*
X182280333Y-149025687D01*
X182373301Y-149118493D01*
X182421479Y-149138400D01*
X182373301Y-149158307D01*
X182280333Y-149251113D01*
X182229957Y-149372431D01*
X182229843Y-149503793D01*
X182229843Y-150503793D01*
X182280007Y-150625199D01*
X182372813Y-150718167D01*
X182421509Y-150738387D01*
X182373301Y-150758307D01*
X182280333Y-150851113D01*
X182229957Y-150972431D01*
X182229843Y-151103793D01*
X182229900Y-151205850D01*
X182312450Y-151288400D01*
X183302100Y-151288400D01*
X183302100Y-151038400D01*
X184318100Y-151038400D01*
X184318100Y-151288400D01*
X185307750Y-151288400D01*
X185390300Y-151205850D01*
X185390357Y-151103793D01*
X185390357Y-151973007D01*
X185390300Y-151870950D01*
X185307750Y-151788400D01*
X184318100Y-151788400D01*
X184318100Y-152038400D01*
X183302100Y-152038400D01*
X183302100Y-151788400D01*
X182312450Y-151788400D01*
X182229900Y-151870950D01*
X182229843Y-151973007D01*
X182229957Y-152104369D01*
X182280333Y-152225687D01*
X182373301Y-152318493D01*
X182421479Y-152338400D01*
X182373301Y-152358307D01*
X182280333Y-152451113D01*
X182229957Y-152572431D01*
X182229843Y-152703793D01*
X182229843Y-152706600D01*
X181381457Y-152706600D01*
X181381457Y-152614007D01*
X181331293Y-152492601D01*
X181238487Y-152399633D01*
X181117169Y-152349257D01*
X180985807Y-152349143D01*
X180889506Y-152349143D01*
X181021776Y-152217105D01*
X181139965Y-151932473D01*
X181140234Y-151624279D01*
X181022541Y-151339441D01*
X180804805Y-151121324D01*
X180520173Y-151003135D01*
X180211979Y-151002866D01*
X179927141Y-151120559D01*
X179709024Y-151338295D01*
X179590835Y-151622927D01*
X179590566Y-151931121D01*
X179708259Y-152215959D01*
X179832000Y-152339916D01*
X179832000Y-152349143D01*
X179588807Y-152349143D01*
X179467401Y-152399307D01*
X179374433Y-152492113D01*
X179324057Y-152613431D01*
X179323943Y-152744793D01*
X179323943Y-153633793D01*
X179374107Y-153755199D01*
X179466913Y-153848167D01*
X179588231Y-153898543D01*
X179719593Y-153898657D01*
X181116593Y-153898657D01*
X181237999Y-153848493D01*
X181330967Y-153755687D01*
X181381343Y-153634369D01*
X181381398Y-153570200D01*
X182229843Y-153570200D01*
X182229843Y-153703793D01*
X182280007Y-153825199D01*
X182372813Y-153918167D01*
X182421509Y-153938387D01*
X182373301Y-153958307D01*
X182280333Y-154051113D01*
X182229957Y-154172431D01*
X182229843Y-154303793D01*
X182229900Y-154405850D01*
X182312450Y-154488400D01*
X183302100Y-154488400D01*
X183302100Y-154238400D01*
X184318100Y-154238400D01*
X184318100Y-154488400D01*
X185307750Y-154488400D01*
X185390300Y-154405850D01*
X185390357Y-154303793D01*
X185390357Y-155173007D01*
X185390300Y-155070950D01*
X185307750Y-154988400D01*
X184318100Y-154988400D01*
X184318100Y-155238400D01*
X183302100Y-155238400D01*
X183302100Y-154988400D01*
X182312450Y-154988400D01*
X182229900Y-155070950D01*
X182229843Y-155173007D01*
X182229957Y-155304369D01*
X182280333Y-155425687D01*
X182373301Y-155518493D01*
X182421479Y-155538400D01*
X182373301Y-155558307D01*
X182280333Y-155651113D01*
X182229957Y-155772431D01*
X182229843Y-155903793D01*
X182229843Y-156903793D01*
X182280007Y-157025199D01*
X182372813Y-157118167D01*
X182421509Y-157138387D01*
X182373301Y-157158307D01*
X182280333Y-157251113D01*
X182229957Y-157372431D01*
X182229843Y-157503793D01*
X182229843Y-158503793D01*
X182280007Y-158625199D01*
X182372813Y-158718167D01*
X182421509Y-158738387D01*
X182373301Y-158758307D01*
X182280333Y-158851113D01*
X182229957Y-158972431D01*
X182229843Y-159103793D01*
X182229843Y-160103793D01*
X182280007Y-160225199D01*
X182372813Y-160318167D01*
X182421509Y-160338387D01*
X182373301Y-160358307D01*
X182280333Y-160451113D01*
X182229957Y-160572431D01*
X182229843Y-160703793D01*
X182229843Y-161703793D01*
X182280007Y-161825199D01*
X182372813Y-161918167D01*
X182421509Y-161938387D01*
X182373301Y-161958307D01*
X182280333Y-162051113D01*
X182229957Y-162172431D01*
X182229843Y-162303793D01*
X182229900Y-162405850D01*
X182312450Y-162488400D01*
X183302100Y-162488400D01*
X183302100Y-162238400D01*
X184318100Y-162238400D01*
X184318100Y-162488400D01*
X185307750Y-162488400D01*
X185390300Y-162405850D01*
X185390357Y-162303793D01*
X185390357Y-163173007D01*
X185390300Y-163070950D01*
X185307750Y-162988400D01*
X184318100Y-162988400D01*
X184318100Y-163486050D01*
X184370450Y-163538400D01*
X184318100Y-163590750D01*
X184318100Y-164088400D01*
X185307750Y-164088400D01*
X185390300Y-164005850D01*
X185390357Y-163903793D01*
X185390357Y-164773007D01*
X185390300Y-164670950D01*
X185307750Y-164588400D01*
X184318100Y-164588400D01*
X184318100Y-164758200D01*
X184127550Y-164758200D01*
X183894707Y-164758143D01*
X183773301Y-164808307D01*
X183743155Y-164838400D01*
X183302100Y-164838400D01*
X183302100Y-164588400D01*
X183302100Y-164088400D01*
X183302100Y-163590750D01*
X183249750Y-163538400D01*
X183302100Y-163486050D01*
X183302100Y-162988400D01*
X182312450Y-162988400D01*
X182229900Y-163070950D01*
X182229843Y-163173007D01*
X182229957Y-163304369D01*
X182280333Y-163425687D01*
X182373301Y-163518493D01*
X182421479Y-163538400D01*
X182373301Y-163558307D01*
X182280333Y-163651113D01*
X182229957Y-163772431D01*
X182229843Y-163903793D01*
X182229900Y-164005850D01*
X182312450Y-164088400D01*
X183302100Y-164088400D01*
X183302100Y-164588400D01*
X182312450Y-164588400D01*
X182229900Y-164670950D01*
X182229843Y-164773007D01*
X182229957Y-164904369D01*
X182280333Y-165025687D01*
X182373301Y-165118493D01*
X182494707Y-165168657D01*
X183219550Y-165168600D01*
X183302098Y-165086052D01*
X183302098Y-165168600D01*
X183302100Y-165168600D01*
X183629844Y-165168600D01*
X183629900Y-165747850D01*
X183712450Y-165830400D01*
X184210100Y-165830400D01*
X184210100Y-165810400D01*
X184710100Y-165810400D01*
X184710100Y-165830400D01*
X185207750Y-165830400D01*
X185260100Y-165778050D01*
X185312450Y-165830400D01*
X185810100Y-165830400D01*
X185810100Y-166846400D01*
X185312450Y-166846400D01*
X185260100Y-166898750D01*
X185207750Y-166846400D01*
X184710100Y-166846400D01*
X184710100Y-167836050D01*
X184792650Y-167918600D01*
X185025493Y-167918657D01*
X185146899Y-167868493D01*
X185239867Y-167775687D01*
X185260100Y-167726960D01*
X185280333Y-167775687D01*
X185373301Y-167868493D01*
X185494707Y-167918657D01*
X185727550Y-167918600D01*
X185810100Y-167836050D01*
X185810100Y-207873600D01*
X184345618Y-207873600D01*
X184345618Y-194787268D01*
X184275861Y-194436572D01*
X184210100Y-194364264D01*
X184210100Y-167836050D01*
X184210100Y-166846400D01*
X183712450Y-166846400D01*
X183629900Y-166928950D01*
X183629843Y-167523007D01*
X183629957Y-167654369D01*
X183680333Y-167775687D01*
X183773301Y-167868493D01*
X183894707Y-167918657D01*
X184127550Y-167918600D01*
X184210100Y-167836050D01*
X184210100Y-194364264D01*
X184118964Y-194264056D01*
X183458720Y-194924300D01*
X184118964Y-195584544D01*
X184275861Y-195412028D01*
X184345618Y-194787268D01*
X184345618Y-207873600D01*
X183400544Y-207873600D01*
X183400544Y-196302964D01*
X183400544Y-193545636D01*
X183302100Y-193456104D01*
X183228028Y-193388739D01*
X182603268Y-193318982D01*
X182283234Y-193382640D01*
X182283234Y-177329079D01*
X182165541Y-177044241D01*
X181947805Y-176826124D01*
X181940200Y-176822966D01*
X181940200Y-161226500D01*
X181907331Y-161061258D01*
X181907331Y-161061257D01*
X181813729Y-160921171D01*
X181381457Y-160488899D01*
X181381457Y-155538793D01*
X181381457Y-154519007D01*
X181331293Y-154397601D01*
X181238487Y-154304633D01*
X181117169Y-154254257D01*
X180985807Y-154254143D01*
X180784500Y-154254200D01*
X180701950Y-154336750D01*
X180701950Y-154806650D01*
X181298850Y-154806650D01*
X181381400Y-154724100D01*
X181381457Y-154519007D01*
X181381457Y-155538793D01*
X181381400Y-155333700D01*
X181298850Y-155251150D01*
X180701950Y-155251150D01*
X180701950Y-155721050D01*
X180784500Y-155803600D01*
X180985807Y-155803657D01*
X181117169Y-155803543D01*
X181238487Y-155753167D01*
X181331293Y-155660199D01*
X181381457Y-155538793D01*
X181381457Y-160488899D01*
X180003450Y-159110892D01*
X180003450Y-155721050D01*
X180003450Y-155251150D01*
X180003450Y-154806650D01*
X180003450Y-154336750D01*
X179920900Y-154254200D01*
X179719593Y-154254143D01*
X179588231Y-154254257D01*
X179466913Y-154304633D01*
X179374107Y-154397601D01*
X179323943Y-154519007D01*
X179324000Y-154724100D01*
X179406550Y-154806650D01*
X180003450Y-154806650D01*
X180003450Y-155251150D01*
X179406550Y-155251150D01*
X179324000Y-155333700D01*
X179323943Y-155538793D01*
X179374107Y-155660199D01*
X179466913Y-155753167D01*
X179588231Y-155803543D01*
X179719593Y-155803657D01*
X179920900Y-155803600D01*
X180003450Y-155721050D01*
X180003450Y-159110892D01*
X179210229Y-158317671D01*
X179070143Y-158224069D01*
X178904900Y-158191200D01*
X177617177Y-158191200D01*
X177617177Y-157857837D01*
X177567013Y-157736431D01*
X177482634Y-157651904D01*
X177482634Y-154126179D01*
X177364941Y-153841341D01*
X177147205Y-153623224D01*
X176862573Y-153505035D01*
X176554379Y-153504766D01*
X176269541Y-153622459D01*
X176132861Y-153758900D01*
X176060157Y-153758900D01*
X176060157Y-153515707D01*
X176060100Y-153515569D01*
X176060100Y-153245024D01*
X176070099Y-153240893D01*
X176163067Y-153148087D01*
X176213443Y-153026769D01*
X176213557Y-152895407D01*
X176213557Y-151115407D01*
X176163393Y-150994001D01*
X176070587Y-150901033D01*
X175958557Y-150854513D01*
X175958557Y-142225407D01*
X175958557Y-139935407D01*
X175908393Y-139814001D01*
X175815587Y-139721033D01*
X175694269Y-139670657D01*
X175562907Y-139670543D01*
X173022907Y-139670543D01*
X172901501Y-139720707D01*
X172808533Y-139813513D01*
X172758157Y-139934831D01*
X172758043Y-140066193D01*
X172758043Y-142356193D01*
X172808207Y-142477599D01*
X172901013Y-142570567D01*
X173022331Y-142620943D01*
X173153693Y-142621057D01*
X175693693Y-142621057D01*
X175815099Y-142570893D01*
X175908067Y-142478087D01*
X175958443Y-142356769D01*
X175958557Y-142225407D01*
X175958557Y-150854513D01*
X175949269Y-150850657D01*
X175817907Y-150850543D01*
X175307907Y-150850543D01*
X175186501Y-150900707D01*
X175093533Y-150993513D01*
X175043157Y-151114831D01*
X175043043Y-151246193D01*
X175043043Y-153026193D01*
X175093207Y-153147599D01*
X175186013Y-153240567D01*
X175196500Y-153244921D01*
X175196500Y-153250843D01*
X174790100Y-153250843D01*
X174790100Y-153245024D01*
X174800099Y-153240893D01*
X174893067Y-153148087D01*
X174943443Y-153026769D01*
X174943557Y-152895407D01*
X174943557Y-151115407D01*
X174893393Y-150994001D01*
X174800587Y-150901033D01*
X174679269Y-150850657D01*
X174547907Y-150850543D01*
X174037907Y-150850543D01*
X173916501Y-150900707D01*
X173823533Y-150993513D01*
X173773157Y-151114831D01*
X173773043Y-151246193D01*
X173773043Y-153026193D01*
X173823207Y-153147599D01*
X173916013Y-153240567D01*
X173926500Y-153244921D01*
X173926500Y-153265803D01*
X173890293Y-153250843D01*
X173685200Y-153250900D01*
X173673557Y-153250900D01*
X173596302Y-153250900D01*
X173596302Y-153174805D01*
X173623067Y-153148087D01*
X173673443Y-153026769D01*
X173673557Y-152895407D01*
X173673557Y-151246193D01*
X173673443Y-151114831D01*
X173623067Y-150993513D01*
X173530099Y-150900707D01*
X173408693Y-150850543D01*
X173298350Y-150850600D01*
X173215800Y-150933150D01*
X173215800Y-151625800D01*
X173590950Y-151625800D01*
X173673500Y-151543250D01*
X173673557Y-151246193D01*
X173673557Y-152895407D01*
X173673500Y-152598350D01*
X173590950Y-152515800D01*
X173215800Y-152515800D01*
X173215800Y-152598800D01*
X172960800Y-152598800D01*
X172960800Y-152515800D01*
X172960800Y-151625800D01*
X172960800Y-150933150D01*
X172878250Y-150850600D01*
X172767907Y-150850543D01*
X172646501Y-150900707D01*
X172553533Y-150993513D01*
X172503157Y-151114831D01*
X172503043Y-151246193D01*
X172503100Y-151543250D01*
X172585650Y-151625800D01*
X172960800Y-151625800D01*
X172960800Y-152515800D01*
X172585650Y-152515800D01*
X172503100Y-152598350D01*
X172503043Y-152895407D01*
X172503157Y-153026769D01*
X172553533Y-153148087D01*
X172580298Y-153174805D01*
X172580298Y-153291000D01*
X172767769Y-153291000D01*
X172767907Y-153291057D01*
X172773188Y-153291054D01*
X172749101Y-153301007D01*
X172656133Y-153393813D01*
X172605757Y-153515131D01*
X172605643Y-153646493D01*
X172605700Y-153847800D01*
X172688250Y-153930350D01*
X173158150Y-153930350D01*
X173158150Y-153751600D01*
X173602650Y-153751600D01*
X173602650Y-153930350D01*
X173824900Y-153930350D01*
X173824900Y-154628850D01*
X173602650Y-154628850D01*
X173602650Y-155225750D01*
X173685200Y-155308300D01*
X173890293Y-155308357D01*
X173926500Y-155293396D01*
X173926500Y-155432255D01*
X173902993Y-155422543D01*
X173697900Y-155422600D01*
X173615350Y-155505150D01*
X173615350Y-156102050D01*
X173837600Y-156102050D01*
X173837600Y-156800550D01*
X173615350Y-156800550D01*
X173615350Y-157397450D01*
X173697900Y-157480000D01*
X173902993Y-157480057D01*
X174015400Y-157433611D01*
X174015400Y-157620527D01*
X173960681Y-157643137D01*
X173867713Y-157735943D01*
X173817337Y-157857261D01*
X173817223Y-157988623D01*
X173817223Y-159388163D01*
X173867387Y-159509569D01*
X173960193Y-159602537D01*
X174081511Y-159652913D01*
X174212873Y-159653027D01*
X174812313Y-159653027D01*
X174933719Y-159602863D01*
X175026687Y-159510057D01*
X175077063Y-159388739D01*
X175077177Y-159257377D01*
X175077177Y-157857837D01*
X175027013Y-157736431D01*
X174934207Y-157643463D01*
X174879000Y-157620538D01*
X174879000Y-157480022D01*
X174918993Y-157480057D01*
X175807993Y-157480057D01*
X175929399Y-157429893D01*
X176022367Y-157337087D01*
X176072743Y-157215769D01*
X176072857Y-157084407D01*
X176072857Y-155687407D01*
X176022693Y-155566001D01*
X175929887Y-155473033D01*
X175808569Y-155422657D01*
X175677207Y-155422543D01*
X174790100Y-155422543D01*
X174790100Y-155308256D01*
X174906293Y-155308357D01*
X175795293Y-155308357D01*
X175916699Y-155258193D01*
X176009667Y-155165387D01*
X176060043Y-155044069D01*
X176060157Y-154912707D01*
X176060157Y-154800300D01*
X176132955Y-154800300D01*
X176268395Y-154935976D01*
X176553027Y-155054165D01*
X176861221Y-155054434D01*
X177146059Y-154936741D01*
X177364176Y-154719005D01*
X177482365Y-154434373D01*
X177482634Y-154126179D01*
X177482634Y-157651904D01*
X177474207Y-157643463D01*
X177352889Y-157593087D01*
X177221527Y-157592973D01*
X176622087Y-157592973D01*
X176500681Y-157643137D01*
X176407713Y-157735943D01*
X176357337Y-157857261D01*
X176357223Y-157988623D01*
X176357223Y-158191200D01*
X176347177Y-158191200D01*
X176347177Y-157857837D01*
X176297013Y-157736431D01*
X176204207Y-157643463D01*
X176082889Y-157593087D01*
X175951527Y-157592973D01*
X175352087Y-157592973D01*
X175230681Y-157643137D01*
X175137713Y-157735943D01*
X175087337Y-157857261D01*
X175087223Y-157988623D01*
X175087223Y-159388163D01*
X175137387Y-159509569D01*
X175230193Y-159602537D01*
X175351511Y-159652913D01*
X175482873Y-159653027D01*
X176082313Y-159653027D01*
X176203719Y-159602863D01*
X176296687Y-159510057D01*
X176347063Y-159388739D01*
X176347177Y-159257377D01*
X176347177Y-159054800D01*
X176357223Y-159054800D01*
X176357223Y-159388163D01*
X176407387Y-159509569D01*
X176500193Y-159602537D01*
X176621511Y-159652913D01*
X176752873Y-159653027D01*
X177352313Y-159653027D01*
X177473719Y-159602863D01*
X177566687Y-159510057D01*
X177617063Y-159388739D01*
X177617177Y-159257377D01*
X177617177Y-159054800D01*
X178726042Y-159054800D01*
X181076600Y-161405358D01*
X181076600Y-176822690D01*
X181070141Y-176825359D01*
X180852024Y-177043095D01*
X180733835Y-177327727D01*
X180733566Y-177635921D01*
X180851259Y-177920759D01*
X181068995Y-178138876D01*
X181353627Y-178257065D01*
X181661821Y-178257334D01*
X181946659Y-178139641D01*
X182164776Y-177921905D01*
X182282965Y-177637273D01*
X182283234Y-177329079D01*
X182283234Y-193382640D01*
X182252572Y-193388739D01*
X182080056Y-193545636D01*
X182740300Y-194205880D01*
X183400544Y-193545636D01*
X183400544Y-196302964D01*
X182740300Y-195642720D01*
X182080056Y-196302964D01*
X182252572Y-196459861D01*
X182877332Y-196529618D01*
X183228028Y-196459861D01*
X183400544Y-196302964D01*
X183400544Y-207873600D01*
X182021880Y-207873600D01*
X182021880Y-194924300D01*
X181361636Y-194264056D01*
X181204739Y-194436572D01*
X181134982Y-195061332D01*
X181204739Y-195412028D01*
X181361636Y-195584544D01*
X182021880Y-194924300D01*
X182021880Y-207873600D01*
X179222534Y-207873600D01*
X179222534Y-163790879D01*
X179104841Y-163506041D01*
X178887105Y-163287924D01*
X178602473Y-163169735D01*
X178294279Y-163169466D01*
X178009441Y-163287159D01*
X177860039Y-163436300D01*
X177617177Y-163436300D01*
X177617177Y-163191837D01*
X177567013Y-163070431D01*
X177474207Y-162977463D01*
X177352889Y-162927087D01*
X177221527Y-162926973D01*
X176622087Y-162926973D01*
X176500681Y-162977137D01*
X176407713Y-163069943D01*
X176357337Y-163191261D01*
X176357223Y-163322623D01*
X176357223Y-164722163D01*
X176407387Y-164843569D01*
X176500193Y-164936537D01*
X176621511Y-164986913D01*
X176752873Y-164987027D01*
X177352313Y-164987027D01*
X177473719Y-164936863D01*
X177566687Y-164844057D01*
X177617063Y-164722739D01*
X177617177Y-164591377D01*
X177617177Y-164477700D01*
X177885533Y-164477700D01*
X178008295Y-164600676D01*
X178292927Y-164718865D01*
X178601121Y-164719134D01*
X178885959Y-164601441D01*
X179104076Y-164383705D01*
X179222265Y-164099073D01*
X179222534Y-163790879D01*
X179222534Y-207873600D01*
X178830833Y-207873600D01*
X178830833Y-167372044D01*
X178537597Y-166662358D01*
X177995098Y-166118911D01*
X177285925Y-165824437D01*
X176518044Y-165823767D01*
X176347177Y-165894367D01*
X176347177Y-164591377D01*
X176347177Y-163191837D01*
X176297013Y-163070431D01*
X176204207Y-162977463D01*
X176082889Y-162927087D01*
X175951527Y-162926973D01*
X175352087Y-162926973D01*
X175230681Y-162977137D01*
X175137713Y-163069943D01*
X175087337Y-163191261D01*
X175087223Y-163322623D01*
X175087223Y-164722163D01*
X175137387Y-164843569D01*
X175230193Y-164936537D01*
X175351511Y-164986913D01*
X175482873Y-164987027D01*
X176082313Y-164987027D01*
X176203719Y-164936863D01*
X176296687Y-164844057D01*
X176347063Y-164722739D01*
X176347177Y-164591377D01*
X176347177Y-165894367D01*
X175808358Y-166117003D01*
X175264911Y-166659502D01*
X175077177Y-167111616D01*
X175077177Y-164591377D01*
X175077177Y-163191837D01*
X175027013Y-163070431D01*
X174934207Y-162977463D01*
X174812889Y-162927087D01*
X174681527Y-162926973D01*
X174082087Y-162926973D01*
X173960681Y-162977137D01*
X173867713Y-163069943D01*
X173817337Y-163191261D01*
X173817223Y-163322623D01*
X173817223Y-164722163D01*
X173867387Y-164843569D01*
X173960193Y-164936537D01*
X174081511Y-164986913D01*
X174212873Y-164987027D01*
X174812313Y-164987027D01*
X174933719Y-164936863D01*
X175026687Y-164844057D01*
X175077063Y-164722739D01*
X175077177Y-164591377D01*
X175077177Y-167111616D01*
X174970437Y-167368675D01*
X174969767Y-168136556D01*
X175263003Y-168846242D01*
X175805502Y-169389689D01*
X176514675Y-169684163D01*
X177282556Y-169684833D01*
X177992242Y-169391597D01*
X178535689Y-168849098D01*
X178830163Y-168139925D01*
X178830833Y-167372044D01*
X178830833Y-207873600D01*
X177393657Y-207873600D01*
X177393657Y-191907807D01*
X177393657Y-191018807D01*
X177393657Y-190133593D01*
X177393657Y-189113807D01*
X177343493Y-188992401D01*
X177250687Y-188899433D01*
X177129369Y-188849057D01*
X176998007Y-188848943D01*
X176796700Y-188849000D01*
X176714150Y-188931550D01*
X176714150Y-189401450D01*
X177311050Y-189401450D01*
X177393600Y-189318900D01*
X177393657Y-189113807D01*
X177393657Y-190133593D01*
X177393600Y-189928500D01*
X177311050Y-189845950D01*
X176714150Y-189845950D01*
X176714150Y-190315850D01*
X176796700Y-190398400D01*
X176998007Y-190398457D01*
X177129369Y-190398343D01*
X177250687Y-190347967D01*
X177343493Y-190254999D01*
X177393657Y-190133593D01*
X177393657Y-191018807D01*
X177343493Y-190897401D01*
X177250687Y-190804433D01*
X177129369Y-190754057D01*
X176998007Y-190753943D01*
X176015650Y-190753943D01*
X176015650Y-190315850D01*
X176015650Y-189845950D01*
X176015650Y-189401450D01*
X176015650Y-188931550D01*
X175933100Y-188849000D01*
X175731793Y-188848943D01*
X175600431Y-188849057D01*
X175479113Y-188899433D01*
X175386307Y-188992401D01*
X175336143Y-189113807D01*
X175336200Y-189318900D01*
X175418750Y-189401450D01*
X176015650Y-189401450D01*
X176015650Y-189845950D01*
X175418750Y-189845950D01*
X175336200Y-189928500D01*
X175336143Y-190133593D01*
X175386307Y-190254999D01*
X175479113Y-190347967D01*
X175600431Y-190398343D01*
X175731793Y-190398457D01*
X175933100Y-190398400D01*
X176015650Y-190315850D01*
X176015650Y-190753943D01*
X175601007Y-190753943D01*
X175479601Y-190804107D01*
X175386633Y-190896913D01*
X175336257Y-191018231D01*
X175336203Y-191080400D01*
X174356765Y-191080400D01*
X174356765Y-189323033D01*
X174356765Y-187323033D01*
X174356765Y-185323033D01*
X174356765Y-183323033D01*
X174356765Y-181323033D01*
X174356765Y-179323033D01*
X174356765Y-177323033D01*
X174356765Y-175323033D01*
X174211651Y-174971830D01*
X173943184Y-174702893D01*
X173807177Y-174646418D01*
X173807177Y-164591377D01*
X173807177Y-163191837D01*
X173807177Y-159257377D01*
X173807177Y-157988623D01*
X173807063Y-157857261D01*
X173756687Y-157735943D01*
X173663719Y-157643137D01*
X173542313Y-157592973D01*
X173409610Y-157593030D01*
X173327060Y-157675580D01*
X173327060Y-158273115D01*
X173724570Y-158273115D01*
X173807120Y-158190565D01*
X173807177Y-157988623D01*
X173807177Y-159257377D01*
X173807120Y-159055435D01*
X173724570Y-158972885D01*
X173327060Y-158972885D01*
X173327060Y-159570420D01*
X173409610Y-159652970D01*
X173542313Y-159653027D01*
X173663719Y-159602863D01*
X173756687Y-159510057D01*
X173807063Y-159388739D01*
X173807177Y-159257377D01*
X173807177Y-163191837D01*
X173757013Y-163070431D01*
X173664207Y-162977463D01*
X173542889Y-162927087D01*
X173411527Y-162926973D01*
X173170850Y-162926973D01*
X173170850Y-157397450D01*
X173170850Y-156800550D01*
X173170850Y-156102050D01*
X173170850Y-155505150D01*
X173158150Y-155492450D01*
X173158150Y-155225750D01*
X173158150Y-154628850D01*
X172688250Y-154628850D01*
X172605700Y-154711400D01*
X172605643Y-154912707D01*
X172605757Y-155044069D01*
X172656133Y-155165387D01*
X172749101Y-155258193D01*
X172870507Y-155308357D01*
X173075600Y-155308300D01*
X173158150Y-155225750D01*
X173158150Y-155492450D01*
X173088300Y-155422600D01*
X172883207Y-155422543D01*
X172761801Y-155472707D01*
X172668833Y-155565513D01*
X172618457Y-155686831D01*
X172618343Y-155818193D01*
X172618400Y-156019500D01*
X172700950Y-156102050D01*
X173170850Y-156102050D01*
X173170850Y-156800550D01*
X172700950Y-156800550D01*
X172618400Y-156883100D01*
X172618343Y-157084407D01*
X172618457Y-157215769D01*
X172668833Y-157337087D01*
X172761801Y-157429893D01*
X172883207Y-157480057D01*
X173088300Y-157480000D01*
X173170850Y-157397450D01*
X173170850Y-162926973D01*
X173027340Y-162926973D01*
X173027340Y-159570420D01*
X173027340Y-158972885D01*
X173027340Y-158273115D01*
X173027340Y-157675580D01*
X172944790Y-157593030D01*
X172812087Y-157592973D01*
X172690681Y-157643137D01*
X172597713Y-157735943D01*
X172547337Y-157857261D01*
X172547223Y-157988623D01*
X172547280Y-158190565D01*
X172629830Y-158273115D01*
X173027340Y-158273115D01*
X173027340Y-158972885D01*
X172629830Y-158972885D01*
X172547280Y-159055435D01*
X172547223Y-159257377D01*
X172547337Y-159388739D01*
X172597713Y-159510057D01*
X172690681Y-159602863D01*
X172812087Y-159653027D01*
X172944790Y-159652970D01*
X173027340Y-159570420D01*
X173027340Y-162926973D01*
X172812087Y-162926973D01*
X172690681Y-162977137D01*
X172597713Y-163069943D01*
X172547337Y-163191261D01*
X172547223Y-163322623D01*
X172547223Y-164722163D01*
X172597387Y-164843569D01*
X172690193Y-164936537D01*
X172811511Y-164986913D01*
X172942873Y-164987027D01*
X173542313Y-164987027D01*
X173663719Y-164936863D01*
X173756687Y-164844057D01*
X173807063Y-164722739D01*
X173807177Y-164591377D01*
X173807177Y-174646418D01*
X173592234Y-174557167D01*
X173212233Y-174556835D01*
X172861030Y-174701949D01*
X172592093Y-174970416D01*
X172446367Y-175321366D01*
X172446035Y-175701367D01*
X172591149Y-176052570D01*
X172859616Y-176321507D01*
X173210566Y-176467233D01*
X173590567Y-176467565D01*
X173941770Y-176322451D01*
X174210707Y-176053984D01*
X174356433Y-175703034D01*
X174356765Y-175323033D01*
X174356765Y-177323033D01*
X174211651Y-176971830D01*
X173943184Y-176702893D01*
X173592234Y-176557167D01*
X173212233Y-176556835D01*
X172861030Y-176701949D01*
X172592093Y-176970416D01*
X172446367Y-177321366D01*
X172446035Y-177701367D01*
X172591149Y-178052570D01*
X172859616Y-178321507D01*
X173210566Y-178467233D01*
X173590567Y-178467565D01*
X173941770Y-178322451D01*
X174210707Y-178053984D01*
X174356433Y-177703034D01*
X174356765Y-177323033D01*
X174356765Y-179323033D01*
X174211651Y-178971830D01*
X173943184Y-178702893D01*
X173592234Y-178557167D01*
X173212233Y-178556835D01*
X172861030Y-178701949D01*
X172592093Y-178970416D01*
X172446367Y-179321366D01*
X172446035Y-179701367D01*
X172591149Y-180052570D01*
X172859616Y-180321507D01*
X173210566Y-180467233D01*
X173590567Y-180467565D01*
X173941770Y-180322451D01*
X174210707Y-180053984D01*
X174356433Y-179703034D01*
X174356765Y-179323033D01*
X174356765Y-181323033D01*
X174211651Y-180971830D01*
X173943184Y-180702893D01*
X173592234Y-180557167D01*
X173212233Y-180556835D01*
X172861030Y-180701949D01*
X172592093Y-180970416D01*
X172446367Y-181321366D01*
X172446035Y-181701367D01*
X172591149Y-182052570D01*
X172859616Y-182321507D01*
X173210566Y-182467233D01*
X173590567Y-182467565D01*
X173941770Y-182322451D01*
X174210707Y-182053984D01*
X174356433Y-181703034D01*
X174356765Y-181323033D01*
X174356765Y-183323033D01*
X174211651Y-182971830D01*
X173943184Y-182702893D01*
X173592234Y-182557167D01*
X173212233Y-182556835D01*
X172861030Y-182701949D01*
X172592093Y-182970416D01*
X172446367Y-183321366D01*
X172446035Y-183701367D01*
X172591149Y-184052570D01*
X172859616Y-184321507D01*
X173210566Y-184467233D01*
X173590567Y-184467565D01*
X173941770Y-184322451D01*
X174210707Y-184053984D01*
X174356433Y-183703034D01*
X174356765Y-183323033D01*
X174356765Y-185323033D01*
X174211651Y-184971830D01*
X173943184Y-184702893D01*
X173592234Y-184557167D01*
X173212233Y-184556835D01*
X172861030Y-184701949D01*
X172592093Y-184970416D01*
X172446367Y-185321366D01*
X172446035Y-185701367D01*
X172591149Y-186052570D01*
X172859616Y-186321507D01*
X173210566Y-186467233D01*
X173590567Y-186467565D01*
X173941770Y-186322451D01*
X174210707Y-186053984D01*
X174356433Y-185703034D01*
X174356765Y-185323033D01*
X174356765Y-187323033D01*
X174211651Y-186971830D01*
X173943184Y-186702893D01*
X173592234Y-186557167D01*
X173212233Y-186556835D01*
X172861030Y-186701949D01*
X172592093Y-186970416D01*
X172446367Y-187321366D01*
X172446035Y-187701367D01*
X172591149Y-188052570D01*
X172859616Y-188321507D01*
X173210566Y-188467233D01*
X173590567Y-188467565D01*
X173941770Y-188322451D01*
X174210707Y-188053984D01*
X174356433Y-187703034D01*
X174356765Y-187323033D01*
X174356765Y-189323033D01*
X174211651Y-188971830D01*
X173943184Y-188702893D01*
X173592234Y-188557167D01*
X173212233Y-188556835D01*
X172861030Y-188701949D01*
X172592093Y-188970416D01*
X172446367Y-189321366D01*
X172446035Y-189701367D01*
X172591149Y-190052570D01*
X172859616Y-190321507D01*
X173210566Y-190467233D01*
X173590567Y-190467565D01*
X173941770Y-190322451D01*
X174210707Y-190053984D01*
X174356433Y-189703034D01*
X174356765Y-189323033D01*
X174356765Y-191080400D01*
X174256511Y-191080400D01*
X174211651Y-190971830D01*
X173943184Y-190702893D01*
X173592234Y-190557167D01*
X173212233Y-190556835D01*
X172861030Y-190701949D01*
X172592093Y-190970416D01*
X172446367Y-191321366D01*
X172446035Y-191701367D01*
X172591149Y-192052570D01*
X172859616Y-192321507D01*
X173210566Y-192467233D01*
X173590567Y-192467565D01*
X173941770Y-192322451D01*
X174210707Y-192053984D01*
X174256375Y-191944000D01*
X175336143Y-191944000D01*
X175336143Y-192038593D01*
X175386307Y-192159999D01*
X175479113Y-192252967D01*
X175600431Y-192303343D01*
X175731793Y-192303457D01*
X175844200Y-192303457D01*
X175844200Y-192836743D01*
X175588307Y-192836743D01*
X175466901Y-192886907D01*
X175373933Y-192979713D01*
X175323557Y-193101031D01*
X175323443Y-193232393D01*
X175323443Y-194121393D01*
X175373607Y-194242799D01*
X175466413Y-194335767D01*
X175587731Y-194386143D01*
X175719093Y-194386257D01*
X177116093Y-194386257D01*
X177237499Y-194336093D01*
X177330467Y-194243287D01*
X177380843Y-194121969D01*
X177380957Y-193990607D01*
X177380957Y-193101607D01*
X177330793Y-192980201D01*
X177237987Y-192887233D01*
X177116669Y-192836857D01*
X176985307Y-192836743D01*
X176885600Y-192836743D01*
X176885600Y-192303457D01*
X177128793Y-192303457D01*
X177250199Y-192253293D01*
X177343167Y-192160487D01*
X177393543Y-192039169D01*
X177393657Y-191907807D01*
X177393657Y-207873600D01*
X177380957Y-207873600D01*
X177380957Y-195895607D01*
X177380957Y-195006607D01*
X177330793Y-194885201D01*
X177237987Y-194792233D01*
X177116669Y-194741857D01*
X176985307Y-194741743D01*
X175588307Y-194741743D01*
X175466901Y-194791907D01*
X175373933Y-194884713D01*
X175323557Y-195006031D01*
X175323492Y-195080400D01*
X174356765Y-195080400D01*
X174356765Y-193323033D01*
X174211651Y-192971830D01*
X173943184Y-192702893D01*
X173592234Y-192557167D01*
X173212233Y-192556835D01*
X172861030Y-192701949D01*
X172592093Y-192970416D01*
X172446367Y-193321366D01*
X172446035Y-193701367D01*
X172591149Y-194052570D01*
X172859616Y-194321507D01*
X173210566Y-194467233D01*
X173590567Y-194467565D01*
X173941770Y-194322451D01*
X174210707Y-194053984D01*
X174356433Y-193703034D01*
X174356765Y-193323033D01*
X174356765Y-195080400D01*
X174256511Y-195080400D01*
X174211651Y-194971830D01*
X173943184Y-194702893D01*
X173592234Y-194557167D01*
X173212233Y-194556835D01*
X172861030Y-194701949D01*
X172592093Y-194970416D01*
X172446367Y-195321366D01*
X172446035Y-195701367D01*
X172591149Y-196052570D01*
X172859616Y-196321507D01*
X173210566Y-196467233D01*
X173590567Y-196467565D01*
X173941770Y-196322451D01*
X174210707Y-196053984D01*
X174256375Y-195944000D01*
X175323443Y-195944000D01*
X175323443Y-196026393D01*
X175373607Y-196147799D01*
X175466413Y-196240767D01*
X175587731Y-196291143D01*
X175719093Y-196291257D01*
X177116093Y-196291257D01*
X177237499Y-196241093D01*
X177330467Y-196148287D01*
X177380843Y-196026969D01*
X177380957Y-195895607D01*
X177380957Y-207873600D01*
X174371281Y-207873600D01*
X174371281Y-197423668D01*
X174331332Y-197222836D01*
X174212655Y-197142887D01*
X173843342Y-197512200D01*
X174212655Y-197881513D01*
X174331332Y-197801564D01*
X174371281Y-197423668D01*
X174371281Y-207873600D01*
X173770713Y-207873600D01*
X173770713Y-198323455D01*
X173770713Y-196700945D01*
X173690764Y-196582268D01*
X173312868Y-196542319D01*
X173112036Y-196582268D01*
X173032087Y-196700945D01*
X173401400Y-197070258D01*
X173770713Y-196700945D01*
X173770713Y-198323455D01*
X173401400Y-197954142D01*
X173032087Y-198323455D01*
X173112036Y-198442132D01*
X173489932Y-198482081D01*
X173690764Y-198442132D01*
X173770713Y-198323455D01*
X173770713Y-207873600D01*
X172959458Y-207873600D01*
X172959458Y-197512200D01*
X172590145Y-197142887D01*
X172471468Y-197222836D01*
X172431519Y-197600732D01*
X172471468Y-197801564D01*
X172590145Y-197881513D01*
X172959458Y-197512200D01*
X172959458Y-207873600D01*
X170789600Y-207873600D01*
X170789600Y-139319000D01*
X207594200Y-139319000D01*
X207594200Y-207873600D01*
M02*
