M48
;DRILL file {kicad (2014-08-10 BZR 5062)-product} date Wed 04 Feb 2015 12:02:57 AM CST
;FORMAT={-:-/ absolute / inch / decimal}
FMAT,2
INCH,TZ
T1C0.025
T2C0.033
T3C0.038
T4C0.063
T5C0.098
%
G90
G05
M72
T1
X6.897Y-7.872
X6.897Y-7.987
X6.957Y-6.074
X7.0255Y-6.4545
X7.101Y-5.9755
X7.146Y-6.9875
X7.3605Y-7.068
X7.395Y-7.1455
X7.4314Y-6.475
X7.4344Y-6.7024
X7.5118Y-6.472
X7.6428Y-6.701
X7.6474Y-6.642
X7.6572Y-6.5502
X7.726Y-6.3505
X7.7775Y-7.6185
X7.8445Y-7.5495
X7.863Y-5.9095
X7.9Y-7.226
X7.9285Y-6.145
X8.1045Y-5.8745
X8.1175Y-7.841
T2
X6.8268Y-6.9099
X6.8268Y-6.9887
X6.8268Y-7.0674
X6.8268Y-7.1461
X6.8268Y-7.2249
X6.8268Y-7.3036
X6.8268Y-7.3824
X6.8268Y-7.4611
X6.8268Y-7.5399
X6.8268Y-7.6186
X6.8268Y-7.6973
X6.8268Y-7.7761
X8.0552Y-6.9099
X8.0552Y-6.9887
X8.0552Y-7.0674
X8.0552Y-7.1461
X8.0552Y-7.2249
X8.0552Y-7.3036
X8.0552Y-7.3824
X8.0552Y-7.4611
X8.0552Y-7.5399
X8.0552Y-7.6186
X8.0552Y-7.6973
X8.0552Y-7.7761
T3
X7.6163Y-7.986
X7.695Y-7.986
X7.7737Y-7.986
T4
X7.1945Y-7.6742
X7.6945Y-7.6742
T5
X6.9646Y-6.6045
X7.9244Y-6.6045
T0
M30
