G04 (created by PCBNEW (2013-06-11 BZR 4021)-stable) date Sun 01 Jun 2014 09:44:25 PM CDT*
%MOIN*%
G04 Gerber Fmt 3.4, Leading zero omitted, Abs format*
%FSLAX34Y34*%
G01*
G70*
G90*
G04 APERTURE LIST*
%ADD10C,0.00590551*%
%ADD11R,0.0492126X0.0492126*%
%ADD12C,0.0492126*%
%ADD13C,0.06*%
%ADD14R,0.06X0.08*%
%ADD15R,0.035X0.055*%
%ADD16C,0.0984252*%
%ADD17C,0.125984*%
%ADD18C,0.035*%
%ADD19C,0.015*%
%ADD20C,0.008*%
%ADD21C,0.01*%
G04 APERTURE END LIST*
G54D10*
G54D11*
X80551Y-77760D03*
G54D12*
X80551Y-76973D03*
X80551Y-76185D03*
X80551Y-75398D03*
X80551Y-74611D03*
X80551Y-73823D03*
X80551Y-73036D03*
X80551Y-72248D03*
X80551Y-71461D03*
X80551Y-70674D03*
X80551Y-69886D03*
X80551Y-69099D03*
X68268Y-69099D03*
X68268Y-69886D03*
X68268Y-70674D03*
X68268Y-71461D03*
X68268Y-72248D03*
X68268Y-73036D03*
X68268Y-73823D03*
X68268Y-74611D03*
X68268Y-75398D03*
X68268Y-76185D03*
X68268Y-76973D03*
X68268Y-77760D03*
G54D13*
X76163Y-79860D03*
X76950Y-79860D03*
X77737Y-79860D03*
G54D14*
X70932Y-78717D03*
X69632Y-78717D03*
X70932Y-79867D03*
X69632Y-79867D03*
G54D15*
X72570Y-78720D03*
X71820Y-78720D03*
X71815Y-79870D03*
X72565Y-79870D03*
G54D16*
X71945Y-76741D03*
X76945Y-76741D03*
G54D17*
X79244Y-66045D03*
X69645Y-66045D03*
G54D18*
X70255Y-64545D03*
X79285Y-61450D03*
X77260Y-63505D03*
X79000Y-72260D03*
X81045Y-58745D03*
X78630Y-59095D03*
X71010Y-59755D03*
X69570Y-60740D03*
X78445Y-75495D03*
X71460Y-69875D03*
X77775Y-76185D03*
X73950Y-71455D03*
X73605Y-70680D03*
X75118Y-64720D03*
X74314Y-64750D03*
X76572Y-65502D03*
X76474Y-66420D03*
X76428Y-67010D03*
X74344Y-67024D03*
X68970Y-79870D03*
X68970Y-78720D03*
X81175Y-78410D03*
G54D19*
X76163Y-79860D02*
X72575Y-79860D01*
X72575Y-79860D02*
X72565Y-79870D01*
G54D20*
X71460Y-69875D02*
X71471Y-69886D01*
X71471Y-69886D02*
X80551Y-69886D01*
X77775Y-76185D02*
X80551Y-76185D01*
X77775Y-76185D02*
X77775Y-76185D01*
X73956Y-71461D02*
X80551Y-71461D01*
X73950Y-71455D02*
X73956Y-71461D01*
X73610Y-70674D02*
X80551Y-70674D01*
X73605Y-70680D02*
X73610Y-70674D01*
X75118Y-64720D02*
X75088Y-64750D01*
X75088Y-64750D02*
X74314Y-64750D01*
X76572Y-66322D02*
X76572Y-65502D01*
X76474Y-66420D02*
X76572Y-66322D01*
X74358Y-67010D02*
X76428Y-67010D01*
X74344Y-67024D02*
X74358Y-67010D01*
X69632Y-79867D02*
X68972Y-79867D01*
X68972Y-79867D02*
X68970Y-79870D01*
X69632Y-78717D02*
X68972Y-78717D01*
X68972Y-78717D02*
X68970Y-78720D01*
X72570Y-78720D02*
X80865Y-78720D01*
X80865Y-78720D02*
X81175Y-78410D01*
X71820Y-78720D02*
X70935Y-78720D01*
X70935Y-78720D02*
X70932Y-78717D01*
X70932Y-79867D02*
X71812Y-79867D01*
X71812Y-79867D02*
X71815Y-79870D01*
G54D10*
G36*
X81730Y-81840D02*
X81480Y-81840D01*
X81480Y-78349D01*
X81433Y-78237D01*
X81347Y-78151D01*
X81235Y-78105D01*
X81114Y-78104D01*
X81002Y-78151D01*
X80933Y-78220D01*
X80933Y-72214D01*
X80927Y-72185D01*
X80927Y-71387D01*
X80927Y-70599D01*
X80927Y-69812D01*
X80927Y-69024D01*
X80870Y-68886D01*
X80765Y-68780D01*
X80626Y-68723D01*
X80477Y-68723D01*
X80338Y-68780D01*
X80233Y-68885D01*
X80175Y-69024D01*
X80175Y-69173D01*
X80232Y-69312D01*
X80338Y-69417D01*
X80476Y-69475D01*
X80626Y-69475D01*
X80764Y-69418D01*
X80870Y-69312D01*
X80927Y-69174D01*
X80927Y-69024D01*
X80927Y-69812D01*
X80870Y-69673D01*
X80765Y-69568D01*
X80626Y-69510D01*
X80477Y-69510D01*
X80338Y-69567D01*
X80233Y-69673D01*
X80215Y-69716D01*
X80004Y-69716D01*
X80004Y-65894D01*
X79888Y-65615D01*
X79675Y-65401D01*
X79396Y-65285D01*
X79093Y-65284D01*
X78814Y-65400D01*
X78600Y-65613D01*
X78484Y-65893D01*
X78484Y-66195D01*
X78599Y-66474D01*
X78813Y-66688D01*
X79092Y-66804D01*
X79394Y-66805D01*
X79674Y-66689D01*
X79888Y-66476D01*
X80004Y-66196D01*
X80004Y-65894D01*
X80004Y-69716D01*
X77020Y-69716D01*
X77020Y-67510D01*
X77020Y-64319D01*
X73264Y-64322D01*
X73259Y-67510D01*
X77020Y-67510D01*
X77020Y-69716D01*
X71724Y-69716D01*
X71718Y-69702D01*
X71632Y-69616D01*
X71520Y-69570D01*
X71399Y-69569D01*
X71287Y-69616D01*
X71201Y-69702D01*
X71155Y-69814D01*
X71154Y-69935D01*
X71201Y-70047D01*
X71287Y-70133D01*
X71399Y-70179D01*
X71520Y-70180D01*
X71632Y-70133D01*
X71709Y-70056D01*
X77020Y-70056D01*
X80215Y-70056D01*
X80232Y-70099D01*
X80338Y-70205D01*
X80476Y-70262D01*
X80626Y-70262D01*
X80764Y-70205D01*
X80870Y-70099D01*
X80927Y-69961D01*
X80927Y-69812D01*
X80927Y-70599D01*
X80870Y-70461D01*
X80765Y-70355D01*
X80626Y-70298D01*
X80477Y-70297D01*
X80338Y-70355D01*
X80233Y-70460D01*
X80215Y-70504D01*
X77020Y-70504D01*
X73860Y-70504D01*
X73777Y-70421D01*
X73665Y-70375D01*
X73544Y-70374D01*
X73432Y-70421D01*
X73346Y-70507D01*
X73300Y-70619D01*
X73299Y-70740D01*
X73346Y-70852D01*
X73432Y-70938D01*
X73544Y-70984D01*
X73665Y-70985D01*
X73777Y-70938D01*
X73863Y-70852D01*
X73867Y-70844D01*
X77020Y-70844D01*
X80215Y-70844D01*
X80232Y-70886D01*
X80338Y-70992D01*
X80476Y-71050D01*
X80626Y-71050D01*
X80764Y-70993D01*
X80870Y-70887D01*
X80927Y-70749D01*
X80927Y-70599D01*
X80927Y-71387D01*
X80870Y-71248D01*
X80765Y-71142D01*
X80626Y-71085D01*
X80477Y-71085D01*
X80338Y-71142D01*
X80233Y-71248D01*
X80215Y-71291D01*
X77020Y-71291D01*
X74212Y-71291D01*
X74208Y-71282D01*
X74122Y-71196D01*
X74010Y-71150D01*
X73889Y-71149D01*
X73777Y-71196D01*
X73691Y-71282D01*
X73645Y-71394D01*
X73644Y-71515D01*
X73691Y-71627D01*
X73777Y-71713D01*
X73889Y-71759D01*
X74010Y-71760D01*
X74122Y-71713D01*
X74204Y-71631D01*
X77020Y-71631D01*
X80215Y-71631D01*
X80232Y-71674D01*
X80338Y-71780D01*
X80476Y-71837D01*
X80626Y-71837D01*
X80764Y-71780D01*
X80870Y-71674D01*
X80927Y-71536D01*
X80927Y-71387D01*
X80927Y-72185D01*
X80917Y-72134D01*
X80871Y-72103D01*
X80725Y-72248D01*
X80871Y-72394D01*
X80917Y-72362D01*
X80933Y-72214D01*
X80933Y-78220D01*
X80927Y-78225D01*
X80927Y-76898D01*
X80927Y-76111D01*
X80927Y-75324D01*
X80927Y-74536D01*
X80927Y-73749D01*
X80927Y-72961D01*
X80870Y-72823D01*
X80765Y-72717D01*
X80697Y-72689D01*
X80697Y-72568D01*
X80697Y-71929D01*
X80665Y-71882D01*
X80516Y-71867D01*
X80437Y-71882D01*
X80406Y-71929D01*
X80551Y-72074D01*
X80697Y-71929D01*
X80697Y-72568D01*
X80551Y-72422D01*
X80406Y-72568D01*
X80437Y-72615D01*
X80586Y-72630D01*
X80665Y-72615D01*
X80697Y-72568D01*
X80697Y-72689D01*
X80626Y-72660D01*
X80477Y-72660D01*
X80377Y-72701D01*
X80377Y-72248D01*
X80232Y-72103D01*
X80185Y-72134D01*
X80169Y-72283D01*
X80185Y-72362D01*
X80232Y-72394D01*
X80377Y-72248D01*
X80377Y-72701D01*
X80338Y-72717D01*
X80233Y-72822D01*
X80175Y-72961D01*
X80175Y-73110D01*
X80232Y-73249D01*
X80338Y-73354D01*
X80476Y-73412D01*
X80626Y-73412D01*
X80764Y-73355D01*
X80870Y-73249D01*
X80927Y-73111D01*
X80927Y-72961D01*
X80927Y-73749D01*
X80870Y-73610D01*
X80765Y-73505D01*
X80626Y-73447D01*
X80477Y-73447D01*
X80338Y-73504D01*
X80233Y-73610D01*
X80175Y-73748D01*
X80175Y-73898D01*
X80232Y-74036D01*
X80338Y-74142D01*
X80476Y-74199D01*
X80626Y-74199D01*
X80764Y-74142D01*
X80870Y-74037D01*
X80927Y-73898D01*
X80927Y-73749D01*
X80927Y-74536D01*
X80870Y-74398D01*
X80765Y-74292D01*
X80626Y-74235D01*
X80477Y-74234D01*
X80338Y-74292D01*
X80233Y-74397D01*
X80175Y-74535D01*
X80175Y-74685D01*
X80232Y-74823D01*
X80338Y-74929D01*
X80476Y-74987D01*
X80626Y-74987D01*
X80764Y-74930D01*
X80870Y-74824D01*
X80927Y-74686D01*
X80927Y-74536D01*
X80927Y-75324D01*
X80870Y-75185D01*
X80765Y-75079D01*
X80626Y-75022D01*
X80477Y-75022D01*
X80338Y-75079D01*
X80233Y-75185D01*
X80175Y-75323D01*
X80175Y-75472D01*
X80232Y-75611D01*
X80338Y-75717D01*
X80476Y-75774D01*
X80626Y-75774D01*
X80764Y-75717D01*
X80870Y-75611D01*
X80927Y-75473D01*
X80927Y-75324D01*
X80927Y-76111D01*
X80870Y-75973D01*
X80765Y-75867D01*
X80626Y-75809D01*
X80477Y-75809D01*
X80338Y-75866D01*
X80233Y-75972D01*
X80215Y-76015D01*
X78035Y-76015D01*
X78033Y-76012D01*
X77947Y-75926D01*
X77835Y-75880D01*
X77714Y-75879D01*
X77602Y-75926D01*
X77516Y-76012D01*
X77470Y-76124D01*
X77469Y-76245D01*
X77516Y-76357D01*
X77602Y-76443D01*
X77714Y-76489D01*
X77835Y-76490D01*
X77947Y-76443D01*
X78033Y-76357D01*
X78034Y-76355D01*
X80215Y-76355D01*
X80232Y-76398D01*
X80338Y-76504D01*
X80476Y-76561D01*
X80626Y-76562D01*
X80764Y-76504D01*
X80870Y-76399D01*
X80927Y-76261D01*
X80927Y-76111D01*
X80927Y-76898D01*
X80870Y-76760D01*
X80765Y-76654D01*
X80626Y-76597D01*
X80477Y-76597D01*
X80338Y-76654D01*
X80233Y-76760D01*
X80175Y-76898D01*
X80175Y-77047D01*
X80232Y-77186D01*
X80338Y-77291D01*
X80476Y-77349D01*
X80626Y-77349D01*
X80764Y-77292D01*
X80870Y-77186D01*
X80927Y-77048D01*
X80927Y-76898D01*
X80927Y-78225D01*
X80927Y-78225D01*
X80927Y-77981D01*
X80927Y-77488D01*
X80908Y-77441D01*
X80871Y-77404D01*
X80823Y-77384D01*
X80772Y-77384D01*
X80279Y-77384D01*
X80232Y-77404D01*
X80195Y-77440D01*
X80175Y-77488D01*
X80175Y-77540D01*
X80175Y-78032D01*
X80195Y-78080D01*
X80231Y-78116D01*
X80279Y-78136D01*
X80331Y-78136D01*
X80823Y-78136D01*
X80871Y-78117D01*
X80907Y-78080D01*
X80927Y-78032D01*
X80927Y-77981D01*
X80927Y-78225D01*
X80916Y-78237D01*
X80870Y-78349D01*
X80869Y-78470D01*
X80871Y-78473D01*
X80794Y-78550D01*
X77567Y-78550D01*
X77567Y-76618D01*
X77472Y-76389D01*
X77297Y-76214D01*
X77069Y-76119D01*
X77020Y-76119D01*
X76821Y-76119D01*
X76593Y-76214D01*
X76417Y-76388D01*
X76322Y-76617D01*
X76322Y-76865D01*
X76417Y-77093D01*
X76592Y-77268D01*
X76820Y-77363D01*
X77020Y-77364D01*
X77068Y-77364D01*
X77296Y-77269D01*
X77472Y-77094D01*
X77567Y-76866D01*
X77567Y-76618D01*
X77567Y-78550D01*
X77020Y-78550D01*
X72875Y-78550D01*
X72875Y-78419D01*
X72855Y-78371D01*
X72818Y-78334D01*
X72770Y-78315D01*
X72719Y-78314D01*
X72567Y-78314D01*
X72567Y-76618D01*
X72472Y-76389D01*
X72297Y-76214D01*
X72069Y-76119D01*
X71821Y-76119D01*
X71593Y-76214D01*
X71417Y-76388D01*
X71322Y-76617D01*
X71322Y-76865D01*
X71417Y-77093D01*
X71592Y-77268D01*
X71820Y-77363D01*
X72068Y-77364D01*
X72296Y-77269D01*
X72472Y-77094D01*
X72567Y-76866D01*
X72567Y-76618D01*
X72567Y-78314D01*
X72369Y-78314D01*
X72321Y-78334D01*
X72284Y-78371D01*
X72265Y-78419D01*
X72264Y-78470D01*
X72264Y-79020D01*
X72284Y-79068D01*
X72321Y-79105D01*
X72369Y-79124D01*
X72420Y-79125D01*
X72770Y-79125D01*
X72818Y-79105D01*
X72855Y-79068D01*
X72874Y-79020D01*
X72875Y-78969D01*
X72875Y-78890D01*
X77020Y-78890D01*
X80865Y-78890D01*
X80930Y-78877D01*
X80930Y-78877D01*
X80985Y-78840D01*
X81111Y-78713D01*
X81114Y-78714D01*
X81235Y-78715D01*
X81347Y-78668D01*
X81433Y-78582D01*
X81479Y-78470D01*
X81480Y-78349D01*
X81480Y-81840D01*
X78167Y-81840D01*
X78167Y-79774D01*
X78101Y-79616D01*
X77980Y-79495D01*
X77822Y-79430D01*
X77651Y-79429D01*
X77493Y-79495D01*
X77372Y-79616D01*
X77343Y-79686D01*
X77314Y-79616D01*
X77193Y-79495D01*
X77035Y-79430D01*
X77020Y-79430D01*
X76864Y-79429D01*
X76706Y-79495D01*
X76585Y-79616D01*
X76547Y-79708D01*
X76535Y-79699D01*
X76375Y-79860D01*
X76535Y-80020D01*
X76547Y-80011D01*
X76585Y-80103D01*
X76706Y-80224D01*
X76864Y-80289D01*
X77020Y-80290D01*
X77035Y-80290D01*
X77193Y-80224D01*
X77314Y-80103D01*
X77343Y-80033D01*
X77372Y-80103D01*
X77493Y-80224D01*
X77651Y-80289D01*
X77822Y-80290D01*
X77980Y-80224D01*
X78101Y-80103D01*
X78166Y-79945D01*
X78167Y-79774D01*
X78167Y-81840D01*
X77020Y-81840D01*
X76970Y-81840D01*
X76323Y-81840D01*
X76323Y-80232D01*
X76323Y-79487D01*
X76283Y-79438D01*
X76113Y-79424D01*
X76042Y-79438D01*
X76002Y-79487D01*
X76163Y-79647D01*
X76323Y-79487D01*
X76323Y-80232D01*
X76163Y-80072D01*
X76002Y-80232D01*
X76042Y-80281D01*
X76212Y-80295D01*
X76283Y-80281D01*
X76323Y-80232D01*
X76323Y-81840D01*
X75950Y-81840D01*
X75950Y-79860D01*
X75790Y-79699D01*
X75741Y-79739D01*
X75727Y-79909D01*
X75741Y-79980D01*
X75790Y-80020D01*
X75950Y-79860D01*
X75950Y-81840D01*
X72870Y-81840D01*
X72870Y-80119D01*
X72870Y-79620D01*
X72869Y-79569D01*
X72850Y-79521D01*
X72813Y-79484D01*
X72765Y-79464D01*
X72685Y-79465D01*
X72652Y-79497D01*
X72652Y-79732D01*
X72837Y-79732D01*
X72870Y-79700D01*
X72870Y-79620D01*
X72870Y-80119D01*
X72870Y-80040D01*
X72837Y-80007D01*
X72652Y-80007D01*
X72652Y-80242D01*
X72685Y-80275D01*
X72765Y-80275D01*
X72813Y-80255D01*
X72850Y-80218D01*
X72869Y-80170D01*
X72870Y-80119D01*
X72870Y-81840D01*
X72477Y-81840D01*
X72477Y-80242D01*
X72477Y-80007D01*
X72477Y-79732D01*
X72477Y-79497D01*
X72445Y-79465D01*
X72364Y-79464D01*
X72316Y-79484D01*
X72279Y-79521D01*
X72260Y-79569D01*
X72259Y-79620D01*
X72260Y-79700D01*
X72292Y-79732D01*
X72477Y-79732D01*
X72477Y-80007D01*
X72292Y-80007D01*
X72260Y-80040D01*
X72259Y-80119D01*
X72260Y-80170D01*
X72279Y-80218D01*
X72316Y-80255D01*
X72364Y-80275D01*
X72445Y-80275D01*
X72477Y-80242D01*
X72477Y-81840D01*
X72125Y-81840D01*
X72125Y-78969D01*
X72125Y-78419D01*
X72105Y-78371D01*
X72068Y-78334D01*
X72020Y-78315D01*
X71969Y-78314D01*
X71619Y-78314D01*
X71571Y-78334D01*
X71534Y-78371D01*
X71515Y-78419D01*
X71514Y-78470D01*
X71514Y-78550D01*
X71362Y-78550D01*
X71362Y-78291D01*
X71342Y-78243D01*
X71306Y-78207D01*
X71258Y-78187D01*
X71206Y-78187D01*
X70606Y-78187D01*
X70558Y-78207D01*
X70522Y-78243D01*
X70502Y-78291D01*
X70502Y-78343D01*
X70502Y-79143D01*
X70522Y-79191D01*
X70558Y-79227D01*
X70606Y-79247D01*
X70658Y-79247D01*
X71258Y-79247D01*
X71306Y-79227D01*
X71342Y-79191D01*
X71362Y-79143D01*
X71362Y-79091D01*
X71362Y-78890D01*
X71514Y-78890D01*
X71514Y-79020D01*
X71534Y-79068D01*
X71571Y-79105D01*
X71619Y-79124D01*
X71670Y-79125D01*
X72020Y-79125D01*
X72068Y-79105D01*
X72105Y-79068D01*
X72124Y-79020D01*
X72125Y-78969D01*
X72125Y-81840D01*
X72120Y-81840D01*
X72120Y-80119D01*
X72120Y-79569D01*
X72100Y-79521D01*
X72063Y-79484D01*
X72015Y-79465D01*
X71964Y-79464D01*
X71614Y-79464D01*
X71566Y-79484D01*
X71529Y-79521D01*
X71510Y-79569D01*
X71509Y-79620D01*
X71509Y-79697D01*
X71362Y-79697D01*
X71362Y-79441D01*
X71342Y-79393D01*
X71306Y-79357D01*
X71258Y-79337D01*
X71206Y-79337D01*
X70606Y-79337D01*
X70558Y-79357D01*
X70522Y-79393D01*
X70502Y-79441D01*
X70502Y-79493D01*
X70502Y-80293D01*
X70522Y-80341D01*
X70558Y-80377D01*
X70606Y-80397D01*
X70658Y-80397D01*
X71258Y-80397D01*
X71306Y-80377D01*
X71342Y-80341D01*
X71362Y-80293D01*
X71362Y-80241D01*
X71362Y-80037D01*
X71509Y-80037D01*
X71509Y-80170D01*
X71529Y-80218D01*
X71566Y-80255D01*
X71614Y-80274D01*
X71665Y-80275D01*
X72015Y-80275D01*
X72063Y-80255D01*
X72100Y-80218D01*
X72119Y-80170D01*
X72120Y-80119D01*
X72120Y-81840D01*
X70405Y-81840D01*
X70405Y-65894D01*
X70290Y-65615D01*
X70076Y-65401D01*
X69797Y-65285D01*
X69495Y-65284D01*
X69215Y-65400D01*
X69001Y-65613D01*
X68885Y-65893D01*
X68885Y-66195D01*
X69001Y-66474D01*
X69214Y-66688D01*
X69493Y-66804D01*
X69796Y-66805D01*
X70075Y-66689D01*
X70289Y-66476D01*
X70405Y-66196D01*
X70405Y-65894D01*
X70405Y-81840D01*
X70062Y-81840D01*
X70062Y-80241D01*
X70062Y-79441D01*
X70062Y-79091D01*
X70062Y-78291D01*
X70042Y-78243D01*
X70006Y-78207D01*
X69958Y-78187D01*
X69906Y-78187D01*
X69306Y-78187D01*
X69258Y-78207D01*
X69222Y-78243D01*
X69202Y-78291D01*
X69202Y-78343D01*
X69202Y-78521D01*
X69142Y-78461D01*
X69030Y-78415D01*
X68909Y-78414D01*
X68797Y-78461D01*
X68711Y-78547D01*
X68665Y-78659D01*
X68664Y-78780D01*
X68711Y-78892D01*
X68797Y-78978D01*
X68909Y-79024D01*
X69030Y-79025D01*
X69142Y-78978D01*
X69202Y-78918D01*
X69202Y-79143D01*
X69222Y-79191D01*
X69258Y-79227D01*
X69306Y-79247D01*
X69358Y-79247D01*
X69958Y-79247D01*
X70006Y-79227D01*
X70042Y-79191D01*
X70062Y-79143D01*
X70062Y-79091D01*
X70062Y-79441D01*
X70042Y-79393D01*
X70006Y-79357D01*
X69958Y-79337D01*
X69906Y-79337D01*
X69306Y-79337D01*
X69258Y-79357D01*
X69222Y-79393D01*
X69202Y-79441D01*
X69202Y-79493D01*
X69202Y-79671D01*
X69142Y-79611D01*
X69030Y-79565D01*
X68909Y-79564D01*
X68797Y-79611D01*
X68711Y-79697D01*
X68665Y-79809D01*
X68664Y-79930D01*
X68711Y-80042D01*
X68797Y-80128D01*
X68909Y-80174D01*
X69030Y-80175D01*
X69142Y-80128D01*
X69202Y-80068D01*
X69202Y-80293D01*
X69222Y-80341D01*
X69258Y-80377D01*
X69306Y-80397D01*
X69358Y-80397D01*
X69958Y-80397D01*
X70006Y-80377D01*
X70042Y-80341D01*
X70062Y-80293D01*
X70062Y-80241D01*
X70062Y-81840D01*
X68650Y-81840D01*
X68650Y-75363D01*
X68644Y-75334D01*
X68644Y-74536D01*
X68644Y-73749D01*
X68644Y-72961D01*
X68644Y-72174D01*
X68644Y-71387D01*
X68644Y-70599D01*
X68644Y-69812D01*
X68644Y-69024D01*
X68587Y-68886D01*
X68481Y-68780D01*
X68343Y-68723D01*
X68193Y-68723D01*
X68055Y-68780D01*
X67949Y-68885D01*
X67892Y-69024D01*
X67892Y-69173D01*
X67949Y-69312D01*
X68054Y-69417D01*
X68193Y-69475D01*
X68342Y-69475D01*
X68481Y-69418D01*
X68586Y-69312D01*
X68644Y-69174D01*
X68644Y-69024D01*
X68644Y-69812D01*
X68587Y-69673D01*
X68481Y-69568D01*
X68343Y-69510D01*
X68193Y-69510D01*
X68055Y-69567D01*
X67949Y-69673D01*
X67892Y-69811D01*
X67892Y-69961D01*
X67949Y-70099D01*
X68054Y-70205D01*
X68193Y-70262D01*
X68342Y-70262D01*
X68481Y-70205D01*
X68586Y-70099D01*
X68644Y-69961D01*
X68644Y-69812D01*
X68644Y-70599D01*
X68587Y-70461D01*
X68481Y-70355D01*
X68343Y-70298D01*
X68193Y-70297D01*
X68055Y-70355D01*
X67949Y-70460D01*
X67892Y-70598D01*
X67892Y-70748D01*
X67949Y-70886D01*
X68054Y-70992D01*
X68193Y-71050D01*
X68342Y-71050D01*
X68481Y-70993D01*
X68586Y-70887D01*
X68644Y-70749D01*
X68644Y-70599D01*
X68644Y-71387D01*
X68587Y-71248D01*
X68481Y-71142D01*
X68343Y-71085D01*
X68193Y-71085D01*
X68055Y-71142D01*
X67949Y-71248D01*
X67892Y-71386D01*
X67892Y-71535D01*
X67949Y-71674D01*
X68054Y-71780D01*
X68193Y-71837D01*
X68342Y-71837D01*
X68481Y-71780D01*
X68586Y-71674D01*
X68644Y-71536D01*
X68644Y-71387D01*
X68644Y-72174D01*
X68587Y-72036D01*
X68481Y-71930D01*
X68343Y-71872D01*
X68193Y-71872D01*
X68055Y-71929D01*
X67949Y-72035D01*
X67892Y-72173D01*
X67892Y-72323D01*
X67949Y-72461D01*
X68054Y-72567D01*
X68193Y-72624D01*
X68342Y-72625D01*
X68481Y-72567D01*
X68586Y-72462D01*
X68644Y-72324D01*
X68644Y-72174D01*
X68644Y-72961D01*
X68587Y-72823D01*
X68481Y-72717D01*
X68343Y-72660D01*
X68193Y-72660D01*
X68055Y-72717D01*
X67949Y-72822D01*
X67892Y-72961D01*
X67892Y-73110D01*
X67949Y-73249D01*
X68054Y-73354D01*
X68193Y-73412D01*
X68342Y-73412D01*
X68481Y-73355D01*
X68586Y-73249D01*
X68644Y-73111D01*
X68644Y-72961D01*
X68644Y-73749D01*
X68587Y-73610D01*
X68481Y-73505D01*
X68343Y-73447D01*
X68193Y-73447D01*
X68055Y-73504D01*
X67949Y-73610D01*
X67892Y-73748D01*
X67892Y-73898D01*
X67949Y-74036D01*
X68054Y-74142D01*
X68193Y-74199D01*
X68342Y-74199D01*
X68481Y-74142D01*
X68586Y-74037D01*
X68644Y-73898D01*
X68644Y-73749D01*
X68644Y-74536D01*
X68587Y-74398D01*
X68481Y-74292D01*
X68343Y-74235D01*
X68193Y-74234D01*
X68055Y-74292D01*
X67949Y-74397D01*
X67892Y-74535D01*
X67892Y-74685D01*
X67949Y-74823D01*
X68054Y-74929D01*
X68193Y-74987D01*
X68342Y-74987D01*
X68481Y-74930D01*
X68586Y-74824D01*
X68644Y-74686D01*
X68644Y-74536D01*
X68644Y-75334D01*
X68634Y-75284D01*
X68587Y-75253D01*
X68442Y-75398D01*
X68587Y-75543D01*
X68634Y-75512D01*
X68650Y-75363D01*
X68650Y-81840D01*
X68644Y-81840D01*
X68644Y-77686D01*
X68644Y-76898D01*
X68644Y-76111D01*
X68587Y-75973D01*
X68481Y-75867D01*
X68413Y-75839D01*
X68413Y-75717D01*
X68413Y-75079D01*
X68382Y-75032D01*
X68233Y-75016D01*
X68154Y-75032D01*
X68122Y-75079D01*
X68268Y-75224D01*
X68413Y-75079D01*
X68413Y-75717D01*
X68268Y-75572D01*
X68122Y-75717D01*
X68154Y-75764D01*
X68303Y-75780D01*
X68382Y-75764D01*
X68413Y-75717D01*
X68413Y-75839D01*
X68343Y-75809D01*
X68193Y-75809D01*
X68094Y-75850D01*
X68094Y-75398D01*
X67948Y-75253D01*
X67902Y-75284D01*
X67886Y-75433D01*
X67902Y-75512D01*
X67948Y-75543D01*
X68094Y-75398D01*
X68094Y-75850D01*
X68055Y-75866D01*
X67949Y-75972D01*
X67892Y-76110D01*
X67892Y-76260D01*
X67949Y-76398D01*
X68054Y-76504D01*
X68193Y-76561D01*
X68342Y-76562D01*
X68481Y-76504D01*
X68586Y-76399D01*
X68644Y-76261D01*
X68644Y-76111D01*
X68644Y-76898D01*
X68587Y-76760D01*
X68481Y-76654D01*
X68343Y-76597D01*
X68193Y-76597D01*
X68055Y-76654D01*
X67949Y-76760D01*
X67892Y-76898D01*
X67892Y-77047D01*
X67949Y-77186D01*
X68054Y-77291D01*
X68193Y-77349D01*
X68342Y-77349D01*
X68481Y-77292D01*
X68586Y-77186D01*
X68644Y-77048D01*
X68644Y-76898D01*
X68644Y-77686D01*
X68587Y-77547D01*
X68481Y-77442D01*
X68343Y-77384D01*
X68193Y-77384D01*
X68055Y-77441D01*
X67949Y-77547D01*
X67892Y-77685D01*
X67892Y-77835D01*
X67949Y-77973D01*
X68054Y-78079D01*
X68193Y-78136D01*
X68342Y-78136D01*
X68481Y-78079D01*
X68586Y-77974D01*
X68644Y-77835D01*
X68644Y-77686D01*
X68644Y-81840D01*
X67240Y-81840D01*
X67240Y-54850D01*
X81730Y-54850D01*
X81730Y-81840D01*
X81730Y-81840D01*
G37*
G54D21*
X81730Y-81840D02*
X81480Y-81840D01*
X81480Y-78349D01*
X81433Y-78237D01*
X81347Y-78151D01*
X81235Y-78105D01*
X81114Y-78104D01*
X81002Y-78151D01*
X80933Y-78220D01*
X80933Y-72214D01*
X80927Y-72185D01*
X80927Y-71387D01*
X80927Y-70599D01*
X80927Y-69812D01*
X80927Y-69024D01*
X80870Y-68886D01*
X80765Y-68780D01*
X80626Y-68723D01*
X80477Y-68723D01*
X80338Y-68780D01*
X80233Y-68885D01*
X80175Y-69024D01*
X80175Y-69173D01*
X80232Y-69312D01*
X80338Y-69417D01*
X80476Y-69475D01*
X80626Y-69475D01*
X80764Y-69418D01*
X80870Y-69312D01*
X80927Y-69174D01*
X80927Y-69024D01*
X80927Y-69812D01*
X80870Y-69673D01*
X80765Y-69568D01*
X80626Y-69510D01*
X80477Y-69510D01*
X80338Y-69567D01*
X80233Y-69673D01*
X80215Y-69716D01*
X80004Y-69716D01*
X80004Y-65894D01*
X79888Y-65615D01*
X79675Y-65401D01*
X79396Y-65285D01*
X79093Y-65284D01*
X78814Y-65400D01*
X78600Y-65613D01*
X78484Y-65893D01*
X78484Y-66195D01*
X78599Y-66474D01*
X78813Y-66688D01*
X79092Y-66804D01*
X79394Y-66805D01*
X79674Y-66689D01*
X79888Y-66476D01*
X80004Y-66196D01*
X80004Y-65894D01*
X80004Y-69716D01*
X77020Y-69716D01*
X77020Y-67510D01*
X77020Y-64319D01*
X73264Y-64322D01*
X73259Y-67510D01*
X77020Y-67510D01*
X77020Y-69716D01*
X71724Y-69716D01*
X71718Y-69702D01*
X71632Y-69616D01*
X71520Y-69570D01*
X71399Y-69569D01*
X71287Y-69616D01*
X71201Y-69702D01*
X71155Y-69814D01*
X71154Y-69935D01*
X71201Y-70047D01*
X71287Y-70133D01*
X71399Y-70179D01*
X71520Y-70180D01*
X71632Y-70133D01*
X71709Y-70056D01*
X77020Y-70056D01*
X80215Y-70056D01*
X80232Y-70099D01*
X80338Y-70205D01*
X80476Y-70262D01*
X80626Y-70262D01*
X80764Y-70205D01*
X80870Y-70099D01*
X80927Y-69961D01*
X80927Y-69812D01*
X80927Y-70599D01*
X80870Y-70461D01*
X80765Y-70355D01*
X80626Y-70298D01*
X80477Y-70297D01*
X80338Y-70355D01*
X80233Y-70460D01*
X80215Y-70504D01*
X77020Y-70504D01*
X73860Y-70504D01*
X73777Y-70421D01*
X73665Y-70375D01*
X73544Y-70374D01*
X73432Y-70421D01*
X73346Y-70507D01*
X73300Y-70619D01*
X73299Y-70740D01*
X73346Y-70852D01*
X73432Y-70938D01*
X73544Y-70984D01*
X73665Y-70985D01*
X73777Y-70938D01*
X73863Y-70852D01*
X73867Y-70844D01*
X77020Y-70844D01*
X80215Y-70844D01*
X80232Y-70886D01*
X80338Y-70992D01*
X80476Y-71050D01*
X80626Y-71050D01*
X80764Y-70993D01*
X80870Y-70887D01*
X80927Y-70749D01*
X80927Y-70599D01*
X80927Y-71387D01*
X80870Y-71248D01*
X80765Y-71142D01*
X80626Y-71085D01*
X80477Y-71085D01*
X80338Y-71142D01*
X80233Y-71248D01*
X80215Y-71291D01*
X77020Y-71291D01*
X74212Y-71291D01*
X74208Y-71282D01*
X74122Y-71196D01*
X74010Y-71150D01*
X73889Y-71149D01*
X73777Y-71196D01*
X73691Y-71282D01*
X73645Y-71394D01*
X73644Y-71515D01*
X73691Y-71627D01*
X73777Y-71713D01*
X73889Y-71759D01*
X74010Y-71760D01*
X74122Y-71713D01*
X74204Y-71631D01*
X77020Y-71631D01*
X80215Y-71631D01*
X80232Y-71674D01*
X80338Y-71780D01*
X80476Y-71837D01*
X80626Y-71837D01*
X80764Y-71780D01*
X80870Y-71674D01*
X80927Y-71536D01*
X80927Y-71387D01*
X80927Y-72185D01*
X80917Y-72134D01*
X80871Y-72103D01*
X80725Y-72248D01*
X80871Y-72394D01*
X80917Y-72362D01*
X80933Y-72214D01*
X80933Y-78220D01*
X80927Y-78225D01*
X80927Y-76898D01*
X80927Y-76111D01*
X80927Y-75324D01*
X80927Y-74536D01*
X80927Y-73749D01*
X80927Y-72961D01*
X80870Y-72823D01*
X80765Y-72717D01*
X80697Y-72689D01*
X80697Y-72568D01*
X80697Y-71929D01*
X80665Y-71882D01*
X80516Y-71867D01*
X80437Y-71882D01*
X80406Y-71929D01*
X80551Y-72074D01*
X80697Y-71929D01*
X80697Y-72568D01*
X80551Y-72422D01*
X80406Y-72568D01*
X80437Y-72615D01*
X80586Y-72630D01*
X80665Y-72615D01*
X80697Y-72568D01*
X80697Y-72689D01*
X80626Y-72660D01*
X80477Y-72660D01*
X80377Y-72701D01*
X80377Y-72248D01*
X80232Y-72103D01*
X80185Y-72134D01*
X80169Y-72283D01*
X80185Y-72362D01*
X80232Y-72394D01*
X80377Y-72248D01*
X80377Y-72701D01*
X80338Y-72717D01*
X80233Y-72822D01*
X80175Y-72961D01*
X80175Y-73110D01*
X80232Y-73249D01*
X80338Y-73354D01*
X80476Y-73412D01*
X80626Y-73412D01*
X80764Y-73355D01*
X80870Y-73249D01*
X80927Y-73111D01*
X80927Y-72961D01*
X80927Y-73749D01*
X80870Y-73610D01*
X80765Y-73505D01*
X80626Y-73447D01*
X80477Y-73447D01*
X80338Y-73504D01*
X80233Y-73610D01*
X80175Y-73748D01*
X80175Y-73898D01*
X80232Y-74036D01*
X80338Y-74142D01*
X80476Y-74199D01*
X80626Y-74199D01*
X80764Y-74142D01*
X80870Y-74037D01*
X80927Y-73898D01*
X80927Y-73749D01*
X80927Y-74536D01*
X80870Y-74398D01*
X80765Y-74292D01*
X80626Y-74235D01*
X80477Y-74234D01*
X80338Y-74292D01*
X80233Y-74397D01*
X80175Y-74535D01*
X80175Y-74685D01*
X80232Y-74823D01*
X80338Y-74929D01*
X80476Y-74987D01*
X80626Y-74987D01*
X80764Y-74930D01*
X80870Y-74824D01*
X80927Y-74686D01*
X80927Y-74536D01*
X80927Y-75324D01*
X80870Y-75185D01*
X80765Y-75079D01*
X80626Y-75022D01*
X80477Y-75022D01*
X80338Y-75079D01*
X80233Y-75185D01*
X80175Y-75323D01*
X80175Y-75472D01*
X80232Y-75611D01*
X80338Y-75717D01*
X80476Y-75774D01*
X80626Y-75774D01*
X80764Y-75717D01*
X80870Y-75611D01*
X80927Y-75473D01*
X80927Y-75324D01*
X80927Y-76111D01*
X80870Y-75973D01*
X80765Y-75867D01*
X80626Y-75809D01*
X80477Y-75809D01*
X80338Y-75866D01*
X80233Y-75972D01*
X80215Y-76015D01*
X78035Y-76015D01*
X78033Y-76012D01*
X77947Y-75926D01*
X77835Y-75880D01*
X77714Y-75879D01*
X77602Y-75926D01*
X77516Y-76012D01*
X77470Y-76124D01*
X77469Y-76245D01*
X77516Y-76357D01*
X77602Y-76443D01*
X77714Y-76489D01*
X77835Y-76490D01*
X77947Y-76443D01*
X78033Y-76357D01*
X78034Y-76355D01*
X80215Y-76355D01*
X80232Y-76398D01*
X80338Y-76504D01*
X80476Y-76561D01*
X80626Y-76562D01*
X80764Y-76504D01*
X80870Y-76399D01*
X80927Y-76261D01*
X80927Y-76111D01*
X80927Y-76898D01*
X80870Y-76760D01*
X80765Y-76654D01*
X80626Y-76597D01*
X80477Y-76597D01*
X80338Y-76654D01*
X80233Y-76760D01*
X80175Y-76898D01*
X80175Y-77047D01*
X80232Y-77186D01*
X80338Y-77291D01*
X80476Y-77349D01*
X80626Y-77349D01*
X80764Y-77292D01*
X80870Y-77186D01*
X80927Y-77048D01*
X80927Y-76898D01*
X80927Y-78225D01*
X80927Y-78225D01*
X80927Y-77981D01*
X80927Y-77488D01*
X80908Y-77441D01*
X80871Y-77404D01*
X80823Y-77384D01*
X80772Y-77384D01*
X80279Y-77384D01*
X80232Y-77404D01*
X80195Y-77440D01*
X80175Y-77488D01*
X80175Y-77540D01*
X80175Y-78032D01*
X80195Y-78080D01*
X80231Y-78116D01*
X80279Y-78136D01*
X80331Y-78136D01*
X80823Y-78136D01*
X80871Y-78117D01*
X80907Y-78080D01*
X80927Y-78032D01*
X80927Y-77981D01*
X80927Y-78225D01*
X80916Y-78237D01*
X80870Y-78349D01*
X80869Y-78470D01*
X80871Y-78473D01*
X80794Y-78550D01*
X77567Y-78550D01*
X77567Y-76618D01*
X77472Y-76389D01*
X77297Y-76214D01*
X77069Y-76119D01*
X77020Y-76119D01*
X76821Y-76119D01*
X76593Y-76214D01*
X76417Y-76388D01*
X76322Y-76617D01*
X76322Y-76865D01*
X76417Y-77093D01*
X76592Y-77268D01*
X76820Y-77363D01*
X77020Y-77364D01*
X77068Y-77364D01*
X77296Y-77269D01*
X77472Y-77094D01*
X77567Y-76866D01*
X77567Y-76618D01*
X77567Y-78550D01*
X77020Y-78550D01*
X72875Y-78550D01*
X72875Y-78419D01*
X72855Y-78371D01*
X72818Y-78334D01*
X72770Y-78315D01*
X72719Y-78314D01*
X72567Y-78314D01*
X72567Y-76618D01*
X72472Y-76389D01*
X72297Y-76214D01*
X72069Y-76119D01*
X71821Y-76119D01*
X71593Y-76214D01*
X71417Y-76388D01*
X71322Y-76617D01*
X71322Y-76865D01*
X71417Y-77093D01*
X71592Y-77268D01*
X71820Y-77363D01*
X72068Y-77364D01*
X72296Y-77269D01*
X72472Y-77094D01*
X72567Y-76866D01*
X72567Y-76618D01*
X72567Y-78314D01*
X72369Y-78314D01*
X72321Y-78334D01*
X72284Y-78371D01*
X72265Y-78419D01*
X72264Y-78470D01*
X72264Y-79020D01*
X72284Y-79068D01*
X72321Y-79105D01*
X72369Y-79124D01*
X72420Y-79125D01*
X72770Y-79125D01*
X72818Y-79105D01*
X72855Y-79068D01*
X72874Y-79020D01*
X72875Y-78969D01*
X72875Y-78890D01*
X77020Y-78890D01*
X80865Y-78890D01*
X80930Y-78877D01*
X80930Y-78877D01*
X80985Y-78840D01*
X81111Y-78713D01*
X81114Y-78714D01*
X81235Y-78715D01*
X81347Y-78668D01*
X81433Y-78582D01*
X81479Y-78470D01*
X81480Y-78349D01*
X81480Y-81840D01*
X78167Y-81840D01*
X78167Y-79774D01*
X78101Y-79616D01*
X77980Y-79495D01*
X77822Y-79430D01*
X77651Y-79429D01*
X77493Y-79495D01*
X77372Y-79616D01*
X77343Y-79686D01*
X77314Y-79616D01*
X77193Y-79495D01*
X77035Y-79430D01*
X77020Y-79430D01*
X76864Y-79429D01*
X76706Y-79495D01*
X76585Y-79616D01*
X76547Y-79708D01*
X76535Y-79699D01*
X76375Y-79860D01*
X76535Y-80020D01*
X76547Y-80011D01*
X76585Y-80103D01*
X76706Y-80224D01*
X76864Y-80289D01*
X77020Y-80290D01*
X77035Y-80290D01*
X77193Y-80224D01*
X77314Y-80103D01*
X77343Y-80033D01*
X77372Y-80103D01*
X77493Y-80224D01*
X77651Y-80289D01*
X77822Y-80290D01*
X77980Y-80224D01*
X78101Y-80103D01*
X78166Y-79945D01*
X78167Y-79774D01*
X78167Y-81840D01*
X77020Y-81840D01*
X76970Y-81840D01*
X76323Y-81840D01*
X76323Y-80232D01*
X76323Y-79487D01*
X76283Y-79438D01*
X76113Y-79424D01*
X76042Y-79438D01*
X76002Y-79487D01*
X76163Y-79647D01*
X76323Y-79487D01*
X76323Y-80232D01*
X76163Y-80072D01*
X76002Y-80232D01*
X76042Y-80281D01*
X76212Y-80295D01*
X76283Y-80281D01*
X76323Y-80232D01*
X76323Y-81840D01*
X75950Y-81840D01*
X75950Y-79860D01*
X75790Y-79699D01*
X75741Y-79739D01*
X75727Y-79909D01*
X75741Y-79980D01*
X75790Y-80020D01*
X75950Y-79860D01*
X75950Y-81840D01*
X72870Y-81840D01*
X72870Y-80119D01*
X72870Y-79620D01*
X72869Y-79569D01*
X72850Y-79521D01*
X72813Y-79484D01*
X72765Y-79464D01*
X72685Y-79465D01*
X72652Y-79497D01*
X72652Y-79732D01*
X72837Y-79732D01*
X72870Y-79700D01*
X72870Y-79620D01*
X72870Y-80119D01*
X72870Y-80040D01*
X72837Y-80007D01*
X72652Y-80007D01*
X72652Y-80242D01*
X72685Y-80275D01*
X72765Y-80275D01*
X72813Y-80255D01*
X72850Y-80218D01*
X72869Y-80170D01*
X72870Y-80119D01*
X72870Y-81840D01*
X72477Y-81840D01*
X72477Y-80242D01*
X72477Y-80007D01*
X72477Y-79732D01*
X72477Y-79497D01*
X72445Y-79465D01*
X72364Y-79464D01*
X72316Y-79484D01*
X72279Y-79521D01*
X72260Y-79569D01*
X72259Y-79620D01*
X72260Y-79700D01*
X72292Y-79732D01*
X72477Y-79732D01*
X72477Y-80007D01*
X72292Y-80007D01*
X72260Y-80040D01*
X72259Y-80119D01*
X72260Y-80170D01*
X72279Y-80218D01*
X72316Y-80255D01*
X72364Y-80275D01*
X72445Y-80275D01*
X72477Y-80242D01*
X72477Y-81840D01*
X72125Y-81840D01*
X72125Y-78969D01*
X72125Y-78419D01*
X72105Y-78371D01*
X72068Y-78334D01*
X72020Y-78315D01*
X71969Y-78314D01*
X71619Y-78314D01*
X71571Y-78334D01*
X71534Y-78371D01*
X71515Y-78419D01*
X71514Y-78470D01*
X71514Y-78550D01*
X71362Y-78550D01*
X71362Y-78291D01*
X71342Y-78243D01*
X71306Y-78207D01*
X71258Y-78187D01*
X71206Y-78187D01*
X70606Y-78187D01*
X70558Y-78207D01*
X70522Y-78243D01*
X70502Y-78291D01*
X70502Y-78343D01*
X70502Y-79143D01*
X70522Y-79191D01*
X70558Y-79227D01*
X70606Y-79247D01*
X70658Y-79247D01*
X71258Y-79247D01*
X71306Y-79227D01*
X71342Y-79191D01*
X71362Y-79143D01*
X71362Y-79091D01*
X71362Y-78890D01*
X71514Y-78890D01*
X71514Y-79020D01*
X71534Y-79068D01*
X71571Y-79105D01*
X71619Y-79124D01*
X71670Y-79125D01*
X72020Y-79125D01*
X72068Y-79105D01*
X72105Y-79068D01*
X72124Y-79020D01*
X72125Y-78969D01*
X72125Y-81840D01*
X72120Y-81840D01*
X72120Y-80119D01*
X72120Y-79569D01*
X72100Y-79521D01*
X72063Y-79484D01*
X72015Y-79465D01*
X71964Y-79464D01*
X71614Y-79464D01*
X71566Y-79484D01*
X71529Y-79521D01*
X71510Y-79569D01*
X71509Y-79620D01*
X71509Y-79697D01*
X71362Y-79697D01*
X71362Y-79441D01*
X71342Y-79393D01*
X71306Y-79357D01*
X71258Y-79337D01*
X71206Y-79337D01*
X70606Y-79337D01*
X70558Y-79357D01*
X70522Y-79393D01*
X70502Y-79441D01*
X70502Y-79493D01*
X70502Y-80293D01*
X70522Y-80341D01*
X70558Y-80377D01*
X70606Y-80397D01*
X70658Y-80397D01*
X71258Y-80397D01*
X71306Y-80377D01*
X71342Y-80341D01*
X71362Y-80293D01*
X71362Y-80241D01*
X71362Y-80037D01*
X71509Y-80037D01*
X71509Y-80170D01*
X71529Y-80218D01*
X71566Y-80255D01*
X71614Y-80274D01*
X71665Y-80275D01*
X72015Y-80275D01*
X72063Y-80255D01*
X72100Y-80218D01*
X72119Y-80170D01*
X72120Y-80119D01*
X72120Y-81840D01*
X70405Y-81840D01*
X70405Y-65894D01*
X70290Y-65615D01*
X70076Y-65401D01*
X69797Y-65285D01*
X69495Y-65284D01*
X69215Y-65400D01*
X69001Y-65613D01*
X68885Y-65893D01*
X68885Y-66195D01*
X69001Y-66474D01*
X69214Y-66688D01*
X69493Y-66804D01*
X69796Y-66805D01*
X70075Y-66689D01*
X70289Y-66476D01*
X70405Y-66196D01*
X70405Y-65894D01*
X70405Y-81840D01*
X70062Y-81840D01*
X70062Y-80241D01*
X70062Y-79441D01*
X70062Y-79091D01*
X70062Y-78291D01*
X70042Y-78243D01*
X70006Y-78207D01*
X69958Y-78187D01*
X69906Y-78187D01*
X69306Y-78187D01*
X69258Y-78207D01*
X69222Y-78243D01*
X69202Y-78291D01*
X69202Y-78343D01*
X69202Y-78521D01*
X69142Y-78461D01*
X69030Y-78415D01*
X68909Y-78414D01*
X68797Y-78461D01*
X68711Y-78547D01*
X68665Y-78659D01*
X68664Y-78780D01*
X68711Y-78892D01*
X68797Y-78978D01*
X68909Y-79024D01*
X69030Y-79025D01*
X69142Y-78978D01*
X69202Y-78918D01*
X69202Y-79143D01*
X69222Y-79191D01*
X69258Y-79227D01*
X69306Y-79247D01*
X69358Y-79247D01*
X69958Y-79247D01*
X70006Y-79227D01*
X70042Y-79191D01*
X70062Y-79143D01*
X70062Y-79091D01*
X70062Y-79441D01*
X70042Y-79393D01*
X70006Y-79357D01*
X69958Y-79337D01*
X69906Y-79337D01*
X69306Y-79337D01*
X69258Y-79357D01*
X69222Y-79393D01*
X69202Y-79441D01*
X69202Y-79493D01*
X69202Y-79671D01*
X69142Y-79611D01*
X69030Y-79565D01*
X68909Y-79564D01*
X68797Y-79611D01*
X68711Y-79697D01*
X68665Y-79809D01*
X68664Y-79930D01*
X68711Y-80042D01*
X68797Y-80128D01*
X68909Y-80174D01*
X69030Y-80175D01*
X69142Y-80128D01*
X69202Y-80068D01*
X69202Y-80293D01*
X69222Y-80341D01*
X69258Y-80377D01*
X69306Y-80397D01*
X69358Y-80397D01*
X69958Y-80397D01*
X70006Y-80377D01*
X70042Y-80341D01*
X70062Y-80293D01*
X70062Y-80241D01*
X70062Y-81840D01*
X68650Y-81840D01*
X68650Y-75363D01*
X68644Y-75334D01*
X68644Y-74536D01*
X68644Y-73749D01*
X68644Y-72961D01*
X68644Y-72174D01*
X68644Y-71387D01*
X68644Y-70599D01*
X68644Y-69812D01*
X68644Y-69024D01*
X68587Y-68886D01*
X68481Y-68780D01*
X68343Y-68723D01*
X68193Y-68723D01*
X68055Y-68780D01*
X67949Y-68885D01*
X67892Y-69024D01*
X67892Y-69173D01*
X67949Y-69312D01*
X68054Y-69417D01*
X68193Y-69475D01*
X68342Y-69475D01*
X68481Y-69418D01*
X68586Y-69312D01*
X68644Y-69174D01*
X68644Y-69024D01*
X68644Y-69812D01*
X68587Y-69673D01*
X68481Y-69568D01*
X68343Y-69510D01*
X68193Y-69510D01*
X68055Y-69567D01*
X67949Y-69673D01*
X67892Y-69811D01*
X67892Y-69961D01*
X67949Y-70099D01*
X68054Y-70205D01*
X68193Y-70262D01*
X68342Y-70262D01*
X68481Y-70205D01*
X68586Y-70099D01*
X68644Y-69961D01*
X68644Y-69812D01*
X68644Y-70599D01*
X68587Y-70461D01*
X68481Y-70355D01*
X68343Y-70298D01*
X68193Y-70297D01*
X68055Y-70355D01*
X67949Y-70460D01*
X67892Y-70598D01*
X67892Y-70748D01*
X67949Y-70886D01*
X68054Y-70992D01*
X68193Y-71050D01*
X68342Y-71050D01*
X68481Y-70993D01*
X68586Y-70887D01*
X68644Y-70749D01*
X68644Y-70599D01*
X68644Y-71387D01*
X68587Y-71248D01*
X68481Y-71142D01*
X68343Y-71085D01*
X68193Y-71085D01*
X68055Y-71142D01*
X67949Y-71248D01*
X67892Y-71386D01*
X67892Y-71535D01*
X67949Y-71674D01*
X68054Y-71780D01*
X68193Y-71837D01*
X68342Y-71837D01*
X68481Y-71780D01*
X68586Y-71674D01*
X68644Y-71536D01*
X68644Y-71387D01*
X68644Y-72174D01*
X68587Y-72036D01*
X68481Y-71930D01*
X68343Y-71872D01*
X68193Y-71872D01*
X68055Y-71929D01*
X67949Y-72035D01*
X67892Y-72173D01*
X67892Y-72323D01*
X67949Y-72461D01*
X68054Y-72567D01*
X68193Y-72624D01*
X68342Y-72625D01*
X68481Y-72567D01*
X68586Y-72462D01*
X68644Y-72324D01*
X68644Y-72174D01*
X68644Y-72961D01*
X68587Y-72823D01*
X68481Y-72717D01*
X68343Y-72660D01*
X68193Y-72660D01*
X68055Y-72717D01*
X67949Y-72822D01*
X67892Y-72961D01*
X67892Y-73110D01*
X67949Y-73249D01*
X68054Y-73354D01*
X68193Y-73412D01*
X68342Y-73412D01*
X68481Y-73355D01*
X68586Y-73249D01*
X68644Y-73111D01*
X68644Y-72961D01*
X68644Y-73749D01*
X68587Y-73610D01*
X68481Y-73505D01*
X68343Y-73447D01*
X68193Y-73447D01*
X68055Y-73504D01*
X67949Y-73610D01*
X67892Y-73748D01*
X67892Y-73898D01*
X67949Y-74036D01*
X68054Y-74142D01*
X68193Y-74199D01*
X68342Y-74199D01*
X68481Y-74142D01*
X68586Y-74037D01*
X68644Y-73898D01*
X68644Y-73749D01*
X68644Y-74536D01*
X68587Y-74398D01*
X68481Y-74292D01*
X68343Y-74235D01*
X68193Y-74234D01*
X68055Y-74292D01*
X67949Y-74397D01*
X67892Y-74535D01*
X67892Y-74685D01*
X67949Y-74823D01*
X68054Y-74929D01*
X68193Y-74987D01*
X68342Y-74987D01*
X68481Y-74930D01*
X68586Y-74824D01*
X68644Y-74686D01*
X68644Y-74536D01*
X68644Y-75334D01*
X68634Y-75284D01*
X68587Y-75253D01*
X68442Y-75398D01*
X68587Y-75543D01*
X68634Y-75512D01*
X68650Y-75363D01*
X68650Y-81840D01*
X68644Y-81840D01*
X68644Y-77686D01*
X68644Y-76898D01*
X68644Y-76111D01*
X68587Y-75973D01*
X68481Y-75867D01*
X68413Y-75839D01*
X68413Y-75717D01*
X68413Y-75079D01*
X68382Y-75032D01*
X68233Y-75016D01*
X68154Y-75032D01*
X68122Y-75079D01*
X68268Y-75224D01*
X68413Y-75079D01*
X68413Y-75717D01*
X68268Y-75572D01*
X68122Y-75717D01*
X68154Y-75764D01*
X68303Y-75780D01*
X68382Y-75764D01*
X68413Y-75717D01*
X68413Y-75839D01*
X68343Y-75809D01*
X68193Y-75809D01*
X68094Y-75850D01*
X68094Y-75398D01*
X67948Y-75253D01*
X67902Y-75284D01*
X67886Y-75433D01*
X67902Y-75512D01*
X67948Y-75543D01*
X68094Y-75398D01*
X68094Y-75850D01*
X68055Y-75866D01*
X67949Y-75972D01*
X67892Y-76110D01*
X67892Y-76260D01*
X67949Y-76398D01*
X68054Y-76504D01*
X68193Y-76561D01*
X68342Y-76562D01*
X68481Y-76504D01*
X68586Y-76399D01*
X68644Y-76261D01*
X68644Y-76111D01*
X68644Y-76898D01*
X68587Y-76760D01*
X68481Y-76654D01*
X68343Y-76597D01*
X68193Y-76597D01*
X68055Y-76654D01*
X67949Y-76760D01*
X67892Y-76898D01*
X67892Y-77047D01*
X67949Y-77186D01*
X68054Y-77291D01*
X68193Y-77349D01*
X68342Y-77349D01*
X68481Y-77292D01*
X68586Y-77186D01*
X68644Y-77048D01*
X68644Y-76898D01*
X68644Y-77686D01*
X68587Y-77547D01*
X68481Y-77442D01*
X68343Y-77384D01*
X68193Y-77384D01*
X68055Y-77441D01*
X67949Y-77547D01*
X67892Y-77685D01*
X67892Y-77835D01*
X67949Y-77973D01*
X68054Y-78079D01*
X68193Y-78136D01*
X68342Y-78136D01*
X68481Y-78079D01*
X68586Y-77974D01*
X68644Y-77835D01*
X68644Y-77686D01*
X68644Y-81840D01*
X67240Y-81840D01*
X67240Y-54850D01*
X81730Y-54850D01*
X81730Y-81840D01*
G54D10*
G36*
X76820Y-67310D02*
X73460Y-67310D01*
X73463Y-64521D01*
X76820Y-64520D01*
X76820Y-67310D01*
X76820Y-67310D01*
G37*
G54D21*
X76820Y-67310D02*
X73460Y-67310D01*
X73463Y-64521D01*
X76820Y-64520D01*
X76820Y-67310D01*
M02*
