%FSLAX46Y46*%
G04 Gerber Fmt 4.6, Leading zero omitted, Abs format (unit mm)*
G04 Created by KiCad (PCBNEW (2014-08-10 BZR 5062)-product) date Wed 04 Feb 2015 12:02:51 AM CST*
%MOMM*%
G01*
G04 APERTURE LIST*
%ADD10C,0.150000*%
%ADD11R,1.250000X1.250000*%
%ADD12C,1.250000*%
%ADD13C,1.524000*%
%ADD14R,1.524000X2.032000*%
%ADD15R,0.889000X1.397000*%
%ADD16C,2.500000*%
%ADD17C,3.200000*%
%ADD18C,0.889000*%
%ADD19C,0.381000*%
%ADD20C,0.203200*%
%ADD21C,0.254000*%
G04 APERTURE END LIST*
D10*
D11*
X204601400Y-197512200D03*
D12*
X204601400Y-195512200D03*
X204601400Y-193512200D03*
X204601400Y-191512200D03*
X204601400Y-189512200D03*
X204601400Y-187512200D03*
X204601400Y-185512200D03*
X204601400Y-183512200D03*
X204601400Y-181512200D03*
X204601400Y-179512200D03*
X204601400Y-177512200D03*
X204601400Y-175512200D03*
X173401400Y-175512200D03*
X173401400Y-177512200D03*
X173401400Y-179512200D03*
X173401400Y-181512200D03*
X173401400Y-183512200D03*
X173401400Y-185512200D03*
X173401400Y-187512200D03*
X173401400Y-189512200D03*
X173401400Y-191512200D03*
X173401400Y-193512200D03*
X173401400Y-195512200D03*
X173401400Y-197512200D03*
D13*
X193454020Y-202844400D03*
X195453000Y-202844400D03*
X197451980Y-202844400D03*
D14*
X180168550Y-199942450D03*
X176866550Y-199942450D03*
X180168550Y-202863450D03*
X176866550Y-202863450D03*
D15*
X184327800Y-199948800D03*
X182422800Y-199948800D03*
X182410100Y-202869800D03*
X184315100Y-202869800D03*
D16*
X182740300Y-194924300D03*
X195440300Y-194924300D03*
D17*
X201280300Y-167754300D03*
X176900300Y-167754300D03*
D18*
X199250300Y-191757300D03*
X176707800Y-154279600D03*
X180365400Y-151777700D03*
X199720200Y-150101300D03*
X205854300Y-149212300D03*
X200660000Y-183540400D03*
X196240400Y-161302700D03*
X201383900Y-156083000D03*
X178447700Y-163944300D03*
X181508400Y-177482500D03*
X197548500Y-193509900D03*
X187833000Y-181495700D03*
X186956700Y-179527200D03*
X175183800Y-199948800D03*
X175183800Y-202869800D03*
X188833760Y-170240960D03*
X194127120Y-170205400D03*
X194243960Y-168706800D03*
X194492880Y-166375080D03*
X188757560Y-164465000D03*
X190799720Y-164388800D03*
X206184500Y-199161400D03*
D19*
X184340500Y-202844400D02*
X184315100Y-202869800D01*
X193454020Y-202844400D02*
X184340500Y-202844400D01*
D20*
X181538100Y-177512200D02*
X204601400Y-177512200D01*
X181508400Y-177482500D02*
X181538100Y-177512200D01*
X197548500Y-193509900D02*
X197550800Y-193512200D01*
X197550800Y-193512200D02*
X204601400Y-193512200D01*
X187833000Y-181495700D02*
X187849500Y-181512200D01*
X187849500Y-181512200D02*
X204601400Y-181512200D01*
X186956700Y-179527200D02*
X186971700Y-179512200D01*
X186971700Y-179512200D02*
X204601400Y-179512200D01*
X175190150Y-199942450D02*
X175183800Y-199948800D01*
X176866550Y-199942450D02*
X175190150Y-199942450D01*
X175190150Y-202863450D02*
X175183800Y-202869800D01*
X176866550Y-202863450D02*
X175190150Y-202863450D01*
X188833760Y-170240960D02*
X188869320Y-170205400D01*
X188869320Y-170205400D02*
X194127120Y-170205400D01*
X194243960Y-168706800D02*
X194492880Y-168457880D01*
X194492880Y-168457880D02*
X194492880Y-166375080D01*
X190723520Y-164465000D02*
X188757560Y-164465000D01*
X190799720Y-164388800D02*
X190723520Y-164465000D01*
X205397100Y-199948800D02*
X206184500Y-199161400D01*
X184327800Y-199948800D02*
X205397100Y-199948800D01*
X180174900Y-199948800D02*
X180168550Y-199942450D01*
X182422800Y-199948800D02*
X180174900Y-199948800D01*
X182403750Y-202863450D02*
X182410100Y-202869800D01*
X180168550Y-202863450D02*
X182403750Y-202863450D01*
D21*
G36*
X207594200Y-207873600D02*
X206959334Y-207873600D01*
X206959334Y-199007979D01*
X206841641Y-198723141D01*
X206623905Y-198505024D01*
X206339273Y-198386835D01*
X206031079Y-198386566D01*
X205746241Y-198504259D01*
X205571281Y-198678913D01*
X205571281Y-183423668D01*
X205556765Y-183350693D01*
X205556765Y-181323033D01*
X205556765Y-179323033D01*
X205556765Y-177323033D01*
X205556765Y-175323033D01*
X205411651Y-174971830D01*
X205143184Y-174702893D01*
X204792234Y-174557167D01*
X204412233Y-174556835D01*
X204061030Y-174701949D01*
X203792093Y-174970416D01*
X203646367Y-175321366D01*
X203646035Y-175701367D01*
X203791149Y-176052570D01*
X204059616Y-176321507D01*
X204410566Y-176467233D01*
X204790567Y-176467565D01*
X205141770Y-176322451D01*
X205410707Y-176053984D01*
X205556433Y-175703034D01*
X205556765Y-175323033D01*
X205556765Y-177323033D01*
X205411651Y-176971830D01*
X205143184Y-176702893D01*
X204792234Y-176557167D01*
X204412233Y-176556835D01*
X204061030Y-176701949D01*
X203792093Y-176970416D01*
X203746424Y-177080400D01*
X203210833Y-177080400D01*
X203210833Y-167372044D01*
X202917597Y-166662358D01*
X202375098Y-166118911D01*
X201665925Y-165824437D01*
X200898044Y-165823767D01*
X200188358Y-166117003D01*
X199644911Y-166659502D01*
X199350437Y-167368675D01*
X199349767Y-168136556D01*
X199643003Y-168846242D01*
X200185502Y-169389689D01*
X200894675Y-169684163D01*
X201662556Y-169684833D01*
X202372242Y-169391597D01*
X202915689Y-168849098D01*
X203210163Y-168139925D01*
X203210833Y-167372044D01*
X203210833Y-177080400D01*
X195630800Y-177080400D01*
X195630800Y-171475400D01*
X195630800Y-163372731D01*
X186090724Y-163377949D01*
X186080235Y-171475400D01*
X195630800Y-171475400D01*
X195630800Y-177080400D01*
X182180481Y-177080400D01*
X182165541Y-177044241D01*
X181947805Y-176826124D01*
X181663173Y-176707935D01*
X181354979Y-176707666D01*
X181070141Y-176825359D01*
X180852024Y-177043095D01*
X180733835Y-177327727D01*
X180733566Y-177635921D01*
X180851259Y-177920759D01*
X181068995Y-178138876D01*
X181353627Y-178257065D01*
X181661821Y-178257334D01*
X181946659Y-178139641D01*
X182142642Y-177944000D01*
X195630800Y-177944000D01*
X203746288Y-177944000D01*
X203791149Y-178052570D01*
X204059616Y-178321507D01*
X204410566Y-178467233D01*
X204790567Y-178467565D01*
X205141770Y-178322451D01*
X205410707Y-178053984D01*
X205556433Y-177703034D01*
X205556765Y-177323033D01*
X205556765Y-179323033D01*
X205411651Y-178971830D01*
X205143184Y-178702893D01*
X204792234Y-178557167D01*
X204412233Y-178556835D01*
X204061030Y-178701949D01*
X203792093Y-178970416D01*
X203746424Y-179080400D01*
X195630800Y-179080400D01*
X187605314Y-179080400D01*
X187396105Y-178870824D01*
X187111473Y-178752635D01*
X186803279Y-178752366D01*
X186518441Y-178870059D01*
X186300324Y-179087795D01*
X186182135Y-179372427D01*
X186181866Y-179680621D01*
X186299559Y-179965459D01*
X186517295Y-180183576D01*
X186801927Y-180301765D01*
X187110121Y-180302034D01*
X187394959Y-180184341D01*
X187613076Y-179966605D01*
X187622462Y-179944000D01*
X195630800Y-179944000D01*
X203746288Y-179944000D01*
X203791149Y-180052570D01*
X204059616Y-180321507D01*
X204410566Y-180467233D01*
X204790567Y-180467565D01*
X205141770Y-180322451D01*
X205410707Y-180053984D01*
X205556433Y-179703034D01*
X205556765Y-179323033D01*
X205556765Y-181323033D01*
X205411651Y-180971830D01*
X205143184Y-180702893D01*
X204792234Y-180557167D01*
X204412233Y-180556835D01*
X204061030Y-180701949D01*
X203792093Y-180970416D01*
X203746424Y-181080400D01*
X195630800Y-181080400D01*
X188499627Y-181080400D01*
X188490141Y-181057441D01*
X188272405Y-180839324D01*
X187987773Y-180721135D01*
X187679579Y-180720866D01*
X187394741Y-180838559D01*
X187176624Y-181056295D01*
X187058435Y-181340927D01*
X187058166Y-181649121D01*
X187175859Y-181933959D01*
X187393595Y-182152076D01*
X187678227Y-182270265D01*
X187986421Y-182270534D01*
X188271259Y-182152841D01*
X188480465Y-181944000D01*
X195630800Y-181944000D01*
X203746288Y-181944000D01*
X203791149Y-182052570D01*
X204059616Y-182321507D01*
X204410566Y-182467233D01*
X204790567Y-182467565D01*
X205141770Y-182322451D01*
X205410707Y-182053984D01*
X205556433Y-181703034D01*
X205556765Y-181323033D01*
X205556765Y-183350693D01*
X205531332Y-183222836D01*
X205412655Y-183142887D01*
X205043342Y-183512200D01*
X205412655Y-183881513D01*
X205531332Y-183801564D01*
X205571281Y-183423668D01*
X205571281Y-198678913D01*
X205556765Y-198693404D01*
X205556765Y-195323033D01*
X205556765Y-193323033D01*
X205556765Y-191323033D01*
X205556765Y-189323033D01*
X205556765Y-187323033D01*
X205556765Y-185323033D01*
X205411651Y-184971830D01*
X205143184Y-184702893D01*
X204970713Y-184631277D01*
X204970713Y-184323455D01*
X204970713Y-182700945D01*
X204890764Y-182582268D01*
X204512868Y-182542319D01*
X204312036Y-182582268D01*
X204232087Y-182700945D01*
X204601400Y-183070258D01*
X204970713Y-182700945D01*
X204970713Y-184323455D01*
X204601400Y-183954142D01*
X204232087Y-184323455D01*
X204312036Y-184442132D01*
X204689932Y-184482081D01*
X204890764Y-184442132D01*
X204970713Y-184323455D01*
X204970713Y-184631277D01*
X204792234Y-184557167D01*
X204412233Y-184556835D01*
X204159458Y-184661279D01*
X204159458Y-183512200D01*
X203790145Y-183142887D01*
X203671468Y-183222836D01*
X203631519Y-183600732D01*
X203671468Y-183801564D01*
X203790145Y-183881513D01*
X204159458Y-183512200D01*
X204159458Y-184661279D01*
X204061030Y-184701949D01*
X203792093Y-184970416D01*
X203646367Y-185321366D01*
X203646035Y-185701367D01*
X203791149Y-186052570D01*
X204059616Y-186321507D01*
X204410566Y-186467233D01*
X204790567Y-186467565D01*
X205141770Y-186322451D01*
X205410707Y-186053984D01*
X205556433Y-185703034D01*
X205556765Y-185323033D01*
X205556765Y-187323033D01*
X205411651Y-186971830D01*
X205143184Y-186702893D01*
X204792234Y-186557167D01*
X204412233Y-186556835D01*
X204061030Y-186701949D01*
X203792093Y-186970416D01*
X203646367Y-187321366D01*
X203646035Y-187701367D01*
X203791149Y-188052570D01*
X204059616Y-188321507D01*
X204410566Y-188467233D01*
X204790567Y-188467565D01*
X205141770Y-188322451D01*
X205410707Y-188053984D01*
X205556433Y-187703034D01*
X205556765Y-187323033D01*
X205556765Y-189323033D01*
X205411651Y-188971830D01*
X205143184Y-188702893D01*
X204792234Y-188557167D01*
X204412233Y-188556835D01*
X204061030Y-188701949D01*
X203792093Y-188970416D01*
X203646367Y-189321366D01*
X203646035Y-189701367D01*
X203791149Y-190052570D01*
X204059616Y-190321507D01*
X204410566Y-190467233D01*
X204790567Y-190467565D01*
X205141770Y-190322451D01*
X205410707Y-190053984D01*
X205556433Y-189703034D01*
X205556765Y-189323033D01*
X205556765Y-191323033D01*
X205411651Y-190971830D01*
X205143184Y-190702893D01*
X204792234Y-190557167D01*
X204412233Y-190556835D01*
X204061030Y-190701949D01*
X203792093Y-190970416D01*
X203646367Y-191321366D01*
X203646035Y-191701367D01*
X203791149Y-192052570D01*
X204059616Y-192321507D01*
X204410566Y-192467233D01*
X204790567Y-192467565D01*
X205141770Y-192322451D01*
X205410707Y-192053984D01*
X205556433Y-191703034D01*
X205556765Y-191323033D01*
X205556765Y-193323033D01*
X205411651Y-192971830D01*
X205143184Y-192702893D01*
X204792234Y-192557167D01*
X204412233Y-192556835D01*
X204061030Y-192701949D01*
X203792093Y-192970416D01*
X203746424Y-193080400D01*
X198209260Y-193080400D01*
X198205641Y-193071641D01*
X197987905Y-192853524D01*
X197703273Y-192735335D01*
X197395079Y-192735066D01*
X197110241Y-192852759D01*
X196892124Y-193070495D01*
X196773935Y-193355127D01*
X196773666Y-193663321D01*
X196891359Y-193948159D01*
X197109095Y-194166276D01*
X197393727Y-194284465D01*
X197701921Y-194284734D01*
X197986759Y-194167041D01*
X198204876Y-193949305D01*
X198207078Y-193944000D01*
X203746288Y-193944000D01*
X203791149Y-194052570D01*
X204059616Y-194321507D01*
X204410566Y-194467233D01*
X204790567Y-194467565D01*
X205141770Y-194322451D01*
X205410707Y-194053984D01*
X205556433Y-193703034D01*
X205556765Y-193323033D01*
X205556765Y-195323033D01*
X205411651Y-194971830D01*
X205143184Y-194702893D01*
X204792234Y-194557167D01*
X204412233Y-194556835D01*
X204061030Y-194701949D01*
X203792093Y-194970416D01*
X203646367Y-195321366D01*
X203646035Y-195701367D01*
X203791149Y-196052570D01*
X204059616Y-196321507D01*
X204410566Y-196467233D01*
X204790567Y-196467565D01*
X205141770Y-196322451D01*
X205410707Y-196053984D01*
X205556433Y-195703034D01*
X205556765Y-195323033D01*
X205556765Y-198693404D01*
X205556657Y-198693511D01*
X205556657Y-198071807D01*
X205556657Y-196821807D01*
X205506493Y-196700401D01*
X205413687Y-196607433D01*
X205292369Y-196557057D01*
X205161007Y-196556943D01*
X203911007Y-196556943D01*
X203789601Y-196607107D01*
X203696633Y-196699913D01*
X203646257Y-196821231D01*
X203646143Y-196952593D01*
X203646143Y-198202593D01*
X203696307Y-198323999D01*
X203789113Y-198416967D01*
X203910431Y-198467343D01*
X204041793Y-198467457D01*
X205291793Y-198467457D01*
X205413199Y-198417293D01*
X205506167Y-198324487D01*
X205556543Y-198203169D01*
X205556657Y-198071807D01*
X205556657Y-198693511D01*
X205528124Y-198721995D01*
X205409935Y-199006627D01*
X205409666Y-199314821D01*
X205412810Y-199322431D01*
X205218242Y-199517000D01*
X197020773Y-199517000D01*
X197020773Y-194611358D01*
X196780709Y-194030359D01*
X196336580Y-193585454D01*
X195756000Y-193344376D01*
X195630800Y-193344266D01*
X195127358Y-193343827D01*
X194546359Y-193583891D01*
X194101454Y-194028020D01*
X193860376Y-194608600D01*
X193859827Y-195237242D01*
X194099891Y-195818241D01*
X194544020Y-196263146D01*
X195124600Y-196504224D01*
X195630800Y-196504666D01*
X195753242Y-196504773D01*
X196334241Y-196264709D01*
X196779146Y-195820580D01*
X197020224Y-195240000D01*
X197020773Y-194611358D01*
X197020773Y-199517000D01*
X195630800Y-199517000D01*
X185102557Y-199517000D01*
X185102557Y-199184907D01*
X185052393Y-199063501D01*
X184959587Y-198970533D01*
X184838269Y-198920157D01*
X184706907Y-198920043D01*
X184320773Y-198920043D01*
X184320773Y-194611358D01*
X184080709Y-194030359D01*
X183636580Y-193585454D01*
X183056000Y-193344376D01*
X182427358Y-193343827D01*
X181846359Y-193583891D01*
X181401454Y-194028020D01*
X181160376Y-194608600D01*
X181159827Y-195237242D01*
X181399891Y-195818241D01*
X181844020Y-196263146D01*
X182424600Y-196504224D01*
X183053242Y-196504773D01*
X183634241Y-196264709D01*
X184079146Y-195820580D01*
X184320224Y-195240000D01*
X184320773Y-194611358D01*
X184320773Y-198920043D01*
X183817907Y-198920043D01*
X183696501Y-198970207D01*
X183603533Y-199063013D01*
X183553157Y-199184331D01*
X183553043Y-199315693D01*
X183553043Y-200712693D01*
X183603207Y-200834099D01*
X183696013Y-200927067D01*
X183817331Y-200977443D01*
X183948693Y-200977557D01*
X184837693Y-200977557D01*
X184959099Y-200927393D01*
X185052067Y-200834587D01*
X185102443Y-200713269D01*
X185102557Y-200581907D01*
X185102557Y-200380600D01*
X195630800Y-200380600D01*
X205397100Y-200380600D01*
X205562342Y-200347731D01*
X205562343Y-200347731D01*
X205702429Y-200254129D01*
X206023272Y-199933284D01*
X206029727Y-199935965D01*
X206337921Y-199936234D01*
X206622759Y-199818541D01*
X206840876Y-199600805D01*
X206959065Y-199316173D01*
X206959334Y-199007979D01*
X206959334Y-207873600D01*
X198544369Y-207873600D01*
X198544369Y-202628101D01*
X198378442Y-202226527D01*
X198071469Y-201919018D01*
X197670185Y-201752390D01*
X197235681Y-201752011D01*
X196834107Y-201917938D01*
X196526598Y-202224911D01*
X196452513Y-202403325D01*
X196379462Y-202226527D01*
X196072489Y-201919018D01*
X195671205Y-201752390D01*
X195630800Y-201752354D01*
X195236701Y-201752011D01*
X194835127Y-201917938D01*
X194527618Y-202224911D01*
X194429941Y-202460142D01*
X194400885Y-202436351D01*
X193992835Y-202844400D01*
X194400885Y-203252449D01*
X194429992Y-203228615D01*
X194526538Y-203462273D01*
X194833511Y-203769782D01*
X195234795Y-203936410D01*
X195630800Y-203936755D01*
X195669299Y-203936789D01*
X196070873Y-203770862D01*
X196378382Y-203463889D01*
X196452466Y-203285474D01*
X196525518Y-203462273D01*
X196832491Y-203769782D01*
X197233775Y-203936410D01*
X197668279Y-203936789D01*
X198069853Y-203770862D01*
X198377362Y-203463889D01*
X198543990Y-203062605D01*
X198544369Y-202628101D01*
X198544369Y-207873600D01*
X195630800Y-207873600D01*
X195503800Y-207873600D01*
X193862069Y-207873600D01*
X193862069Y-203791265D01*
X193862069Y-201897535D01*
X193760839Y-201773905D01*
X193327823Y-201737977D01*
X193147201Y-201773905D01*
X193045971Y-201897535D01*
X193454020Y-202305585D01*
X193862069Y-201897535D01*
X193862069Y-203791265D01*
X193454020Y-203383215D01*
X193045971Y-203791265D01*
X193147201Y-203914895D01*
X193580217Y-203950823D01*
X193760839Y-203914895D01*
X193862069Y-203791265D01*
X193862069Y-207873600D01*
X192915205Y-207873600D01*
X192915205Y-202844400D01*
X192507155Y-202436351D01*
X192383525Y-202537581D01*
X192347597Y-202970597D01*
X192383525Y-203151219D01*
X192507155Y-203252449D01*
X192915205Y-202844400D01*
X192915205Y-207873600D01*
X185089857Y-207873600D01*
X185089857Y-203502907D01*
X185089857Y-202236693D01*
X185089743Y-202105331D01*
X185039367Y-201984013D01*
X184946399Y-201891207D01*
X184824993Y-201841043D01*
X184619900Y-201841100D01*
X184537350Y-201923650D01*
X184537350Y-202520550D01*
X185007250Y-202520550D01*
X185089800Y-202438000D01*
X185089857Y-202236693D01*
X185089857Y-203502907D01*
X185089800Y-203301600D01*
X185007250Y-203219050D01*
X184537350Y-203219050D01*
X184537350Y-203815950D01*
X184619900Y-203898500D01*
X184824993Y-203898557D01*
X184946399Y-203848393D01*
X185039367Y-203755587D01*
X185089743Y-203634269D01*
X185089857Y-203502907D01*
X185089857Y-207873600D01*
X184092850Y-207873600D01*
X184092850Y-203815950D01*
X184092850Y-203219050D01*
X184092850Y-202520550D01*
X184092850Y-201923650D01*
X184010300Y-201841100D01*
X183805207Y-201841043D01*
X183683801Y-201891207D01*
X183590833Y-201984013D01*
X183540457Y-202105331D01*
X183540343Y-202236693D01*
X183540400Y-202438000D01*
X183622950Y-202520550D01*
X184092850Y-202520550D01*
X184092850Y-203219050D01*
X183622950Y-203219050D01*
X183540400Y-203301600D01*
X183540343Y-203502907D01*
X183540457Y-203634269D01*
X183590833Y-203755587D01*
X183683801Y-203848393D01*
X183805207Y-203898557D01*
X184010300Y-203898500D01*
X184092850Y-203815950D01*
X184092850Y-207873600D01*
X183197557Y-207873600D01*
X183197557Y-200581907D01*
X183197557Y-199184907D01*
X183147393Y-199063501D01*
X183054587Y-198970533D01*
X182933269Y-198920157D01*
X182801907Y-198920043D01*
X181912907Y-198920043D01*
X181791501Y-198970207D01*
X181698533Y-199063013D01*
X181648157Y-199184331D01*
X181648043Y-199315693D01*
X181648043Y-199517000D01*
X181260807Y-199517000D01*
X181260807Y-198861057D01*
X181210643Y-198739651D01*
X181117837Y-198646683D01*
X180996519Y-198596307D01*
X180865157Y-198596193D01*
X179341157Y-198596193D01*
X179219751Y-198646357D01*
X179126783Y-198739163D01*
X179076407Y-198860481D01*
X179076293Y-198991843D01*
X179076293Y-201023843D01*
X179126457Y-201145249D01*
X179219263Y-201238217D01*
X179340581Y-201288593D01*
X179471943Y-201288707D01*
X180995943Y-201288707D01*
X181117349Y-201238543D01*
X181210317Y-201145737D01*
X181260693Y-201024419D01*
X181260807Y-200893057D01*
X181260807Y-200380600D01*
X181648043Y-200380600D01*
X181648043Y-200712693D01*
X181698207Y-200834099D01*
X181791013Y-200927067D01*
X181912331Y-200977443D01*
X182043693Y-200977557D01*
X182932693Y-200977557D01*
X183054099Y-200927393D01*
X183147067Y-200834587D01*
X183197443Y-200713269D01*
X183197557Y-200581907D01*
X183197557Y-207873600D01*
X183184857Y-207873600D01*
X183184857Y-203502907D01*
X183184857Y-202105907D01*
X183134693Y-201984501D01*
X183041887Y-201891533D01*
X182920569Y-201841157D01*
X182789207Y-201841043D01*
X181900207Y-201841043D01*
X181778801Y-201891207D01*
X181685833Y-201984013D01*
X181635457Y-202105331D01*
X181635343Y-202236693D01*
X181635343Y-202431650D01*
X181260807Y-202431650D01*
X181260807Y-201782057D01*
X181210643Y-201660651D01*
X181117837Y-201567683D01*
X180996519Y-201517307D01*
X180865157Y-201517193D01*
X179341157Y-201517193D01*
X179219751Y-201567357D01*
X179126783Y-201660163D01*
X179076407Y-201781481D01*
X179076293Y-201912843D01*
X179076293Y-203944843D01*
X179126457Y-204066249D01*
X179219263Y-204159217D01*
X179340581Y-204209593D01*
X179471943Y-204209707D01*
X180995943Y-204209707D01*
X181117349Y-204159543D01*
X181210317Y-204066737D01*
X181260693Y-203945419D01*
X181260807Y-203814057D01*
X181260807Y-203295250D01*
X181635343Y-203295250D01*
X181635343Y-203633693D01*
X181685507Y-203755099D01*
X181778313Y-203848067D01*
X181899631Y-203898443D01*
X182030993Y-203898557D01*
X182919993Y-203898557D01*
X183041399Y-203848393D01*
X183134367Y-203755587D01*
X183184743Y-203634269D01*
X183184857Y-203502907D01*
X183184857Y-207873600D01*
X178830833Y-207873600D01*
X178830833Y-167372044D01*
X178537597Y-166662358D01*
X177995098Y-166118911D01*
X177285925Y-165824437D01*
X176518044Y-165823767D01*
X175808358Y-166117003D01*
X175264911Y-166659502D01*
X174970437Y-167368675D01*
X174969767Y-168136556D01*
X175263003Y-168846242D01*
X175805502Y-169389689D01*
X176514675Y-169684163D01*
X177282556Y-169684833D01*
X177992242Y-169391597D01*
X178535689Y-168849098D01*
X178830163Y-168139925D01*
X178830833Y-167372044D01*
X178830833Y-207873600D01*
X177958807Y-207873600D01*
X177958807Y-203814057D01*
X177958807Y-201782057D01*
X177958807Y-200893057D01*
X177958807Y-198861057D01*
X177908643Y-198739651D01*
X177815837Y-198646683D01*
X177694519Y-198596307D01*
X177563157Y-198596193D01*
X176039157Y-198596193D01*
X175917751Y-198646357D01*
X175824783Y-198739163D01*
X175774407Y-198860481D01*
X175774293Y-198991843D01*
X175774293Y-199443776D01*
X175623205Y-199292424D01*
X175338573Y-199174235D01*
X175030379Y-199173966D01*
X174745541Y-199291659D01*
X174527424Y-199509395D01*
X174409235Y-199794027D01*
X174408966Y-200102221D01*
X174526659Y-200387059D01*
X174744395Y-200605176D01*
X175029027Y-200723365D01*
X175337221Y-200723634D01*
X175622059Y-200605941D01*
X175774293Y-200453972D01*
X175774293Y-201023843D01*
X175824457Y-201145249D01*
X175917263Y-201238217D01*
X176038581Y-201288593D01*
X176169943Y-201288707D01*
X177693943Y-201288707D01*
X177815349Y-201238543D01*
X177908317Y-201145737D01*
X177958693Y-201024419D01*
X177958807Y-200893057D01*
X177958807Y-201782057D01*
X177908643Y-201660651D01*
X177815837Y-201567683D01*
X177694519Y-201517307D01*
X177563157Y-201517193D01*
X176039157Y-201517193D01*
X175917751Y-201567357D01*
X175824783Y-201660163D01*
X175774407Y-201781481D01*
X175774293Y-201912843D01*
X175774293Y-202364776D01*
X175623205Y-202213424D01*
X175338573Y-202095235D01*
X175030379Y-202094966D01*
X174745541Y-202212659D01*
X174527424Y-202430395D01*
X174409235Y-202715027D01*
X174408966Y-203023221D01*
X174526659Y-203308059D01*
X174744395Y-203526176D01*
X175029027Y-203644365D01*
X175337221Y-203644634D01*
X175622059Y-203526941D01*
X175774293Y-203374972D01*
X175774293Y-203944843D01*
X175824457Y-204066249D01*
X175917263Y-204159217D01*
X176038581Y-204209593D01*
X176169943Y-204209707D01*
X177693943Y-204209707D01*
X177815349Y-204159543D01*
X177908317Y-204066737D01*
X177958693Y-203945419D01*
X177958807Y-203814057D01*
X177958807Y-207873600D01*
X174371281Y-207873600D01*
X174371281Y-191423668D01*
X174356765Y-191350693D01*
X174356765Y-189323033D01*
X174356765Y-187323033D01*
X174356765Y-185323033D01*
X174356765Y-183323033D01*
X174356765Y-181323033D01*
X174356765Y-179323033D01*
X174356765Y-177323033D01*
X174356765Y-175323033D01*
X174211651Y-174971830D01*
X173943184Y-174702893D01*
X173592234Y-174557167D01*
X173212233Y-174556835D01*
X172861030Y-174701949D01*
X172592093Y-174970416D01*
X172446367Y-175321366D01*
X172446035Y-175701367D01*
X172591149Y-176052570D01*
X172859616Y-176321507D01*
X173210566Y-176467233D01*
X173590567Y-176467565D01*
X173941770Y-176322451D01*
X174210707Y-176053984D01*
X174356433Y-175703034D01*
X174356765Y-175323033D01*
X174356765Y-177323033D01*
X174211651Y-176971830D01*
X173943184Y-176702893D01*
X173592234Y-176557167D01*
X173212233Y-176556835D01*
X172861030Y-176701949D01*
X172592093Y-176970416D01*
X172446367Y-177321366D01*
X172446035Y-177701367D01*
X172591149Y-178052570D01*
X172859616Y-178321507D01*
X173210566Y-178467233D01*
X173590567Y-178467565D01*
X173941770Y-178322451D01*
X174210707Y-178053984D01*
X174356433Y-177703034D01*
X174356765Y-177323033D01*
X174356765Y-179323033D01*
X174211651Y-178971830D01*
X173943184Y-178702893D01*
X173592234Y-178557167D01*
X173212233Y-178556835D01*
X172861030Y-178701949D01*
X172592093Y-178970416D01*
X172446367Y-179321366D01*
X172446035Y-179701367D01*
X172591149Y-180052570D01*
X172859616Y-180321507D01*
X173210566Y-180467233D01*
X173590567Y-180467565D01*
X173941770Y-180322451D01*
X174210707Y-180053984D01*
X174356433Y-179703034D01*
X174356765Y-179323033D01*
X174356765Y-181323033D01*
X174211651Y-180971830D01*
X173943184Y-180702893D01*
X173592234Y-180557167D01*
X173212233Y-180556835D01*
X172861030Y-180701949D01*
X172592093Y-180970416D01*
X172446367Y-181321366D01*
X172446035Y-181701367D01*
X172591149Y-182052570D01*
X172859616Y-182321507D01*
X173210566Y-182467233D01*
X173590567Y-182467565D01*
X173941770Y-182322451D01*
X174210707Y-182053984D01*
X174356433Y-181703034D01*
X174356765Y-181323033D01*
X174356765Y-183323033D01*
X174211651Y-182971830D01*
X173943184Y-182702893D01*
X173592234Y-182557167D01*
X173212233Y-182556835D01*
X172861030Y-182701949D01*
X172592093Y-182970416D01*
X172446367Y-183321366D01*
X172446035Y-183701367D01*
X172591149Y-184052570D01*
X172859616Y-184321507D01*
X173210566Y-184467233D01*
X173590567Y-184467565D01*
X173941770Y-184322451D01*
X174210707Y-184053984D01*
X174356433Y-183703034D01*
X174356765Y-183323033D01*
X174356765Y-185323033D01*
X174211651Y-184971830D01*
X173943184Y-184702893D01*
X173592234Y-184557167D01*
X173212233Y-184556835D01*
X172861030Y-184701949D01*
X172592093Y-184970416D01*
X172446367Y-185321366D01*
X172446035Y-185701367D01*
X172591149Y-186052570D01*
X172859616Y-186321507D01*
X173210566Y-186467233D01*
X173590567Y-186467565D01*
X173941770Y-186322451D01*
X174210707Y-186053984D01*
X174356433Y-185703034D01*
X174356765Y-185323033D01*
X174356765Y-187323033D01*
X174211651Y-186971830D01*
X173943184Y-186702893D01*
X173592234Y-186557167D01*
X173212233Y-186556835D01*
X172861030Y-186701949D01*
X172592093Y-186970416D01*
X172446367Y-187321366D01*
X172446035Y-187701367D01*
X172591149Y-188052570D01*
X172859616Y-188321507D01*
X173210566Y-188467233D01*
X173590567Y-188467565D01*
X173941770Y-188322451D01*
X174210707Y-188053984D01*
X174356433Y-187703034D01*
X174356765Y-187323033D01*
X174356765Y-189323033D01*
X174211651Y-188971830D01*
X173943184Y-188702893D01*
X173592234Y-188557167D01*
X173212233Y-188556835D01*
X172861030Y-188701949D01*
X172592093Y-188970416D01*
X172446367Y-189321366D01*
X172446035Y-189701367D01*
X172591149Y-190052570D01*
X172859616Y-190321507D01*
X173210566Y-190467233D01*
X173590567Y-190467565D01*
X173941770Y-190322451D01*
X174210707Y-190053984D01*
X174356433Y-189703034D01*
X174356765Y-189323033D01*
X174356765Y-191350693D01*
X174331332Y-191222836D01*
X174212655Y-191142887D01*
X173843342Y-191512200D01*
X174212655Y-191881513D01*
X174331332Y-191801564D01*
X174371281Y-191423668D01*
X174371281Y-207873600D01*
X174356765Y-207873600D01*
X174356765Y-197323033D01*
X174356765Y-195323033D01*
X174356765Y-193323033D01*
X174211651Y-192971830D01*
X173943184Y-192702893D01*
X173770713Y-192631277D01*
X173770713Y-192323455D01*
X173770713Y-190700945D01*
X173690764Y-190582268D01*
X173312868Y-190542319D01*
X173112036Y-190582268D01*
X173032087Y-190700945D01*
X173401400Y-191070258D01*
X173770713Y-190700945D01*
X173770713Y-192323455D01*
X173401400Y-191954142D01*
X173032087Y-192323455D01*
X173112036Y-192442132D01*
X173489932Y-192482081D01*
X173690764Y-192442132D01*
X173770713Y-192323455D01*
X173770713Y-192631277D01*
X173592234Y-192557167D01*
X173212233Y-192556835D01*
X172959458Y-192661279D01*
X172959458Y-191512200D01*
X172590145Y-191142887D01*
X172471468Y-191222836D01*
X172431519Y-191600732D01*
X172471468Y-191801564D01*
X172590145Y-191881513D01*
X172959458Y-191512200D01*
X172959458Y-192661279D01*
X172861030Y-192701949D01*
X172592093Y-192970416D01*
X172446367Y-193321366D01*
X172446035Y-193701367D01*
X172591149Y-194052570D01*
X172859616Y-194321507D01*
X173210566Y-194467233D01*
X173590567Y-194467565D01*
X173941770Y-194322451D01*
X174210707Y-194053984D01*
X174356433Y-193703034D01*
X174356765Y-193323033D01*
X174356765Y-195323033D01*
X174211651Y-194971830D01*
X173943184Y-194702893D01*
X173592234Y-194557167D01*
X173212233Y-194556835D01*
X172861030Y-194701949D01*
X172592093Y-194970416D01*
X172446367Y-195321366D01*
X172446035Y-195701367D01*
X172591149Y-196052570D01*
X172859616Y-196321507D01*
X173210566Y-196467233D01*
X173590567Y-196467565D01*
X173941770Y-196322451D01*
X174210707Y-196053984D01*
X174356433Y-195703034D01*
X174356765Y-195323033D01*
X174356765Y-197323033D01*
X174211651Y-196971830D01*
X173943184Y-196702893D01*
X173592234Y-196557167D01*
X173212233Y-196556835D01*
X172861030Y-196701949D01*
X172592093Y-196970416D01*
X172446367Y-197321366D01*
X172446035Y-197701367D01*
X172591149Y-198052570D01*
X172859616Y-198321507D01*
X173210566Y-198467233D01*
X173590567Y-198467565D01*
X173941770Y-198322451D01*
X174210707Y-198053984D01*
X174356433Y-197703034D01*
X174356765Y-197323033D01*
X174356765Y-207873600D01*
X170789600Y-207873600D01*
X170789600Y-139319000D01*
X207594200Y-139319000D01*
X207594200Y-207873600D01*
X207594200Y-207873600D01*
G37*
X207594200Y-207873600D02*
X206959334Y-207873600D01*
X206959334Y-199007979D01*
X206841641Y-198723141D01*
X206623905Y-198505024D01*
X206339273Y-198386835D01*
X206031079Y-198386566D01*
X205746241Y-198504259D01*
X205571281Y-198678913D01*
X205571281Y-183423668D01*
X205556765Y-183350693D01*
X205556765Y-181323033D01*
X205556765Y-179323033D01*
X205556765Y-177323033D01*
X205556765Y-175323033D01*
X205411651Y-174971830D01*
X205143184Y-174702893D01*
X204792234Y-174557167D01*
X204412233Y-174556835D01*
X204061030Y-174701949D01*
X203792093Y-174970416D01*
X203646367Y-175321366D01*
X203646035Y-175701367D01*
X203791149Y-176052570D01*
X204059616Y-176321507D01*
X204410566Y-176467233D01*
X204790567Y-176467565D01*
X205141770Y-176322451D01*
X205410707Y-176053984D01*
X205556433Y-175703034D01*
X205556765Y-175323033D01*
X205556765Y-177323033D01*
X205411651Y-176971830D01*
X205143184Y-176702893D01*
X204792234Y-176557167D01*
X204412233Y-176556835D01*
X204061030Y-176701949D01*
X203792093Y-176970416D01*
X203746424Y-177080400D01*
X203210833Y-177080400D01*
X203210833Y-167372044D01*
X202917597Y-166662358D01*
X202375098Y-166118911D01*
X201665925Y-165824437D01*
X200898044Y-165823767D01*
X200188358Y-166117003D01*
X199644911Y-166659502D01*
X199350437Y-167368675D01*
X199349767Y-168136556D01*
X199643003Y-168846242D01*
X200185502Y-169389689D01*
X200894675Y-169684163D01*
X201662556Y-169684833D01*
X202372242Y-169391597D01*
X202915689Y-168849098D01*
X203210163Y-168139925D01*
X203210833Y-167372044D01*
X203210833Y-177080400D01*
X195630800Y-177080400D01*
X195630800Y-171475400D01*
X195630800Y-163372731D01*
X186090724Y-163377949D01*
X186080235Y-171475400D01*
X195630800Y-171475400D01*
X195630800Y-177080400D01*
X182180481Y-177080400D01*
X182165541Y-177044241D01*
X181947805Y-176826124D01*
X181663173Y-176707935D01*
X181354979Y-176707666D01*
X181070141Y-176825359D01*
X180852024Y-177043095D01*
X180733835Y-177327727D01*
X180733566Y-177635921D01*
X180851259Y-177920759D01*
X181068995Y-178138876D01*
X181353627Y-178257065D01*
X181661821Y-178257334D01*
X181946659Y-178139641D01*
X182142642Y-177944000D01*
X195630800Y-177944000D01*
X203746288Y-177944000D01*
X203791149Y-178052570D01*
X204059616Y-178321507D01*
X204410566Y-178467233D01*
X204790567Y-178467565D01*
X205141770Y-178322451D01*
X205410707Y-178053984D01*
X205556433Y-177703034D01*
X205556765Y-177323033D01*
X205556765Y-179323033D01*
X205411651Y-178971830D01*
X205143184Y-178702893D01*
X204792234Y-178557167D01*
X204412233Y-178556835D01*
X204061030Y-178701949D01*
X203792093Y-178970416D01*
X203746424Y-179080400D01*
X195630800Y-179080400D01*
X187605314Y-179080400D01*
X187396105Y-178870824D01*
X187111473Y-178752635D01*
X186803279Y-178752366D01*
X186518441Y-178870059D01*
X186300324Y-179087795D01*
X186182135Y-179372427D01*
X186181866Y-179680621D01*
X186299559Y-179965459D01*
X186517295Y-180183576D01*
X186801927Y-180301765D01*
X187110121Y-180302034D01*
X187394959Y-180184341D01*
X187613076Y-179966605D01*
X187622462Y-179944000D01*
X195630800Y-179944000D01*
X203746288Y-179944000D01*
X203791149Y-180052570D01*
X204059616Y-180321507D01*
X204410566Y-180467233D01*
X204790567Y-180467565D01*
X205141770Y-180322451D01*
X205410707Y-180053984D01*
X205556433Y-179703034D01*
X205556765Y-179323033D01*
X205556765Y-181323033D01*
X205411651Y-180971830D01*
X205143184Y-180702893D01*
X204792234Y-180557167D01*
X204412233Y-180556835D01*
X204061030Y-180701949D01*
X203792093Y-180970416D01*
X203746424Y-181080400D01*
X195630800Y-181080400D01*
X188499627Y-181080400D01*
X188490141Y-181057441D01*
X188272405Y-180839324D01*
X187987773Y-180721135D01*
X187679579Y-180720866D01*
X187394741Y-180838559D01*
X187176624Y-181056295D01*
X187058435Y-181340927D01*
X187058166Y-181649121D01*
X187175859Y-181933959D01*
X187393595Y-182152076D01*
X187678227Y-182270265D01*
X187986421Y-182270534D01*
X188271259Y-182152841D01*
X188480465Y-181944000D01*
X195630800Y-181944000D01*
X203746288Y-181944000D01*
X203791149Y-182052570D01*
X204059616Y-182321507D01*
X204410566Y-182467233D01*
X204790567Y-182467565D01*
X205141770Y-182322451D01*
X205410707Y-182053984D01*
X205556433Y-181703034D01*
X205556765Y-181323033D01*
X205556765Y-183350693D01*
X205531332Y-183222836D01*
X205412655Y-183142887D01*
X205043342Y-183512200D01*
X205412655Y-183881513D01*
X205531332Y-183801564D01*
X205571281Y-183423668D01*
X205571281Y-198678913D01*
X205556765Y-198693404D01*
X205556765Y-195323033D01*
X205556765Y-193323033D01*
X205556765Y-191323033D01*
X205556765Y-189323033D01*
X205556765Y-187323033D01*
X205556765Y-185323033D01*
X205411651Y-184971830D01*
X205143184Y-184702893D01*
X204970713Y-184631277D01*
X204970713Y-184323455D01*
X204970713Y-182700945D01*
X204890764Y-182582268D01*
X204512868Y-182542319D01*
X204312036Y-182582268D01*
X204232087Y-182700945D01*
X204601400Y-183070258D01*
X204970713Y-182700945D01*
X204970713Y-184323455D01*
X204601400Y-183954142D01*
X204232087Y-184323455D01*
X204312036Y-184442132D01*
X204689932Y-184482081D01*
X204890764Y-184442132D01*
X204970713Y-184323455D01*
X204970713Y-184631277D01*
X204792234Y-184557167D01*
X204412233Y-184556835D01*
X204159458Y-184661279D01*
X204159458Y-183512200D01*
X203790145Y-183142887D01*
X203671468Y-183222836D01*
X203631519Y-183600732D01*
X203671468Y-183801564D01*
X203790145Y-183881513D01*
X204159458Y-183512200D01*
X204159458Y-184661279D01*
X204061030Y-184701949D01*
X203792093Y-184970416D01*
X203646367Y-185321366D01*
X203646035Y-185701367D01*
X203791149Y-186052570D01*
X204059616Y-186321507D01*
X204410566Y-186467233D01*
X204790567Y-186467565D01*
X205141770Y-186322451D01*
X205410707Y-186053984D01*
X205556433Y-185703034D01*
X205556765Y-185323033D01*
X205556765Y-187323033D01*
X205411651Y-186971830D01*
X205143184Y-186702893D01*
X204792234Y-186557167D01*
X204412233Y-186556835D01*
X204061030Y-186701949D01*
X203792093Y-186970416D01*
X203646367Y-187321366D01*
X203646035Y-187701367D01*
X203791149Y-188052570D01*
X204059616Y-188321507D01*
X204410566Y-188467233D01*
X204790567Y-188467565D01*
X205141770Y-188322451D01*
X205410707Y-188053984D01*
X205556433Y-187703034D01*
X205556765Y-187323033D01*
X205556765Y-189323033D01*
X205411651Y-188971830D01*
X205143184Y-188702893D01*
X204792234Y-188557167D01*
X204412233Y-188556835D01*
X204061030Y-188701949D01*
X203792093Y-188970416D01*
X203646367Y-189321366D01*
X203646035Y-189701367D01*
X203791149Y-190052570D01*
X204059616Y-190321507D01*
X204410566Y-190467233D01*
X204790567Y-190467565D01*
X205141770Y-190322451D01*
X205410707Y-190053984D01*
X205556433Y-189703034D01*
X205556765Y-189323033D01*
X205556765Y-191323033D01*
X205411651Y-190971830D01*
X205143184Y-190702893D01*
X204792234Y-190557167D01*
X204412233Y-190556835D01*
X204061030Y-190701949D01*
X203792093Y-190970416D01*
X203646367Y-191321366D01*
X203646035Y-191701367D01*
X203791149Y-192052570D01*
X204059616Y-192321507D01*
X204410566Y-192467233D01*
X204790567Y-192467565D01*
X205141770Y-192322451D01*
X205410707Y-192053984D01*
X205556433Y-191703034D01*
X205556765Y-191323033D01*
X205556765Y-193323033D01*
X205411651Y-192971830D01*
X205143184Y-192702893D01*
X204792234Y-192557167D01*
X204412233Y-192556835D01*
X204061030Y-192701949D01*
X203792093Y-192970416D01*
X203746424Y-193080400D01*
X198209260Y-193080400D01*
X198205641Y-193071641D01*
X197987905Y-192853524D01*
X197703273Y-192735335D01*
X197395079Y-192735066D01*
X197110241Y-192852759D01*
X196892124Y-193070495D01*
X196773935Y-193355127D01*
X196773666Y-193663321D01*
X196891359Y-193948159D01*
X197109095Y-194166276D01*
X197393727Y-194284465D01*
X197701921Y-194284734D01*
X197986759Y-194167041D01*
X198204876Y-193949305D01*
X198207078Y-193944000D01*
X203746288Y-193944000D01*
X203791149Y-194052570D01*
X204059616Y-194321507D01*
X204410566Y-194467233D01*
X204790567Y-194467565D01*
X205141770Y-194322451D01*
X205410707Y-194053984D01*
X205556433Y-193703034D01*
X205556765Y-193323033D01*
X205556765Y-195323033D01*
X205411651Y-194971830D01*
X205143184Y-194702893D01*
X204792234Y-194557167D01*
X204412233Y-194556835D01*
X204061030Y-194701949D01*
X203792093Y-194970416D01*
X203646367Y-195321366D01*
X203646035Y-195701367D01*
X203791149Y-196052570D01*
X204059616Y-196321507D01*
X204410566Y-196467233D01*
X204790567Y-196467565D01*
X205141770Y-196322451D01*
X205410707Y-196053984D01*
X205556433Y-195703034D01*
X205556765Y-195323033D01*
X205556765Y-198693404D01*
X205556657Y-198693511D01*
X205556657Y-198071807D01*
X205556657Y-196821807D01*
X205506493Y-196700401D01*
X205413687Y-196607433D01*
X205292369Y-196557057D01*
X205161007Y-196556943D01*
X203911007Y-196556943D01*
X203789601Y-196607107D01*
X203696633Y-196699913D01*
X203646257Y-196821231D01*
X203646143Y-196952593D01*
X203646143Y-198202593D01*
X203696307Y-198323999D01*
X203789113Y-198416967D01*
X203910431Y-198467343D01*
X204041793Y-198467457D01*
X205291793Y-198467457D01*
X205413199Y-198417293D01*
X205506167Y-198324487D01*
X205556543Y-198203169D01*
X205556657Y-198071807D01*
X205556657Y-198693511D01*
X205528124Y-198721995D01*
X205409935Y-199006627D01*
X205409666Y-199314821D01*
X205412810Y-199322431D01*
X205218242Y-199517000D01*
X197020773Y-199517000D01*
X197020773Y-194611358D01*
X196780709Y-194030359D01*
X196336580Y-193585454D01*
X195756000Y-193344376D01*
X195630800Y-193344266D01*
X195127358Y-193343827D01*
X194546359Y-193583891D01*
X194101454Y-194028020D01*
X193860376Y-194608600D01*
X193859827Y-195237242D01*
X194099891Y-195818241D01*
X194544020Y-196263146D01*
X195124600Y-196504224D01*
X195630800Y-196504666D01*
X195753242Y-196504773D01*
X196334241Y-196264709D01*
X196779146Y-195820580D01*
X197020224Y-195240000D01*
X197020773Y-194611358D01*
X197020773Y-199517000D01*
X195630800Y-199517000D01*
X185102557Y-199517000D01*
X185102557Y-199184907D01*
X185052393Y-199063501D01*
X184959587Y-198970533D01*
X184838269Y-198920157D01*
X184706907Y-198920043D01*
X184320773Y-198920043D01*
X184320773Y-194611358D01*
X184080709Y-194030359D01*
X183636580Y-193585454D01*
X183056000Y-193344376D01*
X182427358Y-193343827D01*
X181846359Y-193583891D01*
X181401454Y-194028020D01*
X181160376Y-194608600D01*
X181159827Y-195237242D01*
X181399891Y-195818241D01*
X181844020Y-196263146D01*
X182424600Y-196504224D01*
X183053242Y-196504773D01*
X183634241Y-196264709D01*
X184079146Y-195820580D01*
X184320224Y-195240000D01*
X184320773Y-194611358D01*
X184320773Y-198920043D01*
X183817907Y-198920043D01*
X183696501Y-198970207D01*
X183603533Y-199063013D01*
X183553157Y-199184331D01*
X183553043Y-199315693D01*
X183553043Y-200712693D01*
X183603207Y-200834099D01*
X183696013Y-200927067D01*
X183817331Y-200977443D01*
X183948693Y-200977557D01*
X184837693Y-200977557D01*
X184959099Y-200927393D01*
X185052067Y-200834587D01*
X185102443Y-200713269D01*
X185102557Y-200581907D01*
X185102557Y-200380600D01*
X195630800Y-200380600D01*
X205397100Y-200380600D01*
X205562342Y-200347731D01*
X205562343Y-200347731D01*
X205702429Y-200254129D01*
X206023272Y-199933284D01*
X206029727Y-199935965D01*
X206337921Y-199936234D01*
X206622759Y-199818541D01*
X206840876Y-199600805D01*
X206959065Y-199316173D01*
X206959334Y-199007979D01*
X206959334Y-207873600D01*
X198544369Y-207873600D01*
X198544369Y-202628101D01*
X198378442Y-202226527D01*
X198071469Y-201919018D01*
X197670185Y-201752390D01*
X197235681Y-201752011D01*
X196834107Y-201917938D01*
X196526598Y-202224911D01*
X196452513Y-202403325D01*
X196379462Y-202226527D01*
X196072489Y-201919018D01*
X195671205Y-201752390D01*
X195630800Y-201752354D01*
X195236701Y-201752011D01*
X194835127Y-201917938D01*
X194527618Y-202224911D01*
X194429941Y-202460142D01*
X194400885Y-202436351D01*
X193992835Y-202844400D01*
X194400885Y-203252449D01*
X194429992Y-203228615D01*
X194526538Y-203462273D01*
X194833511Y-203769782D01*
X195234795Y-203936410D01*
X195630800Y-203936755D01*
X195669299Y-203936789D01*
X196070873Y-203770862D01*
X196378382Y-203463889D01*
X196452466Y-203285474D01*
X196525518Y-203462273D01*
X196832491Y-203769782D01*
X197233775Y-203936410D01*
X197668279Y-203936789D01*
X198069853Y-203770862D01*
X198377362Y-203463889D01*
X198543990Y-203062605D01*
X198544369Y-202628101D01*
X198544369Y-207873600D01*
X195630800Y-207873600D01*
X195503800Y-207873600D01*
X193862069Y-207873600D01*
X193862069Y-203791265D01*
X193862069Y-201897535D01*
X193760839Y-201773905D01*
X193327823Y-201737977D01*
X193147201Y-201773905D01*
X193045971Y-201897535D01*
X193454020Y-202305585D01*
X193862069Y-201897535D01*
X193862069Y-203791265D01*
X193454020Y-203383215D01*
X193045971Y-203791265D01*
X193147201Y-203914895D01*
X193580217Y-203950823D01*
X193760839Y-203914895D01*
X193862069Y-203791265D01*
X193862069Y-207873600D01*
X192915205Y-207873600D01*
X192915205Y-202844400D01*
X192507155Y-202436351D01*
X192383525Y-202537581D01*
X192347597Y-202970597D01*
X192383525Y-203151219D01*
X192507155Y-203252449D01*
X192915205Y-202844400D01*
X192915205Y-207873600D01*
X185089857Y-207873600D01*
X185089857Y-203502907D01*
X185089857Y-202236693D01*
X185089743Y-202105331D01*
X185039367Y-201984013D01*
X184946399Y-201891207D01*
X184824993Y-201841043D01*
X184619900Y-201841100D01*
X184537350Y-201923650D01*
X184537350Y-202520550D01*
X185007250Y-202520550D01*
X185089800Y-202438000D01*
X185089857Y-202236693D01*
X185089857Y-203502907D01*
X185089800Y-203301600D01*
X185007250Y-203219050D01*
X184537350Y-203219050D01*
X184537350Y-203815950D01*
X184619900Y-203898500D01*
X184824993Y-203898557D01*
X184946399Y-203848393D01*
X185039367Y-203755587D01*
X185089743Y-203634269D01*
X185089857Y-203502907D01*
X185089857Y-207873600D01*
X184092850Y-207873600D01*
X184092850Y-203815950D01*
X184092850Y-203219050D01*
X184092850Y-202520550D01*
X184092850Y-201923650D01*
X184010300Y-201841100D01*
X183805207Y-201841043D01*
X183683801Y-201891207D01*
X183590833Y-201984013D01*
X183540457Y-202105331D01*
X183540343Y-202236693D01*
X183540400Y-202438000D01*
X183622950Y-202520550D01*
X184092850Y-202520550D01*
X184092850Y-203219050D01*
X183622950Y-203219050D01*
X183540400Y-203301600D01*
X183540343Y-203502907D01*
X183540457Y-203634269D01*
X183590833Y-203755587D01*
X183683801Y-203848393D01*
X183805207Y-203898557D01*
X184010300Y-203898500D01*
X184092850Y-203815950D01*
X184092850Y-207873600D01*
X183197557Y-207873600D01*
X183197557Y-200581907D01*
X183197557Y-199184907D01*
X183147393Y-199063501D01*
X183054587Y-198970533D01*
X182933269Y-198920157D01*
X182801907Y-198920043D01*
X181912907Y-198920043D01*
X181791501Y-198970207D01*
X181698533Y-199063013D01*
X181648157Y-199184331D01*
X181648043Y-199315693D01*
X181648043Y-199517000D01*
X181260807Y-199517000D01*
X181260807Y-198861057D01*
X181210643Y-198739651D01*
X181117837Y-198646683D01*
X180996519Y-198596307D01*
X180865157Y-198596193D01*
X179341157Y-198596193D01*
X179219751Y-198646357D01*
X179126783Y-198739163D01*
X179076407Y-198860481D01*
X179076293Y-198991843D01*
X179076293Y-201023843D01*
X179126457Y-201145249D01*
X179219263Y-201238217D01*
X179340581Y-201288593D01*
X179471943Y-201288707D01*
X180995943Y-201288707D01*
X181117349Y-201238543D01*
X181210317Y-201145737D01*
X181260693Y-201024419D01*
X181260807Y-200893057D01*
X181260807Y-200380600D01*
X181648043Y-200380600D01*
X181648043Y-200712693D01*
X181698207Y-200834099D01*
X181791013Y-200927067D01*
X181912331Y-200977443D01*
X182043693Y-200977557D01*
X182932693Y-200977557D01*
X183054099Y-200927393D01*
X183147067Y-200834587D01*
X183197443Y-200713269D01*
X183197557Y-200581907D01*
X183197557Y-207873600D01*
X183184857Y-207873600D01*
X183184857Y-203502907D01*
X183184857Y-202105907D01*
X183134693Y-201984501D01*
X183041887Y-201891533D01*
X182920569Y-201841157D01*
X182789207Y-201841043D01*
X181900207Y-201841043D01*
X181778801Y-201891207D01*
X181685833Y-201984013D01*
X181635457Y-202105331D01*
X181635343Y-202236693D01*
X181635343Y-202431650D01*
X181260807Y-202431650D01*
X181260807Y-201782057D01*
X181210643Y-201660651D01*
X181117837Y-201567683D01*
X180996519Y-201517307D01*
X180865157Y-201517193D01*
X179341157Y-201517193D01*
X179219751Y-201567357D01*
X179126783Y-201660163D01*
X179076407Y-201781481D01*
X179076293Y-201912843D01*
X179076293Y-203944843D01*
X179126457Y-204066249D01*
X179219263Y-204159217D01*
X179340581Y-204209593D01*
X179471943Y-204209707D01*
X180995943Y-204209707D01*
X181117349Y-204159543D01*
X181210317Y-204066737D01*
X181260693Y-203945419D01*
X181260807Y-203814057D01*
X181260807Y-203295250D01*
X181635343Y-203295250D01*
X181635343Y-203633693D01*
X181685507Y-203755099D01*
X181778313Y-203848067D01*
X181899631Y-203898443D01*
X182030993Y-203898557D01*
X182919993Y-203898557D01*
X183041399Y-203848393D01*
X183134367Y-203755587D01*
X183184743Y-203634269D01*
X183184857Y-203502907D01*
X183184857Y-207873600D01*
X178830833Y-207873600D01*
X178830833Y-167372044D01*
X178537597Y-166662358D01*
X177995098Y-166118911D01*
X177285925Y-165824437D01*
X176518044Y-165823767D01*
X175808358Y-166117003D01*
X175264911Y-166659502D01*
X174970437Y-167368675D01*
X174969767Y-168136556D01*
X175263003Y-168846242D01*
X175805502Y-169389689D01*
X176514675Y-169684163D01*
X177282556Y-169684833D01*
X177992242Y-169391597D01*
X178535689Y-168849098D01*
X178830163Y-168139925D01*
X178830833Y-167372044D01*
X178830833Y-207873600D01*
X177958807Y-207873600D01*
X177958807Y-203814057D01*
X177958807Y-201782057D01*
X177958807Y-200893057D01*
X177958807Y-198861057D01*
X177908643Y-198739651D01*
X177815837Y-198646683D01*
X177694519Y-198596307D01*
X177563157Y-198596193D01*
X176039157Y-198596193D01*
X175917751Y-198646357D01*
X175824783Y-198739163D01*
X175774407Y-198860481D01*
X175774293Y-198991843D01*
X175774293Y-199443776D01*
X175623205Y-199292424D01*
X175338573Y-199174235D01*
X175030379Y-199173966D01*
X174745541Y-199291659D01*
X174527424Y-199509395D01*
X174409235Y-199794027D01*
X174408966Y-200102221D01*
X174526659Y-200387059D01*
X174744395Y-200605176D01*
X175029027Y-200723365D01*
X175337221Y-200723634D01*
X175622059Y-200605941D01*
X175774293Y-200453972D01*
X175774293Y-201023843D01*
X175824457Y-201145249D01*
X175917263Y-201238217D01*
X176038581Y-201288593D01*
X176169943Y-201288707D01*
X177693943Y-201288707D01*
X177815349Y-201238543D01*
X177908317Y-201145737D01*
X177958693Y-201024419D01*
X177958807Y-200893057D01*
X177958807Y-201782057D01*
X177908643Y-201660651D01*
X177815837Y-201567683D01*
X177694519Y-201517307D01*
X177563157Y-201517193D01*
X176039157Y-201517193D01*
X175917751Y-201567357D01*
X175824783Y-201660163D01*
X175774407Y-201781481D01*
X175774293Y-201912843D01*
X175774293Y-202364776D01*
X175623205Y-202213424D01*
X175338573Y-202095235D01*
X175030379Y-202094966D01*
X174745541Y-202212659D01*
X174527424Y-202430395D01*
X174409235Y-202715027D01*
X174408966Y-203023221D01*
X174526659Y-203308059D01*
X174744395Y-203526176D01*
X175029027Y-203644365D01*
X175337221Y-203644634D01*
X175622059Y-203526941D01*
X175774293Y-203374972D01*
X175774293Y-203944843D01*
X175824457Y-204066249D01*
X175917263Y-204159217D01*
X176038581Y-204209593D01*
X176169943Y-204209707D01*
X177693943Y-204209707D01*
X177815349Y-204159543D01*
X177908317Y-204066737D01*
X177958693Y-203945419D01*
X177958807Y-203814057D01*
X177958807Y-207873600D01*
X174371281Y-207873600D01*
X174371281Y-191423668D01*
X174356765Y-191350693D01*
X174356765Y-189323033D01*
X174356765Y-187323033D01*
X174356765Y-185323033D01*
X174356765Y-183323033D01*
X174356765Y-181323033D01*
X174356765Y-179323033D01*
X174356765Y-177323033D01*
X174356765Y-175323033D01*
X174211651Y-174971830D01*
X173943184Y-174702893D01*
X173592234Y-174557167D01*
X173212233Y-174556835D01*
X172861030Y-174701949D01*
X172592093Y-174970416D01*
X172446367Y-175321366D01*
X172446035Y-175701367D01*
X172591149Y-176052570D01*
X172859616Y-176321507D01*
X173210566Y-176467233D01*
X173590567Y-176467565D01*
X173941770Y-176322451D01*
X174210707Y-176053984D01*
X174356433Y-175703034D01*
X174356765Y-175323033D01*
X174356765Y-177323033D01*
X174211651Y-176971830D01*
X173943184Y-176702893D01*
X173592234Y-176557167D01*
X173212233Y-176556835D01*
X172861030Y-176701949D01*
X172592093Y-176970416D01*
X172446367Y-177321366D01*
X172446035Y-177701367D01*
X172591149Y-178052570D01*
X172859616Y-178321507D01*
X173210566Y-178467233D01*
X173590567Y-178467565D01*
X173941770Y-178322451D01*
X174210707Y-178053984D01*
X174356433Y-177703034D01*
X174356765Y-177323033D01*
X174356765Y-179323033D01*
X174211651Y-178971830D01*
X173943184Y-178702893D01*
X173592234Y-178557167D01*
X173212233Y-178556835D01*
X172861030Y-178701949D01*
X172592093Y-178970416D01*
X172446367Y-179321366D01*
X172446035Y-179701367D01*
X172591149Y-180052570D01*
X172859616Y-180321507D01*
X173210566Y-180467233D01*
X173590567Y-180467565D01*
X173941770Y-180322451D01*
X174210707Y-180053984D01*
X174356433Y-179703034D01*
X174356765Y-179323033D01*
X174356765Y-181323033D01*
X174211651Y-180971830D01*
X173943184Y-180702893D01*
X173592234Y-180557167D01*
X173212233Y-180556835D01*
X172861030Y-180701949D01*
X172592093Y-180970416D01*
X172446367Y-181321366D01*
X172446035Y-181701367D01*
X172591149Y-182052570D01*
X172859616Y-182321507D01*
X173210566Y-182467233D01*
X173590567Y-182467565D01*
X173941770Y-182322451D01*
X174210707Y-182053984D01*
X174356433Y-181703034D01*
X174356765Y-181323033D01*
X174356765Y-183323033D01*
X174211651Y-182971830D01*
X173943184Y-182702893D01*
X173592234Y-182557167D01*
X173212233Y-182556835D01*
X172861030Y-182701949D01*
X172592093Y-182970416D01*
X172446367Y-183321366D01*
X172446035Y-183701367D01*
X172591149Y-184052570D01*
X172859616Y-184321507D01*
X173210566Y-184467233D01*
X173590567Y-184467565D01*
X173941770Y-184322451D01*
X174210707Y-184053984D01*
X174356433Y-183703034D01*
X174356765Y-183323033D01*
X174356765Y-185323033D01*
X174211651Y-184971830D01*
X173943184Y-184702893D01*
X173592234Y-184557167D01*
X173212233Y-184556835D01*
X172861030Y-184701949D01*
X172592093Y-184970416D01*
X172446367Y-185321366D01*
X172446035Y-185701367D01*
X172591149Y-186052570D01*
X172859616Y-186321507D01*
X173210566Y-186467233D01*
X173590567Y-186467565D01*
X173941770Y-186322451D01*
X174210707Y-186053984D01*
X174356433Y-185703034D01*
X174356765Y-185323033D01*
X174356765Y-187323033D01*
X174211651Y-186971830D01*
X173943184Y-186702893D01*
X173592234Y-186557167D01*
X173212233Y-186556835D01*
X172861030Y-186701949D01*
X172592093Y-186970416D01*
X172446367Y-187321366D01*
X172446035Y-187701367D01*
X172591149Y-188052570D01*
X172859616Y-188321507D01*
X173210566Y-188467233D01*
X173590567Y-188467565D01*
X173941770Y-188322451D01*
X174210707Y-188053984D01*
X174356433Y-187703034D01*
X174356765Y-187323033D01*
X174356765Y-189323033D01*
X174211651Y-188971830D01*
X173943184Y-188702893D01*
X173592234Y-188557167D01*
X173212233Y-188556835D01*
X172861030Y-188701949D01*
X172592093Y-188970416D01*
X172446367Y-189321366D01*
X172446035Y-189701367D01*
X172591149Y-190052570D01*
X172859616Y-190321507D01*
X173210566Y-190467233D01*
X173590567Y-190467565D01*
X173941770Y-190322451D01*
X174210707Y-190053984D01*
X174356433Y-189703034D01*
X174356765Y-189323033D01*
X174356765Y-191350693D01*
X174331332Y-191222836D01*
X174212655Y-191142887D01*
X173843342Y-191512200D01*
X174212655Y-191881513D01*
X174331332Y-191801564D01*
X174371281Y-191423668D01*
X174371281Y-207873600D01*
X174356765Y-207873600D01*
X174356765Y-197323033D01*
X174356765Y-195323033D01*
X174356765Y-193323033D01*
X174211651Y-192971830D01*
X173943184Y-192702893D01*
X173770713Y-192631277D01*
X173770713Y-192323455D01*
X173770713Y-190700945D01*
X173690764Y-190582268D01*
X173312868Y-190542319D01*
X173112036Y-190582268D01*
X173032087Y-190700945D01*
X173401400Y-191070258D01*
X173770713Y-190700945D01*
X173770713Y-192323455D01*
X173401400Y-191954142D01*
X173032087Y-192323455D01*
X173112036Y-192442132D01*
X173489932Y-192482081D01*
X173690764Y-192442132D01*
X173770713Y-192323455D01*
X173770713Y-192631277D01*
X173592234Y-192557167D01*
X173212233Y-192556835D01*
X172959458Y-192661279D01*
X172959458Y-191512200D01*
X172590145Y-191142887D01*
X172471468Y-191222836D01*
X172431519Y-191600732D01*
X172471468Y-191801564D01*
X172590145Y-191881513D01*
X172959458Y-191512200D01*
X172959458Y-192661279D01*
X172861030Y-192701949D01*
X172592093Y-192970416D01*
X172446367Y-193321366D01*
X172446035Y-193701367D01*
X172591149Y-194052570D01*
X172859616Y-194321507D01*
X173210566Y-194467233D01*
X173590567Y-194467565D01*
X173941770Y-194322451D01*
X174210707Y-194053984D01*
X174356433Y-193703034D01*
X174356765Y-193323033D01*
X174356765Y-195323033D01*
X174211651Y-194971830D01*
X173943184Y-194702893D01*
X173592234Y-194557167D01*
X173212233Y-194556835D01*
X172861030Y-194701949D01*
X172592093Y-194970416D01*
X172446367Y-195321366D01*
X172446035Y-195701367D01*
X172591149Y-196052570D01*
X172859616Y-196321507D01*
X173210566Y-196467233D01*
X173590567Y-196467565D01*
X173941770Y-196322451D01*
X174210707Y-196053984D01*
X174356433Y-195703034D01*
X174356765Y-195323033D01*
X174356765Y-197323033D01*
X174211651Y-196971830D01*
X173943184Y-196702893D01*
X173592234Y-196557167D01*
X173212233Y-196556835D01*
X172861030Y-196701949D01*
X172592093Y-196970416D01*
X172446367Y-197321366D01*
X172446035Y-197701367D01*
X172591149Y-198052570D01*
X172859616Y-198321507D01*
X173210566Y-198467233D01*
X173590567Y-198467565D01*
X173941770Y-198322451D01*
X174210707Y-198053984D01*
X174356433Y-197703034D01*
X174356765Y-197323033D01*
X174356765Y-207873600D01*
X170789600Y-207873600D01*
X170789600Y-139319000D01*
X207594200Y-139319000D01*
X207594200Y-207873600D01*
G36*
X195122800Y-170967400D02*
X186588576Y-170967400D01*
X186598384Y-163885807D01*
X195122800Y-163880874D01*
X195122800Y-170967400D01*
X195122800Y-170967400D01*
G37*
X195122800Y-170967400D02*
X186588576Y-170967400D01*
X186598384Y-163885807D01*
X195122800Y-163880874D01*
X195122800Y-170967400D01*
M02*
