G04 (created by PCBNEW (2013-06-11 BZR 4021)-stable) date Sun 01 Jun 2014 09:44:25 PM CDT*
%MOIN*%
G04 Gerber Fmt 3.4, Leading zero omitted, Abs format*
%FSLAX34Y34*%
G01*
G70*
G90*
G04 APERTURE LIST*
%ADD10C,0.00590551*%
%ADD11C,0.005*%
%ADD12C,0.0039*%
%ADD13C,0.006*%
%ADD14C,0.0043*%
G04 APERTURE END LIST*
G54D10*
X67736Y-68626D02*
X67736Y-80595D01*
X81083Y-80575D02*
X81083Y-68626D01*
X69193Y-81973D02*
X79646Y-81973D01*
X67736Y-80595D02*
G75*
G03X69193Y-81973I1417J39D01*
G74*
G01*
X79646Y-81973D02*
G75*
G03X81083Y-80575I19J1417D01*
G74*
G01*
X81083Y-68626D02*
X67736Y-68626D01*
G54D11*
X69980Y-62800D02*
X69980Y-62750D01*
X69980Y-62750D02*
X67880Y-62750D01*
X67880Y-64250D02*
X69980Y-64250D01*
X69980Y-64250D02*
X69980Y-62800D01*
X69980Y-63700D02*
X69780Y-63700D01*
X69780Y-63700D02*
X69780Y-63300D01*
X69780Y-63300D02*
X69980Y-63300D01*
X67880Y-64250D02*
X67880Y-62750D01*
G54D12*
X69335Y-60440D02*
G75*
G03X69335Y-60440I-50J0D01*
G74*
G01*
X68835Y-60440D02*
X69235Y-60440D01*
X69235Y-60440D02*
X69235Y-61040D01*
X69235Y-61040D02*
X68835Y-61040D01*
X68435Y-61040D02*
X68035Y-61040D01*
X68035Y-61040D02*
X68035Y-60440D01*
X68035Y-60440D02*
X68435Y-60440D01*
X69785Y-75680D02*
G75*
G03X69785Y-75680I-50J0D01*
G74*
G01*
X69735Y-75230D02*
X69735Y-75630D01*
X69735Y-75630D02*
X69135Y-75630D01*
X69135Y-75630D02*
X69135Y-75230D01*
X69135Y-74830D02*
X69135Y-74430D01*
X69135Y-74430D02*
X69735Y-74430D01*
X69735Y-74430D02*
X69735Y-74830D01*
X80900Y-61820D02*
G75*
G03X80900Y-61820I-50J0D01*
G74*
G01*
X80400Y-61820D02*
X80800Y-61820D01*
X80800Y-61820D02*
X80800Y-62420D01*
X80800Y-62420D02*
X80400Y-62420D01*
X80000Y-62420D02*
X79600Y-62420D01*
X79600Y-62420D02*
X79600Y-61820D01*
X79600Y-61820D02*
X80000Y-61820D01*
X79600Y-61620D02*
G75*
G03X79600Y-61620I-50J0D01*
G74*
G01*
X80000Y-61620D02*
X79600Y-61620D01*
X79600Y-61620D02*
X79600Y-61020D01*
X79600Y-61020D02*
X80000Y-61020D01*
X80400Y-61020D02*
X80800Y-61020D01*
X80800Y-61020D02*
X80800Y-61620D01*
X80800Y-61620D02*
X80400Y-61620D01*
X69780Y-77250D02*
G75*
G03X69780Y-77250I-50J0D01*
G74*
G01*
X69730Y-76800D02*
X69730Y-77200D01*
X69730Y-77200D02*
X69130Y-77200D01*
X69130Y-77200D02*
X69130Y-76800D01*
X69130Y-76400D02*
X69130Y-76000D01*
X69130Y-76000D02*
X69730Y-76000D01*
X69730Y-76000D02*
X69730Y-76400D01*
X69340Y-61295D02*
G75*
G03X69340Y-61295I-50J0D01*
G74*
G01*
X68840Y-61295D02*
X69240Y-61295D01*
X69240Y-61295D02*
X69240Y-61895D01*
X69240Y-61895D02*
X68840Y-61895D01*
X68440Y-61895D02*
X68040Y-61895D01*
X68040Y-61895D02*
X68040Y-61295D01*
X68040Y-61295D02*
X68440Y-61295D01*
X74750Y-66905D02*
G75*
G03X74750Y-66905I-50J0D01*
G74*
G01*
X75150Y-66905D02*
X74750Y-66905D01*
X74750Y-66905D02*
X74750Y-66305D01*
X74750Y-66305D02*
X75150Y-66305D01*
X75550Y-66305D02*
X75950Y-66305D01*
X75950Y-66305D02*
X75950Y-66905D01*
X75950Y-66905D02*
X75550Y-66905D01*
X70755Y-60010D02*
G75*
G03X70755Y-60010I-50J0D01*
G74*
G01*
X70705Y-60460D02*
X70705Y-60060D01*
X70705Y-60060D02*
X71305Y-60060D01*
X71305Y-60060D02*
X71305Y-60460D01*
X71305Y-60860D02*
X71305Y-61260D01*
X71305Y-61260D02*
X70705Y-61260D01*
X70705Y-61260D02*
X70705Y-60860D01*
X78220Y-77275D02*
G75*
G03X78220Y-77275I-50J0D01*
G74*
G01*
X78620Y-77275D02*
X78220Y-77275D01*
X78220Y-77275D02*
X78220Y-76675D01*
X78220Y-76675D02*
X78620Y-76675D01*
X79020Y-76675D02*
X79420Y-76675D01*
X79420Y-76675D02*
X79420Y-77275D01*
X79420Y-77275D02*
X79020Y-77275D01*
X78220Y-76430D02*
G75*
G03X78220Y-76430I-50J0D01*
G74*
G01*
X78620Y-76430D02*
X78220Y-76430D01*
X78220Y-76430D02*
X78220Y-75830D01*
X78220Y-75830D02*
X78620Y-75830D01*
X79020Y-75830D02*
X79420Y-75830D01*
X79420Y-75830D02*
X79420Y-76430D01*
X79420Y-76430D02*
X79020Y-76430D01*
G54D10*
X76283Y-65723D02*
X72346Y-65723D01*
X72346Y-65723D02*
X72346Y-56196D01*
X72346Y-56196D02*
X76283Y-56196D01*
X76283Y-56196D02*
X76283Y-65723D01*
X79609Y-59636D02*
X79609Y-60620D01*
X79806Y-59439D02*
X80790Y-59439D01*
X79806Y-59439D02*
X79609Y-59636D01*
X79673Y-59439D02*
G75*
G03X79673Y-59439I-44J0D01*
G74*
G01*
X80790Y-59439D02*
X80790Y-60620D01*
X80790Y-60620D02*
X79609Y-60620D01*
G54D12*
X77010Y-63755D02*
G75*
G03X77010Y-63755I-50J0D01*
G74*
G01*
X76960Y-64205D02*
X76960Y-63805D01*
X76960Y-63805D02*
X77560Y-63805D01*
X77560Y-63805D02*
X77560Y-64205D01*
X77560Y-64605D02*
X77560Y-65005D01*
X77560Y-65005D02*
X76960Y-65005D01*
X76960Y-65005D02*
X76960Y-64605D01*
X78380Y-59355D02*
G75*
G03X78380Y-59355I-50J0D01*
G74*
G01*
X78330Y-59805D02*
X78330Y-59405D01*
X78330Y-59405D02*
X78930Y-59405D01*
X78930Y-59405D02*
X78930Y-59805D01*
X78930Y-60205D02*
X78930Y-60605D01*
X78930Y-60605D02*
X78330Y-60605D01*
X78330Y-60605D02*
X78330Y-60205D01*
X80840Y-58445D02*
G75*
G03X80840Y-58445I-50J0D01*
G74*
G01*
X80340Y-58445D02*
X80740Y-58445D01*
X80740Y-58445D02*
X80740Y-59045D01*
X80740Y-59045D02*
X80340Y-59045D01*
X79940Y-59045D02*
X79540Y-59045D01*
X79540Y-59045D02*
X79540Y-58445D01*
X79540Y-58445D02*
X79940Y-58445D01*
X79390Y-71985D02*
G75*
G03X79390Y-71985I-50J0D01*
G74*
G01*
X79340Y-72435D02*
X79340Y-72035D01*
X79340Y-72035D02*
X79940Y-72035D01*
X79940Y-72035D02*
X79940Y-72435D01*
X79940Y-72835D02*
X79940Y-73235D01*
X79940Y-73235D02*
X79340Y-73235D01*
X79340Y-73235D02*
X79340Y-72835D01*
G54D10*
X74175Y-69061D02*
X74044Y-68874D01*
X73950Y-69061D02*
X73950Y-68668D01*
X74100Y-68668D01*
X74138Y-68686D01*
X74156Y-68705D01*
X74175Y-68743D01*
X74175Y-68799D01*
X74156Y-68836D01*
X74138Y-68855D01*
X74100Y-68874D01*
X73950Y-68874D01*
X74475Y-68855D02*
X74344Y-68855D01*
X74344Y-69061D02*
X74344Y-68668D01*
X74531Y-68668D01*
X74888Y-69061D02*
X74663Y-69061D01*
X74775Y-69061D02*
X74775Y-68668D01*
X74738Y-68724D01*
X74700Y-68761D01*
X74663Y-68780D01*
X68952Y-77563D02*
X68971Y-77545D01*
X69008Y-77526D01*
X69102Y-77526D01*
X69140Y-77545D01*
X69158Y-77563D01*
X69177Y-77601D01*
X69177Y-77638D01*
X69158Y-77695D01*
X68933Y-77920D01*
X69177Y-77920D01*
X69514Y-77657D02*
X69514Y-77920D01*
X69421Y-77507D02*
X69327Y-77788D01*
X69571Y-77788D01*
X79679Y-77920D02*
X79454Y-77920D01*
X79567Y-77920D02*
X79567Y-77526D01*
X79529Y-77582D01*
X79492Y-77620D01*
X79454Y-77638D01*
G54D13*
X70104Y-63826D02*
X70468Y-63826D01*
X70511Y-63805D01*
X70532Y-63784D01*
X70554Y-63741D01*
X70554Y-63655D01*
X70532Y-63612D01*
X70511Y-63591D01*
X70468Y-63569D01*
X70104Y-63569D01*
X70147Y-63376D02*
X70125Y-63355D01*
X70104Y-63312D01*
X70104Y-63205D01*
X70125Y-63162D01*
X70147Y-63141D01*
X70189Y-63119D01*
X70232Y-63119D01*
X70297Y-63141D01*
X70554Y-63398D01*
X70554Y-63119D01*
G54D14*
X67898Y-60768D02*
X67908Y-60778D01*
X67917Y-60806D01*
X67917Y-60825D01*
X67908Y-60853D01*
X67889Y-60872D01*
X67870Y-60881D01*
X67833Y-60890D01*
X67805Y-60890D01*
X67767Y-60881D01*
X67748Y-60872D01*
X67730Y-60853D01*
X67720Y-60825D01*
X67720Y-60806D01*
X67730Y-60778D01*
X67739Y-60768D01*
X67720Y-60703D02*
X67720Y-60581D01*
X67795Y-60646D01*
X67795Y-60618D01*
X67805Y-60599D01*
X67814Y-60590D01*
X67833Y-60581D01*
X67880Y-60581D01*
X67898Y-60590D01*
X67908Y-60599D01*
X67917Y-60618D01*
X67917Y-60675D01*
X67908Y-60693D01*
X67898Y-60703D01*
X70052Y-75062D02*
X70062Y-75072D01*
X70071Y-75100D01*
X70071Y-75119D01*
X70062Y-75147D01*
X70043Y-75166D01*
X70024Y-75175D01*
X69987Y-75184D01*
X69959Y-75184D01*
X69921Y-75175D01*
X69902Y-75166D01*
X69884Y-75147D01*
X69874Y-75119D01*
X69874Y-75100D01*
X69884Y-75072D01*
X69893Y-75062D01*
X69940Y-74893D02*
X70071Y-74893D01*
X69865Y-74940D02*
X70006Y-74987D01*
X70006Y-74865D01*
X81131Y-62150D02*
X81037Y-62216D01*
X81131Y-62263D02*
X80934Y-62263D01*
X80934Y-62188D01*
X80944Y-62169D01*
X80953Y-62160D01*
X80972Y-62150D01*
X81000Y-62150D01*
X81019Y-62160D01*
X81028Y-62169D01*
X81037Y-62188D01*
X81037Y-62263D01*
X80934Y-61972D02*
X80934Y-62066D01*
X81028Y-62075D01*
X81019Y-62066D01*
X81009Y-62047D01*
X81009Y-62000D01*
X81019Y-61981D01*
X81028Y-61972D01*
X81047Y-61963D01*
X81094Y-61963D01*
X81112Y-61972D01*
X81122Y-61981D01*
X81131Y-62000D01*
X81131Y-62047D01*
X81122Y-62066D01*
X81112Y-62075D01*
X81115Y-61350D02*
X81021Y-61416D01*
X81115Y-61463D02*
X80918Y-61463D01*
X80918Y-61388D01*
X80928Y-61369D01*
X80937Y-61360D01*
X80956Y-61350D01*
X80984Y-61350D01*
X81003Y-61360D01*
X81012Y-61369D01*
X81021Y-61388D01*
X81021Y-61463D01*
X80984Y-61181D02*
X81115Y-61181D01*
X80909Y-61228D02*
X81050Y-61275D01*
X81050Y-61153D01*
X70059Y-76626D02*
X69965Y-76692D01*
X70059Y-76739D02*
X69862Y-76739D01*
X69862Y-76664D01*
X69872Y-76645D01*
X69881Y-76636D01*
X69900Y-76626D01*
X69928Y-76626D01*
X69947Y-76636D01*
X69956Y-76645D01*
X69965Y-76664D01*
X69965Y-76739D01*
X69862Y-76561D02*
X69862Y-76439D01*
X69937Y-76504D01*
X69937Y-76476D01*
X69947Y-76457D01*
X69956Y-76448D01*
X69975Y-76439D01*
X70022Y-76439D01*
X70040Y-76448D01*
X70050Y-76457D01*
X70059Y-76476D01*
X70059Y-76533D01*
X70050Y-76551D01*
X70040Y-76561D01*
X67913Y-61620D02*
X67819Y-61686D01*
X67913Y-61733D02*
X67716Y-61733D01*
X67716Y-61658D01*
X67726Y-61639D01*
X67735Y-61630D01*
X67754Y-61620D01*
X67782Y-61620D01*
X67801Y-61630D01*
X67810Y-61639D01*
X67819Y-61658D01*
X67819Y-61733D01*
X67716Y-61451D02*
X67716Y-61489D01*
X67726Y-61508D01*
X67735Y-61517D01*
X67763Y-61536D01*
X67801Y-61545D01*
X67876Y-61545D01*
X67894Y-61536D01*
X67904Y-61527D01*
X67913Y-61508D01*
X67913Y-61470D01*
X67904Y-61451D01*
X67894Y-61442D01*
X67876Y-61433D01*
X67829Y-61433D01*
X67810Y-61442D01*
X67801Y-61451D01*
X67791Y-61470D01*
X67791Y-61508D01*
X67801Y-61527D01*
X67810Y-61536D01*
X67829Y-61545D01*
X75319Y-67192D02*
X75309Y-67202D01*
X75281Y-67211D01*
X75262Y-67211D01*
X75234Y-67202D01*
X75215Y-67183D01*
X75206Y-67164D01*
X75197Y-67127D01*
X75197Y-67099D01*
X75206Y-67061D01*
X75215Y-67042D01*
X75234Y-67024D01*
X75262Y-67014D01*
X75281Y-67014D01*
X75309Y-67024D01*
X75319Y-67033D01*
X75394Y-67033D02*
X75403Y-67024D01*
X75422Y-67014D01*
X75469Y-67014D01*
X75488Y-67024D01*
X75497Y-67033D01*
X75506Y-67052D01*
X75506Y-67071D01*
X75497Y-67099D01*
X75384Y-67211D01*
X75506Y-67211D01*
X70528Y-60692D02*
X70538Y-60702D01*
X70547Y-60730D01*
X70547Y-60749D01*
X70538Y-60777D01*
X70519Y-60796D01*
X70500Y-60805D01*
X70463Y-60814D01*
X70435Y-60814D01*
X70397Y-60805D01*
X70378Y-60796D01*
X70360Y-60777D01*
X70350Y-60749D01*
X70350Y-60730D01*
X70360Y-60702D01*
X70369Y-60692D01*
X70547Y-60505D02*
X70547Y-60617D01*
X70547Y-60561D02*
X70350Y-60561D01*
X70378Y-60580D01*
X70397Y-60599D01*
X70407Y-60617D01*
X79181Y-77583D02*
X79115Y-77489D01*
X79068Y-77583D02*
X79068Y-77386D01*
X79143Y-77386D01*
X79162Y-77396D01*
X79171Y-77405D01*
X79181Y-77424D01*
X79181Y-77452D01*
X79171Y-77471D01*
X79162Y-77480D01*
X79143Y-77489D01*
X79068Y-77489D01*
X79256Y-77405D02*
X79265Y-77396D01*
X79284Y-77386D01*
X79331Y-77386D01*
X79350Y-77396D01*
X79359Y-77405D01*
X79368Y-77424D01*
X79368Y-77443D01*
X79359Y-77471D01*
X79246Y-77583D01*
X79368Y-77583D01*
X79199Y-75697D02*
X79133Y-75603D01*
X79086Y-75697D02*
X79086Y-75500D01*
X79161Y-75500D01*
X79180Y-75510D01*
X79189Y-75519D01*
X79199Y-75538D01*
X79199Y-75566D01*
X79189Y-75585D01*
X79180Y-75594D01*
X79161Y-75603D01*
X79086Y-75603D01*
X79386Y-75697D02*
X79274Y-75697D01*
X79330Y-75697D02*
X79330Y-75500D01*
X79311Y-75528D01*
X79292Y-75547D01*
X79274Y-75557D01*
G54D10*
X73844Y-54868D02*
X73844Y-55346D01*
X73872Y-55402D01*
X73900Y-55430D01*
X73956Y-55459D01*
X74069Y-55459D01*
X74125Y-55430D01*
X74153Y-55402D01*
X74181Y-55346D01*
X74181Y-54868D01*
X74772Y-55459D02*
X74434Y-55459D01*
X74603Y-55459D02*
X74603Y-54868D01*
X74547Y-54952D01*
X74490Y-55009D01*
X74434Y-55037D01*
X69450Y-59972D02*
X69638Y-59972D01*
X69413Y-60085D02*
X69544Y-59691D01*
X69675Y-60085D01*
X69788Y-59729D02*
X69806Y-59710D01*
X69844Y-59691D01*
X69938Y-59691D01*
X69975Y-59710D01*
X69994Y-59729D01*
X70013Y-59766D01*
X70013Y-59804D01*
X69994Y-59860D01*
X69769Y-60085D01*
X70013Y-60085D01*
X81143Y-59651D02*
X81331Y-59651D01*
X81106Y-59764D02*
X81237Y-59370D01*
X81368Y-59764D01*
X81706Y-59764D02*
X81481Y-59764D01*
X81593Y-59764D02*
X81593Y-59370D01*
X81556Y-59426D01*
X81518Y-59464D01*
X81481Y-59483D01*
G54D14*
X77227Y-65256D02*
X77217Y-65266D01*
X77189Y-65275D01*
X77170Y-65275D01*
X77142Y-65266D01*
X77123Y-65247D01*
X77114Y-65228D01*
X77105Y-65191D01*
X77105Y-65163D01*
X77114Y-65125D01*
X77123Y-65106D01*
X77142Y-65088D01*
X77170Y-65078D01*
X77189Y-65078D01*
X77217Y-65088D01*
X77227Y-65097D01*
X77405Y-65078D02*
X77311Y-65078D01*
X77302Y-65172D01*
X77311Y-65163D01*
X77330Y-65153D01*
X77377Y-65153D01*
X77396Y-65163D01*
X77405Y-65172D01*
X77414Y-65191D01*
X77414Y-65238D01*
X77405Y-65256D01*
X77396Y-65266D01*
X77377Y-65275D01*
X77330Y-65275D01*
X77311Y-65266D01*
X77302Y-65256D01*
X78168Y-60050D02*
X78178Y-60060D01*
X78187Y-60088D01*
X78187Y-60107D01*
X78178Y-60135D01*
X78159Y-60154D01*
X78140Y-60163D01*
X78103Y-60172D01*
X78075Y-60172D01*
X78037Y-60163D01*
X78018Y-60154D01*
X78000Y-60135D01*
X77990Y-60107D01*
X77990Y-60088D01*
X78000Y-60060D01*
X78009Y-60050D01*
X77990Y-59881D02*
X77990Y-59919D01*
X78000Y-59938D01*
X78009Y-59947D01*
X78037Y-59966D01*
X78075Y-59975D01*
X78150Y-59975D01*
X78168Y-59966D01*
X78178Y-59957D01*
X78187Y-59938D01*
X78187Y-59900D01*
X78178Y-59881D01*
X78168Y-59872D01*
X78150Y-59863D01*
X78103Y-59863D01*
X78084Y-59872D01*
X78075Y-59881D01*
X78065Y-59900D01*
X78065Y-59938D01*
X78075Y-59957D01*
X78084Y-59966D01*
X78103Y-59975D01*
X80102Y-58300D02*
X80092Y-58310D01*
X80064Y-58319D01*
X80045Y-58319D01*
X80017Y-58310D01*
X79998Y-58291D01*
X79989Y-58272D01*
X79980Y-58235D01*
X79980Y-58207D01*
X79989Y-58169D01*
X79998Y-58150D01*
X80017Y-58132D01*
X80045Y-58122D01*
X80064Y-58122D01*
X80092Y-58132D01*
X80102Y-58141D01*
X80167Y-58122D02*
X80299Y-58122D01*
X80214Y-58319D01*
X79609Y-71838D02*
X79599Y-71848D01*
X79571Y-71857D01*
X79552Y-71857D01*
X79524Y-71848D01*
X79505Y-71829D01*
X79496Y-71810D01*
X79487Y-71773D01*
X79487Y-71745D01*
X79496Y-71707D01*
X79505Y-71688D01*
X79524Y-71670D01*
X79552Y-71660D01*
X79571Y-71660D01*
X79599Y-71670D01*
X79609Y-71679D01*
X79721Y-71745D02*
X79702Y-71735D01*
X79693Y-71726D01*
X79684Y-71707D01*
X79684Y-71698D01*
X79693Y-71679D01*
X79702Y-71670D01*
X79721Y-71660D01*
X79759Y-71660D01*
X79778Y-71670D01*
X79787Y-71679D01*
X79796Y-71698D01*
X79796Y-71707D01*
X79787Y-71726D01*
X79778Y-71735D01*
X79759Y-71745D01*
X79721Y-71745D01*
X79702Y-71754D01*
X79693Y-71763D01*
X79684Y-71782D01*
X79684Y-71820D01*
X79693Y-71838D01*
X79702Y-71848D01*
X79721Y-71857D01*
X79759Y-71857D01*
X79778Y-71848D01*
X79787Y-71838D01*
X79796Y-71820D01*
X79796Y-71782D01*
X79787Y-71763D01*
X79778Y-71754D01*
X79759Y-71745D01*
M02*
